<svg width="16" height="14" viewBox="0 0 16 14" fill="none" xmlns="http://www.w3.org/2000/svg">
<path fill-rule="evenodd" clip-rule="evenodd" d="M14.9107 7.68571C15.2435 7.63989 15.5 7.35039 15.5 7.00009C15.5 6.61795 15.1947 6.30816 14.8182 6.30816L2.83339 6.30816L7.16276 1.93222L7.22893 1.85475C7.42753 1.58429 7.40631 1.19984 7.16475 0.953677C6.89904 0.682901 6.46733 0.681994 6.20052 0.951651L0.710232 6.50036C0.677528 6.53215 0.64794 6.56722 0.621978 6.60504C0.43614 6.87525 0.462336 7.25007 0.700557 7.49078L6.20056 13.0484L6.27717 13.1152C6.54452 13.3156 6.92325 13.2925 7.16479 13.0463C7.43048 12.7755 7.42955 12.3374 7.16271 12.0677L2.83231 7.69202L14.8182 7.69202L14.9107 7.68571Z" fill="#06989D"/>
</svg>
