<svg width="143" height="36" viewBox="0 0 143 36" fill="none" xmlns="http://www.w3.org/2000/svg">
<path fill-rule="evenodd" clip-rule="evenodd" d="M26.6857 11.0893C26.6399 10.7565 26.3504 10.5 26.0001 10.5C25.6179 10.5 25.3082 10.8053 25.3082 11.1818V23.1666L20.9322 18.8372L20.8547 18.7711C20.5843 18.5725 20.1998 18.5937 19.9537 18.8352C19.6829 19.101 19.682 19.5327 19.9517 19.7995L25.5004 25.2898C25.5322 25.3225 25.5672 25.3521 25.605 25.378C25.8752 25.5639 26.2501 25.5377 26.4908 25.2994L32.0484 19.7994L32.1152 19.7228C32.3156 19.4555 32.2925 19.0767 32.0463 18.8352C31.7755 18.5695 31.3374 18.5704 31.0677 18.8373L26.692 23.1677V11.1818L26.6857 11.0893Z" fill="#06989D"/>
<path d="M46.3331 12.8182L50.027 19.0028V23H51.5582V19.0028L55.2521 12.8182H53.5071L50.8473 17.4467H50.7379L48.0781 12.8182H46.3331ZM60.8601 19.8331C60.8651 21.1307 59.9006 21.7472 59.0653 21.7472C58.1456 21.7472 57.5092 21.081 57.5092 20.0419V15.3636H56.0227V20.2209C56.0227 22.1151 57.0618 23.0994 58.5284 23.0994C59.6768 23.0994 60.4574 22.4929 60.8104 21.6776H60.8899V23H62.3516V15.3636H60.8601V19.8331ZM64.3489 23H65.8354V20.2905L66.5762 19.5497L69.1713 23H70.9959L67.6948 18.6399L70.7871 15.3636H69.0073L65.9647 18.5952H65.8354V12.8182H64.3489V23ZM73.6284 12.8182H72.1419V23H73.6284V12.8182ZM77.8505 23.169C79.1133 23.169 79.8242 22.5277 80.1076 21.956H80.1673V23H81.619V17.929C81.619 15.7067 79.869 15.2642 78.6559 15.2642C77.2738 15.2642 76.0011 15.821 75.5039 17.2131L76.9009 17.5312C77.1197 16.9893 77.6765 16.4673 78.6758 16.4673C79.6353 16.4673 80.1275 16.9695 80.1275 17.8345V17.8693C80.1275 18.4112 79.5707 18.4013 78.1985 18.5604C76.7518 18.7294 75.2702 19.1072 75.2702 20.8423C75.2702 22.3438 76.3988 23.169 77.8505 23.169ZM78.1737 21.9759C77.3335 21.9759 76.7269 21.598 76.7269 20.8622C76.7269 20.0668 77.4329 19.7834 78.293 19.669C78.7752 19.6044 79.9187 19.4751 80.1325 19.2614V20.2457C80.1325 21.1506 79.4116 21.9759 78.1737 21.9759ZM83.7182 23H85.1699V21.8118H85.2942C85.5627 22.299 86.1096 23.1491 87.5016 23.1491C89.351 23.1491 90.6934 21.6676 90.6934 19.1967C90.6934 16.7209 89.3311 15.2642 87.4867 15.2642C86.0698 15.2642 85.5577 16.1293 85.2942 16.6016H85.2047V12.8182H83.7182V23ZM85.1749 19.1818C85.1749 17.5859 85.8709 16.527 87.1685 16.527C88.5158 16.527 89.1919 17.6655 89.1919 19.1818C89.1919 20.7131 88.4959 21.8814 87.1685 21.8814C85.8908 21.8814 85.1749 20.7876 85.1749 19.1818ZM99.2843 23.1541C101.437 23.1541 102.844 21.5781 102.844 19.2166C102.844 16.8402 101.437 15.2642 99.2843 15.2642C97.1316 15.2642 95.7246 16.8402 95.7246 19.2166C95.7246 21.5781 97.1316 23.1541 99.2843 23.1541ZM99.2892 21.9062C97.8823 21.9062 97.226 20.6783 97.226 19.2116C97.226 17.75 97.8823 16.5071 99.2892 16.5071C100.686 16.5071 101.343 17.75 101.343 19.2116C101.343 20.6783 100.686 21.9062 99.2892 21.9062ZM105.99 12.8182H104.503V23H105.99V12.8182ZM107.99 23H109.476V15.3636H107.99V23ZM108.74 14.1854C109.252 14.1854 109.68 13.7876 109.68 13.3004C109.68 12.8132 109.252 12.4105 108.74 12.4105C108.223 12.4105 107.801 12.8132 107.801 13.3004C107.801 13.7876 108.223 14.1854 108.74 14.1854ZM117.198 17.228C116.89 16.0398 115.96 15.2642 114.31 15.2642C112.585 15.2642 111.362 16.174 111.362 17.5263C111.362 18.6101 112.018 19.331 113.45 19.6491L114.742 19.9325C115.478 20.0966 115.821 20.4247 115.821 20.902C115.821 21.4936 115.19 21.956 114.215 21.956C113.325 21.956 112.754 21.5732 112.575 20.8224L111.138 21.0412C111.386 22.3935 112.51 23.1541 114.225 23.1541C116.07 23.1541 117.347 22.1747 117.347 20.7926C117.347 19.7138 116.661 19.0476 115.259 18.7244L114.046 18.446C113.206 18.2472 112.843 17.9638 112.848 17.4467C112.843 16.8601 113.479 16.4425 114.325 16.4425C115.249 16.4425 115.677 16.9545 115.851 17.4666L117.198 17.228ZM120.468 18.4659C120.468 17.2479 121.239 16.5518 122.298 16.5518C123.322 16.5518 123.933 17.2031 123.933 18.3217V23H125.42V18.1428C125.42 16.2386 124.376 15.2642 122.805 15.2642C121.617 15.2642 120.901 15.7812 120.543 16.6065H120.448V12.8182H118.982V23H120.468V18.4659Z" fill="#06989D"/>
<rect x="0.5" y="0.5" width="142" height="35" rx="7.5" stroke="#06989D"/>
</svg>
