<svg width="104" height="95" viewBox="0 0 104 95" fill="none" xmlns="http://www.w3.org/2000/svg">
<circle cx="47.3451" cy="47.3451" r="47.3451" fill="#EBF1F5"/>
<circle cx="46.9577" cy="47.426" r="27.3112" fill="#F5F8FA" stroke="#BFCCD6" stroke-width="2"/>
<circle cx="46.9586" cy="47.426" r="19.2223" fill="#FFFEFF" stroke="#BFCCD6" stroke-width="2"/>
<path d="M46.9576 32.5588C46.9576 32.2619 46.7167 32.0201 46.4199 32.0305C42.7045 32.1602 39.154 33.6302 36.4309 36.1789C33.7077 38.7276 32.0063 42.1732 31.6313 45.8719C31.6014 46.1674 31.8266 46.4237 32.1229 46.4434C32.4192 46.463 32.6743 46.2385 32.7051 45.9431C33.0615 42.5167 34.6418 39.3263 37.1657 36.964C39.6896 34.6018 42.9775 33.2357 46.42 33.1066C46.7167 33.0955 46.9576 32.8558 46.9576 32.5588Z" fill="#BFCCD6"/>
<rect x="67.0311" y="73.4485" width="9.91563" height="28.3854" rx="4.95781" transform="rotate(-45 67.0311 73.4485)" fill="#F5F8FA" stroke="#BFCCD6" stroke-width="2"/>
<rect x="77.2598" y="75.6718" width="1.28521" height="10.7761" rx="0.642603" transform="rotate(-45 77.2598 75.6718)" fill="white"/>
<rect x="66.5742" y="66.9133" width="1.31927" height="5.27708" transform="rotate(-45 66.5742 66.9133)" fill="#BFCCD6"/>
<rect x="81.5723" y="44.1039" width="13.1927" height="1.31927" rx="0.659635" fill="#BFCCD6"/>
<rect y="55.0175" width="13.1927" height="1.31927" rx="0.659635" fill="#BFCCD6"/>
<rect x="97.4043" y="44.1039" width="6.59635" height="1.31927" rx="0.659635" fill="#BFCCD6"/>
<rect x="84.8711" y="48.9445" width="6.59635" height="1.31927" rx="0.659635" fill="#BFCCD6"/>
<rect x="3.29883" y="59.8579" width="6.59635" height="1.31927" rx="0.659635" fill="#BFCCD6"/>
</svg>
