<svg width="19" height="21" viewBox="0 0 19 21" fill="none" xmlns="http://www.w3.org/2000/svg">
<path fill-rule="evenodd" clip-rule="evenodd" d="M18.4936 4.90691C18.3848 2.55946 16.4478 0.690247 14.0734 0.690247H9.18938L8.98056 0.695071C6.62755 0.804032 4.75438 2.74483 4.75438 5.12425V6.05725L4.76123 6.15902C4.81089 6.52509 5.12469 6.80725 5.50438 6.80725C5.9186 6.80725 6.25438 6.47146 6.25438 6.05725V5.12425L6.25936 4.9518C6.34859 3.41122 7.62564 2.19025 9.18938 2.19025H14.0734L14.2453 2.19521C15.781 2.28415 16.9984 3.55717 16.9984 5.11525V16.2552L16.9934 16.4277C16.9041 17.9682 15.6263 19.1902 14.0634 19.1902H9.17838L9.00661 19.1853C7.47199 19.0963 6.25438 17.8226 6.25438 16.2652V15.3232L6.24754 15.2215C6.19788 14.8554 5.88408 14.5732 5.50438 14.5732C5.09017 14.5732 4.75438 14.909 4.75438 15.3232V16.2652L4.75949 16.4796C4.87131 18.8234 6.80715 20.6902 9.17838 20.6902H14.0634L14.2721 20.6854C16.6245 20.5764 18.4984 18.6345 18.4984 16.2552V5.11525L18.4936 4.90691ZM9.35337 7.24481C9.61909 6.97799 10.0357 6.95293 10.3298 7.17018L10.414 7.24263L13.342 10.1586C13.6096 10.4251 13.6339 10.8432 13.415 11.1372L13.4123 11.1404C13.3914 11.1682 13.3685 11.1946 13.344 11.2192L13.342 11.2215L10.414 14.1375C10.1205 14.4298 9.64566 14.4288 9.35337 14.1353C9.08765 13.8685 9.0643 13.4518 9.28275 13.1586L9.35555 13.0746L10.9963 11.44H0.771484C0.357271 11.44 0.0214844 11.1043 0.0214844 10.69C0.0214844 10.3104 0.303638 9.99656 0.669714 9.94689L0.771484 9.94005H10.9961L9.35555 8.30546C9.08873 8.03975 9.06367 7.62313 9.28092 7.32907L9.35337 7.24481Z" fill="#06989D"/>
</svg>
