<svg width="16" height="16" viewBox="0 0 16 16" fill="none" xmlns="http://www.w3.org/2000/svg">
<path fill-rule="evenodd" clip-rule="evenodd" d="M14.4699 3.06095C14.6776 2.12384 13.8062 1.27824 12.8626 1.5513L2.42492 4.58846L2.32419 4.62195C1.34446 4.99066 1.19414 6.35516 2.11179 6.92007L6.42881 9.57731L9.02599 13.88L9.08434 13.9689C9.69317 14.8219 11.0414 14.6152 11.3487 13.5813L14.4455 3.15492L14.4699 3.06095ZM13.1899 2.50207C13.3824 2.4814 13.5469 2.66866 13.487 2.86974L10.3901 13.2964L10.3698 13.3475C10.273 13.5379 9.99919 13.5572 9.88215 13.3633L7.42348 9.29064L10.9251 5.76642L10.9734 5.71018C11.118 5.51396 11.1009 5.23623 10.9228 5.05932L10.8666 5.01109C10.6703 4.86651 10.3926 4.88357 10.2157 5.06167L6.71881 8.58131L2.63599 6.06848L2.59191 6.03537C2.43336 5.89093 2.48673 5.61179 2.70399 5.54873L13.1413 2.51168L13.1899 2.50207Z" fill="white"/>
</svg>
