<svg width="18" height="14" viewBox="0 0 18 14" fill="none" xmlns="http://www.w3.org/2000/svg">
<path fill-rule="evenodd" clip-rule="evenodd" d="M9.24019 0.337359L9.00169 0.333344C5.55092 0.333344 2.44107 2.76924 0.717449 6.75487C0.649766 6.91138 0.649766 7.08864 0.717449 7.24515L0.836886 7.514C2.53867 11.2443 5.47956 13.5536 8.75985 13.6627L8.99835 13.6667C12.4491 13.6667 15.559 11.2308 17.2826 7.24515C17.3511 7.08667 17.3502 6.907 17.2801 6.74921L17.1641 6.48804C15.4581 2.75077 12.516 0.446232 9.24019 0.337359ZM9.00752 1.57453L9.20664 1.57881L9.42914 1.59039C12.0935 1.77904 14.5438 3.75462 16.0242 6.99927L16.0164 7.01929C14.4989 10.3337 11.9641 12.3211 9.21576 12.4208L9.00335 12.424L8.78913 12.4211L8.56719 12.4096C5.98561 12.2267 3.60533 10.362 2.11597 7.29976L1.97502 6.99927L2.1055 6.72184C3.676 3.47763 6.24292 1.57523 9.00752 1.57453ZM8.9996 3.76123C7.19927 3.76123 5.74044 5.21095 5.74044 7.00018C5.74044 8.78873 7.19943 10.2383 8.9996 10.2383C10.7999 10.2383 12.2596 8.78863 12.2596 7.00018C12.2596 5.21105 10.8 3.76123 8.9996 3.76123ZM8.9996 5.00316C10.1097 5.00316 11.0096 5.89701 11.0096 7.00018C11.0096 8.10261 10.1096 8.99637 8.9996 8.99637C7.88978 8.99637 6.99044 8.10283 6.99044 7.00018C6.99044 5.89679 7.88968 5.00316 8.9996 5.00316Z" fill="#5C7080"/>
</svg>
