<svg width="62" height="61" viewBox="0 0 62 61" fill="none" xmlns="http://www.w3.org/2000/svg">
<path d="M30.9119 4.88745C38.0304 4.88745 44.4751 7.73423 49.1402 12.3368C53.8053 16.9394 56.6907 23.2978 56.6907 30.3211C56.6907 37.3444 53.8053 43.7028 49.1402 48.3054C44.4751 52.908 38.0304 55.7547 30.9119 55.7547C23.7933 55.7547 17.3486 52.908 12.6835 48.3054C8.01845 43.7028 5.13306 37.3444 5.13306 30.3211C5.13306 23.2978 8.01845 16.9394 12.6835 12.3368C17.3486 7.73423 23.7933 4.88745 30.9119 4.88745ZM48.4895 12.9788C43.991 8.54055 37.7764 5.79544 30.9119 5.79544C24.0473 5.79544 17.8327 8.54055 13.3342 12.9788C8.83573 17.4171 6.05335 23.5485 6.05335 30.3211C6.05335 37.0937 8.83573 43.2251 13.3342 47.6634C17.8327 52.1016 24.0473 54.8467 30.9119 54.8467C37.7764 54.8467 43.991 52.1016 48.4895 47.6634C52.988 43.2251 55.7704 37.0937 55.7704 30.3211C55.7704 23.5485 52.988 17.4171 48.4895 12.9788Z" fill="white"/>
<path d="M30.9119 9.479C36.7453 9.479 42.0266 11.8118 45.8495 15.5835C49.6724 19.3552 52.0369 24.5658 52.0369 30.3211C52.0369 36.0765 49.6724 41.287 45.8495 45.0587C42.0266 48.8304 36.7453 51.1632 30.9119 51.1632C25.0784 51.1632 19.7971 48.8304 15.9743 45.0587C12.1514 41.287 9.78687 36.0765 9.78687 30.3211C9.78687 24.5658 12.1514 19.3552 15.9743 15.5835C19.7971 11.8118 25.0784 9.479 30.9119 9.479ZM45.4157 16.0115C41.7038 12.3494 36.576 10.0843 30.9119 10.0843C25.2477 10.0843 20.1199 12.3494 16.408 16.0115C12.6962 19.6737 10.4004 24.7329 10.4004 30.3211C10.4004 35.9094 12.6962 40.9686 16.408 44.6307C20.1199 48.2929 25.2477 50.5579 30.9119 50.5579C36.576 50.5579 41.7038 48.2929 45.4157 44.6307C49.1275 40.9686 51.4233 35.9094 51.4233 30.3211C51.4233 24.7329 49.1275 19.6737 45.4157 16.0115Z" fill="white"/>
<path d="M50.9286 31.3792V29.2632C50.9286 29.1415 50.8332 29.0406 50.7102 29.0322L48.7741 28.8992C48.7258 28.3015 48.6475 27.7123 48.5406 27.1328L50.3737 26.5106C50.4903 26.4711 50.556 26.3493 50.5241 26.2318L49.969 24.1879C49.9371 24.0704 49.8184 23.9973 49.6975 24.0206L47.7958 24.3859C47.5926 23.8234 47.3618 23.274 47.1042 22.7394L48.711 21.6709C48.8132 21.6029 48.8447 21.4684 48.783 21.3631L47.7107 19.5306C47.6491 19.4252 47.5153 19.3849 47.4045 19.4383L45.6605 20.2782C45.3176 19.789 44.9506 19.3178 44.5608 18.8661L45.8352 17.4206C45.9161 17.3288 45.9113 17.1909 45.8241 17.1049L44.3076 15.6087C44.2204 15.5226 44.0806 15.5179 43.9876 15.5977L42.5224 16.8551C42.0646 16.4705 41.5869 16.1083 41.0912 15.7701L41.9425 14.0494C41.9966 13.9401 41.9557 13.8081 41.8489 13.7473L39.9916 12.6893C39.8848 12.6285 39.7486 12.6596 39.6796 12.7604L38.5966 14.3457C38.0548 14.0916 37.4979 13.8638 36.9278 13.6634L37.298 11.7872C37.3216 11.6678 37.2475 11.5507 37.1284 11.5192L35.0568 10.9716C34.9377 10.9401 34.8142 11.0049 34.7742 11.1199L34.1436 12.9286C33.5563 12.8231 32.959 12.7458 32.3532 12.6982L32.2184 10.788C32.2099 10.6666 32.1076 10.5725 31.9843 10.5725H29.8396C29.7163 10.5725 29.614 10.6666 29.6054 10.788L29.4707 12.6982C28.8649 12.7458 28.2676 12.8231 27.6803 12.9286L27.0497 11.1199C27.0096 11.0049 26.8861 10.9401 26.767 10.9716L24.6954 11.5192C24.5763 11.5507 24.5023 11.6678 24.5258 11.7872L24.8961 13.6634C24.326 13.8638 23.7691 14.0916 23.2273 14.3457L22.1442 12.7604C22.0753 12.6596 21.939 12.6285 21.8322 12.6893L19.9749 13.7473C19.8682 13.8081 19.8273 13.9401 19.8814 14.0494L20.7327 15.7701C20.2369 16.1083 19.7592 16.4705 19.3014 16.8551L17.8363 15.5977C17.7432 15.5179 17.6034 15.5226 17.5163 15.6087L15.9997 17.1049C15.9125 17.1909 15.9077 17.3288 15.9886 17.4206L17.2631 18.8661C16.8733 19.3178 16.5062 19.789 16.1634 20.2782L14.4194 19.4383C14.3085 19.3849 14.1748 19.4252 14.1132 19.5306L13.0408 21.3631C12.9792 21.4684 13.0106 21.6029 13.1129 21.6709L14.7197 22.7394C14.4621 23.274 14.2313 23.8234 14.0281 24.3859L12.1264 24.0206C12.0054 23.9973 11.8868 24.0704 11.8548 24.1879L11.2998 26.2318C11.2679 26.3493 11.3335 26.4711 11.4501 26.5106L13.2833 27.1328C13.1763 27.7123 13.098 28.3015 13.0498 28.8992L11.1137 29.0322C10.9907 29.0406 10.8953 29.1415 10.8953 29.2632V31.3792C10.8953 31.5008 10.9907 31.6017 11.1137 31.6102L13.0498 31.7431C13.098 32.3408 13.1763 32.9301 13.2833 33.5095L11.4501 34.1316C11.3335 34.1712 11.2679 34.2931 11.2998 34.4106L11.8548 36.4544C11.8868 36.5719 12.0054 36.645 12.1264 36.6218L14.0281 36.2564C14.2313 36.8189 14.4621 37.3683 14.7197 37.9029L13.1129 38.9715C13.0106 39.0395 12.9792 39.1739 13.0408 39.2793L14.1132 41.1117C14.1748 41.217 14.3085 41.2574 14.4194 41.204L16.1634 40.3641C16.5062 40.8532 16.8733 41.3245 17.2631 41.7762L15.9886 43.2218C15.9077 43.3135 15.9125 43.4514 15.9997 43.5375L17.5163 45.0337C17.6034 45.1197 17.7432 45.1245 17.8363 45.0446L19.3014 43.7872C19.7592 44.1718 20.2369 44.534 20.7327 44.8722L19.8814 46.5929C19.8273 46.7022 19.8682 46.8342 19.9749 46.895L21.8322 47.953C21.939 48.0138 22.0753 47.9828 22.1442 47.8819L23.2273 46.2966C23.7691 46.5507 24.326 46.7785 24.8961 46.9789L24.5258 48.8552C24.5023 48.9745 24.5763 49.0916 24.6954 49.1231L26.767 49.6707C26.8861 49.7022 27.0096 49.6374 27.0497 49.5224L27.6803 47.7138C28.2676 47.8193 28.8649 47.8965 29.4707 47.9441L29.6054 49.8543C29.614 49.9757 29.7163 50.0698 29.8396 50.0698H31.9843C32.1076 50.0698 32.2099 49.9757 32.2184 49.8543L32.3532 47.9441C32.959 47.8965 33.5563 47.8193 34.1436 47.7138L34.7741 49.5224C34.8142 49.6374 34.9377 49.7022 35.0568 49.6707L37.1284 49.1231C37.2475 49.0916 37.3216 48.9745 37.298 48.8552L36.9278 46.9789C37.4979 46.7785 38.0548 46.5507 38.5966 46.2966L39.6796 47.8819C39.7486 47.9828 39.8848 48.0138 39.9916 47.953L41.8489 46.895C41.9557 46.8342 41.9966 46.7022 41.9425 46.5929L41.0912 44.8722C41.5869 44.534 42.0646 44.1718 42.5224 43.7872L43.9876 45.0446C44.0806 45.1245 44.2204 45.1197 44.3076 45.0337L45.8241 43.5375C45.9113 43.4514 45.9161 43.3135 45.8352 43.2218L44.5608 41.7762C44.9506 41.3245 45.3176 40.8532 45.6605 40.3641L47.4045 41.204C47.5153 41.2574 47.6491 41.217 47.7107 41.1117L48.783 39.2793C48.8447 39.1739 48.8132 39.0395 48.711 38.9715L47.1042 37.9029C47.3618 37.3683 47.5926 36.8189 47.7958 36.2564L49.6975 36.6218C49.8184 36.645 49.9371 36.5719 49.969 36.4544L50.5241 34.4106C50.556 34.2931 50.4903 34.1712 50.3737 34.1316L48.5406 33.5095C48.6475 32.9301 48.7258 32.3408 48.7741 31.7431L50.7102 31.6102C50.8332 31.6017 50.9286 31.5008 50.9286 31.3792ZM31.0478 45.7318C22.3132 45.8052 15.2178 38.8047 15.2921 30.1871C15.3642 21.8197 22.2951 14.9817 30.776 14.9105C39.5106 14.8372 46.6061 21.8376 46.5317 30.4553C46.4596 38.8226 39.5288 45.6607 31.0478 45.7318Z" fill="white"/>
<path fill-rule="evenodd" clip-rule="evenodd" d="M20.0981 38.0721C22.6499 38.0224 27.9037 39.1401 30.8995 41.8347C29.8147 41.5035 28.3727 39.9097 20.279 40.4276L20.0981 38.0721Z" fill="white"/>
<path fill-rule="evenodd" clip-rule="evenodd" d="M41.7253 38.0721C39.1736 38.0224 33.9094 39.14 30.9136 41.8347C31.9985 41.5034 33.4508 39.9097 41.5444 40.4276L41.7253 38.0721Z" fill="white"/>
<path fill-rule="evenodd" clip-rule="evenodd" d="M18.8034 34.6877C22.9901 34.8711 28.676 37.882 30.8968 40.6978C30.1049 40.1428 24.564 36.3667 18.7385 37.0245L18.8034 34.6877Z" fill="white"/>
<path fill-rule="evenodd" clip-rule="evenodd" d="M43.0204 34.6875C38.8337 34.8708 33.1478 37.8818 30.927 40.6976C31.7189 40.1426 37.2598 36.3665 43.0853 37.0243L43.0204 34.6875Z" fill="white"/>
<path fill-rule="evenodd" clip-rule="evenodd" d="M17.0265 30.79C21.2132 30.9734 27.2961 34.581 30.8967 39.6067C25.6467 35.3854 22.5225 33.9516 16.9617 34.1245L17.0265 30.79Z" fill="white"/>
<path fill-rule="evenodd" clip-rule="evenodd" d="M44.797 30.79C40.6103 30.9734 34.5274 34.581 30.9268 39.6067C36.1767 35.3854 39.301 33.9516 44.8618 34.1245L44.797 30.79Z" fill="white"/>
<path d="M30.9323 34.9528C31.5981 34.9528 32.1379 34.4203 32.1379 33.7634C32.1379 33.1065 31.5981 32.574 30.9323 32.574C30.2665 32.574 29.7268 33.1065 29.7268 33.7634C29.7268 34.4203 30.2665 34.9528 30.9323 34.9528Z" fill="white"/>
<path d="M35.2075 31.263C35.8979 31.263 36.4576 30.7108 36.4576 30.0296C36.4576 29.3484 35.8979 28.7961 35.2075 28.7961C34.517 28.7961 33.9573 29.3484 33.9573 30.0296C33.9573 30.7108 34.517 31.263 35.2075 31.263Z" fill="white"/>
<path d="M23.7199 30.7232C24.4893 30.7232 25.113 30.1078 25.113 29.3488C25.113 28.5897 24.4893 27.9744 23.7199 27.9744C22.9506 27.9744 22.3269 28.5897 22.3269 29.3488C22.3269 30.1078 22.9506 30.7232 23.7199 30.7232Z" fill="white"/>
<path d="M31.5576 27.2503C32.6426 27.2503 33.5221 26.3825 33.5221 25.312C33.5221 24.2416 32.6426 23.3738 31.5576 23.3738C30.4726 23.3738 29.593 24.2416 29.593 25.312C29.593 26.3825 30.4726 27.2503 31.5576 27.2503Z" fill="white"/>
<path d="M29.1104 30.3747C29.5839 30.3747 29.9677 29.996 29.9677 29.5289C29.9677 29.0618 29.5839 28.6831 29.1104 28.6831C28.637 28.6831 28.2532 29.0618 28.2532 29.5289C28.2532 29.996 28.637 30.3747 29.1104 30.3747Z" fill="white"/>
<path d="M22.546 25.7191C23.0195 25.7191 23.4033 25.3405 23.4033 24.8734C23.4033 24.4063 23.0195 24.0276 22.546 24.0276C22.0725 24.0276 21.6887 24.4063 21.6887 24.8734C21.6887 25.3405 22.0725 25.7191 22.546 25.7191Z" fill="white"/>
<path d="M39.4356 29.591C39.9091 29.591 40.2929 29.2123 40.2929 28.7452C40.2929 28.2781 39.9091 27.8994 39.4356 27.8994C38.9622 27.8994 38.5784 28.2781 38.5784 28.7452C38.5784 29.2123 38.9622 29.591 39.4356 29.591Z" fill="white"/>
<path d="M31.9366 20.4296C32.4101 20.4296 32.7939 20.0509 32.7939 19.5838C32.7939 19.1167 32.4101 18.738 31.9366 18.738C31.4632 18.738 31.0793 19.1167 31.0793 19.5838C31.0793 20.0509 31.4632 20.4296 31.9366 20.4296Z" fill="white"/>
<path d="M38.9159 22.8919C39.4584 22.8919 39.8982 22.458 39.8982 21.9227C39.8982 21.3875 39.4584 20.9536 38.9159 20.9536C38.3734 20.9536 37.9336 21.3875 37.9336 21.9227C37.9336 22.458 38.3734 22.8919 38.9159 22.8919Z" fill="white"/>
<path d="M36.5834 25.0069C36.8793 25.0069 37.1192 24.7703 37.1192 24.4783C37.1192 24.1864 36.8793 23.9497 36.5834 23.9497C36.2875 23.9497 36.0476 24.1864 36.0476 24.4783C36.0476 24.7703 36.2875 25.0069 36.5834 25.0069Z" fill="white"/>
<path d="M26.5499 24.9464C26.8458 24.9464 27.0857 24.7097 27.0857 24.4178C27.0857 24.1258 26.8458 23.8892 26.5499 23.8892C26.254 23.8892 26.0142 24.1258 26.0142 24.4178C26.0142 24.7097 26.254 24.9464 26.5499 24.9464Z" fill="white"/>
<path d="M27.2919 20.7388C27.6668 20.7388 27.9706 20.439 27.9706 20.0692C27.9706 19.6994 27.6668 19.3997 27.2919 19.3997C26.9171 19.3997 26.6133 19.6994 26.6133 20.0692C26.6133 20.439 26.9171 20.7388 27.2919 20.7388Z" fill="white"/>
<path d="M22.5864 24.5833L27.1184 20.1235L27.3067 20.3104L22.7748 24.7701L22.5864 24.5833Z" fill="white"/>
<path d="M27.4475 19.9128L32.178 19.5325L32.1989 19.7957L27.4684 20.176L27.4475 19.9128Z" fill="white"/>
<path d="M32.0297 19.5547L39.1527 21.8605L39.0537 21.969L39.6078 29.2416L36.4149 24.4653L38.6792 21.9849L31.947 19.8056L32.0297 19.5547ZM38.806 22.2403L36.7515 24.4909L39.2638 28.249L38.806 22.2403Z" fill="white"/>
<path d="M32.2086 19.6299L36.8495 24.5675L31.4139 25.4696L31.7418 19.9994L26.6068 24.5439L22.5611 25.0043L22.5308 24.7421L26.4928 24.2912L32.047 19.3757L32.0215 19.8017L32.2086 19.6299ZM36.3166 24.3885L32.0205 19.8176L31.7006 25.1545L36.3166 24.3885Z" fill="white"/>
<path d="M26.418 24.3959L27.1601 20.0476L27.4238 20.091L26.6817 24.4393L26.418 24.3959Z" fill="white"/>
<path d="M22.6989 24.9541L23.7384 28.7455L23.48 28.8136L22.4404 25.0223L22.6989 24.9541Z" fill="white"/>
<path d="M23.8425 28.9753L26.5549 24.1362L29.1967 29.2539L30.8863 26.2436L31.1196 26.3716L29.1864 29.816L26.545 24.699L24.0769 29.1023L23.8425 28.9753Z" fill="white"/>
<path d="M26.5735 24.2881L30.4775 24.9796L30.4304 25.2387L26.5264 24.5472L26.5735 24.2881Z" fill="white"/>
<path d="M23.974 29.2297L29.417 29.345L29.4117 29.6082L23.9688 29.493L23.974 29.2297Z" fill="white"/>
<path d="M24.2758 29.4918L30.8147 33.5352L31.4074 25.1437L35.1423 29.7385L36.4535 24.447L36.7131 24.509L35.2729 30.3206L31.6266 25.8349L31.0505 33.9914L24.1345 29.7148L24.2758 29.4918Z" fill="white"/>
<path d="M39.4722 28.8719L35.2962 30.0608L30.8827 33.9854L28.9873 29.5806L29.2332 29.4774L30.9821 33.5417L35.1614 29.8253L39.399 28.6189L39.4722 28.8719Z" fill="white"/>
<path d="M26.8909 52.9578L26.5699 52.9025C26.5447 52.8981 26.5224 52.9 26.502 52.9086C26.4816 52.9168 26.4642 52.9311 26.4504 52.9517C26.4366 52.9723 26.4269 52.9975 26.4216 53.0278L26.3842 53.2386C26.3786 53.2705 26.3783 53.2991 26.3841 53.3235C26.3894 53.3483 26.4003 53.3684 26.4166 53.3833C26.4329 53.3983 26.4536 53.4079 26.4796 53.4124L26.8007 53.4677L26.7487 53.761L26.4187 53.7041C26.3291 53.6886 26.2547 53.6598 26.1963 53.6176C26.1374 53.5754 26.0969 53.5211 26.0743 53.4553C26.0517 53.3889 26.0479 53.3137 26.0629 53.2291L26.1164 52.9271C26.1311 52.8442 26.1603 52.776 26.2043 52.7233C26.2489 52.6703 26.3054 52.6341 26.3752 52.6145C26.4447 52.5944 26.5241 52.5924 26.6128 52.6077L26.9429 52.6646L26.8909 52.9578ZM26.8933 53.7859L26.5837 53.7325L26.9009 51.9412L27.2105 51.9945L26.8933 53.7859Z" fill="white"/>
<path d="M25.7186 53.5584L25.4119 53.4906L25.8153 51.7162L26.122 51.784L25.7186 53.5584ZM25.9188 52.0494L25.2557 51.9026L25.3228 51.6072L25.986 51.7539L25.9188 52.0494ZM25.7521 52.7828L25.151 52.6498L25.2179 52.3556L25.819 52.4886L25.7521 52.7828ZM25.5826 53.5284L24.9194 53.3816L24.9865 53.0865L25.6496 53.2333L25.5826 53.5284Z" fill="white"/>
<path d="M24.887 51.7862L24.6595 51.7245C24.6191 51.7135 24.5843 51.7173 24.5554 51.7356C24.5264 51.7543 24.506 51.7856 24.4936 51.83L24.2427 52.7298C24.2304 52.7739 24.2318 52.8109 24.247 52.8417C24.2622 52.8724 24.2902 52.8928 24.3307 52.9038L24.5582 52.9655L24.4781 53.2526L24.2202 53.1826C24.1355 53.1596 24.0671 53.1246 24.0156 53.0774C23.9638 53.0297 23.9304 52.9724 23.9151 52.9048C23.8999 52.8369 23.9037 52.7622 23.9266 52.6803L24.1963 51.713C24.2191 51.6311 24.2547 51.5645 24.3029 51.5143C24.3511 51.4636 24.41 51.4313 24.4791 51.4168C24.5486 51.4025 24.6256 51.4065 24.7103 51.4295L24.967 51.4992L24.887 51.7862ZM24.6797 53.3073L24.3767 53.225L24.8656 51.4717L25.1686 51.5539L24.6797 53.3073Z" fill="white"/>
<path d="M23.2594 52.8839L23.0496 52.8161L23.205 50.9529L23.5016 51.0487L23.352 52.2546L23.9546 51.195L24.2508 51.2906L23.2594 52.8839ZM23.7859 51.7431L23.3087 51.589L23.4001 51.3134L23.8773 51.4675L23.7859 51.7431Z" fill="white"/>
<path d="M21.9622 51.5195L22.1588 51.0111C22.1932 50.9221 22.2397 50.8523 22.2979 50.8011C22.3562 50.7499 22.4237 50.7191 22.5007 50.7092C22.5776 50.6998 22.661 50.7115 22.75 50.745C22.841 50.7792 22.9124 50.8248 22.9644 50.8819C23.0165 50.939 23.0479 51.0052 23.0582 51.0804C23.0683 51.1559 23.0566 51.2366 23.0231 51.3232L22.6825 52.2043C22.6473 52.2952 22.6003 52.3676 22.5413 52.4208C22.4823 52.474 22.4139 52.5059 22.3366 52.5166C22.2593 52.5272 22.1762 52.5156 22.0868 52.4819C21.9991 52.4489 21.9303 52.4039 21.8806 52.3467C21.8308 52.2896 21.8015 52.2228 21.793 52.1465C21.7846 52.0702 21.7975 51.9877 21.8319 51.8987L21.8825 51.7679L22.1846 51.8815L22.134 52.0124C22.1233 52.04 22.1191 52.0653 22.1208 52.0884C22.1228 52.112 22.1303 52.1322 22.1439 52.1497C22.1577 52.1667 22.1764 52.1797 22.2002 52.1887C22.2261 52.1984 22.2513 52.2015 22.275 52.1967C22.2988 52.1924 22.3203 52.1813 22.3389 52.1631C22.3577 52.1456 22.3726 52.1214 22.384 52.0919L22.7247 51.2108C22.7341 51.1865 22.737 51.1634 22.7336 51.141C22.7298 51.1186 22.7198 51.0988 22.7029 51.0815C22.6861 51.0638 22.6641 51.05 22.6362 51.0395C22.6078 51.0288 22.5812 51.0247 22.5563 51.0268C22.5317 51.0294 22.5098 51.0381 22.4914 51.0531C22.4725 51.0684 22.4582 51.09 22.4477 51.1171L22.3578 51.3498L22.5022 51.4041L22.3946 51.6822L21.9622 51.5195Z" fill="white"/>
<path d="M21.7361 50.3194C21.8265 50.3585 21.8973 50.4077 21.9482 50.4666C21.9991 50.5254 22.0289 50.5914 22.0367 50.6643C22.0448 50.7377 22.0306 50.8154 21.994 50.898L21.5872 51.8146C21.5506 51.8972 21.5023 51.9602 21.4422 52.0042C21.3822 52.0487 21.3129 52.0719 21.2347 52.0745C21.1565 52.0771 21.072 52.0588 20.9816 52.0197C20.8908 51.9805 20.8203 51.9318 20.7692 51.8734C20.718 51.815 20.6883 51.7489 20.6804 51.6751C20.6724 51.6017 20.6865 51.524 20.7232 51.4414L21.1299 50.5248C21.1666 50.4422 21.2149 50.3792 21.275 50.3352C21.335 50.2916 21.4043 50.2684 21.4827 50.2655C21.561 50.2625 21.6453 50.2802 21.7361 50.3194ZM21.6101 50.6035C21.5807 50.5908 21.5528 50.5857 21.5263 50.5878C21.4997 50.5903 21.4765 50.5999 21.456 50.6162C21.4358 50.6331 21.4188 50.6565 21.4052 50.687L21.0299 51.5329C21.0167 51.5626 21.011 51.5904 21.0121 51.6166C21.0137 51.6429 21.0222 51.6662 21.0386 51.6867C21.055 51.7074 21.0778 51.7242 21.1071 51.7369C21.1365 51.7495 21.1645 51.7546 21.1901 51.7522C21.2162 51.7499 21.2393 51.7403 21.2596 51.7235C21.2802 51.7067 21.2966 51.6835 21.3098 51.6538L21.6852 50.808C21.6987 50.7775 21.705 50.7494 21.7035 50.7231C21.7021 50.6973 21.6936 50.6741 21.6778 50.6532C21.6622 50.633 21.6394 50.6162 21.6101 50.6035Z" fill="white"/>
<path d="M19.8776 50.5368L20.1229 50.0496C20.1659 49.9643 20.219 49.8992 20.282 49.8538C20.345 49.8084 20.4152 49.7841 20.4928 49.7816C20.5702 49.7795 20.6522 49.7992 20.7375 49.841C20.8247 49.8838 20.8912 49.9359 20.9375 49.9977C20.9837 50.0595 21.0084 50.1284 21.0113 50.2042C21.0141 50.2804 20.9945 50.3595 20.9527 50.4425L20.5274 51.287C20.4835 51.3742 20.4296 51.4418 20.3657 51.4891C20.3017 51.5364 20.2305 51.5616 20.1525 51.5649C20.0745 51.5681 19.993 51.5486 19.9073 51.5066C19.8232 51.4654 19.7592 51.414 19.7153 51.3524C19.6713 51.2908 19.6487 51.2215 19.6477 51.1448C19.6468 51.068 19.6677 50.9871 19.7106 50.9018L19.7738 50.7764L20.0634 50.9184L20.0002 51.0438C19.9869 51.0702 19.9802 51.095 19.9797 51.1182C19.9794 51.1418 19.9848 51.1626 19.9967 51.1813C20.0087 51.1996 20.026 51.2143 20.0489 51.2255C20.0737 51.2377 20.0985 51.2432 20.1225 51.2406C20.1467 51.2387 20.1691 51.2296 20.1894 51.2133C20.2099 51.1976 20.227 51.175 20.2413 51.1468L20.6666 50.3023C20.6784 50.2789 20.6835 50.2562 20.6823 50.2336C20.6807 50.2109 20.6727 50.1903 20.6576 50.1714C20.6426 50.1522 20.622 50.1364 20.5953 50.1233C20.5682 50.11 20.542 50.1034 20.517 50.103C20.4923 50.1033 20.4696 50.1098 20.4499 50.1231C20.4296 50.1365 20.4132 50.1566 20.4001 50.1826L20.2878 50.4055L20.4262 50.4734L20.292 50.74L19.8776 50.5368Z" fill="white"/>
<path d="M19.9002 49.4092L20.1745 49.5605L19.2748 51.1477L19.0005 50.9963L19.9002 49.4092Z" fill="white"/>
<path d="M19.0587 49.8981L18.2292 50.5398L17.9282 50.3541L19.3551 49.4307L19.0587 49.8981ZM18.7448 50.858L18.4784 50.6935L19.4558 49.1518L19.7222 49.3162L18.7448 50.858ZM18.8791 49.9671L18.5961 50.0126L18.8561 48.7817L19.1482 48.962L18.8791 49.9671Z" fill="white"/>
<path d="M18.115 48.2812L18.3729 48.4584L17.3197 49.9508L17.0618 49.7737L18.115 48.2812Z" fill="white"/>
<path d="M16.8195 49.6126L16.6239 49.4635L17.0329 48.2419L17.0901 48.224L16.3081 49.2227L16.0813 49.0499L17.2074 47.6118L17.405 47.7625L17.0357 48.9257L16.9787 48.9454L17.7182 48.0011L17.9456 48.1745L16.8195 49.6126Z" fill="white"/>
<path d="M15.829 48.8585L15.6411 48.7L16.1114 47.5001L16.1694 47.4851L15.3379 48.444L15.1201 48.2602L16.3175 46.8794L16.5073 47.0396L16.0796 48.1832L16.0217 48.2001L16.8079 47.2933L17.0263 47.4777L15.829 48.8585Z" fill="white"/>
<path d="M15.8166 46.4C15.8883 46.4669 15.938 46.5369 15.9657 46.6092C15.9935 46.6816 15.9989 46.7536 15.9813 46.8248C15.9637 46.8966 15.9237 46.965 15.8609 47.0305L15.1638 47.7573C15.101 47.8228 15.0339 47.866 14.9623 47.8873C14.8906 47.9092 14.8174 47.9078 14.7429 47.8842C14.6685 47.8605 14.5952 47.8151 14.5236 47.7482C14.4516 47.681 14.4018 47.6116 14.3738 47.5396C14.3457 47.4675 14.3403 47.3955 14.3583 47.3234C14.3758 47.2516 14.4159 47.1832 14.4786 47.1177L15.1757 46.3909C15.2385 46.3254 15.3056 46.2822 15.3773 46.2609C15.4486 46.2399 15.5218 46.2413 15.5966 46.2646C15.6714 46.2879 15.7446 46.3328 15.8166 46.4ZM15.6006 46.6252C15.5773 46.6035 15.5527 46.5894 15.5271 46.5825C15.5012 46.576 15.4761 46.5772 15.4513 46.5858C15.4264 46.5949 15.4024 46.6113 15.3792 46.6355L14.7359 47.3062C14.7133 47.3297 14.6984 47.354 14.6905 47.379C14.6829 47.4043 14.683 47.429 14.6914 47.4539C14.6997 47.4787 14.7154 47.5022 14.7387 47.5239C14.7619 47.5456 14.7865 47.5598 14.8115 47.566C14.8368 47.5726 14.8619 47.5713 14.8867 47.5622C14.9119 47.5533 14.9353 47.537 14.9579 47.5134L15.6012 46.8427C15.6244 46.8185 15.6399 46.7942 15.6475 46.7689C15.655 46.7443 15.655 46.7195 15.6472 46.6946C15.6395 46.6704 15.6238 46.6469 15.6006 46.6252Z" fill="white"/>
<path d="M14.0451 47.2763L13.8148 47.0385L14.6132 46.0454L13.5711 46.7869L13.3408 46.5491L14.9082 45.5352L15.1429 45.7775L14.0451 47.2763Z" fill="white"/>
<path d="M13.0449 46.2254L12.9006 46.0605L14.0084 44.5437L14.2124 44.7768L13.4535 45.7335L14.5238 45.1327L14.7275 45.3655L13.0449 46.2254ZM14.0926 45.5163L13.7645 45.1413L13.987 44.9518L14.3151 45.3269L14.0926 45.5163Z" fill="white"/>
<path d="M12.5029 45.3702L12.3099 45.1256L13.6423 44.1021L13.8353 44.3467L12.5029 45.3702ZM12.568 45.7008L12.001 44.9824L12.239 44.7995L12.806 45.5179L12.568 45.7008Z" fill="white"/>
<path d="M13.1424 43.4365C13.1978 43.5145 13.2303 43.5916 13.2406 43.6679C13.2509 43.7442 13.2389 43.8167 13.2044 43.8849C13.1696 43.9527 13.1132 44.0141 13.0352 44.068L12.954 44.1241L12.7724 43.8727L12.8536 43.8165C12.8915 43.7903 12.9136 43.7589 12.9207 43.7227C12.9275 43.6862 12.9172 43.6494 12.8907 43.612C12.8644 43.575 12.8336 43.554 12.7976 43.5486C12.7621 43.5434 12.7255 43.5536 12.6883 43.5793L12.5564 43.6704C12.5284 43.6898 12.5101 43.7139 12.5005 43.7435C12.4908 43.7731 12.4873 43.8047 12.4898 43.8395C12.4921 43.8739 12.4974 43.9193 12.5063 43.9751C12.5069 43.9789 12.5072 43.9823 12.5075 43.9858C12.5079 43.9892 12.5082 43.9926 12.5088 43.9964L12.5122 44.0139C12.523 44.0887 12.5268 44.1565 12.5235 44.2167C12.5208 44.2769 12.5032 44.3376 12.4708 44.3986C12.4388 44.4592 12.3856 44.5153 12.3115 44.5665L12.2335 44.6204C12.157 44.6733 12.0808 44.7046 12.0053 44.7135C11.9293 44.7227 11.8575 44.7093 11.7891 44.6741C11.7208 44.6389 11.6589 44.5822 11.6037 44.5045C11.5498 44.4286 11.5182 44.3535 11.5083 44.2785C11.4986 44.2038 11.5112 44.133 11.5465 44.0659C11.5822 43.9985 11.639 43.9378 11.717 43.8839L11.8021 43.8251L11.9849 44.0758L11.8987 44.1354C11.8601 44.1621 11.8365 44.193 11.8288 44.2275C11.8207 44.2623 11.8292 44.2966 11.854 44.3315C11.8801 44.3683 11.9101 44.3903 11.9441 44.3966C11.9783 44.4031 12.0125 44.3946 12.0472 44.3706L12.1479 44.301C12.1763 44.2814 12.1955 44.2572 12.206 44.228C12.2165 44.1989 12.2207 44.1684 12.2193 44.1365C12.2175 44.1043 12.2127 44.0618 12.2049 44.0083C12.2029 43.9981 12.201 43.988 12.1998 43.9774C12.1984 43.9664 12.1965 43.9556 12.1951 43.9446C12.1948 43.9428 12.1945 43.9409 12.1947 43.9397C12.1947 43.9381 12.1944 43.9362 12.1941 43.9344C12.1844 43.8566 12.1798 43.7914 12.1815 43.7387C12.1826 43.6858 12.198 43.6308 12.2277 43.5738C12.2572 43.5169 12.3087 43.463 12.3821 43.4123L12.508 43.3253C12.586 43.2714 12.6632 43.2395 12.7395 43.23C12.8157 43.2206 12.8883 43.2335 12.957 43.2685C13.0257 43.3034 13.0875 43.3592 13.1424 43.4365Z" fill="white"/>
<path d="M12.5839 42.6831L12.7642 42.9371L11.2545 43.9803L11.0742 43.7264L12.5839 42.6831Z" fill="white"/>
<path d="M11.5753 42.4244L12.1733 42.0542L12.3403 42.3168L11.7423 42.6871L10.9624 43.5717L10.7885 43.2983L11.3434 42.7541L10.6093 43.0165L10.4355 42.7433L11.5753 42.4244Z" fill="white"/>
<path d="M10.2271 42.4015L10.1194 42.2114L11.5134 40.9451L11.6658 41.2138L10.7275 42.0006L11.8984 41.6242L12.0505 41.8926L10.2271 42.4015ZM11.3979 41.9146L11.1528 41.4822L11.4093 41.3406L11.6544 41.773L11.3979 41.9146Z" fill="white"/>
<path d="M9.78466 41.6386L9.64526 41.3607L11.2972 40.5541L11.4366 40.832L9.78466 41.6386ZM11.109 40.85L10.8142 40.2624L11.0846 40.1304L11.3794 40.7179L11.109 40.85Z" fill="white"/>
<path d="M9.15526 40.3775L9.06738 40.1777L10.5831 39.0557L10.7074 39.3381L9.69387 40.0281L10.8971 39.7695L11.0212 40.0515L9.15526 40.3775ZM10.3696 40.0088L10.1697 39.5544L10.4393 39.4389L10.6392 39.8934L10.3696 40.0088Z" fill="white"/>
<path d="M9.45313 39.1821L9.33629 38.8755C9.32669 38.8503 9.31401 38.8303 9.29768 38.8154C9.2819 38.8007 9.26321 38.7917 9.24254 38.7884C9.22241 38.7854 9.19992 38.7882 9.17641 38.797L8.98395 38.8684C8.95803 38.878 8.93715 38.8912 8.92162 38.9074C8.90623 38.9241 8.89739 38.9434 8.8941 38.9651C8.8914 38.9871 8.89474 39.0105 8.90435 39.0357L9.02118 39.3423L8.73876 39.447L8.62864 39.158C8.59346 39.0657 8.5786 38.9818 8.58414 38.9053C8.5901 38.8287 8.61565 38.7622 8.66129 38.7061C8.70734 38.6497 8.77131 38.6064 8.85355 38.5759L9.05534 38.5011C9.14002 38.4696 9.21909 38.4599 9.29257 38.4719C9.36646 38.4837 9.43168 38.5166 9.48826 38.5704C9.54486 38.6243 9.59052 38.6968 9.6254 38.7883L9.73554 39.0773L9.45313 39.1821ZM8.78828 39.577L8.67998 39.2927L10.4065 38.6523L10.5148 38.9366L8.78828 39.577ZM9.59201 38.8609L9.43603 38.6153L10.1704 38.0327L10.289 38.3441L9.59201 38.8609Z" fill="white"/>
<path d="M9.82569 38.0093L9.71509 37.719L10.1397 37.5615L10.5469 37.7417L9.82569 38.0093Z" fill="white"/>
<path d="M8.89584 36.9363L7.84565 36.8467L7.75415 36.5084L9.4358 36.7942L8.89584 36.9363ZM8.00243 37.4265L7.92142 37.1269L9.70231 36.6581L9.78331 36.9577L8.00243 37.4265ZM8.71684 36.8658L8.47851 36.7084L9.51999 35.9839L9.6088 36.3124L8.71684 36.8658Z" fill="white"/>
<path d="M7.60716 35.948L7.56079 35.735L9.27042 34.9287L9.336 35.2298L8.20485 35.7099L9.43613 35.6895L9.50162 35.9901L7.60716 35.948ZM8.87124 35.8219L8.76574 35.3376L9.05309 35.2766L9.15859 35.761L8.87124 35.8219Z" fill="white"/>
<path d="M9.19489 34.4684C9.21055 34.5624 9.20602 34.6458 9.18181 34.719C9.15759 34.7922 9.11497 34.8523 9.05388 34.899C8.99272 34.9453 8.915 34.9765 8.82103 34.9918L8.72322 35.0076L8.66989 34.7034L8.7677 34.6875C8.81342 34.6801 8.84711 34.6612 8.86937 34.6316C8.89158 34.6016 8.89849 34.5641 8.89098 34.519C8.88354 34.4744 8.86504 34.4423 8.8349 34.4221C8.80527 34.4022 8.76778 34.3958 8.72293 34.403L8.56404 34.4288C8.53029 34.4343 8.50322 34.4482 8.48153 34.4708C8.45985 34.4933 8.44284 34.5203 8.42983 34.5527C8.41673 34.5847 8.40155 34.6278 8.38513 34.682C8.38399 34.6857 8.38277 34.6889 8.38156 34.6921C8.38033 34.6953 8.37913 34.6986 8.37797 34.7022L8.37339 34.7194C8.35031 34.7915 8.32391 34.8542 8.29455 34.9071C8.26568 34.9602 8.2231 35.0074 8.16721 35.0485C8.11173 35.0895 8.03916 35.1173 7.94989 35.1318L7.85593 35.147C7.76367 35.162 7.68135 35.1576 7.60929 35.1333C7.53684 35.1092 7.47793 35.0664 7.43181 35.0055C7.38569 34.9446 7.35478 34.8669 7.33917 34.7733C7.32394 34.6819 7.32838 34.6007 7.35238 34.5288C7.37646 34.4574 7.41894 34.399 7.48022 34.3536C7.54195 34.3081 7.61981 34.2777 7.71378 34.2625L7.81629 34.2458L7.87091 34.5499L7.76711 34.5667C7.72056 34.5743 7.6858 34.592 7.66366 34.6199C7.64114 34.6478 7.63371 34.6823 7.64073 34.7244C7.64811 34.7687 7.66539 34.8014 7.69333 34.8215C7.72131 34.8421 7.75582 34.849 7.79768 34.8422L7.91899 34.8225C7.95316 34.817 7.98116 34.8034 8.0034 34.7816C8.02565 34.7598 8.04287 34.7341 8.05553 34.7048C8.06813 34.675 8.08244 34.6346 8.09884 34.583C8.10158 34.5731 8.10431 34.5631 8.10788 34.553C8.11139 34.5425 8.11448 34.532 8.118 34.5215C8.11855 34.5197 8.11913 34.5178 8.11984 34.5169C8.1205 34.5155 8.12105 34.5136 8.12164 34.5118C8.14699 34.4376 8.17152 34.3769 8.1962 34.3301C8.22036 34.2829 8.25837 34.2399 8.31026 34.2012C8.36175 34.1626 8.43189 34.136 8.52032 34.1217L8.67194 34.0971C8.76591 34.0818 8.84953 34.086 8.92242 34.1101C8.9953 34.1342 9.05505 34.1769 9.1016 34.2377C9.14817 34.2986 9.17938 34.3753 9.19489 34.4684Z" fill="white"/>
<path d="M8.74118 33.6904L8.70965 33.4197C8.70519 33.3816 8.6914 33.353 8.66834 33.3346C8.64523 33.3157 8.61517 33.3084 8.57819 33.3126L8.33263 33.3404C8.30252 33.3438 8.27728 33.3514 8.25691 33.3636C8.2365 33.3754 8.22185 33.3917 8.21289 33.412C8.20349 33.4324 8.20053 33.4556 8.20364 33.4823L8.23458 33.7479L7.94517 33.7807L7.91506 33.5223C7.9108 33.4858 7.89552 33.4592 7.86992 33.4415C7.84389 33.4238 7.80915 33.4174 7.7653 33.4224L7.56877 33.4447C7.5322 33.4488 7.50459 33.4623 7.48631 33.485C7.46804 33.5077 7.46094 33.5365 7.46509 33.5721L7.49536 33.8318L7.20334 33.8649L7.16947 33.5742C7.16003 33.4932 7.16656 33.422 7.18904 33.3605C7.21149 33.2991 7.24979 33.25 7.30262 33.2135C7.35586 33.1769 7.42247 33.1539 7.50202 33.1449L7.69855 33.1226C7.75401 33.1163 7.80428 33.1214 7.84886 33.1374C7.89381 33.1529 7.93214 33.1791 7.96383 33.2155C7.99594 33.2518 8.0195 33.2969 8.03544 33.3513C8.0366 33.2902 8.04862 33.2364 8.07162 33.1908C8.09417 33.1448 8.12691 33.108 8.16896 33.08C8.21148 33.0524 8.2622 33.035 8.32198 33.0282L8.57139 33C8.65181 32.9908 8.72234 32.9979 8.78301 33.0211C8.84367 33.0443 8.89219 33.0831 8.92858 33.1374C8.96499 33.1917 8.98803 33.2588 8.99744 33.3394L9.03448 33.6572L8.74118 33.6904ZM7.22392 34.0414L7.18786 33.7321L9.019 33.5244L9.05503 33.8337L7.22392 34.0414Z" fill="white"/>
<path d="M8.06152 32.141L8.36258 32.1213L8.40737 32.7878L8.10631 32.8075L8.06152 32.141Z" fill="white"/>
<path d="M6.98202 31.3318L6.97632 31.0218L8.81921 30.9888L8.82491 31.2988L6.98202 31.3318ZM6.99224 31.8869L6.98653 31.5769L8.82942 31.5439L8.83513 31.8539L6.99224 31.8869ZM7.77638 31.7255L7.76516 31.1161L8.06078 31.1109L8.07198 31.7202L7.77638 31.7255Z" fill="white"/>
<path d="M8.82837 30.352C8.82565 30.4421 8.80468 30.5193 8.76637 30.5835C8.72763 30.6477 8.6729 30.6961 8.60221 30.7282C8.53109 30.7603 8.44749 30.775 8.35013 30.7721L6.95386 30.7311L6.96325 30.4199L8.36862 30.4612C8.41318 30.4625 8.44856 30.4528 8.47387 30.4318C8.49963 30.4107 8.51307 30.3812 8.51424 30.3428C8.51543 30.3035 8.5038 30.2724 8.47936 30.2499C8.45537 30.227 8.42065 30.2149 8.37609 30.2136L6.97072 30.1723L6.98011 29.8611L8.37639 29.9021C8.47375 29.905 8.5563 29.9245 8.62536 29.9611C8.69396 29.9977 8.74567 30.0497 8.78049 30.1161C8.81486 30.1824 8.8311 30.2611 8.82837 30.352Z" fill="white"/>
<path d="M6.97119 29.5953L6.99033 29.3522L8.25001 29.02L8.29656 29.0574L7.02126 28.9596L7.04345 28.6777L8.87979 28.8185L8.86046 29.0642L7.67194 29.3972L7.62399 29.3609L8.8298 29.4534L8.80754 29.7361L6.97119 29.5953Z" fill="white"/>
<path d="M7.09619 28.0488L7.12376 27.8327L9.00747 27.6294L8.96848 27.9349L7.74004 28.0191L8.90894 28.4014L8.87001 28.7065L7.09619 28.0488ZM8.33143 28.3422L8.39415 27.8506L8.68577 27.8869L8.62304 28.3784L8.33143 28.3422Z" fill="white"/>
<path d="M7.97229 27.1729L8.02942 26.8502C8.03412 26.8237 8.03345 26.8002 8.02707 26.7791C8.02102 26.7586 8.00957 26.7414 7.99345 26.7282C7.97768 26.7155 7.95683 26.7067 7.9321 26.7025L7.72953 26.6676C7.70227 26.6629 7.67748 26.6638 7.65572 26.67C7.6339 26.6767 7.61638 26.6888 7.60235 26.7059C7.5887 26.7235 7.57954 26.7453 7.57485 26.7719L7.51772 27.0945L7.2205 27.0433L7.27437 26.7391C7.29157 26.6419 7.32196 26.5622 7.36608 26.4991C7.41062 26.4362 7.46686 26.3916 7.53509 26.3661C7.60376 26.3407 7.68116 26.3354 7.7677 26.3503L7.98006 26.3869C8.06918 26.4023 8.14231 26.4335 8.19944 26.4806C8.25701 26.5278 8.2963 26.5888 8.31733 26.6635C8.33839 26.7383 8.34041 26.8236 8.32335 26.9199L8.26949 27.2241L7.97229 27.1729ZM7.19629 27.18L7.24926 26.8809L9.06622 27.1941L9.01325 27.4932L7.19629 27.18ZM8.25722 26.9658L8.24922 26.6761L9.18169 26.542L9.12365 26.8697L8.25722 26.9658Z" fill="white"/>
<path d="M7.7147 25.3134L7.78349 25.0109L9.4312 25.3756L9.36242 25.6781L7.7147 25.3134ZM7.49731 25.573L7.69929 24.6846L7.99371 24.7497L7.79171 25.6382L7.49731 25.573Z" fill="white"/>
<path d="M7.82935 24.2337L7.88791 24.0237L9.78174 24.0877L9.69896 24.3846L8.47092 24.2949L9.57254 24.838L9.48986 25.1344L7.82935 24.2337ZM9.00952 24.698L9.1427 24.2203L9.42609 24.2972L9.29289 24.7749L9.00952 24.698Z" fill="white"/>
<path d="M8.02051 23.5673L8.11439 23.2844L8.7286 23.4828L8.63474 23.7657L8.02051 23.5673Z" fill="white"/>
<path d="M8.15942 23.1496L8.25721 22.855L10.0089 23.4207L9.91115 23.7154L8.15942 23.1496ZM9.66454 23.5018L9.87126 22.8788L10.158 22.9714L9.95127 23.5944L9.66454 23.5018Z" fill="white"/>
<path d="M10.33 22.559L10.218 22.8487L8.49585 22.2006L8.60785 21.9109L10.33 22.559Z" fill="white"/>
<path d="M9.07442 20.8098L9.1923 20.5442L10.8808 21.2735L10.7684 21.5267L9.58954 21.0174L9.67172 21.0324L10.3702 21.6222L10.3072 21.7643L9.41711 21.6679L9.32982 21.6027L10.5087 22.1119L10.3938 22.3709L8.70532 21.6416L8.82634 21.3689L9.8661 21.4889L9.07442 20.8098Z" fill="white"/>
<path d="M11.1091 20.818L10.9693 21.0957L9.3186 20.2865L9.45846 20.0088L11.1091 20.818Z" fill="white"/>
<path d="M11.2675 19.8849L11.4024 19.6471C11.4214 19.6135 11.4271 19.5825 11.4193 19.5542C11.4117 19.5255 11.3917 19.5022 11.3592 19.4843L11.1435 19.3653C11.117 19.3507 11.092 19.3423 11.0683 19.3404C11.0447 19.3382 11.0232 19.343 11.0039 19.3543C10.9842 19.3655 10.9681 19.3825 10.9548 19.406L10.8225 19.6393L10.5682 19.4991L10.6969 19.272C10.7151 19.24 10.7184 19.2096 10.7082 19.1804C10.6976 19.151 10.6731 19.1258 10.6346 19.1046L10.462 19.0093C10.4298 18.9916 10.3995 18.9866 10.3712 18.9945C10.3429 19.0023 10.3201 19.0216 10.3024 19.0529L10.173 19.281L9.91651 19.1395L10.0612 18.8841C10.1016 18.8129 10.1491 18.7589 10.2037 18.722C10.2584 18.6851 10.3185 18.6674 10.383 18.6682C10.4479 18.6693 10.5155 18.689 10.5854 18.7276L10.7581 18.8228C10.8068 18.8497 10.8446 18.8828 10.8713 18.9215C10.8985 18.96 10.9142 19.0034 10.9183 19.0512C10.9228 19.0992 10.9152 19.1493 10.8959 19.2027C10.9331 19.1538 10.9747 19.1171 11.0204 19.0933C11.0659 19.069 11.1143 19.058 11.165 19.0596C11.2159 19.0617 11.2673 19.0769 11.3198 19.1059L11.5389 19.2268C11.6096 19.2657 11.6626 19.3121 11.6981 19.3659C11.7336 19.4198 11.7499 19.4792 11.7473 19.5443C11.7446 19.6094 11.7236 19.6771 11.6835 19.7479L11.5252 20.0271L11.2675 19.8849ZM9.82861 19.2945L9.98264 19.0228L11.5913 19.9104L11.4373 20.1821L9.82861 19.2945Z" fill="white"/>
<path d="M12.2214 18.8953C12.1691 18.9779 12.1094 19.0398 12.043 19.0809C11.9766 19.1221 11.906 19.1415 11.8318 19.1385C11.7571 19.1357 11.6811 19.1105 11.6037 19.0627L10.7438 18.5321C10.6664 18.4843 10.6102 18.428 10.5749 18.3629C10.539 18.2979 10.5258 18.2268 10.5346 18.1501C10.5434 18.0734 10.5741 17.9936 10.6264 17.9111C10.679 17.8282 10.7381 17.7664 10.8041 17.725C10.8702 17.6837 10.9407 17.6642 11.0158 17.6673C11.0906 17.6701 11.1666 17.6953 11.244 17.7431L12.1039 18.2737C12.1813 18.3215 12.2375 18.3779 12.2728 18.443C12.3078 18.5079 12.3209 18.5789 12.3125 18.6559C12.3041 18.7328 12.274 18.8124 12.2214 18.8953ZM11.955 18.7309C11.972 18.7041 11.9811 18.6776 11.9829 18.6514C11.9843 18.6251 11.978 18.6011 11.9647 18.5787C11.9507 18.5565 11.9297 18.5365 11.901 18.5188L11.1076 18.0292C11.0797 18.012 11.0526 18.0023 11.0263 17.9996C10.9996 17.9973 10.9751 18.0023 10.952 18.0153C10.9289 18.0282 10.9088 18.048 10.8918 18.0748C10.8748 18.1016 10.8656 18.1282 10.8643 18.1536C10.8628 18.1794 10.869 18.2033 10.883 18.2256C10.8968 18.2482 10.9176 18.2676 10.9455 18.2848L11.739 18.7744C11.7676 18.7921 11.7948 18.8023 11.8214 18.8047C11.8474 18.8071 11.872 18.8021 11.8952 18.7898C11.9178 18.7775 11.938 18.7577 11.955 18.7309Z" fill="white"/>
<path d="M12.8209 18.0053C12.7657 18.0834 12.7035 18.1401 12.6345 18.1759C12.5654 18.2118 12.4924 18.2256 12.4156 18.2171C12.339 18.2082 12.2612 18.1771 12.1831 18.1235L12.1017 18.0676L12.2784 17.8127L12.3598 17.8686C12.3978 17.8947 12.4353 17.9043 12.4722 17.8984C12.5093 17.8922 12.5407 17.8701 12.5672 17.8326C12.5934 17.7954 12.6028 17.7597 12.5955 17.7245C12.5882 17.6898 12.5659 17.6594 12.5286 17.6338L12.3965 17.543C12.3684 17.5238 12.3392 17.5151 12.3077 17.5164C12.2762 17.5176 12.2449 17.5253 12.2127 17.5396C12.1807 17.5535 12.1393 17.574 12.0893 17.6016C12.0859 17.6034 12.0827 17.6049 12.0796 17.6064C12.0764 17.6079 12.0733 17.6093 12.0699 17.6112L12.0545 17.6203C11.987 17.6562 11.9237 17.683 11.8654 17.7007C11.8071 17.7189 11.7433 17.7235 11.6741 17.7145C11.6054 17.7058 11.5337 17.6758 11.4595 17.6248L11.3813 17.5711C11.3046 17.5184 11.2487 17.4587 11.2141 17.3917C11.1792 17.3246 11.1672 17.2534 11.1772 17.178C11.1871 17.1026 11.2198 17.0257 11.2747 16.9478C11.3284 16.8718 11.389 16.8166 11.457 16.7816C11.5247 16.7469 11.5964 16.7342 11.6724 16.7438C11.7488 16.7536 11.8261 16.7854 11.9043 16.8391L11.9895 16.8976L11.8139 17.1532L11.7276 17.0939C11.6889 17.0674 11.6514 17.0562 11.6158 17.0609C11.58 17.0654 11.5503 17.0851 11.5255 17.1201C11.4996 17.1569 11.4889 17.1923 11.4947 17.2259C11.5002 17.2599 11.5201 17.2886 11.5549 17.3125L11.6558 17.3818C11.6842 17.4014 11.7139 17.4108 11.7452 17.4105C11.7766 17.4102 11.8071 17.4036 11.8369 17.3912C11.8669 17.3786 11.9058 17.3594 11.9539 17.3337C11.9629 17.3285 11.9719 17.3232 11.9816 17.3184C11.9916 17.3133 12.0012 17.3079 12.0112 17.3028C12.0128 17.3019 12.0145 17.301 12.0157 17.3007C12.0172 17.3002 12.0189 17.2993 12.0206 17.2983C12.0912 17.2626 12.1517 17.2359 12.2025 17.2193C12.2531 17.2021 12.3107 17.1974 12.3753 17.2053C12.4395 17.213 12.5086 17.2422 12.5821 17.2927L12.7082 17.3794C12.7863 17.433 12.8434 17.4935 12.8786 17.561C12.9138 17.6283 12.9265 17.7 12.917 17.7757C12.9074 17.8513 12.8755 17.9278 12.8209 18.0053Z" fill="white"/>
<path d="M12.0728 15.916L12.265 15.6707L13.7235 16.7825L13.5314 17.0278L12.0728 15.916ZM11.7288 16.3554L11.9209 16.11L13.3795 17.2218L13.1873 17.4672L11.7288 16.3554ZM12.4428 16.7135L12.8205 16.2312L13.0544 16.4095L12.6768 16.8918L12.4428 16.7135Z" fill="white"/>
<path d="M13.7954 16.0773L13.7519 15.7753L14.5011 15.6983L14.5464 16.0002L13.7954 16.0773ZM14.1901 16.2705C14.1259 16.3445 14.0576 16.397 13.9858 16.4279C13.9139 16.4589 13.8412 16.4678 13.7683 16.454C13.6948 16.4403 13.6235 16.4043 13.5541 16.3457L12.7834 15.6952C12.714 15.6366 12.6669 15.5727 12.6417 15.5031C12.616 15.4336 12.6137 15.3614 12.6339 15.2869C12.6541 15.2123 12.6964 15.1379 12.7606 15.0639C12.825 14.9896 12.8927 14.9371 12.9642 14.9059C13.0358 14.8746 13.1084 14.8657 13.1823 14.8797C13.2558 14.8935 13.3271 14.9295 13.3966 14.9881L14.1672 15.6386C14.2366 15.6971 14.2837 15.7611 14.3089 15.8306C14.3337 15.8999 14.336 15.9721 14.3161 16.0469C14.2963 16.1218 14.2545 16.1962 14.1901 16.2705ZM13.9513 16.0689C13.9721 16.0449 13.9852 16.02 13.9909 15.9944C13.9962 15.9685 13.9936 15.9439 13.9838 15.9198C13.9732 15.8958 13.9555 15.8729 13.9298 15.8513L13.2187 15.251C13.1937 15.2299 13.1684 15.2164 13.1427 15.2099C13.1167 15.2037 13.0916 15.2051 13.0669 15.2145C13.0422 15.224 13.0192 15.2406 12.9984 15.2646C12.9776 15.2886 12.9645 15.3136 12.9594 15.3385C12.954 15.3638 12.9566 15.3884 12.9671 15.4124C12.9773 15.4368 12.995 15.459 13.02 15.4801L13.7311 16.0804C13.7568 16.102 13.7822 16.1161 13.8081 16.1223C13.8335 16.1285 13.8586 16.1272 13.8833 16.1184C13.9075 16.1095 13.9305 16.0929 13.9513 16.0689Z" fill="white"/>
<path d="M13.5537 14.2292L13.7054 14.071L15.3465 15.0057L15.132 15.2294L14.0908 14.5808L14.8045 15.571L14.5902 15.7943L13.5537 14.2292ZM14.3742 15.1863L14.7193 14.8265L14.9328 15.0258L14.5877 15.3856L14.3742 15.1863Z" fill="white"/>
<path d="M14.8067 14.0513L15.0467 13.825C15.0664 13.8064 15.08 13.7871 15.0876 13.7664C15.0951 13.7463 15.0962 13.7258 15.0911 13.7058C15.086 13.6863 15.0745 13.6671 15.0572 13.6492L14.9151 13.5025C14.896 13.4827 14.8755 13.469 14.8543 13.4612C14.8327 13.4538 14.8113 13.4533 14.7897 13.4589C14.7681 13.4651 14.7476 13.4773 14.7279 13.4959L14.4879 13.7222L14.2794 13.507L14.5057 13.2936C14.578 13.2255 14.6504 13.1791 14.7239 13.1541C14.7976 13.1295 14.8696 13.1266 14.9399 13.146C15.0105 13.1657 15.076 13.2068 15.1367 13.2694L15.2856 13.4232C15.3481 13.4877 15.3882 13.5557 15.4058 13.6271C15.4238 13.6988 15.4187 13.7708 15.3907 13.8433C15.3627 13.9158 15.313 13.9857 15.2414 14.0532L15.0151 14.2665L14.8067 14.0513ZM14.1777 13.6028L14.4002 13.3931L15.6745 14.7088L15.452 14.9185L14.1777 13.6028ZM15.1606 14.0514L15.3283 13.8135L16.1596 14.2514L15.9158 14.4813L15.1606 14.0514Z" fill="white"/>
<path d="M16.6045 13.9093C16.5354 13.9682 16.4636 14.0051 16.3897 14.0207C16.3155 14.0359 16.2424 14.0288 16.1707 13.9991C16.0986 13.969 16.0312 13.9181 15.9675 13.8454L15.0547 12.8022L15.2935 12.5987L16.2123 13.6487C16.2415 13.682 16.2726 13.7012 16.3054 13.7054C16.3386 13.7099 16.3697 13.6998 16.3992 13.6747C16.4293 13.649 16.4447 13.6195 16.445 13.5865C16.4459 13.5536 16.4315 13.5201 16.4024 13.4868L15.4836 12.4369L15.7225 12.2334L16.6353 13.2766C16.699 13.3493 16.7402 13.4226 16.7595 13.4975C16.7785 13.5722 16.7746 13.6449 16.7485 13.7151C16.7221 13.7849 16.6744 13.8499 16.6045 13.9093Z" fill="white"/>
<path d="M15.8687 12.1216L16.1316 11.9195L17.0525 12.8035L16.41 11.7057L16.673 11.5037L17.5372 13.1445L17.2691 13.3504L15.8687 12.1216Z" fill="white"/>
<path d="M17.73 10.7729L17.9874 10.595L19.0448 12.0845L18.7874 12.2623L17.73 10.7729ZM17.269 11.0914L17.5264 10.9135L18.5839 12.403L18.3265 12.5809L17.269 11.0914ZM17.8428 11.6428L18.3488 11.2932L18.5184 11.5321L18.0125 11.8817L17.8428 11.6428Z" fill="white"/>
<path d="M18.5439 10.2715L18.7309 10.1558L20.0832 11.4655L19.8188 11.6291L18.975 10.7443L19.4151 11.8791L19.1511 12.0425L18.5439 10.2715ZM19.0959 11.4005L19.5213 11.1372L19.6775 11.3828L19.2522 11.6462L19.0959 11.4005Z" fill="white"/>
<path d="M20.2115 9.36691L20.4749 9.23828L21.2925 10.8681L21.0415 10.9907L20.4707 9.85272L20.5238 9.91633L20.6742 10.8112L20.5334 10.8799L19.9146 10.2415L19.8903 10.1361L20.4611 11.2741L20.2043 11.3995L19.3867 9.76966L19.6571 9.63761L20.3751 10.3892L20.2115 9.36691Z" fill="white"/>
<path d="M21.564 10.4071L21.7804 10.3145C21.819 10.298 21.8436 10.2734 21.8544 10.2413C21.8651 10.2088 21.8612 10.1719 21.8426 10.1296L21.466 9.27354C21.4476 9.23161 21.4229 9.20353 21.3916 9.18903C21.3602 9.17454 21.3254 9.17592 21.2869 9.19242L21.0705 9.28508L20.9503 9.012L21.1957 8.90693C21.2763 8.8724 21.3518 8.85734 21.4219 8.86223C21.4926 8.86736 21.5551 8.89135 21.6099 8.93446C21.6649 8.97795 21.7095 9.03848 21.7438 9.11644L22.1486 10.0367C22.1829 10.1147 22.1974 10.1885 22.1919 10.2575C22.1865 10.3268 22.1612 10.3884 22.1166 10.4424C22.0715 10.4966 22.009 10.5411 21.9284 10.5756L21.6841 10.6802L21.564 10.4071ZM20.7585 9.09413L21.0468 8.9707L21.7806 10.6389L21.4924 10.7623L20.7585 9.09413Z" fill="white"/>
<path d="M22.1272 8.51854L22.3338 8.44189L23.3941 9.99139L23.102 10.0997L22.454 9.06668L22.6559 10.2652L22.3642 10.3734L22.1272 8.51854ZM22.4399 9.73349L22.9099 9.55914L23.0133 9.83058L22.5433 10.0049L22.4399 9.73349Z" fill="white"/>
<path d="M23.8473 8.78052L24.1577 8.68242C24.182 8.67473 24.2012 8.6624 24.2154 8.64579C24.2294 8.62882 24.2377 8.60824 24.2403 8.58409C24.2432 8.55942 24.2394 8.53236 24.2299 8.50308L24.1638 8.2993C24.1537 8.26839 24.1406 8.2434 24.1243 8.22388C24.1076 8.20451 24.0885 8.19215 24.0675 8.18623C24.046 8.18004 24.0227 8.18111 23.9975 8.18906L23.6871 8.28717L23.5951 8.00368L23.9141 7.90285C24.0011 7.87535 24.0802 7.86694 24.1522 7.87738C24.2239 7.88792 24.2852 7.9174 24.3364 7.96581C24.3879 8.01368 24.4268 8.07896 24.4533 8.16071L24.5481 8.45274C24.5742 8.53285 24.5799 8.6064 24.5658 8.67364C24.5516 8.74046 24.5183 8.79896 24.4661 8.8482C24.4135 8.89756 24.3446 8.93593 24.2584 8.96317L23.9394 9.064L23.8473 8.78052ZM23.4553 8.04785L23.7546 7.95327L24.3171 9.68548L24.0178 9.78006L23.4553 8.04785Z" fill="white"/>
<path d="M24.6047 7.70779L24.9084 7.62786L25.3835 9.38493L25.0798 9.46485L24.6047 7.70779ZM25.1354 9.13682L25.792 8.96398L25.8712 9.25656L25.2145 9.4294L25.1354 9.13682ZM24.939 8.41057L25.5342 8.25391L25.613 8.54525L25.0178 8.7019L24.939 8.41057ZM24.7394 7.67234L25.3961 7.49951L25.4751 7.79167L24.8184 7.96451L24.7394 7.67234Z" fill="white"/>
<path d="M26.1731 8.89517L26.4037 8.84626C26.4448 8.83756 26.4738 8.81829 26.4909 8.78892C26.5078 8.75911 26.5113 8.72211 26.5015 8.67703L26.3027 7.76468C26.293 7.71999 26.2744 7.6877 26.2465 7.6674C26.2187 7.6471 26.1843 7.64172 26.1432 7.65042L25.9126 7.69934L25.8492 7.40829L26.1107 7.35284C26.1966 7.33461 26.2736 7.33447 26.3414 7.35284C26.4097 7.37158 26.4661 7.40721 26.5113 7.4601C26.5566 7.5134 26.5882 7.5814 26.6063 7.66449L26.82 8.64529C26.8381 8.72838 26.8376 8.80361 26.8185 8.87014C26.7994 8.93708 26.7624 8.99257 26.7078 9.0369C26.6528 9.0813 26.5827 9.11279 26.4968 9.13101L26.2365 9.1862L26.1731 8.89517ZM25.6448 7.45164L25.952 7.38649L26.3393 9.16439L26.0321 9.22955L25.6448 7.45164Z" fill="white"/>
<path d="M27.1035 7.17548L27.3213 7.14014L28.0543 8.86417L27.7463 8.91412L27.3154 7.77605L27.276 8.9904L26.9685 9.0403L27.1035 7.17548ZM27.1695 8.42728L27.665 8.34691L27.7127 8.63305L27.2172 8.71343L27.1695 8.42728Z" fill="white"/>
<path d="M28.8922 7.79139L28.9552 8.33193C28.9662 8.42655 28.9576 8.50964 28.9298 8.58156C28.902 8.65349 28.8565 8.71154 28.7927 8.75531C28.729 8.79866 28.6494 8.82618 28.5548 8.83691C28.458 8.84788 28.3734 8.83984 28.3006 8.81286C28.2277 8.78587 28.1689 8.74138 28.1247 8.67934C28.0803 8.61688 28.0531 8.54001 28.0423 8.44793L27.9332 7.51111C27.9219 7.41439 27.9298 7.32879 27.9573 7.25474C27.9849 7.18068 28.0307 7.12132 28.0943 7.07669C28.158 7.03208 28.2371 7.00464 28.3322 6.99385C28.4255 6.98327 28.5075 6.99201 28.5784 7.02008C28.6492 7.04816 28.7064 7.09412 28.7495 7.158C28.7927 7.22188 28.8198 7.30094 28.8308 7.39554L28.847 7.53472L28.5258 7.57115L28.5096 7.43197C28.5062 7.40271 28.4981 7.37825 28.4858 7.35859C28.473 7.33855 28.4569 7.32405 28.4367 7.31473C28.4165 7.30583 28.3939 7.30282 28.3685 7.30569C28.341 7.30881 28.3172 7.31755 28.2984 7.33256C28.2792 7.3472 28.2654 7.36682 28.2574 7.39137C28.2488 7.41556 28.2469 7.44373 28.2506 7.47511L28.3597 8.41194C28.3627 8.43783 28.371 8.45967 28.3844 8.47794C28.3983 8.49612 28.4164 8.50913 28.4395 8.51682C28.4626 8.52493 28.4886 8.52715 28.5183 8.52377C28.5484 8.52036 28.574 8.51188 28.5951 8.49874C28.6157 8.48522 28.6311 8.46755 28.6404 8.44588C28.65 8.42373 28.6527 8.39807 28.6493 8.36922L28.6205 8.12185L28.4669 8.13926L28.4325 7.84353L28.8922 7.79139Z" fill="white"/>
<path d="M29.6528 8.74833C29.5543 8.75478 29.4685 8.74327 29.3958 8.71419C29.3232 8.68514 29.2659 8.64009 29.2249 8.57899C29.1835 8.51751 29.1598 8.44202 29.1537 8.3521L29.0866 7.35364C29.0806 7.26373 29.094 7.18581 29.1268 7.11946C29.1592 7.05271 29.21 7.0006 29.2781 6.96275C29.3463 6.92492 29.4298 6.90276 29.5283 6.89631C29.6272 6.88985 29.7126 6.90096 29.7852 6.92958C29.8579 6.95821 29.9151 7.00326 29.9566 7.06518C29.998 7.12668 30.0217 7.20217 30.0278 7.29207L30.0949 8.29053C30.1009 8.38046 30.0875 8.45838 30.0547 8.52471C30.0218 8.59064 29.9711 8.64277 29.9029 8.68102C29.8348 8.71931 29.7517 8.74187 29.6528 8.74833ZM29.632 8.43896C29.664 8.43686 29.6912 8.42866 29.7137 8.41477C29.7361 8.40046 29.7522 8.38144 29.7628 8.35763C29.7728 8.33343 29.777 8.30491 29.7748 8.27167L29.7128 7.35035C29.7107 7.31796 29.7028 7.29065 29.6895 7.26799C29.6759 7.24534 29.6574 7.22858 29.6332 7.21774C29.6091 7.2069 29.581 7.20232 29.549 7.20441C29.5171 7.20651 29.4898 7.21469 29.4682 7.22855C29.4461 7.2424 29.4301 7.26142 29.42 7.28561C29.4095 7.30985 29.4057 7.33791 29.4079 7.3703L29.4698 8.29162C29.472 8.32485 29.4796 8.35261 29.4932 8.37527C29.5064 8.3975 29.5249 8.41428 29.5487 8.42558C29.5719 8.43645 29.6 8.44104 29.632 8.43896Z" fill="white"/>
<path d="M31.1999 7.70502L31.2099 8.24902C31.2116 8.34425 31.195 8.42614 31.1603 8.4951C31.1256 8.56405 31.0746 8.61753 31.0069 8.65503C30.9392 8.69213 30.8573 8.71197 30.7621 8.71367C30.6647 8.71542 30.5813 8.69939 30.5114 8.66562C30.4415 8.63184 30.3873 8.58199 30.3493 8.51603C30.3113 8.44964 30.2916 8.37056 30.2899 8.27789L30.2726 7.33504C30.2708 7.23769 30.287 7.15325 30.3216 7.08215C30.3562 7.01106 30.4076 6.95632 30.4753 6.91793C30.543 6.87957 30.6245 6.85974 30.7202 6.85803C30.8141 6.85635 30.8949 6.87284 30.9627 6.90751C31.0304 6.94217 31.0829 6.99335 31.1196 7.06103C31.1564 7.12871 31.1756 7.20996 31.1774 7.30518L31.1799 7.44525L30.8566 7.45104L30.8541 7.31097C30.8535 7.28151 30.8478 7.25641 30.8375 7.23566C30.8267 7.2145 30.8122 7.19854 30.7929 7.18733C30.7736 7.17658 30.7515 7.17141 30.7259 7.17187C30.6982 7.17237 30.6737 7.1788 30.6536 7.19197C30.633 7.20472 30.6173 7.22294 30.6069 7.24662C30.5961 7.26988 30.5914 7.29773 30.592 7.32933L30.6094 8.27216C30.6098 8.29822 30.6159 8.32075 30.6275 8.34019C30.6395 8.35961 30.6563 8.37428 30.6785 8.38412C30.7008 8.3944 30.7264 8.39908 30.7563 8.39853C30.7866 8.39799 30.8129 8.39197 30.8352 8.3809C30.8571 8.36941 30.8741 8.35327 30.8854 8.33257C30.8971 8.31143 30.9023 8.28616 30.9018 8.25712L30.8972 8.00815L30.7427 8.01092L30.7372 7.7133L31.1999 7.70502Z" fill="white"/>
<path d="M32.2816 7.8931L32.7157 6.94541L33.0696 6.97253L32.2383 8.4428L32.2816 7.8931ZM32.1093 6.89893L32.4226 6.92294L32.2799 8.73599L31.9666 8.71197L32.1093 6.89893ZM32.4083 7.74989L32.6379 7.58029L32.9851 8.79004L32.6415 8.76371L32.4083 7.74989Z" fill="white"/>
<path d="M33.6505 7.03247L33.8696 7.05967L34.0757 8.91815L33.766 8.87969L33.6807 7.6677L33.2931 8.82094L32.9839 8.78253L33.6505 7.03247ZM33.3532 8.25117L33.8514 8.31305L33.8147 8.60076L33.3165 8.53888L33.3532 8.25117Z" fill="white"/>
<path d="M34.4695 8.67794L34.702 8.71798C34.7433 8.72511 34.7775 8.718 34.8045 8.69709C34.8316 8.67574 34.8489 8.64272 34.8569 8.5973L35.0197 7.67805C35.0276 7.63303 35.0227 7.59622 35.0046 7.56707C34.9865 7.53794 34.9567 7.52022 34.9153 7.51309L34.6829 7.47303L34.7348 7.17979L34.9984 7.22521C35.0849 7.24013 35.1563 7.26851 35.2122 7.31063C35.2683 7.35326 35.3071 7.40719 35.3289 7.47294C35.3506 7.53912 35.354 7.61385 35.3392 7.69758L35.1642 8.68581C35.1494 8.76953 35.1204 8.8391 35.0773 8.89368C35.0342 8.94866 34.9787 8.98637 34.9113 9.00727C34.8435 9.02808 34.7664 9.0313 34.6799 9.01638L34.4176 8.97117L34.4695 8.67794ZM34.5289 7.14429L34.8384 7.19766L34.5212 8.98903L34.2117 8.93566L34.5289 7.14429Z" fill="white"/>
<path d="M35.6647 8.11347L35.9887 8.18517C36.0153 8.19105 36.0391 8.19152 36.0607 8.18623C36.0818 8.18126 36.0998 8.1708 36.1139 8.15555C36.1275 8.14061 36.1374 8.12046 36.1429 8.09629L36.1879 7.89835C36.1939 7.87169 36.1942 7.84722 36.1889 7.82549C36.1832 7.80366 36.1718 7.7858 36.1551 7.77117C36.138 7.75688 36.1163 7.74683 36.0897 7.74092L35.7657 7.66923L35.8318 7.37878L36.1371 7.44637C36.2347 7.46797 36.314 7.50172 36.3757 7.54819C36.4374 7.59509 36.4798 7.65263 36.5023 7.7211C36.5248 7.78997 36.5265 7.86651 36.5073 7.95109L36.4601 8.15861C36.4403 8.24572 36.4052 8.3163 36.3547 8.37034C36.3042 8.42483 36.2406 8.46063 36.1639 8.47781C36.0873 8.49498 36.0008 8.49291 35.9041 8.47151L35.5987 8.40393L35.6647 8.11347ZM35.6945 7.34839L35.9948 7.41486L35.5911 9.19053L35.2908 9.12406L35.6945 7.34839ZM35.8608 8.40416L36.1545 8.41008L36.2458 9.33541L35.9167 9.2626L35.8608 8.40416Z" fill="white"/>
<path d="M36.9223 7.6311L37.2253 7.71336L36.7364 9.46671L36.4333 9.38447L36.9223 7.6311ZM36.6378 9.13122L37.2784 9.30511L37.1984 9.59212L36.5577 9.41822L36.6378 9.13122Z" fill="white"/>
<path d="M38.2859 8.02466L38.4957 8.09241L38.3402 9.95567L38.0436 9.85988L38.1932 8.65398L37.5906 9.71359L37.2944 9.61794L38.2859 8.02466ZM37.7593 9.16545L38.2366 9.31956L38.1451 9.59517L37.6679 9.44103L37.7593 9.16545Z" fill="white"/>
<path d="M38.9846 9.05791L39.2948 9.17465C39.3203 9.18425 39.3438 9.18809 39.366 9.1859C39.3876 9.18397 39.4069 9.17614 39.423 9.16302C39.4387 9.15017 39.4514 9.13164 39.4603 9.1085L39.5336 8.91895C39.5435 8.89343 39.5473 8.86924 39.5452 8.84699C39.5428 8.82458 39.534 8.80529 39.5197 8.78846C39.5048 8.77189 39.4848 8.75888 39.4593 8.74928L39.1491 8.63254L39.2566 8.35441L39.549 8.46446C39.6425 8.49961 39.716 8.54423 39.7704 8.59896C39.8246 8.6541 39.8582 8.71703 39.8706 8.78797C39.8828 8.85933 39.8734 8.93531 39.8421 9.0163L39.7652 9.21501C39.733 9.29842 39.688 9.36329 39.6302 9.40966C39.5723 9.45644 39.5041 9.48289 39.4258 9.48905C39.3474 9.49522 39.2621 9.48094 39.1695 9.44609L38.8771 9.33604L38.9846 9.05791ZM39.1252 8.30493L39.4127 8.41316L38.7553 10.1134L38.4678 10.0052L39.1252 8.30493ZM39.1365 9.37331L39.4263 9.42067L39.3822 10.3494L39.0672 10.2308L39.1365 9.37331Z" fill="white"/>
<path d="M40.2983 8.76416L40.5247 8.86197L40.4284 10.1449L40.3773 10.176L40.8903 9.01988L41.1528 9.13326L40.4141 10.798L40.1853 10.6991L40.2575 9.48224L40.3079 9.44946L39.8229 10.5426L39.5596 10.4288L40.2983 8.76416Z" fill="white"/>
<path d="M40.872 11.0312L40.5906 10.8932L41.4108 9.26465L41.6923 9.40263L40.872 11.0312Z" fill="white"/>
<path d="M42.0297 11.1853L42.3213 11.0839L42.5449 11.7935L42.2539 11.8967L42.0297 11.1853ZM41.9152 11.6051C41.8291 11.5576 41.7635 11.5018 41.7186 11.4384C41.6737 11.3749 41.6506 11.3064 41.6499 11.2331C41.6491 11.1593 41.6709 11.0832 41.7155 11.0046L42.2105 10.1312C42.2551 10.0526 42.3094 9.99445 42.3736 9.95646C42.4376 9.9179 42.5089 9.90146 42.587 9.90636C42.665 9.91128 42.7473 9.93759 42.8335 9.98513C42.92 10.0329 42.9854 10.088 43.0305 10.1511C43.0756 10.2141 43.0988 10.2827 43.0993 10.3569C43.1001 10.4307 43.0784 10.5068 43.0338 10.5854L42.5387 11.4588C42.4942 11.5375 42.4399 11.5956 42.3757 11.6336C42.3117 11.6712 42.2404 11.6876 42.1621 11.6831C42.0839 11.6786 42.0017 11.6528 41.9152 11.6051ZM42.0686 11.3345C42.0966 11.3499 42.1239 11.3576 42.1504 11.3581C42.1772 11.3582 42.2012 11.3508 42.2232 11.3366C42.245 11.3217 42.2642 11.3 42.2807 11.2709L42.7375 10.465C42.7535 10.4367 42.762 10.4096 42.7634 10.3834C42.7645 10.3571 42.7582 10.3331 42.7439 10.3111C42.7297 10.289 42.7087 10.27 42.6807 10.2546C42.6527 10.2392 42.6254 10.2314 42.5996 10.2314C42.5735 10.2312 42.5495 10.2385 42.5277 10.2534C42.5055 10.268 42.4868 10.2895 42.4708 10.3179L42.014 11.1238C41.9975 11.1528 41.9885 11.1801 41.9874 11.2065C41.9862 11.2322 41.9924 11.2562 42.0061 11.2785C42.0196 11.3001 42.0407 11.3191 42.0686 11.3345Z" fill="white"/>
<path d="M43.8135 10.5928L44.0006 10.7083L43.3961 12.4801L43.1315 12.3168L43.5703 11.1817L42.7274 12.0675L42.4631 11.9044L43.8135 10.5928ZM43.0246 11.5754L43.4503 11.8381L43.2944 12.0839L42.8687 11.8212L43.0246 11.5754Z" fill="white"/>
<path d="M44.225 12.2216L43.8216 12.7933L43.5637 12.6161L43.9671 12.0445L44.3338 10.9292L44.6023 11.1137L44.3077 11.8287L44.8791 11.3038L45.1473 11.488L44.225 12.2216Z" fill="white"/>
<path d="M45.4423 11.9109L45.691 12.1005L44.6586 13.4189L44.4099 13.2293L45.4423 11.9109ZM45.296 11.6067L46.0263 12.1634L45.8418 12.399L45.1115 11.8423L45.296 11.6067Z" fill="white"/>
<path d="M46.3899 12.4712L46.5576 12.6128L45.6936 14.2767L45.4564 14.0765L46.0609 13.0181L45.0943 13.7709L44.8574 13.5709L46.3899 12.4712ZM45.4621 13.3276L45.8436 13.6497L45.6526 13.87L45.271 13.548L45.4621 13.3276Z" fill="white"/>
<path d="M47.4617 13.6347L47.69 13.8478L46.5293 15.058L46.301 14.8449L47.4617 13.6347ZM47.3469 13.3176L48.0172 13.9434L47.8098 14.1597L47.1395 13.5339L47.3469 13.3176Z" fill="white"/>
<path d="M48.3374 14.2966L48.4899 14.4541L47.4611 16.0241L47.2455 15.8015L47.9545 14.8082L46.9163 15.4616L46.7009 15.2393L48.3374 14.2966ZM47.3273 15.057L47.6742 15.4151L47.4617 15.6155L47.1148 15.2573L47.3273 15.057Z" fill="white"/>
<path d="M48.3313 15.9748L47.7969 16.43L47.5916 16.1953L48.126 15.7401L48.7612 14.7493L48.9751 14.9937L48.51 15.6144L49.1955 15.2455L49.409 15.4896L48.3313 15.9748Z" fill="white"/>
<path d="M48.9733 16.7626L48.4162 17.1905L48.2231 16.9459L48.7802 16.5179L49.4655 15.5601L49.6666 15.8148L49.1702 16.4115L49.8737 16.0773L50.0745 16.3317L48.9733 16.7626Z" fill="white"/>
<path d="M48.908 17.8768C48.8514 17.7971 48.8169 17.7187 48.8044 17.6423C48.7919 17.566 48.8013 17.4943 48.833 17.428C48.8648 17.3612 48.918 17.3021 48.9928 17.2504L49.8235 16.6763C49.8983 16.6246 49.9728 16.5955 50.0474 16.5889C50.122 16.5816 50.1935 16.5974 50.2616 16.6353C50.3297 16.6732 50.3923 16.7322 50.4489 16.812C50.5057 16.8921 50.5403 16.9699 50.5532 17.046C50.566 17.1221 50.5566 17.1938 50.5244 17.2609C50.4926 17.3277 50.4395 17.3868 50.3647 17.4385L49.5339 18.0126C49.4591 18.0643 49.3846 18.0934 49.3101 18.1C49.2359 18.1065 49.1644 18.0907 49.096 18.053C49.0275 18.0153 48.9648 17.9569 48.908 17.8768ZM49.1654 17.6989C49.1838 17.7248 49.205 17.7435 49.2287 17.7553C49.2527 17.7669 49.2775 17.7706 49.3036 17.7671C49.3298 17.7631 49.3567 17.7518 49.3844 17.7327L50.1509 17.203C50.1779 17.1844 50.1974 17.1635 50.2102 17.1406C50.2228 17.1174 50.2277 17.0931 50.2246 17.0671C50.2215 17.0411 50.2109 17.015 50.1925 16.9891C50.1742 16.9633 50.153 16.9445 50.1297 16.9334C50.1063 16.922 50.0815 16.9183 50.0553 16.9223C50.0288 16.926 50.0026 16.9374 49.9756 16.956L49.2091 17.4858C49.1814 17.5049 49.1612 17.5256 49.1487 17.5488C49.1362 17.5715 49.1313 17.5958 49.1338 17.6217C49.1364 17.647 49.147 17.6731 49.1654 17.6989Z" fill="white"/>
<path d="M50.303 17.9582L50.4794 18.2357C50.4939 18.2585 50.5104 18.2755 50.5294 18.2869C50.5478 18.2982 50.568 18.3034 50.5889 18.3025C50.6092 18.3015 50.6307 18.2943 50.652 18.2811L50.8261 18.1733C50.8496 18.1588 50.8674 18.1417 50.8793 18.1227C50.891 18.1034 50.8958 18.0828 50.8946 18.0608C50.8928 18.0387 50.8848 18.0165 50.8703 17.9937L50.6938 17.7162L50.9494 17.558L51.1158 17.8195C51.1689 17.9031 51.2004 17.9824 51.2104 18.0584C51.2201 18.1346 51.2085 18.2048 51.1751 18.2688C51.1414 18.3331 51.0875 18.3881 51.013 18.4342L50.8304 18.5473C50.7538 18.5947 50.6783 18.6198 50.6039 18.6225C50.5291 18.6255 50.4585 18.6061 50.3922 18.5645C50.3258 18.5229 50.2664 18.4608 50.2137 18.378L50.0474 18.1164L50.303 17.9582ZM50.8746 17.4404L51.0382 17.6976L49.4758 18.6649L49.3123 18.4077L50.8746 17.4404ZM50.2318 18.3003L50.4343 18.5102L49.8325 19.2256L49.6532 18.9438L50.2318 18.3003Z" fill="white"/>
<path d="M51.5453 18.5002L51.6987 18.7709L50.0899 19.6585L49.9365 19.3878L51.5453 18.5002ZM50.2628 19.3536L50.5871 19.9258L50.3238 20.0711L49.9995 19.4989L50.2628 19.3536Z" fill="white"/>
<path d="M52.2296 19.7334L52.3275 19.9286L50.8707 21.1241L50.7322 20.8481L51.7094 20.1089L50.5208 20.4267L50.3826 20.1511L52.2296 19.7334ZM51.0355 20.1616L51.2582 20.6056L50.9948 20.7342L50.7721 20.2902L51.0355 20.1616Z" fill="white"/>
<path d="M51.053 21.5547C51.0145 21.4674 50.9983 21.3854 51.0037 21.3086C51.0091 21.2318 51.0355 21.1632 51.0832 21.1032C51.1311 21.0436 51.1987 20.9946 51.2861 20.9572L51.377 20.9183L51.504 21.2005L51.4131 21.2394C51.3706 21.2576 51.3426 21.2841 51.3283 21.3181C51.3142 21.3526 51.3167 21.3906 51.3352 21.4325C51.3534 21.474 51.3793 21.5007 51.4135 21.513C51.4472 21.5251 51.4851 21.5224 51.5268 21.5045L51.6746 21.4413C51.7059 21.4278 51.7287 21.4078 51.7442 21.3807C51.7596 21.3536 51.7694 21.3233 51.7741 21.2888C51.7788 21.2546 51.7829 21.2091 51.7854 21.1526C51.7856 21.1488 51.786 21.1454 51.7864 21.142C51.7868 21.1385 51.7871 21.1351 51.7874 21.1313L51.7876 21.1135C51.7921 21.038 51.8022 20.9709 51.8176 20.9126C51.8324 20.8541 51.8621 20.7981 51.9061 20.7448C51.9498 20.6917 52.0133 20.6472 52.0963 20.6117L52.1836 20.5743C52.2694 20.5376 52.3503 20.522 52.4262 20.5282C52.5024 20.5342 52.5701 20.5615 52.6299 20.6095C52.6897 20.6574 52.7389 20.7253 52.7772 20.8122C52.8145 20.8973 52.8303 20.9771 52.8248 21.0526C52.8191 21.1276 52.7924 21.1945 52.7442 21.2533C52.6956 21.3123 52.6276 21.3605 52.5402 21.3979L52.4449 21.4387L52.3168 21.157L52.4133 21.1156C52.4565 21.0971 52.4859 21.0715 52.5004 21.0392C52.5154 21.0067 52.514 20.9715 52.4968 20.9323C52.4787 20.8911 52.4539 20.8636 52.4218 20.8508C52.3896 20.8376 52.3544 20.8392 52.3155 20.8558L52.2027 20.9041C52.1709 20.9177 52.1472 20.9377 52.131 20.9642C52.1148 20.9906 52.1045 21.0197 52.0994 21.0512C52.0946 21.0831 52.0907 21.1257 52.0875 21.1797C52.0873 21.19 52.0872 21.2004 52.0862 21.211C52.0854 21.2221 52.085 21.2329 52.0842 21.244C52.0841 21.2459 52.084 21.2478 52.0835 21.2489C52.0832 21.2504 52.0831 21.2523 52.083 21.2542C52.0768 21.3323 52.068 21.3971 52.0557 21.4485C52.0439 21.5001 52.0177 21.5509 51.9769 21.6009C51.9366 21.6508 51.8751 21.6934 51.7929 21.7286L51.652 21.7889C51.5646 21.8263 51.4825 21.8424 51.4058 21.8366C51.3292 21.8308 51.2607 21.8038 51.2005 21.756C51.1403 21.7082 51.0911 21.6413 51.053 21.5547Z" fill="white"/>
<path d="M53.2648 22.018L53.3754 22.3082L51.6502 22.9482L51.5396 22.6579L53.2648 22.018ZM53.0668 21.4983L53.1774 21.7885L51.4521 22.4285L51.3416 22.1382L53.0668 21.4983ZM52.3827 21.9094L52.6001 22.4799L52.3234 22.5826L52.106 22.0121L52.3827 21.9094Z" fill="white"/>
<path d="M53.6196 22.9824L53.7213 23.2956L52.5628 23.8447L53.8289 23.6271L53.9306 23.9402L52.0712 24.1759L51.9675 23.8566L53.6196 22.9824Z" fill="white"/>
<path d="M54.0386 24.3611L54.0955 24.5715L52.4279 25.4595L52.3475 25.162L53.4534 24.6278L52.2246 24.7077L52.1443 24.4106L54.0386 24.3611ZM52.7823 24.5481L52.9117 25.0268L52.6277 25.1015L52.4983 24.6228L52.7823 24.5481Z" fill="white"/>
<path d="M52.6282 26.505C52.6134 26.4161 52.619 26.3365 52.6441 26.2662C52.6697 26.1958 52.714 26.138 52.7772 26.0931C52.8407 26.0481 52.9199 26.018 53.0161 26.0024L54.3944 25.7788L54.4456 26.086L53.0583 26.3111C53.0143 26.3182 52.9814 26.3344 52.9607 26.3598C52.9395 26.3853 52.932 26.4168 52.9383 26.4547C52.9448 26.4935 52.9622 26.5218 52.9906 26.5393C53.0186 26.5573 53.055 26.5626 53.099 26.5555L54.4864 26.3304L54.5376 26.6376L53.1592 26.8612C53.0631 26.8768 52.9782 26.8733 52.9034 26.8504C52.8289 26.8274 52.7681 26.7862 52.721 26.7276C52.6744 26.6689 52.6432 26.5948 52.6282 26.505Z" fill="white"/>
<path d="M54.5972 26.8984L54.6331 27.2065L52.802 27.4142L52.7661 27.1061L54.5972 26.8984ZM53.0806 27.1986L53.1565 27.8499L52.8567 27.8839L52.7808 27.2326L53.0806 27.1986Z" fill="white"/>
<path d="M54.7623 28.2917L54.7769 28.509L52.9668 29.0623L52.9462 28.755L54.1359 28.4418L52.9147 28.2858L52.894 27.979L54.7623 28.2917ZM53.493 28.2356L53.5263 28.7299L53.233 28.7491L53.1998 28.2548L53.493 28.2356Z" fill="white"/>
<path d="M54.0776 29.3163L54.0836 29.6438C54.0841 29.6707 54.0893 29.6936 54.0996 29.7131C54.1095 29.7322 54.1241 29.7468 54.1424 29.7568C54.1604 29.7663 54.1825 29.771 54.2076 29.7705L54.4132 29.7669C54.4409 29.7664 54.4651 29.7608 54.4852 29.7506C54.5054 29.74 54.5202 29.7248 54.5307 29.7054C54.5407 29.6855 54.5455 29.6624 54.545 29.6355L54.539 29.308L54.8407 29.3026L54.8463 29.6113C54.8481 29.7099 54.8337 29.7939 54.8025 29.8641C54.7709 29.9343 54.7243 29.9885 54.6622 30.0264C54.5997 30.0642 54.5247 30.0839 54.4368 30.0855L54.2213 30.0894C54.1308 30.091 54.053 30.074 53.9879 30.0385C53.9223 30.0029 53.8719 29.9504 53.8369 29.881C53.8019 29.8115 53.7834 29.7282 53.7816 29.6304L53.7759 29.3217L54.0776 29.3163ZM54.8381 29.1638L54.8437 29.4674L52.9995 29.5004L52.9939 29.1968L54.8381 29.1638ZM53.8377 29.573L53.9014 29.8559L53.0117 30.1623L53.0055 29.8297L53.8377 29.573Z" fill="white"/>
<path d="M54.8698 30.4081L54.8624 30.6518L53.6203 31.043L53.572 31.0079L54.8506 31.0454L54.842 31.328L53.001 31.274L53.0084 31.0276L54.1794 30.639L54.2291 30.673L53.0202 30.6375L53.0287 30.354L54.8698 30.4081Z" fill="white"/>
<path d="M52.9844 31.7819L52.9937 31.4719L54.8361 31.526L54.8268 31.836L52.9844 31.7819Z" fill="white"/>
<path d="M54.8005 32.12L54.7813 32.3631L53.5216 32.6954L53.4751 32.658L54.7504 32.7557L54.7282 33.0376L52.8918 32.8968L52.9112 32.6512L54.0997 32.3182L54.1477 32.3544L52.9418 32.262L52.9641 31.9792L54.8005 32.12Z" fill="white"/>
<path d="M53.7256 34.1408L53.1784 34.0729C53.0826 34.061 53.0029 34.033 52.9387 33.9893C52.8744 33.9456 52.8281 33.8881 52.8001 33.8167C52.7726 33.7452 52.7644 33.6624 52.7763 33.5692C52.7885 33.4739 52.8165 33.3947 52.8603 33.3313C52.9042 33.2678 52.962 33.2221 53.0336 33.1944C53.1056 33.1667 53.1877 33.1589 53.2809 33.1704L54.2292 33.2883C54.3271 33.3004 54.4095 33.3283 54.4759 33.3723C54.5423 33.4162 54.5898 33.4743 54.6187 33.5458C54.6475 33.6174 54.6557 33.6998 54.6438 33.7935C54.6321 33.8854 54.6039 33.962 54.5595 34.0232C54.515 34.0844 54.4562 34.1283 54.383 34.1545C54.3099 34.1807 54.2257 34.1879 54.1299 34.176L53.989 34.1585L54.0294 33.842L54.1703 33.8595C54.1999 33.8631 54.2259 33.8612 54.2482 33.8541C54.271 33.8466 54.289 33.8346 54.303 33.8174C54.3166 33.8002 54.3249 33.7792 54.3281 33.7542C54.3316 33.7271 54.3286 33.7022 54.3183 33.6807C54.3085 33.6588 54.2924 33.6409 54.2701 33.6274C54.2484 33.6135 54.2211 33.6049 54.1893 33.601L53.241 33.4832C53.2148 33.4799 53.1914 33.4826 53.1702 33.4912C53.149 33.5001 53.1319 33.5144 53.1188 33.5347C53.1053 33.555 53.097 33.5793 53.0933 33.6086C53.0895 33.6382 53.0917 33.6648 53.0997 33.6881C53.1081 33.7111 53.1218 33.7301 53.141 33.7441C53.1605 33.7586 53.1851 33.7672 53.2143 33.7708L53.4647 33.8019L53.484 33.6507L53.7834 33.6879L53.7256 34.1408Z" fill="white"/>
<path d="M54.1942 36.0279L54.1298 36.3109L52.3313 35.9128L52.3926 35.6432L53.6484 35.9211L53.5648 35.9219L52.7651 35.4744L52.7995 35.3231L53.6918 35.2501L53.7901 35.2977L52.5344 35.0198L52.5971 34.7439L54.3956 35.1419L54.3296 35.4324L53.2857 35.5104L54.1942 36.0279Z" fill="white"/>
<path d="M53.956 36.9193L53.8975 37.1293L52.0037 37.0653L52.0864 36.7684L53.3145 36.8581L52.2129 36.315L52.2955 36.0186L53.956 36.9193ZM52.7759 36.455L52.6427 36.9327L52.3593 36.8558L52.4925 36.3781L52.7759 36.455Z" fill="white"/>
<path d="M53.7002 37.7559L53.6025 38.0506L51.8507 37.4849L51.9485 37.1902L53.7002 37.7559ZM52.1951 37.4037L51.9884 38.0268L51.7017 37.9342L51.9084 37.3111L52.1951 37.4037Z" fill="white"/>
<path d="M53.2249 39.0773L53.1462 39.2807L51.2673 39.038L51.3786 38.7503L52.5922 38.9557L51.5484 38.311L51.6595 38.0237L53.2249 39.0773ZM52.0953 38.5035L51.9163 38.9664L51.6417 38.8631L51.8207 38.4002L52.0953 38.5035Z" fill="white"/>
<path d="M51.8802 39.7198L52.6445 40.436L52.5022 40.7568L51.3683 39.4987L51.8802 39.7198ZM52.8884 39.8863L52.7624 40.1703L51.0739 39.441L51.2 39.157L52.8884 39.8863ZM51.9756 39.885L52.0624 40.1547L50.7903 40.0803L50.9285 39.7689L51.9756 39.885Z" fill="white"/>
<path d="M52.2297 41.2691L52.1315 41.4642L50.2852 41.0435L50.424 40.7678L51.6119 41.0878L50.6361 40.3467L50.7748 40.0713L52.2297 41.2691ZM51.1615 40.5904L50.9381 41.0341L50.6749 40.905L50.8983 40.4614L51.1615 40.5904Z" fill="white"/>
<path d="M50.0207 41.4327C50.0678 41.3496 50.124 41.2871 50.1892 41.2448C50.2544 41.2024 50.3257 41.1816 50.4029 41.1827C50.48 41.1841 50.5605 41.2074 50.6436 41.2533L50.7302 41.301L50.5797 41.5718L50.4931 41.5241C50.4527 41.5018 50.4144 41.4958 50.3783 41.5052C50.342 41.515 50.3129 41.5401 50.2903 41.58C50.2679 41.6195 50.2621 41.656 50.2729 41.6903C50.2836 41.724 50.3088 41.7522 50.3485 41.7741L50.489 41.8516C50.5189 41.8681 50.5488 41.8738 50.58 41.8695C50.6112 41.8652 50.6416 41.8546 50.6722 41.8372C50.7027 41.8203 50.7418 41.7958 50.7889 41.7636C50.7921 41.7614 50.7951 41.7596 50.798 41.7579C50.801 41.7561 50.804 41.7543 50.8072 41.7522L50.8217 41.7416C50.8853 41.6993 50.9456 41.6665 51.0019 41.6433C51.058 41.6195 51.1211 41.6088 51.1908 41.611C51.2601 41.613 51.3344 41.6359 51.4133 41.6795L51.4964 41.7253C51.5781 41.7704 51.6397 41.8244 51.6807 41.8877C51.7221 41.9511 51.7411 42.0208 51.7387 42.0968C51.7363 42.1728 51.7114 42.2525 51.6645 42.3353C51.6187 42.4162 51.5639 42.477 51.4997 42.5184C51.4358 42.5595 51.3657 42.579 51.2891 42.5769C51.2121 42.5745 51.132 42.5504 51.0489 42.5045L50.9582 42.4545L51.1075 42.1831L51.1993 42.2338C51.2405 42.2565 51.2789 42.264 51.3138 42.2558C51.3491 42.2479 51.3767 42.2254 51.3978 42.1881C51.42 42.149 51.4271 42.1128 51.418 42.0799C51.4091 42.0466 51.3865 42.0199 51.3495 41.9995L51.2422 41.9403C51.212 41.9236 51.1815 41.9171 51.1503 41.9204C51.1191 41.9238 51.0894 41.9333 51.061 41.9485C51.0324 41.964 50.9956 41.9868 50.9502 42.017C50.9418 42.0231 50.9334 42.0293 50.9242 42.035C50.9148 42.041 50.9058 42.0473 50.8964 42.0534C50.8948 42.0544 50.8932 42.0555 50.892 42.0559C50.8906 42.0566 50.889 42.0576 50.8874 42.0587C50.8207 42.1012 50.7632 42.1335 50.7143 42.155C50.6656 42.1771 50.6087 42.1873 50.5437 42.1857C50.479 42.1842 50.4074 42.1618 50.3292 42.1187L50.1951 42.0447C50.112 41.9988 50.0492 41.9441 50.0074 41.8804C49.9656 41.8168 49.9459 41.7467 49.9479 41.6705C49.9499 41.5943 49.974 41.5151 50.0207 41.4327Z" fill="white"/>
<path d="M49.5439 42.238L49.7106 41.9751L51.2733 42.9394L51.1066 43.2023L49.5439 42.238Z" fill="white"/>
<path d="M50.9558 43.449L50.8145 43.6492L49.5577 43.3067L49.5367 43.2512L50.5865 43.9723L50.4227 44.2043L48.9111 43.1659L49.0538 42.9637L50.2498 43.27L50.2725 43.3252L49.2799 42.6434L49.4442 42.4106L50.9558 43.449Z" fill="white"/>
<path d="M48.6064 43.5757L48.7986 43.3303L50.2572 44.4421L50.065 44.6875L48.6064 43.5757Z" fill="white"/>
<path d="M47.8491 44.486C47.9132 44.412 47.9816 44.3595 48.0534 44.3285C48.1253 44.2976 48.198 44.2887 48.2709 44.3024C48.3444 44.3162 48.4157 44.3522 48.4851 44.4108L49.2558 45.0613C49.3252 45.1198 49.3723 45.1838 49.3975 45.2533C49.4232 45.3228 49.4255 45.3951 49.4053 45.4696C49.3851 45.5442 49.3428 45.6186 49.2786 45.6926C49.2142 45.7669 49.1465 45.8194 49.0749 45.8506C49.0034 45.8819 48.9307 45.8908 48.8569 45.8767C48.7834 45.863 48.712 45.827 48.6426 45.7684L47.872 45.1179C47.8025 45.0593 47.7554 44.9954 47.7303 44.9258C47.7055 44.8566 47.7032 44.7844 47.7231 44.7095C47.7429 44.6347 47.7846 44.5603 47.8491 44.486ZM48.0879 44.6875C48.0671 44.7116 48.054 44.7365 48.0483 44.7621C48.043 44.7879 48.0456 44.8126 48.0554 44.8367C48.0659 44.8607 48.0837 44.8835 48.1094 44.9052L48.8205 45.5054C48.8455 45.5265 48.8708 45.5401 48.8965 45.5466C48.9225 45.5527 48.9476 45.5514 48.9723 45.5419C48.997 45.5325 49.02 45.5159 49.0408 45.4919C49.0616 45.4678 49.0747 45.4429 49.0798 45.418C49.0852 45.3927 49.0826 45.3681 49.0721 45.344C49.0619 45.3197 49.0442 45.2974 49.0192 45.2763L48.308 44.6761C48.2824 44.6544 48.257 44.6403 48.231 44.6341C48.2057 44.6279 48.1806 44.6292 48.1558 44.6381C48.1317 44.6469 48.1087 44.6635 48.0879 44.6875Z" fill="white"/>
<path d="M47.1329 45.2875C47.1993 45.2183 47.2693 45.1714 47.343 45.1461C47.4167 45.1209 47.491 45.1179 47.5657 45.1377C47.64 45.1577 47.7123 45.1998 47.7814 45.2644L47.8534 45.3316L47.6402 45.5577L47.5682 45.4904C47.5346 45.459 47.4989 45.444 47.4616 45.4444C47.4239 45.4451 47.3895 45.4624 47.3577 45.4956C47.3262 45.5284 47.3115 45.5624 47.3134 45.5983C47.3153 45.6336 47.3328 45.667 47.3658 45.6978L47.4827 45.807C47.5076 45.8302 47.5352 45.843 47.5665 45.8464C47.5979 45.8497 47.6299 45.8468 47.664 45.8374C47.6977 45.8283 47.7417 45.8141 47.7953 45.7942C47.799 45.7929 47.8023 45.7919 47.8056 45.7909C47.809 45.7899 47.8123 45.7889 47.816 45.7876L47.8326 45.7808C47.9048 45.7553 47.9713 45.7381 48.0317 45.7292C48.0921 45.7197 48.1559 45.7246 48.2229 45.7436C48.2896 45.7623 48.3559 45.8025 48.4216 45.8639L48.4908 45.9284C48.5587 45.9918 48.605 46.0591 48.629 46.1304C48.6534 46.202 48.6545 46.2741 48.6333 46.3472C48.6121 46.4203 48.5681 46.4916 48.502 46.5604C48.4375 46.6278 48.3693 46.6734 48.2968 46.6981C48.2246 46.7224 48.1517 46.7244 48.078 46.7037C48.0039 46.6828 47.9323 46.64 47.8631 46.5754L47.7877 46.505L47.9999 46.2781L48.0764 46.3494C48.1106 46.3814 48.146 46.3979 48.1818 46.3985C48.218 46.3993 48.2503 46.3842 48.2801 46.3532C48.3113 46.3206 48.3272 46.2873 48.3266 46.2531C48.3262 46.2187 48.311 46.1874 48.2801 46.1587L48.1908 46.0753C48.1657 46.0518 48.1378 46.0381 48.1067 46.0338C48.0757 46.0295 48.0445 46.0315 48.0132 46.0393C47.9815 46.0474 47.9403 46.0607 47.8887 46.079C47.879 46.0829 47.8694 46.0868 47.859 46.0901C47.8484 46.0937 47.8381 46.0976 47.8275 46.1012C47.8257 46.1019 47.8239 46.1025 47.8226 46.1025C47.8211 46.1029 47.8193 46.1035 47.8175 46.1042C47.7422 46.1292 47.6784 46.1466 47.6257 46.1556C47.573 46.1652 47.5153 46.1614 47.4527 46.144C47.3904 46.127 47.3265 46.088 47.2614 46.0272L47.1498 45.923C47.0806 45.8584 47.0334 45.7902 47.0087 45.7184C46.984 45.6466 46.9823 45.5738 47.0032 45.5004C47.0241 45.427 47.0672 45.3561 47.1329 45.2875Z" fill="white"/>
<path d="M47.5665 47.4742L47.3393 47.6884L46.0659 46.3737L46.2931 46.1594L47.5665 47.4742ZM47.9734 47.0906L47.7462 47.3048L46.4728 45.9901L46.7 45.7759L47.9734 47.0906ZM47.3217 46.6311L46.8751 47.0521L46.6709 46.8412L47.1175 46.4202L47.3217 46.6311Z" fill="white"/>
<path d="M45.6931 46.725L45.9203 46.5107L47.1937 47.8255L46.9665 48.0397L45.6931 46.725Z" fill="white"/>
<path d="M46.1366 47.7471L45.8853 47.9612C45.8647 47.9788 45.8501 47.9974 45.8415 48.0177C45.833 48.0373 45.8309 48.0578 45.8349 48.078C45.8389 48.0977 45.8495 48.1176 45.8659 48.1363L46.0002 48.2899C46.0183 48.3105 46.0381 48.3253 46.0589 48.3341C46.0801 48.3426 46.1015 48.3441 46.1233 48.3397C46.1451 48.3346 46.1662 48.3234 46.1869 48.3058L46.4382 48.0917L46.6354 48.3171L46.3985 48.5188C46.3228 48.5833 46.2481 48.626 46.1735 48.6473C46.0986 48.6682 46.0265 48.6675 45.9573 48.6447C45.8878 48.6215 45.8245 48.5772 45.7671 48.5116L45.6262 48.3506C45.5671 48.283 45.5305 48.2132 45.5166 48.141C45.5023 48.0685 45.511 47.9968 45.5427 47.9258C45.5744 47.8548 45.6275 47.7875 45.7026 47.7236L45.9394 47.5218L46.1366 47.7471ZM46.7418 48.2263L46.5089 48.4248L45.3035 47.0473L45.5365 46.8489L46.7418 48.2263ZM45.7832 47.7294L45.6035 47.9587L44.7957 47.4799L45.0509 47.2625L45.7832 47.7294Z" fill="white"/>
<path d="M44.4077 47.7652L44.6557 47.5747L45.7881 49.0095L45.5401 49.2L44.4077 47.7652Z" fill="white"/>
<path d="M43.8879 48.1292C43.9669 48.0746 44.0451 48.0425 44.1224 48.0323C44.1997 48.0222 44.2731 48.034 44.3423 48.0681C44.4111 48.1024 44.4732 48.158 44.5279 48.235L44.5847 48.3151L44.3299 48.4943L44.273 48.4142C44.2464 48.3768 44.2146 48.355 44.1779 48.348C44.1409 48.3413 44.1037 48.3513 44.0657 48.3776C44.0282 48.4035 44.0069 48.4339 44.0015 48.4694C43.9962 48.5044 44.0065 48.5405 44.0326 48.5772L44.1249 48.7074C44.1446 48.735 44.169 48.753 44.199 48.7626C44.229 48.7721 44.261 48.7755 44.2963 48.773C44.3312 48.7708 44.3772 48.7656 44.4338 48.7568C44.4376 48.7562 44.4411 48.7559 44.4445 48.7556C44.448 48.7552 44.4515 48.7549 44.4553 48.7544L44.473 48.751C44.5489 48.7403 44.6176 48.7366 44.6786 48.7398C44.7397 48.7425 44.8012 48.7599 44.8629 48.7918C44.9244 48.8233 44.9813 48.8758 45.0332 48.9489L45.0878 49.0259C45.1414 49.1014 45.1731 49.1766 45.1822 49.2511C45.1915 49.326 45.1779 49.3969 45.1422 49.4643C45.1066 49.5317 45.049 49.5929 44.9703 49.6473C44.8934 49.7004 44.8173 49.7317 44.7412 49.7414C44.6656 49.751 44.5938 49.7385 44.5257 49.7037C44.4574 49.6685 44.396 49.6124 44.3413 49.5355L44.2817 49.4515L44.5358 49.2712L44.5962 49.3563C44.6232 49.3944 44.6545 49.4176 44.6895 49.4252C44.7248 49.4332 44.7595 49.4248 44.795 49.4003C44.8322 49.3746 44.8546 49.345 44.8609 49.3115C44.8675 49.2777 44.8589 49.244 44.8346 49.2097L44.7641 49.1104C44.7442 49.0824 44.7196 49.0634 44.6901 49.0531C44.6605 49.0427 44.6296 49.0386 44.5973 49.04C44.5647 49.0417 44.5216 49.0465 44.4674 49.0542C44.4571 49.0561 44.4468 49.058 44.436 49.0592C44.4249 49.0606 44.414 49.0624 44.4029 49.0638C44.401 49.0641 44.399 49.0644 44.3978 49.0642C44.3962 49.0642 44.3943 49.0645 44.3924 49.0648C44.3136 49.0744 44.2476 49.0789 44.1941 49.0772C44.1405 49.0762 44.0848 49.061 44.027 49.0316C43.9694 49.0026 43.9147 48.9517 43.8633 48.8793L43.7752 48.7551C43.7205 48.6782 43.6881 48.602 43.6786 48.5267C43.669 48.4515 43.6821 48.3799 43.7175 48.3121C43.7529 48.2444 43.8095 48.1834 43.8879 48.1292Z" fill="white"/>
<path d="M43.8721 50.3645L43.6059 50.5293L42.6262 48.9889L42.8924 48.8241L43.8721 50.3645ZM44.3488 50.0694L44.0826 50.2342L43.1029 48.6939L43.369 48.5291L44.3488 50.0694ZM43.804 49.49L43.2807 49.814L43.1236 49.5669L43.6468 49.243L43.804 49.49Z" fill="white"/>
<path d="M41.7349 49.5119L42.0092 49.3606L42.9088 50.9478L42.6345 51.0991L41.7349 49.5119Z" fill="white"/>
<path d="M42.3867 51.2571L42.1652 51.3653L41.2313 50.4675L41.2401 50.4089L41.8075 51.5399L41.5507 51.6653L40.7336 50.0367L40.9575 49.9274L41.8556 50.7645L41.8486 50.8237L41.3121 49.7542L41.5697 49.6284L42.3867 51.2571Z" fill="white"/>
<path d="M40.1294 50.3055C40.218 50.2676 40.3011 50.2515 40.3789 50.2569C40.4567 50.2622 40.5262 50.2883 40.5871 50.3353C40.6475 50.3825 40.6971 50.4493 40.735 50.5355L40.7745 50.6252L40.4884 50.7505L40.449 50.6607C40.4305 50.6188 40.4037 50.5912 40.3692 50.5771C40.3343 50.5632 40.2958 50.5657 40.2533 50.5839C40.2112 50.6019 40.1842 50.6274 40.1717 50.6612C40.1594 50.6944 40.1622 50.7319 40.1803 50.773L40.2444 50.9187C40.258 50.9497 40.2783 50.9722 40.3058 50.9874C40.3332 51.0027 40.3639 51.0124 40.399 51.0169C40.4336 51.0216 40.4797 51.0256 40.537 51.0281C40.5408 51.0283 40.5443 51.0287 40.5478 51.0291C40.5512 51.0295 40.5547 51.0298 40.5586 51.0301L40.5766 51.0302C40.6531 51.0347 40.7212 51.0447 40.7803 51.0599C40.8396 51.0745 40.8963 51.1038 40.9503 51.1472C41.0042 51.1903 41.0492 51.2529 41.0852 51.3348L41.1231 51.421C41.1604 51.5056 41.1761 51.5855 41.1699 51.6603C41.1638 51.7355 41.1361 51.8023 41.0875 51.8613C41.0389 51.9203 40.9701 51.9688 40.882 52.0066C40.7958 52.0435 40.7149 52.0591 40.6384 52.0536C40.5623 52.048 40.4945 52.0216 40.4349 51.9741C40.3751 51.9261 40.3263 51.859 40.2884 51.7728L40.247 51.6788L40.5326 51.5524L40.5744 51.6476C40.5932 51.6903 40.6192 51.7192 40.6519 51.7336C40.6848 51.7483 40.7206 51.747 40.7603 51.73C40.802 51.7122 40.8299 51.6877 40.8429 51.656C40.8563 51.6242 40.8547 51.5895 40.8378 51.5511L40.7888 51.4398C40.775 51.4085 40.7548 51.385 40.728 51.3691C40.7011 51.3531 40.6717 51.3429 40.6398 51.3379C40.6074 51.3331 40.5642 51.3293 40.5095 51.3262C40.4991 51.326 40.4886 51.3258 40.4778 51.3249C40.4666 51.3241 40.4556 51.3237 40.4444 51.3229C40.4424 51.3228 40.4405 51.3227 40.4394 51.3222C40.4378 51.322 40.4359 51.3219 40.434 51.3218C40.3548 51.3156 40.2892 51.307 40.2371 51.2948C40.1848 51.2832 40.1333 51.2573 40.0826 51.2171C40.0321 51.1773 39.9889 51.1166 39.9532 51.0355L39.892 50.8964C39.8541 50.8103 39.8378 50.7292 39.8437 50.6536C39.8496 50.578 39.877 50.5104 39.9254 50.451C39.9739 50.3916 40.0417 50.343 40.1294 50.3055Z" fill="white"/>
<path d="M39.9453 52.2277L39.6511 52.3368L39.0569 50.7773L39.351 50.6682L39.9453 52.2277ZM40.2845 52.2647L39.4207 52.5851L39.3145 52.3065L40.1783 51.9861L40.2845 52.2647Z" fill="white"/>
<path d="M38.3613 51.0354L38.6555 50.9263L39.3042 52.6285L39.01 52.7376L38.3613 51.0354Z" fill="white"/>
<path d="M38.4232 52.7762L38.1239 52.8708L37.6086 51.2838L37.9079 51.1892L38.4232 52.7762ZM38.7602 52.8298L37.8813 53.1076L37.7892 52.8241L38.6681 52.5463L38.7602 52.8298Z" fill="white"/>
<path d="M36.8153 51.498C36.9035 51.4748 36.9844 51.4725 37.0578 51.4903C37.1313 51.5085 37.1939 51.5464 37.2454 51.604C37.2969 51.662 37.3351 51.7369 37.3602 51.8297L37.7203 53.1613L37.4154 53.2416L37.0529 51.9013C37.0414 51.8588 37.0219 51.8281 36.9942 51.8102C36.9664 51.7919 36.9339 51.7877 36.8963 51.7976C36.8578 51.8077 36.8309 51.8276 36.8161 51.8571C36.8007 51.8864 36.7988 51.9227 36.8103 51.9652L37.1728 53.3054L36.8679 53.3857L36.5078 52.0541C36.4827 51.9613 36.478 51.8776 36.4938 51.8018C36.5097 51.7265 36.5453 51.6627 36.5998 51.6108C36.6544 51.5593 36.7262 51.5214 36.8153 51.498Z" fill="white"/>
<path d="M36.3762 53.3515L36.0689 53.4167L35.7141 51.7878L36.0214 51.7227L36.3762 53.3515ZM36.7061 53.4375L35.8039 53.6288L35.7405 53.3378L36.6427 53.1464L36.7061 53.4375Z" fill="white"/>
<path d="M34.9873 51.9419L35.2946 51.8767L35.6819 53.6546L35.3746 53.7198L34.9873 51.9419Z" fill="white"/>
<path d="M29.8571 51.8286H30.4183L30.9119 51.3416L31.4055 51.8286H32.1037V52.5173L32.5973 53.0043L32.1037 53.4914V54.1801H31.4055L30.9119 54.6671L30.4183 54.1801H29.7202V53.4914L29.2266 53.0043L29.7202 52.5173V51.8286H29.8571ZM30.475 52.0987H29.994V52.6292L29.6138 53.0043L29.994 53.3795V53.91H30.5317L30.9119 54.2851L31.2921 53.91H31.8298V53.3795L32.2101 53.0043L31.8298 52.6292V52.0987H31.2921L30.9119 51.7236L30.5317 52.0987H30.475Z" fill="white"/>
<path fill-rule="evenodd" clip-rule="evenodd" d="M30.782 52.356C30.9731 52.356 31.1452 52.4365 31.2652 52.565C31.1751 52.5009 31.0645 52.4631 30.945 52.4631C30.642 52.4631 30.3963 52.7055 30.3963 53.0044C30.3963 53.3033 30.642 53.5457 30.945 53.5457C31.0645 53.5457 31.1751 53.5079 31.2652 53.4439C31.1452 53.5723 30.9731 53.6529 30.782 53.6529C30.419 53.6529 30.1248 53.3625 30.1248 53.0044C30.1248 52.6463 30.419 52.356 30.782 52.356Z" fill="white"/>
<path fill-rule="evenodd" clip-rule="evenodd" d="M31.2625 52.6187L31.365 52.9322L31.699 52.9315L31.4284 53.1247L31.5322 53.4378L31.2625 53.2437L30.9927 53.4378L31.0965 53.1247L30.8259 52.9315L31.1599 52.9322L31.2625 52.6187Z" fill="white"/>
</svg>
