<?xml version="1.0" encoding="UTF-8"?>
<!DOCTYPE svg PUBLIC "-//W3C//DTD SVG 1.1//EN" "http://www.w3.org/Graphics/SVG/1.1/DTD/svg11.dtd">
<!-- Creator: CorelDRAW 2020 (64-Bit) -->
<svg xmlns="http://www.w3.org/2000/svg" xml:space="preserve" width="135.756mm" height="135.756mm" version="1.1" style="shape-rendering:geometricPrecision; text-rendering:geometricPrecision; image-rendering:optimizeQuality; fill-rule:evenodd; clip-rule:evenodd"
viewBox="0 0 3199.96 3199.96"
 xmlns:xlink="http://www.w3.org/1999/xlink"
 xmlns:xodm="http://www.corel.com/coreldraw/odm/2003">
 <defs>
  <style type="text/css">
   <![CDATA[
    .fil0 {fill:none}
    .fil4 {fill:#094D51}
    .fil6 {fill:#094D51}
    .fil3 {fill:#283770}
    .fil5 {fill:#094D51;fill-rule:nonzero}
    .fil1 {fill:#094D51;fill-rule:nonzero}
    .fil2 {fill:#283770;fill-rule:nonzero}
   ]]>
  </style>
 </defs>
 <g id="Слой_x0020_1">
  <metadata id="CorelCorpID_0Corel-Layer"/>
  <ellipse class="fil0" transform="matrix(-0.0305758 -0.0413858 0.0460762 -0.0340411 1600.11 1611.23)" rx="26662.76" ry="23948.59"/>
  <path class="fil1" d="M1599.98 0c441.82,0 841.81,179.08 1131.36,468.63 289.54,289.54 468.63,689.54 468.63,1131.36 0,441.82 -179.09,841.81 -468.63,1131.36 -289.54,289.54 -689.54,468.63 -1131.36,468.63 -441.82,0 -841.82,-179.09 -1131.36,-468.63 -289.54,-289.54 -468.63,-689.54 -468.63,-1131.36 0,-441.82 179.08,-841.82 468.63,-1131.36 289.54,-289.54 689.54,-468.63 1131.36,-468.63zm1090.97 509.01c-279.2,-279.2 -664.92,-451.89 -1090.97,-451.89 -426.05,0 -811.77,172.69 -1090.97,451.89 -279.2,279.2 -451.89,664.92 -451.89,1090.97 0,426.05 172.69,811.77 451.89,1090.97 279.2,279.2 664.92,451.89 1090.97,451.89 426.05,0 811.77,-172.69 1090.97,-451.89 279.2,-279.2 451.89,-664.92 451.89,-1090.97 0,-426.05 -172.69,-811.77 -451.89,-1090.97z"/>
  <path class="fil1" d="M1599.98 288.84c362.06,0 689.84,146.75 927.11,384.02 237.27,237.27 384.03,565.05 384.03,927.11 0,362.06 -146.76,689.84 -384.03,927.11 -237.27,237.27 -565.05,384.02 -927.11,384.02 -362.06,0 -689.84,-146.75 -927.11,-384.02 -237.27,-237.27 -384.03,-565.05 -384.03,-927.11 0,-362.06 146.76,-689.84 384.03,-927.11 237.27,-237.27 565.05,-384.02 927.11,-384.02zm900.19 410.95c-230.38,-230.38 -548.64,-372.87 -900.19,-372.87 -351.55,0 -669.81,142.49 -900.19,372.87 -230.38,230.38 -372.87,548.64 -372.87,900.19 0,351.55 142.49,669.81 372.87,900.19 230.38,230.38 548.64,372.87 900.19,372.87 351.55,0 669.81,-142.49 900.19,-372.87 230.38,-230.38 372.87,-548.64 372.87,-900.19 0,-351.55 -142.49,-669.81 -372.87,-900.19z"/>
  <path class="fil2" d="M2842.33 1666.54l0 -133.11c0,-7.65 -5.92,-14 -13.56,-14.53l-120.17 -8.37c-2.99,-37.6 -7.85,-74.67 -14.49,-111.12l113.78 -39.14c7.24,-2.49 11.31,-10.15 9.33,-17.54l-34.45 -128.58c-1.98,-7.39 -9.34,-11.99 -16.85,-10.53l-118.03 22.98c-12.61,-35.38 -26.94,-69.95 -42.93,-103.57l99.73 -67.22c6.35,-4.28 8.3,-12.74 4.47,-19.36l-66.55 -115.28c-3.83,-6.63 -12.13,-9.16 -19.01,-5.81l-108.24 52.84c-21.28,-30.77 -44.06,-60.42 -68.25,-88.83l79.1 -90.94c5.02,-5.78 4.72,-14.45 -0.69,-19.86l-94.12 -94.12c-5.41,-5.41 -14.09,-5.71 -19.86,-0.69l-90.94 79.1c-28.42,-24.19 -58.06,-46.98 -88.83,-68.25l52.84 -108.24c3.36,-6.88 0.82,-15.18 -5.81,-19.01l-115.28 -66.56c-6.63,-3.83 -15.09,-1.87 -19.36,4.47l-67.22 99.73c-33.63,-15.99 -68.19,-30.32 -103.58,-42.93l22.98 -118.03c1.46,-7.51 -3.14,-14.87 -10.53,-16.85l-128.57 -34.45c-7.39,-1.98 -15.06,2.1 -17.54,9.33l-39.14 113.78c-36.45,-6.64 -73.52,-11.5 -111.12,-14.49l-8.37 -120.17c-0.53,-7.63 -6.88,-13.56 -14.53,-13.56l-133.11 0c-7.65,0 -14,5.92 -14.53,13.56l-8.37 120.17c-37.6,2.99 -74.67,7.85 -111.12,14.49l-39.14 -113.78c-2.49,-7.24 -10.15,-11.31 -17.55,-9.33l-128.57 34.45c-7.39,1.98 -11.99,9.34 -10.53,16.85l22.98 118.03c-35.38,12.61 -69.95,26.94 -103.58,42.93l-67.22 -99.73c-4.28,-6.35 -12.74,-8.3 -19.36,-4.47l-115.28 66.56c-6.63,3.83 -9.16,12.13 -5.81,19.01l52.84 108.24c-30.77,21.28 -60.42,44.06 -88.83,68.25l-90.94 -79.1c-5.78,-5.02 -14.45,-4.72 -19.86,0.69l-94.12 94.12c-5.41,5.41 -5.71,14.09 -0.69,19.86l79.1 90.94c-24.19,28.42 -46.98,58.06 -68.25,88.83l-108.24 -52.84c-6.88,-3.36 -15.18,-0.82 -19.01,5.81l-66.55 115.28c-3.83,6.63 -1.87,15.09 4.47,19.36l99.73 67.22c-15.99,33.63 -30.32,68.19 -42.93,103.57l-118.03 -22.98c-7.51,-1.46 -14.87,3.14 -16.85,10.53l-34.45 128.58c-1.98,7.39 2.1,15.06 9.33,17.54l113.78 39.14c-6.64,36.45 -11.5,73.52 -14.49,111.12l-120.17 8.37c-7.63,0.53 -13.56,6.88 -13.56,14.53l0 133.11c0,7.65 5.92,14 13.56,14.53l120.17 8.37c2.99,37.6 7.85,74.67 14.49,111.12l-113.78 39.14c-7.24,2.49 -11.31,10.15 -9.33,17.55l34.45 128.57c1.98,7.39 9.34,11.99 16.85,10.53l118.03 -22.98c12.61,35.39 26.94,69.95 42.93,103.58l-99.73 67.22c-6.35,4.28 -8.3,12.74 -4.47,19.36l66.55 115.28c3.83,6.63 12.13,9.16 19.01,5.81l108.24 -52.84c21.28,30.77 44.06,60.42 68.25,88.83l-79.1 90.94c-5.02,5.78 -4.72,14.45 0.69,19.86l94.12 94.12c5.41,5.41 14.09,5.71 19.86,0.69l90.94 -79.1c28.42,24.19 58.06,46.98 88.83,68.25l-52.84 108.24c-3.36,6.88 -0.82,15.18 5.81,19.01l115.28 66.55c6.63,3.83 15.09,1.87 19.36,-4.47l67.22 -99.73c33.63,15.99 68.19,30.32 103.58,42.93l-22.98 118.03c-1.46,7.51 3.14,14.87 10.53,16.85l128.57 34.45c7.39,1.98 15.06,-2.1 17.55,-9.33l39.14 -113.78c36.45,6.64 73.52,11.5 111.12,14.49l8.37 120.17c0.53,7.63 6.88,13.56 14.53,13.56l133.11 0c7.65,0 14,-5.92 14.53,-13.56l8.37 -120.17c37.6,-2.99 74.67,-7.85 111.12,-14.49l39.14 113.78c2.49,7.24 10.15,11.31 17.55,9.33l128.58 -34.45c7.39,-1.98 11.99,-9.34 10.53,-16.85l-22.98 -118.03c35.39,-12.61 69.95,-26.94 103.58,-42.93l67.22 99.73c4.28,6.35 12.74,8.3 19.36,4.47l115.28 -66.55c6.63,-3.83 9.16,-12.13 5.81,-19.01l-52.84 -108.24c30.77,-21.28 60.42,-44.06 88.83,-68.25l90.94 79.1c5.78,5.02 14.45,4.72 19.86,-0.69l94.12 -94.12c5.41,-5.41 5.71,-14.09 0.69,-19.86l-79.1 -90.94c24.19,-28.42 46.98,-58.06 68.25,-88.83l108.24 52.84c6.88,3.36 15.18,0.82 19.01,-5.81l66.55 -115.28c3.83,-6.63 1.87,-15.09 -4.47,-19.36l-99.73 -67.22c15.99,-33.63 30.32,-68.19 42.93,-103.58l118.03 22.98c7.51,1.46 14.87,-3.14 16.85,-10.53l34.45 -128.57c1.98,-7.39 -2.1,-15.06 -9.33,-17.55l-113.78 -39.14c6.64,-36.45 11.5,-73.52 14.49,-111.12l120.17 -8.37c7.63,-0.53 13.56,-6.88 13.56,-14.53zm-1233.92 902.9l0 0c-542.12,4.61 -982.5,-435.77 -977.89,-977.89 4.48,-526.37 434.65,-956.54 961.02,-961.02 542.12,-4.61 982.51,435.77 977.89,977.89 -4.48,526.37 -434.65,956.54 -961.02,961.02z"/>
  <g id="_1826070615296">
   <g>
    <g>
     <path class="fil3" d="M928.82 2087.58c158.38,-3.13 484.46,67.18 670.4,236.69 -67.33,-20.84 -156.83,-121.1 -659.17,-88.52l-11.23 -148.17z"/>
     <path class="fil3" d="M2271.14 2087.58c-158.38,-3.13 -485.1,67.18 -671.04,236.69 67.33,-20.84 157.47,-121.1 659.81,-88.52l11.23 -148.17z"/>
    </g>
    <g>
     <path class="fil3" d="M848.46 1874.66c259.85,11.53 612.75,200.94 750.59,378.08 -49.15,-34.91 -393.05,-272.46 -754.61,-231.08l4.02 -147z"/>
     <path class="fil3" d="M2351.5 1874.66c-259.85,11.53 -612.75,200.94 -750.59,378.08 49.15,-34.91 393.05,-272.46 754.61,-231.08l-4.02 -147z"/>
    </g>
    <g>
     <path class="fil3" d="M738.19 1629.47c259.85,11.53 637.39,238.48 860.86,554.64 -325.84,-265.56 -519.75,-355.75 -864.89,-344.88l4.02 -209.76z"/>
     <path class="fil3" d="M2461.78 1629.47c-259.85,11.53 -637.39,238.48 -860.86,554.64 325.84,-265.56 519.75,-355.75 864.89,-344.88l-4.02 -209.76z"/>
    </g>
   </g>
   <g>
    <circle class="fil4" cx="1601.26" cy="1816.53" r="74.82"/>
    <circle class="fil4" cx="1866.59" cy="1581.65" r="77.59"/>
    <circle class="fil4" cx="1153.61" cy="1538.81" r="86.46"/>
    <circle class="fil4" cx="1640.05" cy="1284.87" r="121.93"/>
    <circle class="fil4" cx="1488.17" cy="1550.14" r="53.21"/>
    <circle class="fil4" cx="1080.75" cy="1257.26" r="53.21"/>
    <circle class="fil4" cx="2129.02" cy="1500.85" r="53.21"/>
    <circle class="fil4" cx="1663.61" cy="924.51" r="53.21"/>
    <circle class="fil4" cx="2096.76" cy="1071.65" r="60.97"/>
    <circle class="fil4" cx="1951.97" cy="1232.41" r="33.25"/>
    <circle class="fil4" cx="1329.25" cy="1228.6" r="33.25"/>
    <circle class="fil4" cx="1375.31" cy="955.06" r="42.12"/>
    <polygon class="fil5" points="1083.26,1239.04 1364.54,958.48 1376.23,970.24 1094.95,1250.79 "/>
    <polygon class="fil5" points="1384.96,945.2 1678.56,921.28 1679.86,937.84 1386.26,961.76 "/>
    <path class="fil5" d="M1669.36 922.68l442.09 145.06 -6.15 6.83 34.39 457.5 -198.17 -300.46 140.54 -156.04 -417.84 -137.1 5.13 -15.78zm420.57 168.95l-127.51 141.58 155.92 236.42 -28.41 -378z"/>
    <path class="fil5" d="M1680.47 927.42l288.04 310.62 -337.36 56.74 20.35 -344.12 -318.71 285.88 -251.1 28.96 -1.88 -16.5 245.91 -28.36 344.73 -309.22 -1.58 26.8 11.62 -10.81zm254.97 299.35l-266.64 -287.55 -19.85 335.74 286.5 -48.19z"/>
    <polygon class="fil5" points="1321.07,1227.24 1367.13,953.69 1383.5,956.42 1337.44,1229.96 "/>
    <polygon class="fil5" points="1090.24,1262.34 1154.76,1500.85 1138.72,1505.14 1074.2,1266.63 "/>
    <polygon class="fil5" points="1161.22,1515.31 1329.56,1210.9 1493.52,1532.84 1598.39,1343.47 1612.87,1351.52 1492.89,1568.2 1328.95,1246.3 1175.76,1523.3 "/>
    <polygon class="fil5" points="1330.71,1220.45 1573.02,1263.95 1570.1,1280.25 1327.79,1236.75 "/>
    <polygon class="fil5" points="1169.38,1531.33 1507.2,1538.57 1506.88,1555.14 1169.05,1547.89 "/>
    <polygon class="fil5" points="1188.1,1547.82 1593.94,1802.18 1630.73,1274.28 1862.54,1563.34 1943.92,1230.46 1960.03,1234.35 1870.64,1599.95 1644.34,1317.76 1608.58,1830.88 1179.33,1561.84 "/>
    <polygon class="fil5" points="2131.29,1508.8 1872.11,1583.6 1598.17,1830.48 1480.54,1553.39 1495.8,1546.89 1604.35,1802.57 1863.74,1568.78 2126.75,1492.89 "/>
   </g>
  </g>
  <path class="fil2" d="M1350.43 3024.01l-19.93 -3.48c-1.56,-0.27 -2.95,-0.16 -4.21,0.38 -1.26,0.52 -2.35,1.42 -3.2,2.71 -0.85,1.3 -1.46,2.88 -1.79,4.79l-2.32 13.26c-0.35,2.01 -0.36,3.81 -0,5.35 0.33,1.56 1.01,2.82 2.02,3.76 1.01,0.94 2.29,1.54 3.91,1.83l19.93 3.48 -3.22 18.45 -20.48 -3.58c-5.56,-0.97 -10.18,-2.79 -13.81,-5.44 -3.65,-2.66 -6.17,-6.07 -7.57,-10.22 -1.4,-4.17 -1.63,-8.9 -0.7,-14.22l3.32 -19c0.91,-5.21 2.72,-9.5 5.46,-12.82 2.76,-3.33 6.27,-5.61 10.6,-6.85 4.31,-1.26 9.24,-1.39 14.75,-0.42l20.49 3.58 -3.22 18.45zm0.14 52.09l-19.21 -3.36 19.69 -112.69 19.21 3.36 -19.69 112.69z"/>
  <path id="1" class="fil2" d="M1277.67 3061.8l-19.03 -4.27 25.04 -111.62 19.03 4.27 -25.04 111.62zm12.43 -94.93l-41.16 -9.23 4.17 -18.59 41.16 9.23 -4.17 18.59zm-10.35 46.14l-37.3 -8.37 4.15 -18.51 37.3 8.37 -4.15 18.51zm-10.52 46.9l-41.16 -9.23 4.16 -18.56 41.16 9.23 -4.16 18.56z"/>
  <path id="2" class="fil2" d="M1226.06 2950.31l-14.12 -3.88c-2.51,-0.69 -4.67,-0.45 -6.46,0.7 -1.8,1.18 -3.06,3.14 -3.84,5.94l-15.57 56.6c-0.76,2.77 -0.68,5.11 0.26,7.04 0.95,1.93 2.68,3.22 5.2,3.91l14.12 3.88 -4.97 18.06 -16.01 -4.41c-5.26,-1.44 -9.5,-3.64 -12.7,-6.61 -3.22,-3 -5.29,-6.61 -6.24,-10.85 -0.94,-4.27 -0.71,-8.97 0.71,-14.13l16.74 -60.85c1.42,-5.15 3.63,-9.34 6.62,-12.5 3,-3.19 6.65,-5.22 10.94,-6.13 4.32,-0.9 9.09,-0.65 14.35,0.8l15.93 4.38 -4.97 18.05zm-12.87 95.69l-18.81 -5.17 30.34 -110.3 18.81 5.17 -30.34 110.3z"/>
  <path id="3" class="fil2" d="M1125.03 3019.37l-13.02 -4.26 9.65 -117.21 18.41 6.03 -9.28 75.86 37.4 -66.66 18.39 6.02 -61.53 100.23zm32.68 -71.77l-29.62 -9.69 5.67 -17.34 29.62 9.69 -5.68 17.34z"/>
  <path id="4" class="fil2" d="M1044.51 2933.53l12.2 -31.98c2.14,-5.6 5.02,-9.99 8.63,-13.21 3.62,-3.22 7.81,-5.16 12.58,-5.78 4.77,-0.59 9.95,0.14 15.47,2.25 5.65,2.15 10.07,5.02 13.31,8.61 3.23,3.59 5.18,7.76 5.82,12.49 0.63,4.75 -0.1,9.82 -2.18,15.27l-21.14 55.43c-2.18,5.73 -5.1,10.28 -8.76,13.62 -3.66,3.35 -7.91,5.35 -12.71,6.02 -4.8,0.67 -9.96,-0.06 -15.5,-2.18 -5.45,-2.08 -9.72,-4.91 -12.8,-8.51 -3.09,-3.59 -4.91,-7.8 -5.43,-12.6 -0.53,-4.8 0.27,-9.99 2.41,-15.59l3.14 -8.24 18.75 7.15 -3.14 8.23c-0.66,1.73 -0.92,3.33 -0.82,4.78 0.12,1.49 0.59,2.76 1.43,3.85 0.86,1.07 2.01,1.89 3.49,2.46 1.61,0.61 3.17,0.81 4.64,0.5 1.48,-0.27 2.81,-0.97 3.97,-2.11 1.17,-1.1 2.09,-2.62 2.8,-4.48l21.14 -55.43c0.58,-1.53 0.76,-2.99 0.55,-4.39 -0.24,-1.41 -0.86,-2.66 -1.91,-3.75 -1.04,-1.12 -2.41,-1.98 -4.14,-2.64 -1.76,-0.67 -3.41,-0.93 -4.96,-0.8 -1.53,0.17 -2.89,0.71 -4.03,1.66 -1.17,0.96 -2.06,2.31 -2.72,4.02l-5.58 14.64 8.96 3.42 -6.67 17.5 -26.83 -10.24z"/>
  <path id="5" class="fil2" d="M1030.48 2858.03c5.61,2.46 10,5.55 13.16,9.25 3.16,3.7 5.01,7.85 5.5,12.44 0.5,4.62 -0.38,9.51 -2.65,14.7l-25.25 57.67c-2.27,5.19 -5.27,9.16 -9,11.92 -3.72,2.8 -8.02,4.26 -12.88,4.42 -4.85,0.17 -10.1,-0.99 -15.71,-3.45 -5.64,-2.47 -10.02,-5.53 -13.19,-9.2 -3.17,-3.68 -5.02,-7.83 -5.51,-12.47 -0.5,-4.62 0.38,-9.51 2.66,-14.7l25.25 -57.67c2.27,-5.19 5.27,-9.16 9,-11.92 3.72,-2.74 8.03,-4.2 12.89,-4.39 4.86,-0.19 10.09,0.93 15.73,3.39zm-7.82 17.87c-1.82,-0.8 -3.56,-1.12 -5.2,-0.99 -1.65,0.16 -3.09,0.76 -4.36,1.79 -1.26,1.06 -2.31,2.54 -3.15,4.46l-23.3 53.21c-0.82,1.87 -1.17,3.62 -1.1,5.27 0.1,1.66 0.63,3.12 1.65,4.41 1.02,1.3 2.43,2.35 4.25,3.15 1.82,0.8 3.56,1.12 5.15,0.97 1.62,-0.14 3.05,-0.74 4.31,-1.81 1.28,-1.05 2.3,-2.51 3.12,-4.38l23.3 -53.21c0.84,-1.92 1.23,-3.68 1.13,-5.34 -0.08,-1.62 -0.62,-3.09 -1.6,-4.4 -0.96,-1.27 -2.38,-2.33 -4.2,-3.13z"/>
  <path id="6" class="fil2" d="M915.14 2871.7l15.23 -30.65c2.67,-5.37 5.96,-9.46 9.87,-12.32 3.91,-2.85 8.27,-4.38 13.08,-4.54 4.8,-0.13 9.89,1.11 15.18,3.73 5.41,2.69 9.54,5.97 12.41,9.86 2.87,3.89 4.41,8.22 4.58,12.99 0.17,4.79 -1.04,9.77 -3.64,14.99l-26.4 53.13c-2.72,5.49 -6.06,9.74 -10.04,12.71 -3.97,2.98 -8.39,4.56 -13.23,4.77 -4.84,0.21 -9.9,-1.02 -15.22,-3.66 -5.22,-2.6 -9.2,-5.83 -11.92,-9.7 -2.73,-3.87 -4.13,-8.23 -4.19,-13.06 -0.06,-4.83 1.24,-9.91 3.9,-15.28l3.92 -7.89 17.97 8.93 -3.92 7.89c-0.83,1.66 -1.24,3.22 -1.27,4.68 -0.02,1.49 0.32,2.8 1.05,3.98 0.75,1.15 1.82,2.07 3.24,2.78 1.54,0.77 3.08,1.11 4.57,0.95 1.5,-0.12 2.89,-0.69 4.15,-1.72 1.27,-0.99 2.34,-2.41 3.22,-4.19l26.4 -53.13c0.73,-1.47 1.05,-2.9 0.98,-4.31 -0.1,-1.43 -0.6,-2.73 -1.54,-3.91 -0.93,-1.21 -2.2,-2.21 -3.87,-3.03 -1.68,-0.84 -3.31,-1.25 -4.86,-1.27 -1.54,0.02 -2.94,0.43 -4.17,1.26 -1.26,0.84 -2.28,2.1 -3.09,3.74l-6.97 14.03 8.59 4.27 -8.33 16.77 -25.72 -12.78z"/>
  <polygon id="7" class="fil2" points="916.52,2800.77 933.54,2810.29 877.7,2910.13 860.68,2900.61 "/>
  <path id="8" class="fil2" d="M864.32 2831.52l-51.48 40.37 -18.68 -11.68 88.56 -58.09 -18.39 29.41zm-19.48 60.39l-16.54 -10.34 60.66 -96.99 16.54 10.34 -60.66 96.99zm8.34 -56.04l-17.57 2.86 16.14 -77.43 18.13 11.34 -16.7 63.23z"/>
  <polygon id="9" class="fil2" points="805.74,2729.82 821.75,2740.97 756.38,2834.85 740.37,2823.71 "/>
  <polygon id="10" class="fil2" points="725.33,2813.56 713.19,2804.18 738.57,2727.34 742.12,2726.21 693.58,2789.04 679.51,2778.16 749.4,2687.7 761.67,2697.18 738.74,2770.35 735.21,2771.59 781.1,2712.19 795.22,2723.1 "/>
  <polygon id="11" class="fil2" points="663.84,2766.13 652.18,2756.15 681.36,2680.67 684.97,2679.72 633.36,2740.05 619.84,2728.49 694.16,2641.62 705.94,2651.7 679.39,2723.64 675.8,2724.7 724.6,2667.66 738.15,2679.26 "/>
  <path id="12" class="fil2" d="M663.09 2611.46c4.45,4.21 7.53,8.61 9.25,13.16 1.72,4.55 2.06,9.09 0.97,13.56 -1.09,4.52 -3.58,8.82 -7.47,12.94l-43.27 45.72c-3.9,4.12 -8.06,6.84 -12.5,8.17 -4.45,1.38 -8.99,1.29 -13.61,-0.19 -4.62,-1.49 -9.17,-4.35 -13.61,-8.56 -4.47,-4.23 -7.55,-8.59 -9.3,-13.12 -1.74,-4.53 -2.07,-9.07 -0.96,-13.6 1.09,-4.51 3.58,-8.82 7.47,-12.94l43.27 -45.72c3.9,-4.12 8.06,-6.84 12.5,-8.18 4.43,-1.32 8.98,-1.24 13.61,0.23 4.64,1.47 9.19,4.29 13.65,8.52zm-13.41 14.17c-1.44,-1.37 -2.97,-2.26 -4.56,-2.69 -1.61,-0.41 -3.16,-0.33 -4.71,0.21 -1.54,0.57 -3.03,1.6 -4.47,3.12l-39.93 42.19c-1.4,1.48 -2.33,3.01 -2.82,4.58 -0.47,1.59 -0.46,3.15 0.05,4.71 0.52,1.57 1.49,3.04 2.93,4.41 1.44,1.36 2.97,2.26 4.52,2.65 1.57,0.41 3.13,0.33 4.67,-0.24 1.56,-0.56 3.02,-1.58 4.42,-3.07l39.93 -42.19c1.44,-1.52 2.4,-3.05 2.87,-4.64 0.47,-1.55 0.46,-3.11 -0.01,-4.67 -0.48,-1.53 -1.45,-3 -2.89,-4.37z"/>
  <polygon id="13" class="fil2" points="553.14,2666.59 538.85,2651.63 588.4,2589.16 523.72,2635.8 509.43,2620.84 606.71,2557.06 621.28,2572.3 "/>
  <path id="14" class="fil2" d="M491.05 2600.49l-8.95 -10.37 68.76 -95.42 12.66 14.66 -47.1 60.19 66.43 -37.8 12.64 14.64 -104.43 54.1zm65.03 -44.6l-20.37 -23.59 13.81 -11.92 20.37 23.59 -13.81 11.92z"/>
  <path id="15" class="fil2" d="M457.43 2546.69l-11.98 -15.39 82.7 -64.39 11.98 15.39 -82.7 64.39zm4.04 20.79l-35.19 -45.2 14.78 -11.51 35.19 45.2 -14.77 11.51z"/>
  <path id="16" class="fil2" d="M497.1 2425.03c3.44,4.91 5.46,9.76 6.1,14.56 0.64,4.8 -0.11,9.36 -2.25,13.65 -2.16,4.27 -5.65,8.13 -10.5,11.52l-5.04 3.53 -11.27 -15.82 5.04 -3.53c2.35,-1.65 3.72,-3.63 4.17,-5.9 0.42,-2.3 -0.21,-4.61 -1.86,-6.97 -1.63,-2.33 -3.54,-3.65 -5.78,-3.99 -2.2,-0.33 -4.47,0.31 -6.78,1.93l-8.19 5.73c-1.74,1.22 -2.87,2.73 -3.47,4.6 -0.6,1.86 -0.81,3.85 -0.66,6.04 0.14,2.17 0.47,5.02 1.03,8.53 0.03,0.24 0.05,0.45 0.07,0.67 0.02,0.22 0.04,0.43 0.08,0.67l0.21 1.1c0.67,4.71 0.91,8.98 0.7,12.76 -0.17,3.79 -1.26,7.61 -3.27,11.44 -1.98,3.82 -5.29,7.34 -9.89,10.56l-4.84 3.39c-4.75,3.33 -9.48,5.29 -14.17,5.86 -4.71,0.58 -9.17,-0.27 -13.41,-2.48 -4.24,-2.21 -8.09,-5.78 -11.51,-10.67 -3.34,-4.78 -5.31,-9.5 -5.93,-14.22 -0.6,-4.7 0.18,-9.15 2.38,-13.37 2.21,-4.24 5.74,-8.05 10.58,-11.45l5.28 -3.7 11.34 15.77 -5.35 3.75c-2.4,1.68 -3.86,3.62 -4.34,5.79 -0.5,2.19 0.03,4.34 1.57,6.54 1.62,2.31 3.48,3.7 5.59,4.09 2.13,0.41 4.25,-0.12 6.4,-1.63l6.25 -4.38c1.76,-1.23 2.96,-2.76 3.61,-4.59 0.65,-1.83 0.91,-3.75 0.82,-5.76 -0.11,-2.03 -0.41,-4.7 -0.89,-8.07 -0.12,-0.64 -0.24,-1.28 -0.31,-1.94 -0.09,-0.69 -0.2,-1.37 -0.29,-2.06 -0.02,-0.12 -0.04,-0.24 -0.02,-0.31 -0,-0.1 -0.02,-0.21 -0.04,-0.33 -0.61,-4.89 -0.89,-8.99 -0.78,-12.31 0.06,-3.33 1.02,-6.78 2.87,-10.38 1.83,-3.57 5.03,-6.96 9.58,-10.15l7.81 -5.47c4.84,-3.39 9.63,-5.4 14.36,-6 4.74,-0.59 9.24,0.22 13.5,2.42 4.26,2.2 8.1,5.71 11.51,10.57z"/>
  <polygon id="17" class="fil2" points="462.45,2377.63 473.64,2393.61 379.94,2459.24 368.75,2443.27 "/>
  <polygon id="18" class="fil2" points="399.85,2361.36 436.97,2338.07 447.33,2354.59 410.22,2377.88 361.81,2433.53 351.02,2416.33 385.46,2382.1 339.89,2398.6 329.11,2381.42 "/>
  <path id="19" class="fil2" d="M316.17 2359.93l-6.69 -11.96 86.52 -79.66 9.45 16.91 -58.23 49.5 72.67 -23.68 9.44 16.88 -113.17 32.01zm72.66 -30.63l-15.21 -27.2 15.92 -8.91 15.21 27.2 -15.92 8.91z"/>
  <path id="20" class="fil2" d="M288.71 2311.94l-8.65 -17.48 102.53 -50.74 8.65 17.48 -102.53 50.74zm82.2 -49.61l-18.29 -36.96 16.78 -8.31 18.29 36.96 -16.78 8.3z"/>
  <path id="21" class="fil2" d="M249.63 2232.59l-5.46 -12.57 94.08 -70.58 7.71 17.77 -62.9 43.41 74.68 -16.28 7.7 17.75 -115.81 20.5zm75.37 -23.19l-12.41 -28.59 16.74 -7.26 12.41 28.59 -16.74 7.26z"/>
  <path id="22" class="fil2" d="M268.13 2157.41l-7.25 -19.29c-0.6,-1.59 -1.38,-2.84 -2.4,-3.78 -0.98,-0.93 -2.14,-1.49 -3.42,-1.7 -1.25,-0.19 -2.65,-0.01 -4.1,0.54l-11.95 4.49c-1.61,0.61 -2.9,1.44 -3.87,2.46 -0.95,1.05 -1.5,2.26 -1.7,3.63 -0.17,1.38 0.04,2.85 0.64,4.44l7.25 19.29 -17.53 6.59 -6.84 -18.18c-2.18,-5.81 -3.11,-11.09 -2.76,-15.9 0.37,-4.82 1.95,-9 4.79,-12.54 2.86,-3.54 6.83,-6.27 11.94,-8.19l12.52 -4.71c5.25,-1.98 10.16,-2.59 14.72,-1.83 4.58,0.75 8.63,2.81 12.15,6.2 3.51,3.39 6.35,7.95 8.51,13.7l6.84 18.18 -17.53 6.59zm-41.26 24.84l-6.72 -17.88 107.16 -40.29 6.72 17.88 -107.16 40.29zm49.88 -45.05l-9.68 -15.45 45.58 -36.65 7.37 19.59 -43.26 32.51z"/>
  <polygon id="23" class="fil2" points="291.25,2083.62 284.38,2065.36 310.74,2055.45 336.01,2066.79 "/>
  <path id="24" class="fil2" d="M233.53 2016.13l-65.18 -5.63 -5.68 -21.29 104.37 17.98 -33.51 8.94zm-55.45 30.84l-5.03 -18.85 110.53 -29.49 5.03 18.85 -110.53 29.49zm44.34 -35.27l-14.79 -9.9 64.64 -45.58 5.51 20.66 -55.36 34.82z"/>
  <path id="25" class="fil2" d="M153.56 1953.95l-2.88 -13.4 106.11 -50.72 4.07 18.94 -70.21 30.2 76.42 -1.28 4.06 18.91 -117.58 -2.65zm78.46 -7.93l-6.55 -30.47 17.84 -3.84 6.55 30.47 -17.84 3.84z"/>
  <path id="26" class="fil2" d="M252.11 1860.87c0.97,5.91 0.69,11.16 -0.81,15.76 -1.5,4.6 -4.15,8.39 -7.94,11.32 -3.8,2.91 -8.62,4.88 -14.45,5.83l-6.07 1 -3.31 -19.14 6.07 -1c2.84,-0.47 4.93,-1.65 6.31,-3.51 1.38,-1.89 1.81,-4.25 1.34,-7.08 -0.46,-2.81 -1.61,-4.83 -3.48,-6.1 -1.84,-1.25 -4.17,-1.66 -6.95,-1.2l-9.86 1.62c-2.09,0.34 -3.78,1.22 -5.12,2.64 -1.35,1.42 -2.4,3.12 -3.21,5.16 -0.81,2.01 -1.75,4.72 -2.77,8.13 -0.07,0.23 -0.15,0.43 -0.22,0.64 -0.08,0.2 -0.15,0.4 -0.22,0.63l-0.29 1.08c-1.43,4.54 -3.07,8.48 -4.89,11.8 -1.79,3.34 -4.43,6.31 -7.9,8.9 -3.44,2.58 -7.95,4.33 -13.49,5.24l-5.83 0.96c-5.73,0.94 -10.84,0.66 -15.31,-0.86 -4.5,-1.52 -8.15,-4.21 -11.01,-8.04 -2.86,-3.83 -4.78,-8.72 -5.75,-14.6 -0.95,-5.75 -0.67,-10.86 0.82,-15.38 1.49,-4.49 4.13,-8.17 7.93,-11.02 3.83,-2.86 8.66,-4.77 14.5,-5.73l6.36 -1.05 3.39 19.13 -6.44 1.06c-2.89,0.47 -5.05,1.59 -6.42,3.34 -1.4,1.75 -1.86,3.92 -1.42,6.58 0.46,2.79 1.53,4.84 3.26,6.11 1.74,1.29 3.88,1.73 6.48,1.3l7.53 -1.24c2.12,-0.35 3.86,-1.21 5.24,-2.58 1.38,-1.37 2.45,-2.99 3.24,-4.83 0.78,-1.87 1.67,-4.41 2.69,-7.66 0.17,-0.63 0.34,-1.25 0.56,-1.89 0.22,-0.66 0.41,-1.32 0.62,-1.98 0.04,-0.11 0.07,-0.23 0.12,-0.29 0.04,-0.09 0.08,-0.2 0.11,-0.32 1.57,-4.67 3.1,-8.49 4.63,-11.43 1.5,-2.97 3.86,-5.67 7.08,-8.11 3.19,-2.43 7.55,-4.1 13.04,-5l9.41 -1.55c5.83,-0.96 11.02,-0.7 15.55,0.82 4.53,1.52 8.23,4.2 11.12,8.03 2.89,3.83 4.83,8.66 5.79,14.51z"/>
  <path id="27" class="fil2" d="M223.94 1811.94l-1.96 -17.03c-0.28,-2.4 -1.13,-4.2 -2.56,-5.36 -1.44,-1.19 -3.3,-1.65 -5.6,-1.38l-15.24 1.75c-1.87,0.21 -3.44,0.69 -4.7,1.46 -1.27,0.74 -2.18,1.77 -2.73,3.05 -0.58,1.28 -0.77,2.74 -0.57,4.42l1.92 16.71 -17.96 2.07 -1.87 -16.26c-0.26,-2.29 -1.21,-3.97 -2.8,-5.08 -1.61,-1.11 -3.77,-1.51 -6.49,-1.2l-12.2 1.4c-2.27,0.26 -3.98,1.11 -5.12,2.54 -1.13,1.43 -1.57,3.24 -1.32,5.48l1.88 16.34 -18.13 2.08 -2.1 -18.28c-0.58,-5.1 -0.18,-9.58 1.21,-13.45 1.4,-3.86 3.77,-6.95 7.05,-9.25 3.31,-2.3 7.44,-3.75 12.38,-4.32l12.2 -1.4c3.44,-0.4 6.56,-0.08 9.33,0.93 2.79,0.98 5.17,2.62 7.14,4.91 2,2.29 3.46,5.12 4.45,8.55 0.07,-3.85 0.82,-7.23 2.25,-10.1 1.4,-2.89 3.43,-5.21 6.04,-6.97 2.64,-1.74 5.78,-2.83 9.49,-3.26l15.48 -1.78c4.99,-0.58 9.37,-0.13 13.13,1.33 3.76,1.46 6.78,3.9 9.03,7.32 2.26,3.42 3.69,7.64 4.27,12.71l2.3 20 -18.2 2.09zm-94.17 22.08l-2.24 -19.46 113.65 -13.07 2.24 19.46 -113.65 13.07z"/>
  <polygon id="28" class="fil2" points="181.77,1714.47 200.46,1713.23 203.24,1755.16 184.55,1756.4 "/>
  <path id="29" class="fil2" d="M114.76 1663.54l-0.35 -19.5 114.38 -2.08 0.35 19.5 -114.38 2.07zm0.63 34.92l-0.35 -19.5 114.38 -2.07 0.35 19.5 -114.38 2.08zm48.67 -10.15l-0.7 -38.33 18.35 -0.33 0.7 38.33 -18.35 0.33z"/>
  <path id="30" class="fil2" d="M229.36 1601.92c-0.17,5.67 -1.47,10.52 -3.85,14.56 -2.4,4.04 -5.8,7.08 -10.19,9.1 -4.41,2.02 -9.6,2.94 -15.64,2.76l-86.66 -2.58 0.58 -19.58 87.23 2.6c2.76,0.08 4.96,-0.52 6.53,-1.85 1.6,-1.32 2.43,-3.18 2.51,-5.6 0.07,-2.47 -0.65,-4.43 -2.17,-5.84 -1.49,-1.44 -3.64,-2.21 -6.41,-2.29l-87.23 -2.6 0.58 -19.58 86.66 2.58c6.04,0.18 11.17,1.41 15.45,3.71 4.26,2.31 7.47,5.57 9.63,9.75 2.13,4.18 3.14,9.12 2.97,14.84z"/>
  <polygon id="31" class="fil2" points="114.08,1554.32 115.27,1539.02 193.45,1518.12 196.34,1520.48 117.19,1514.33 118.57,1496.59 232.54,1505.45 231.34,1520.9 157.58,1541.85 154.6,1539.57 229.44,1545.39 228.06,1563.17 "/>
  <path id="32" class="fil2" d="M121.85 1457.02l1.71 -13.6 116.91 -12.79 -2.42 19.22 -76.24 5.29 72.55 24.05 -2.42 19.19 -110.09 -41.37zm76.66 18.45l3.89 -30.92 18.1 2.28 -3.89 30.92 -18.1 -2.28z"/>
  <path id="33" class="fil2" d="M176.22 1401.93l3.55 -20.3c0.29,-1.67 0.25,-3.15 -0.15,-4.47 -0.37,-1.29 -1.09,-2.37 -2.08,-3.2 -0.98,-0.8 -2.27,-1.35 -3.81,-1.62l-12.57 -2.2c-1.7,-0.3 -3.23,-0.24 -4.58,0.15 -1.35,0.42 -2.44,1.18 -3.31,2.26 -0.85,1.11 -1.41,2.48 -1.7,4.15l-3.55 20.3 -18.45 -3.22 3.34 -19.14c1.07,-6.11 2.95,-11.13 5.69,-15.1 2.76,-3.96 6.25,-6.76 10.49,-8.37 4.26,-1.6 9.07,-1.94 14.44,-0.99l13.18 2.3c5.53,0.97 10.07,2.93 13.62,5.9 3.57,2.97 6.01,6.81 7.32,11.51 1.31,4.7 1.43,10.07 0.37,16.13l-3.34 19.14 -18.45 -3.22zm-48.16 0.45l3.29 -18.82 112.77 19.7 -3.29 18.82 -112.77 -19.7zm65.85 -13.48l-0.5 -18.23 57.87 -8.44 -3.6 20.62 -53.78 6.05z"/>
  <path id="34" class="fil2" d="M160.23 1284.95l4.27 -19.03 102.26 22.94 -4.27 19.03 -102.27 -22.94zm-13.49 16.33l12.54 -55.89 18.27 4.1 -12.54 55.89 -18.27 -4.1z"/>
  <path id="35" class="fil2" d="M167.35 1217.02l3.63 -13.21 117.54 4.03 -5.14 18.68 -76.22 -5.64 68.37 34.16 -5.13 18.65 -103.06 -56.66zm73.25 29.21l8.26 -30.05 17.59 4.84 -8.27 30.05 -17.59 -4.84z"/>
  <polygon id="36" class="fil2" points="179.22,1175.1 185.05,1157.31 223.17,1169.79 217.35,1187.58 "/>
  <path id="37" class="fil2" d="M187.83 1148.83l6.07 -18.54 108.72 35.59 -6.07 18.54 -108.72 -35.59zm93.42 22.16l12.83 -39.19 17.8 5.82 -12.83 39.19 -17.8 -5.82z"/>
  <polygon id="38" class="fil2" points="322.54,1111.68 315.59,1129.9 208.71,1089.13 215.66,1070.9 "/>
  <polygon id="39" class="fil2" points="244.63,1001.63 251.95,984.92 356.74,1030.81 349.77,1046.73 276.6,1014.69 281.7,1015.64 325.05,1052.74 321.14,1061.67 265.9,1055.61 260.48,1051.51 333.65,1083.55 326.52,1099.84 221.72,1053.96 229.23,1036.8 293.77,1044.35 "/>
  <polygon id="40" class="fil2" points="370.91,1002.14 362.23,1019.61 259.78,968.71 268.46,951.24 "/>
  <path id="41" class="fil2" d="M380.74 943.45l8.37 -14.96c1.18,-2.11 1.53,-4.07 1.05,-5.85 -0.47,-1.8 -1.71,-3.26 -3.73,-4.39l-13.39 -7.49c-1.64,-0.92 -3.19,-1.45 -4.67,-1.57 -1.46,-0.14 -2.8,0.16 -4,0.87 -1.22,0.7 -2.22,1.77 -3.05,3.25l-8.21 14.68 -15.78 -8.83 7.99 -14.28c1.13,-2.02 1.34,-3.93 0.7,-5.76 -0.66,-1.85 -2.17,-3.43 -4.56,-4.77l-10.72 -5.99c-1.99,-1.11 -3.88,-1.43 -5.63,-0.94 -1.76,0.5 -3.17,1.71 -4.27,3.67l-8.03 14.35 -15.92 -8.91 8.98 -16.06c2.5,-4.48 5.45,-7.88 8.84,-10.2 3.39,-2.32 7.12,-3.43 11.13,-3.38 4.03,0.07 8.23,1.31 12.57,3.73l10.72 5.99c3.02,1.69 5.37,3.77 7.02,6.21 1.69,2.43 2.66,5.15 2.92,8.16 0.28,3.02 -0.19,6.17 -1.39,9.53 2.31,-3.08 4.89,-5.39 7.73,-6.88 2.83,-1.53 5.83,-2.22 8.98,-2.12 3.16,0.14 6.35,1.09 9.61,2.91l13.6 7.61c4.38,2.45 7.68,5.37 9.88,8.76 2.2,3.39 3.22,7.13 3.05,11.22 -0.17,4.09 -1.47,8.35 -3.96,12.81l-9.82 17.57 -15.99 -8.94zm-89.31 -37.14l9.56 -17.09 99.85 55.84 -9.56 17.09 -99.84 -55.84z"/>
  <path id="42" class="fil2" d="M439.97 881.2c-3.25,5.19 -6.95,9.09 -11.07,11.67 -4.12,2.59 -8.5,3.81 -13.11,3.63 -4.64,-0.18 -9.35,-1.76 -14.16,-4.77l-53.37 -33.38c-4.81,-3.01 -8.29,-6.55 -10.48,-10.64 -2.23,-4.09 -3.05,-8.56 -2.5,-13.38 0.54,-4.83 2.45,-9.84 5.7,-15.04 3.26,-5.22 6.93,-9.1 11.03,-11.71 4.1,-2.6 8.48,-3.83 13.14,-3.63 4.64,0.18 9.35,1.76 14.16,4.77l53.37 33.38c4.81,3.01 8.29,6.55 10.48,10.64 2.17,4.08 2.99,8.55 2.46,13.39 -0.52,4.84 -2.39,9.85 -5.65,15.07zm-16.54 -10.34c1.06,-1.69 1.62,-3.36 1.73,-5 0.09,-1.66 -0.3,-3.17 -1.13,-4.57 -0.87,-1.4 -2.17,-2.66 -3.95,-3.77l-49.25 -30.8c-1.73,-1.08 -3.41,-1.69 -5.05,-1.86 -1.65,-0.15 -3.18,0.17 -4.61,0.98 -1.43,0.82 -2.68,2.06 -3.74,3.75 -1.05,1.69 -1.62,3.36 -1.7,4.95 -0.09,1.62 0.29,3.13 1.16,4.53 0.85,1.42 2.15,2.64 3.88,3.73l49.25 30.8c1.78,1.11 3.47,1.75 5.12,1.9 1.61,0.15 3.14,-0.16 4.58,-0.94 1.4,-0.77 2.65,-2.02 3.71,-3.7z"/>
  <path id="43" class="fil2" d="M477.15 825.2c-3.42,4.92 -7.28,8.48 -11.57,10.74 -4.29,2.25 -8.82,3.12 -13.59,2.59 -4.75,-0.56 -9.58,-2.51 -14.43,-5.89l-5.05 -3.51 10.97 -16.03 5.05 3.51c2.36,1.64 4.69,2.25 6.97,1.88 2.31,-0.4 4.25,-1.79 5.9,-4.15 1.63,-2.34 2.21,-4.58 1.76,-6.8 -0.45,-2.18 -1.83,-4.09 -4.15,-5.7l-8.2 -5.71c-1.74,-1.21 -3.56,-1.76 -5.51,-1.68 -1.95,0.08 -3.89,0.56 -5.9,1.46 -1.98,0.87 -4.55,2.16 -7.66,3.9 -0.21,0.11 -0.41,0.21 -0.6,0.3 -0.2,0.09 -0.39,0.18 -0.6,0.3l-0.96 0.58c-4.19,2.26 -8.12,3.94 -11.74,5.05 -3.62,1.15 -7.58,1.44 -11.87,0.87 -4.27,-0.54 -8.71,-2.43 -13.32,-5.64l-4.85 -3.38c-4.76,-3.32 -8.23,-7.08 -10.38,-11.29 -2.17,-4.22 -2.91,-8.7 -2.29,-13.45 0.62,-4.74 2.64,-9.58 6.05,-14.48 3.33,-4.79 7.09,-8.26 11.31,-10.46 4.2,-2.18 8.65,-2.98 13.37,-2.38 4.74,0.62 9.54,2.61 14.39,5.99l5.29 3.68 -10.9 16.08 -5.36 -3.73c-2.4,-1.67 -4.73,-2.38 -6.93,-2.08 -2.23,0.28 -4.07,1.52 -5.61,3.73 -1.61,2.31 -2.27,4.54 -1.92,6.65 0.34,2.14 1.57,3.94 3.74,5.45l6.26 4.36c1.77,1.23 3.61,1.83 5.55,1.81 1.95,-0.02 3.84,-0.43 5.69,-1.21 1.87,-0.8 4.28,-2 7.27,-3.62 0.56,-0.33 1.11,-0.66 1.72,-0.96 0.62,-0.33 1.21,-0.66 1.83,-0.99 0.1,-0.06 0.21,-0.11 0.29,-0.13 0.09,-0.04 0.19,-0.09 0.3,-0.15 4.38,-2.25 8.14,-3.93 11.29,-4.97 3.14,-1.08 6.72,-1.38 10.73,-0.88 3.98,0.49 8.27,2.32 12.83,5.5l7.83 5.45c4.85,3.38 8.39,7.18 10.58,11.42 2.19,4.24 2.98,8.75 2.38,13.51 -0.6,4.76 -2.57,9.57 -5.96,14.44z"/>
  <path id="44" class="fil2" d="M430.74 693.79l11.92 -15.43 90.53 69.94 -11.92 15.44 -90.53 -69.94zm-21.35 27.64l11.92 -15.44 90.53 69.94 -11.92 15.44 -90.53 -69.94zm44.32 22.53l23.44 -30.34 14.52 11.22 -23.44 30.34 -14.52 -11.22z"/>
  <path id="45" class="fil2" d="M537.65 703.91l-2.7 -19 46.5 -4.84 2.81 18.99 -46.61 4.85zm24.5 12.16c-3.98,4.65 -8.22,7.96 -12.68,9.9 -4.46,1.95 -8.97,2.51 -13.5,1.64 -4.57,-0.87 -8.99,-3.13 -13.3,-6.82l-47.83 -40.92c-4.31,-3.68 -7.23,-7.71 -8.79,-12.08 -1.6,-4.37 -1.74,-8.92 -0.49,-13.61 1.25,-4.69 3.88,-9.37 7.86,-14.03 4,-4.67 8.2,-7.98 12.64,-9.94 4.44,-1.97 8.95,-2.52 13.53,-1.64 4.57,0.87 8.99,3.13 13.3,6.81l47.83 40.92c4.31,3.69 7.23,7.71 8.79,12.08 1.54,4.36 1.69,8.9 0.45,13.61 -1.24,4.71 -3.82,9.39 -7.82,14.06zm-14.82 -12.68c1.29,-1.51 2.1,-3.08 2.46,-4.69 0.33,-1.62 0.17,-3.18 -0.44,-4.69 -0.65,-1.51 -1.75,-2.95 -3.34,-4.31l-44.14 -37.76c-1.55,-1.33 -3.12,-2.18 -4.72,-2.59 -1.61,-0.39 -3.17,-0.3 -4.7,0.29 -1.53,0.6 -2.96,1.64 -4.25,3.15 -1.29,1.51 -2.1,3.08 -2.42,4.65 -0.33,1.59 -0.18,3.14 0.48,4.65 0.63,1.53 1.73,2.93 3.28,4.26l44.14 37.76c1.59,1.36 3.17,2.25 4.78,2.64 1.57,0.39 3.13,0.31 4.67,-0.25 1.5,-0.55 2.93,-1.6 4.22,-3.11z"/>
  <path id="46" class="fil2" d="M522.63 587.67l9.42 -9.95 101.85 58.8 -13.31 14.07 -64.62 -40.81 44.29 62.29 -13.29 14.05 -64.33 -98.46zm50.92 60.21l21.42 -22.64 13.25 12.54 -21.42 22.64 -13.25 -12.54z"/>
  <path id="47" class="fil2" d="M600.41 576.48l14.9 -14.24c1.23,-1.17 2.07,-2.39 2.53,-3.69 0.47,-1.26 0.53,-2.55 0.22,-3.81 -0.32,-1.22 -1.03,-2.44 -2.1,-3.56l-8.82 -9.23c-1.19,-1.24 -2.46,-2.11 -3.78,-2.6 -1.34,-0.47 -2.67,-0.5 -4.01,-0.15 -1.34,0.39 -2.61,1.16 -3.83,2.33l-14.9 14.24 -12.94 -13.54 14.05 -13.42c4.49,-4.29 8.98,-7.21 13.54,-8.78 4.58,-1.55 9.04,-1.73 13.41,-0.51 4.38,1.24 8.45,3.82 12.21,7.77l9.24 9.67c3.88,4.06 6.37,8.33 7.46,12.83 1.11,4.51 0.8,9.04 -0.94,13.6 -1.74,4.56 -4.82,8.95 -9.27,13.2l-14.04 13.42 -12.94 -13.54zm-39.03 -28.21l13.81 -13.2 79.09 82.77 -13.81 13.2 -79.09 -82.77zm61 28.22l10.41 -14.97 51.59 27.55 -15.13 14.46 -46.87 -27.04z"/>
  <path id="48" class="fil2" d="M711.99 567.54c-4.29,3.71 -8.75,6.02 -13.33,7 -4.61,0.96 -9.14,0.51 -13.6,-1.36 -4.47,-1.89 -8.66,-5.09 -12.61,-9.67l-56.66 -65.63 14.82 -12.8 57.03 66.05c1.81,2.1 3.74,3.3 5.78,3.57 2.06,0.29 3.99,-0.35 5.82,-1.94 1.87,-1.61 2.83,-3.47 2.85,-5.54 0.06,-2.07 -0.84,-4.17 -2.65,-6.27l-57.03 -66.05 14.83 -12.8 56.66 65.63c3.95,4.58 6.51,9.18 7.7,13.9 1.18,4.7 0.94,9.27 -0.68,13.69 -1.64,4.39 -4.6,8.48 -8.93,12.22z"/>
  <polygon id="49" class="fil2" points="666.33,455.08 682.65,442.37 739.81,497.98 699.93,428.92 716.25,416.21 769.9,519.43 753.26,532.39 "/>
  <path id="50" class="fil2" d="M781.84 370.23l15.98 -11.19 65.63 93.7 -15.97 11.19 -65.63 -93.7zm-28.61 20.04l15.98 -11.19 65.63 93.7 -15.97 11.19 -65.63 -93.7zm35.61 34.69l31.4 -22 10.53 15.03 -31.4 21.99 -10.53 -15.03z"/>
  <path id="51" class="fil2" d="M832.36 338.69l11.61 -7.28 83.93 82.39 -16.41 10.3 -52.37 -55.66 27.32 71.39 -16.39 10.28 -37.68 -111.41zm34.26 71.03l26.4 -16.57 9.7 15.45 -26.4 16.57 -9.7 -15.45z"/>
  <polygon id="52" class="fil2" points="935.86,281.78 952.21,273.69 1002.96,376.22 987.38,383.93 951.95,312.34 955.25,316.34 964.58,372.64 955.84,376.96 917.44,336.8 915.92,330.17 951.35,401.76 935.41,409.64 884.67,307.11 901.45,298.81 946.02,346.09 "/>
  <path id="53" class="fil2" d="M1019.8 347.22l13.43 -5.83c2.39,-1.04 3.92,-2.58 4.59,-4.6 0.66,-2.05 0.41,-4.37 -0.74,-7.03l-23.37 -53.85c-1.15,-2.64 -2.67,-4.41 -4.62,-5.32 -1.95,-0.91 -4.11,-0.82 -6.5,0.21l-13.43 5.83 -7.46 -17.18 15.23 -6.61c5,-2.17 9.69,-3.12 14.04,-2.81 4.39,0.32 8.26,1.83 11.67,4.54 3.41,2.74 6.18,6.55 8.31,11.45l25.12 57.89c2.13,4.9 3.03,9.55 2.69,13.89 -0.33,4.36 -1.9,8.24 -4.67,11.64 -2.8,3.41 -6.68,6.21 -11.68,8.38l-15.16 6.58 -7.46 -17.18zm-49.99 -82.6l17.89 -7.77 45.54 104.94 -17.89 7.77 -45.54 -104.94z"/>
  <path id="54" class="fil2" d="M1054.76 228.42l12.83 -4.82 65.81 97.47 -18.13 6.82 -40.22 -64.99 12.53 75.4 -18.11 6.81 -14.7 -116.69zm19.4 76.43l29.17 -10.97 6.42 17.08 -29.17 10.97 -6.42 -17.08z"/>
  <path id="55" class="fil2" d="M1161.52 244.89l19.26 -6.17c1.51,-0.49 2.7,-1.26 3.58,-2.3 0.87,-1.07 1.39,-2.36 1.55,-3.88 0.18,-1.55 -0.05,-3.26 -0.65,-5.1l-4.11 -12.82c-0.62,-1.94 -1.44,-3.52 -2.45,-4.74 -1.04,-1.22 -2.22,-2 -3.52,-2.37 -1.34,-0.39 -2.78,-0.32 -4.34,0.18l-19.26 6.17 -5.71 -17.83 19.8 -6.35c5.4,-1.73 10.31,-2.26 14.78,-1.6 4.44,0.67 8.25,2.52 11.43,5.56 3.19,3.01 5.61,7.12 7.26,12.26l5.89 18.37c1.61,5.04 1.97,9.67 1.09,13.9 -0.88,4.2 -2.95,7.88 -6.19,10.98 -3.26,3.11 -7.54,5.52 -12.89,7.23l-19.8 6.34 -5.71 -17.83zm-24.33 -46.09l18.58 -5.95 34.91 108.97 -18.58 5.95 -34.91 -108.97z"/>
  <path id="56" class="fil2" d="M1208.53 177.41l18.85 -5.03 29.49 110.53 -18.85 5.03 -29.49 -110.53zm32.94 89.9l40.76 -10.87 4.91 18.4 -40.76 10.87 -4.91 -18.4zm-12.19 -45.69l36.94 -9.86 4.89 18.33 -36.94 9.86 -4.89 -18.33zm-12.39 -46.44l40.76 -10.87 4.9 18.38 -40.76 10.87 -4.91 -18.38z"/>
  <path id="57" class="fil2" d="M1305.87 252.11l14.31 -3.08c2.55,-0.55 4.35,-1.76 5.41,-3.61 1.05,-1.88 1.27,-4.2 0.66,-7.04l-12.33 -57.39c-0.61,-2.81 -1.76,-4.85 -3.49,-6.12 -1.73,-1.28 -3.87,-1.61 -6.41,-1.07l-14.31 3.08 -3.94 -18.31 16.23 -3.49c5.33,-1.15 10.11,-1.16 14.32,0 4.24,1.18 7.74,3.42 10.55,6.75 2.81,3.36 4.78,7.63 5.9,12.86l13.26 61.7c1.12,5.23 1.09,9.96 -0.1,14.14 -1.18,4.21 -3.48,7.7 -6.87,10.49 -3.41,2.79 -7.77,4.77 -13.1,5.92l-16.15 3.47 -3.93 -18.31zm-32.79 -90.81l19.07 -4.1 24.04 111.84 -19.07 4.1 -24.04 -111.85z"/>
  <path id="58" class="fil2" d="M1363.62 143.93l13.52 -2.23 45.5 108.45 -19.11 3.14 -26.75 -71.6 -2.44 76.4 -19.09 3.14 8.37 -117.31zm4.1 78.75l30.75 -5.06 2.96 18 -30.75 5.06 -2.96 -18z"/>
  <path id="59" class="fil2" d="M1474.63 182.67l3.91 34c0.68,5.95 0.15,11.18 -1.58,15.71 -1.72,4.52 -4.55,8.17 -8.5,10.93 -3.96,2.73 -8.9,4.46 -14.77,5.13 -6.01,0.69 -11.26,0.18 -15.78,-1.51 -4.52,-1.7 -8.17,-4.5 -10.92,-8.4 -2.75,-3.93 -4.44,-8.76 -5.11,-14.55l-6.77 -58.94c-0.7,-6.09 -0.21,-11.47 1.5,-16.13 1.71,-4.66 4.55,-8.39 8.5,-11.2 3.95,-2.81 8.86,-4.54 14.76,-5.21 5.79,-0.66 10.89,-0.12 15.28,1.65 4.4,1.77 7.95,4.66 10.63,8.68 2.68,4.02 4.36,8.99 5.04,14.94l1.01 8.75 -19.94 2.29 -1.01 -8.76c-0.21,-1.84 -0.71,-3.38 -1.48,-4.62 -0.79,-1.26 -1.79,-2.17 -3.05,-2.76 -1.26,-0.56 -2.66,-0.75 -4.23,-0.57 -1.71,0.2 -3.19,0.75 -4.35,1.69 -1.19,0.92 -2.05,2.15 -2.55,3.7 -0.53,1.52 -0.65,3.29 -0.42,5.27l6.77 58.94c0.19,1.63 0.7,3 1.53,4.15 0.86,1.15 1.98,1.96 3.42,2.45 1.44,0.51 3.05,0.65 4.89,0.44 1.87,-0.21 3.46,-0.75 4.77,-1.57 1.28,-0.85 2.24,-1.96 2.81,-3.33 0.6,-1.39 0.76,-3.01 0.56,-4.82l-1.79 -15.56 -9.53 1.1 -2.14 -18.6 28.53 -3.28z"/>
  <path id="60" class="fil2" d="M1521.84 242.88c-6.11,0.41 -11.43,-0.32 -15.95,-2.15 -4.51,-1.83 -8.06,-4.66 -10.61,-8.5 -2.57,-3.87 -4.04,-8.62 -4.42,-14.27l-4.17 -62.81c-0.37,-5.66 0.46,-10.56 2.5,-14.73 2.01,-4.2 5.16,-7.48 9.39,-9.86 4.23,-2.38 9.42,-3.77 15.53,-4.18 6.14,-0.41 11.44,0.29 15.95,2.09 4.51,1.8 8.06,4.64 10.64,8.53 2.57,3.87 4.04,8.62 4.42,14.27l4.17 62.81c0.37,5.66 -0.46,10.56 -2.5,14.73 -2.04,4.15 -5.19,7.43 -9.42,9.83 -4.23,2.41 -9.39,3.83 -15.53,4.24zm-1.29 -19.46c1.98,-0.13 3.67,-0.65 5.07,-1.52 1.39,-0.9 2.39,-2.1 3.05,-3.59 0.63,-1.52 0.89,-3.32 0.75,-5.41l-3.84 -57.96c-0.13,-2.04 -0.63,-3.75 -1.45,-5.18 -0.85,-1.42 -2,-2.48 -3.49,-3.16 -1.5,-0.68 -3.24,-0.97 -5.23,-0.84 -1.98,0.13 -3.67,0.65 -5.01,1.52 -1.37,0.87 -2.37,2.07 -2.99,3.59 -0.65,1.53 -0.88,3.29 -0.75,5.33l3.84 57.96c0.14,2.09 0.61,3.84 1.45,5.26 0.82,1.4 1.97,2.45 3.44,3.16 1.44,0.69 3.19,0.98 5.17,0.84z"/>
  <path id="61" class="fil2" d="M1617.87 177.25l0.62 34.22c0.11,5.99 -0.93,11.14 -3.08,15.48 -2.15,4.34 -5.32,7.7 -9.52,10.06 -4.2,2.33 -9.29,3.58 -15.19,3.69 -6.05,0.11 -11.22,-0.9 -15.56,-3.02 -4.34,-2.13 -7.7,-5.26 -10.06,-9.41 -2.36,-4.18 -3.58,-9.15 -3.68,-14.98l-1.08 -59.31c-0.11,-6.13 0.89,-11.44 3.04,-15.91 2.15,-4.47 5.34,-7.92 9.54,-10.33 4.2,-2.41 9.26,-3.66 15.19,-3.77 5.83,-0.11 10.85,0.93 15.05,3.11 4.21,2.18 7.46,5.4 9.74,9.66 2.28,4.26 3.47,9.37 3.58,15.36l0.16 8.81 -20.06 0.37 -0.16 -8.81c-0.03,-1.85 -0.39,-3.43 -1.03,-4.74 -0.67,-1.33 -1.57,-2.34 -2.77,-3.04 -1.2,-0.68 -2.57,-1 -4.16,-0.97 -1.72,0.03 -3.24,0.44 -4.49,1.26 -1.28,0.8 -2.25,1.95 -2.89,3.44 -0.67,1.46 -0.96,3.22 -0.93,5.2l1.07 59.31c0.03,1.64 0.41,3.05 1.12,4.28 0.75,1.22 1.79,2.15 3.17,2.76 1.38,0.65 2.97,0.94 4.83,0.91 1.88,-0.04 3.51,-0.41 4.9,-1.11 1.36,-0.73 2.42,-1.74 3.12,-3.04 0.73,-1.33 1.05,-2.92 1.02,-4.75l-0.28 -15.66 -9.59 0.17 -0.34 -18.72 28.71 -0.52z"/>
  <path id="62" class="fil2" d="M1685 189.08l26.94 -59.62 21.96 1.7 -51.59 92.49 2.69 -34.58zm-10.69 -62.54l19.45 1.51 -8.86 114.06 -19.45 -1.51 8.86 -114.06zm18.56 53.53l14.25 -10.67 21.55 76.1 -21.32 -1.66 -14.48 -63.78z"/>
  <path id="63" class="fil2" d="M1769.97 134.93l13.6 1.71 12.79 116.91 -19.22 -2.42 -5.29 -76.24 -24.05 72.55 -19.19 -2.42 41.37 -110.09zm-18.45 76.66l30.92 3.89 -2.28 18.1 -30.92 -3.89 2.28 -18.1z"/>
  <path id="64" class="fil2" d="M1820.81 238.44l14.42 2.52c2.57,0.45 4.69,0 6.37,-1.32 1.68,-1.34 2.75,-3.42 3.25,-6.28l10.11 -57.83c0.5,-2.83 0.19,-5.15 -0.93,-6.98 -1.13,-1.83 -2.98,-2.95 -5.54,-3.4l-14.43 -2.52 3.22 -18.45 16.36 2.86c5.37,0.94 9.81,2.72 13.27,5.37 3.49,2.68 5.9,6.08 7.25,10.21 1.34,4.16 1.56,8.87 0.64,14.13l-10.86 62.17c-0.92,5.27 -2.72,9.64 -5.39,13.07 -2.68,3.46 -6.12,5.83 -10.3,7.15 -4.21,1.31 -8.99,1.51 -14.36,0.57l-16.28 -2.84 3.22 -18.45zm3.68 -96.48l19.21 3.36 -19.69 112.69 -19.21 -3.36 19.69 -112.69z"/>
  <path id="65" class="fil2" d="M1894.96 202.93l20.11 4.51c1.65,0.37 3.14,0.4 4.47,0.07 1.31,-0.31 2.42,-0.97 3.3,-1.93 0.85,-0.94 1.46,-2.21 1.8,-3.73l2.79 -12.45c0.38,-1.68 0.39,-3.22 0.06,-4.58 -0.35,-1.37 -1.07,-2.5 -2.1,-3.42 -1.06,-0.9 -2.41,-1.53 -4.06,-1.9l-20.11 -4.51 4.1 -18.27 18.96 4.25c6.06,1.36 10.97,3.48 14.81,6.41 3.83,2.95 6.46,6.57 7.86,10.87 1.4,4.33 1.5,9.15 0.31,14.47l-2.93 13.06c-1.23,5.48 -3.41,9.92 -6.54,13.32 -3.14,3.42 -7.08,5.68 -11.84,6.76 -4.76,1.08 -10.12,0.95 -16.13,-0.4l-18.95 -4.25 4.1 -18.27zm1.85 -48.13l18.64 4.18 -25.06 111.71 -18.64 -4.18 25.05 -111.7zm10.32 66.41l18.23 0.37 5.67 58.21 -20.42 -4.58 -3.47 -54z"/>
  <path id="66" class="fil2" d="M1973.03 172.6l18.81 5.17 -30.34 110.3 -18.81 -5.17 30.34 -110.3zm-17.66 94.37l39.76 10.94 -4.97 18.05 -39.76 -10.94 4.97 -18.06z"/>
  <path id="67" class="fil2" d="M2057.67 197.35l13.02 4.26 -9.65 117.21 -18.41 -6.03 9.29 -75.86 -37.4 66.66 -18.39 -6.02 61.54 -100.23zm-32.68 71.76l29.62 9.69 -5.68 17.34 -29.62 -9.7 5.68 -17.34z"/>
  <path id="68" class="fil2" d="M2101.04 262.35l19.25 7.34c1.58,0.61 3.04,0.84 4.42,0.71 1.34,-0.12 2.53,-0.62 3.54,-1.44 0.97,-0.81 1.76,-1.98 2.31,-3.43l4.55 -11.92c0.62,-1.61 0.85,-3.13 0.72,-4.53 -0.15,-1.41 -0.7,-2.62 -1.59,-3.68 -0.92,-1.04 -2.17,-1.86 -3.75,-2.46l-19.25 -7.34 6.67 -17.5 18.15 6.92c5.8,2.21 10.36,5.02 13.74,8.46 3.37,3.47 5.45,7.43 6.22,11.89 0.76,4.49 0.17,9.27 -1.77,14.36l-4.77 12.5c-2,5.25 -4.79,9.33 -8.38,12.25 -3.6,2.94 -7.82,4.61 -12.69,4.99 -4.87,0.39 -10.16,-0.51 -15.91,-2.7l-18.15 -6.92 6.68 -17.49zm8.72 -47.37l17.85 6.81 -40.8 106.96 -17.85 -6.81 40.8 -106.96zm0.7 67.21l17.99 2.98 -2.73 58.42 -19.55 -7.46 4.3 -53.94z"/>
  <polygon id="69" class="fil2" points="2182.57,243.86 2196.62,250.02 2190.64,330.72 2187.47,332.68 2219.31,259.95 2235.61,267.09 2189.75,371.81 2175.55,365.59 2180.03,289.04 2183.16,286.98 2153.06,355.74 2136.72,348.58 "/>
  <polygon id="70" class="fil2" points="2218.17,386.48 2200.71,377.8 2251.61,275.35 2269.08,284.03 "/>
  <path id="71" class="fil2" d="M2290.01 396.18l18.1 -6.38 13.88 44.64 -18.07 6.49 -13.91 -44.75zm-7.1 26.41c-5.35,-2.99 -9.42,-6.5 -12.2,-10.49 -2.79,-3.99 -4.22,-8.3 -4.26,-12.91 -0.05,-4.65 1.3,-9.43 4.07,-14.38l30.73 -54.94c2.77,-4.95 6.13,-8.6 10.12,-10.99 3.97,-2.43 8.4,-3.46 13.25,-3.15 4.84,0.31 9.95,1.97 15.3,4.95 5.37,3 9.43,6.47 12.23,10.44 2.8,3.97 4.24,8.28 4.27,12.95 0.05,4.65 -1.3,9.43 -4.07,14.38l-30.73 54.94c-2.77,4.95 -6.14,8.6 -10.12,10.99 -3.97,2.37 -8.4,3.4 -13.25,3.12 -4.86,-0.29 -9.96,-1.9 -15.33,-4.91zm9.52 -17.02c1.73,0.97 3.43,1.46 5.08,1.49 1.66,0 3.15,-0.46 4.51,-1.36 1.36,-0.94 2.55,-2.3 3.57,-4.13l28.35 -50.7c0.99,-1.78 1.52,-3.49 1.61,-5.13 0.06,-1.66 -0.33,-3.17 -1.21,-4.55 -0.89,-1.39 -2.19,-2.58 -3.93,-3.55 -1.73,-0.97 -3.43,-1.46 -5.03,-1.46 -1.62,-0.01 -3.11,0.45 -4.47,1.38 -1.38,0.92 -2.53,2.28 -3.53,4.06l-28.35 50.7c-1.02,1.83 -1.58,3.55 -1.65,5.2 -0.07,1.62 0.31,3.13 1.16,4.53 0.84,1.36 2.14,2.55 3.88,3.52z"/>
  <path id="72" class="fil2" d="M2400.73 358.9l11.62 7.27 -37.52 111.46 -16.42 -10.27 27.24 -71.41 -52.31 55.73 -16.4 -10.26 83.81 -82.51zm-48.96 61.81l26.42 16.53 -9.68 15.47 -26.42 -16.53 9.68 -15.47z"/>
  <polygon id="73" class="fil2" points="2426.28,461.38 2401.24,497.34 2385.24,486.19 2410.27,450.23 2433.03,380.07 2449.7,391.68 2431.41,436.66 2466.88,403.64 2483.52,415.23 "/>
  <path id="74" class="fil2" d="M2501.84 441.82l15.43 11.93 -64.08 82.94 -15.43 -11.93 64.08 -82.94zm-9.08 -19.14l45.33 35.02 -11.45 14.82 -45.33 -35.02 11.45 -14.82z"/>
  <path id="75" class="fil2" d="M2560.63 477.06l10.41 8.91 -53.62 104.67 -14.72 -12.59 37.52 -66.58 -59.99 47.36 -14.7 -12.58 95.11 -69.19zm-57.58 53.88l23.68 20.26 -11.86 13.86 -23.68 -20.26 11.86 -13.86z"/>
  <path id="76" class="fil2" d="M2627.17 550.26l14.17 13.41 -72.04 76.13 -14.17 -13.41 72.04 -76.13zm-7.13 -19.95l41.61 39.37 -12.87 13.6 -41.61 -39.37 12.87 -13.6z"/>
  <path id="77" class="fil2" d="M2681.53 591.91l9.47 9.91 -63.86 98.77 -13.38 -14 44.01 -62.49 -64.44 41.1 -13.37 -13.99 101.57 -59.3zm-62.7 47.83l21.53 22.53 -13.19 12.61 -21.53 -22.53 13.19 -12.6z"/>
  <polygon id="78" class="fil2" points="2681.14,697.48 2647.97,726.12 2635.22,711.35 2668.39,682.71 2707.82,620.38 2721.09,635.76 2692.23,674.81 2734.77,651.6 2748.02,666.95 "/>
  <polygon id="79" class="fil2" points="2720.99,747.03 2686.41,773.95 2674.43,758.56 2709,731.64 2751.54,671.39 2764.02,687.41 2733.21,724.95 2776.87,703.93 2789.34,719.93 "/>
  <path id="80" class="fil2" d="M2716.93 817.12c-3.51,-5.02 -5.65,-9.94 -6.43,-14.75 -0.78,-4.8 -0.19,-9.31 1.77,-13.48 1.98,-4.21 5.27,-7.92 9.92,-11.18l51.56 -36.11c4.64,-3.25 9.27,-5.08 13.89,-5.5 4.63,-0.45 9.07,0.54 13.3,2.92 4.23,2.39 8.11,6.1 11.62,11.11 3.53,5.04 5.68,9.93 6.48,14.72 0.8,4.79 0.21,9.3 -1.78,13.52 -1.98,4.2 -5.27,7.92 -9.91,11.18l-51.56 36.12c-4.64,3.25 -9.27,5.08 -13.89,5.5 -4.6,0.4 -9.04,-0.59 -13.29,-2.96 -4.25,-2.37 -8.14,-6.04 -11.67,-11.08zm15.98 -11.19c1.14,1.63 2.46,2.81 3.93,3.55 1.49,0.73 3.03,0.96 4.65,0.74 1.63,-0.25 3.3,-0.96 5.01,-2.16l47.58 -33.33c1.67,-1.17 2.89,-2.48 3.68,-3.92 0.78,-1.46 1.09,-2.99 0.89,-4.62 -0.2,-1.64 -0.85,-3.27 -1.99,-4.9 -1.14,-1.63 -2.46,-2.81 -3.9,-3.5 -1.46,-0.72 -3,-0.95 -4.62,-0.7 -1.64,0.23 -3.27,0.95 -4.95,2.12l-47.58 33.33c-1.72,1.2 -2.97,2.51 -3.75,3.97 -0.77,1.43 -1.08,2.95 -0.92,4.58 0.16,1.59 0.82,3.23 1.96,4.86z"/>
  <path id="81" class="fil2" d="M2803.5 822.25l10.95 17.45c0.9,1.44 1.92,2.51 3.1,3.22 1.14,0.71 2.39,1.03 3.69,0.98 1.26,-0.06 2.6,-0.52 3.92,-1.35l10.81 -6.78c1.46,-0.91 2.56,-1.99 3.3,-3.18 0.73,-1.22 1.02,-2.52 0.95,-3.9 -0.11,-1.39 -0.61,-2.79 -1.51,-4.22l-10.95 -17.45 15.86 -9.95 10.32 16.45c3.3,5.26 5.25,10.25 5.88,15.03 0.6,4.8 -0.12,9.21 -2.19,13.24 -2.1,4.04 -5.44,7.51 -10.06,10.4l-11.33 7.11c-4.76,2.98 -9.44,4.56 -14.06,4.73 -4.64,0.18 -9.02,-1.03 -13.14,-3.65 -4.12,-2.62 -7.8,-6.52 -11.07,-11.73l-10.32 -16.45 15.86 -9.95zm35.48 -32.57l10.15 16.18 -96.97 60.85 -10.15 -16.18 96.97 -60.85zm-39.9 54.09l12.57 13.21 -37.35 45 -11.13 -17.73 35.91 -40.48z"/>
  <path id="82" class="fil2" d="M2880.6 856.34l9.52 17.02 -99.85 55.84 -9.52 -17.02 99.85 -55.84zm-79.6 53.69l20.13 35.99 -16.34 9.14 -20.13 -35.99 16.34 -9.14z"/>
  <path id="83" class="fil2" d="M2923.11 933.93l6.08 12.28 -90.42 75.21 -8.59 -17.36 60.65 -46.5 -73.77 19.99 -8.58 -17.34 114.64 -26.28zm-74.11 26.94l13.82 27.93 -16.35 8.09 -13.82 -27.93 16.35 -8.09z"/>
  <path id="84" class="fil2" d="M2850.05 1048.51c-2.39,-5.5 -3.39,-10.65 -3.06,-15.48 0.33,-4.83 1.98,-9.15 4.94,-12.92 2.97,-3.75 7.17,-6.83 12.59,-9.19l5.64 -2.45 7.88 17.76 -5.64 2.45c-2.64,1.14 -4.38,2.81 -5.26,4.95 -0.87,2.17 -0.71,4.56 0.43,7.2 1.13,2.61 2.74,4.29 4.86,5.07 2.09,0.76 4.45,0.59 7.03,-0.54l9.17 -3.98c1.95,-0.84 3.36,-2.1 4.32,-3.81 0.96,-1.7 1.57,-3.61 1.85,-5.78 0.3,-2.15 0.55,-5.01 0.7,-8.56 0.01,-0.24 0.04,-0.46 0.06,-0.67 0.02,-0.21 0.05,-0.43 0.06,-0.67l0.01 -1.12c0.28,-4.75 0.91,-8.98 1.87,-12.64 0.92,-3.68 2.76,-7.2 5.49,-10.56 2.71,-3.34 6.65,-6.14 11.8,-8.37l5.42 -2.35c5.32,-2.31 10.35,-3.29 15.06,-2.9 4.73,0.38 8.93,2.1 12.64,5.12 3.71,3.02 6.77,7.29 9.14,12.76 2.32,5.35 3.3,10.37 2.96,15.12 -0.35,4.72 -2.01,8.93 -5,12.63 -3.02,3.71 -7.24,6.74 -12.66,9.1l-5.91 2.57 -7.96 -17.72 5.99 -2.6c2.68,-1.16 4.5,-2.77 5.41,-4.81 0.93,-2.04 0.84,-4.26 -0.23,-6.73 -1.12,-2.59 -2.67,-4.32 -4.66,-5.12 -2,-0.83 -4.18,-0.73 -6.6,0.32l-7 3.04c-1.97,0.86 -3.45,2.11 -4.45,3.78 -1.01,1.67 -1.65,3.5 -1.96,5.48 -0.3,2.01 -0.54,4.69 -0.74,8.08 -0.01,0.65 -0.02,1.3 -0.08,1.97 -0.05,0.7 -0.08,1.38 -0.12,2.08 -0.01,0.12 -0.01,0.24 -0.04,0.31 -0.02,0.09 -0.02,0.21 -0.03,0.33 -0.38,4.91 -0.93,8.99 -1.7,12.22 -0.73,3.25 -2.36,6.44 -4.89,9.59 -2.51,3.14 -6.32,5.82 -11.43,8.03l-8.75 3.8c-5.42,2.35 -10.52,3.37 -15.27,3 -4.76,-0.37 -9.01,-2.06 -12.75,-5.07 -3.74,-3.01 -6.79,-7.22 -9.16,-12.66z"/>
  <path id="85" class="fil2" d="M2987.35 1077.64l6.86 18.26 -107.08 40.26 -6.86 -18.26 107.08 -40.26zm-12.29 -32.69l6.86 18.26 -107.08 40.26 -6.86 -18.26 107.08 -40.26zm-42.46 25.86l13.49 35.89 -17.18 6.46 -13.49 -35.89 17.18 -6.46z"/>
  <polygon id="86" class="fil2" points="3009.35,1138.33 3015.66,1158.03 2943.76,1192.57 3022.34,1178.88 3028.65,1198.58 2913.25,1213.41 2906.81,1193.32 "/>
  <path id="87" class="fil2" d="M3035.37 1225.05l3.53 13.24 -103.5 55.86 -4.99 -18.72 68.64 -33.61 -76.27 5.03 -4.99 -18.69 117.57 -3.11zm-77.97 11.76l8.03 30.11 -17.63 4.7 -8.03 -30.11 17.63 -4.7z"/>
  <path id="88" class="fil2" d="M2947.85 1359.93c-0.92,-5.59 -0.57,-10.61 0.99,-15.03 1.59,-4.43 4.34,-8.06 8.26,-10.89 3.95,-2.83 8.86,-4.73 14.83,-5.71l85.55 -14.06 3.18 19.33 -86.11 14.15c-2.73,0.45 -4.77,1.47 -6.06,3.07 -1.32,1.61 -1.78,3.59 -1.39,5.97 0.4,2.44 1.49,4.22 3.25,5.32 1.74,1.13 4,1.47 6.73,1.02l86.11 -14.16 3.18 19.33 -85.55 14.07c-5.96,0.98 -11.23,0.76 -15.88,-0.68 -4.62,-1.45 -8.4,-4.04 -11.32,-7.72 -2.89,-3.69 -4.83,-8.35 -5.76,-14z"/>
  <path id="89" class="fil2" d="M3070.03 1384.66l2.23 19.38 -113.65 13.06 -2.23 -19.38 113.65 -13.07zm-94.13 18.88l4.71 40.97 -18.6 2.14 -4.71 -40.97 18.6 -2.14z"/>
  <path id="90" class="fil2" d="M3080.28 1472.31l0.91 13.67 -112.34 34.81 -1.28 -19.33 73.84 -19.71 -75.8 -9.81 -1.28 -19.3 115.95 19.67zm-78.78 -3.53l2.06 31.1 -18.2 1.21 -2.06 -31.1 18.2 -1.21z"/>
  <path id="91" class="fil2" d="M3037.77 1536.75l0.37 20.6c0.03,1.69 0.35,3.14 0.99,4.36 0.61,1.2 1.52,2.12 2.66,2.75 1.11,0.6 2.49,0.9 4.05,0.87l12.76 -0.23c1.72,-0.03 3.22,-0.38 4.47,-1.02 1.25,-0.67 2.17,-1.63 2.82,-2.85 0.62,-1.25 0.92,-2.7 0.89,-4.4l-0.37 -20.6 18.72 -0.34 0.35 19.42c0.11,6.2 -0.78,11.49 -2.72,15.9 -1.96,4.41 -4.86,7.83 -8.71,10.21 -3.88,2.38 -8.54,3.62 -13.99,3.72l-13.38 0.24c-5.61,0.1 -10.44,-0.97 -14.49,-3.2 -4.07,-2.24 -7.2,-5.54 -9.37,-9.91 -2.18,-4.37 -3.32,-9.61 -3.43,-15.76l-0.35 -19.42 18.72 -0.34zm47.2 -9.59l0.35 19.1 -114.46 2.08 -0.35 -19.1 114.46 -2.08zm-62.09 25.74l3.95 17.8 -55.22 19.28 -0.38 -20.92 51.65 -16.15z"/>
  <polygon id="92" class="fil2" points="3086.96,1605.45 3086.5,1620.78 3009.4,1645.4 3006.41,1643.18 3085.76,1645.54 3085.23,1663.32 2970.97,1659.92 2971.43,1644.43 3044.11,1619.98 3047.19,1622.11 2972.16,1619.88 2972.69,1602.05 "/>
  <polygon id="93" class="fil2" points="2969.93,1691.87 2970.52,1672.38 3084.86,1675.78 3084.28,1695.28 "/>
  <polygon id="94" class="fil2" points="3082.65,1713.15 3081.46,1728.44 3003.28,1749.34 3000.39,1746.99 3079.54,1753.14 3078.16,1770.87 2964.19,1762.01 2965.39,1746.56 3039.16,1725.61 3042.13,1727.89 2967.29,1722.08 2968.67,1704.29 "/>
  <path id="95" class="fil2" d="M3015.91 1840.27l-33.96 -4.28c-5.94,-0.75 -10.9,-2.51 -14.88,-5.26 -3.99,-2.75 -6.86,-6.36 -8.6,-10.86 -1.71,-4.49 -2.22,-9.7 -1.48,-15.57 0.75,-6 2.49,-10.98 5.21,-14.97 2.72,-3.99 6.31,-6.87 10.76,-8.61 4.47,-1.74 9.57,-2.23 15.35,-1.5l58.86 7.41c6.08,0.77 11.19,2.52 15.31,5.28 4.12,2.76 7.07,6.41 8.86,10.92 1.79,4.5 2.3,9.69 1.56,15.58 -0.73,5.79 -2.48,10.6 -5.23,14.45 -2.76,3.85 -6.41,6.61 -10.95,8.26 -4.54,1.65 -9.77,2.1 -15.71,1.35l-8.75 -1.1 2.51 -19.91 8.75 1.1c1.84,0.23 3.45,0.11 4.83,-0.34 1.41,-0.47 2.54,-1.23 3.4,-2.31 0.84,-1.09 1.36,-2.4 1.56,-3.97 0.21,-1.71 0.03,-3.27 -0.61,-4.62 -0.61,-1.38 -1.61,-2.51 -2.99,-3.36 -1.35,-0.87 -3.04,-1.41 -5.02,-1.66l-58.86 -7.41c-1.63,-0.21 -3.08,-0.04 -4.4,0.5 -1.32,0.57 -2.38,1.46 -3.19,2.74 -0.84,1.28 -1.36,2.81 -1.59,4.65 -0.24,1.86 -0.09,3.54 0.4,5 0.52,1.45 1.37,2.64 2.56,3.52 1.21,0.91 2.74,1.45 4.55,1.68l15.54 1.96 1.2 -9.52 18.58 2.34 -3.59 28.49z"/>
  <polygon id="96" class="fil2" points="3045.01,1958.98 3041.02,1976.78 2929.39,1951.74 2933.19,1934.78 3011.13,1952.27 3005.94,1952.31 2956.31,1924.16 2958.44,1914.65 3013.83,1910.06 3019.93,1913.05 2941.99,1895.56 2945.89,1878.21 3057.51,1903.25 3053.41,1921.52 2988.62,1926.43 "/>
  <path id="97" class="fil2" d="M3030.24 2015.05l-3.63 13.21 -117.54 -4.03 5.14 -18.68 76.22 5.64 -68.37 -34.16 5.13 -18.65 103.06 56.66zm-73.25 -29.21l-8.26 30.05 -17.59 -4.84 8.27 -30.05 17.59 4.84z"/>
  <path id="98" class="fil2" d="M3014.35 2067.68l-6.07 18.54 -108.72 -35.59 6.07 -18.54 108.72 35.59zm-93.42 -22.16l-12.83 39.19 -17.8 -5.82 12.83 -39.19 17.8 5.82z"/>
  <path id="99" class="fil2" d="M2984.86 2150.81l-4.88 12.8 -116.61 -15.27 6.9 -18.1 75.33 12.92 -64.79 -40.56 6.9 -18.07 97.16 66.28zm-70.11 -36.09l-11.11 29.12 -17.05 -6.5 11.11 -29.12 17.05 6.5z"/>
  <path id="100" class="fil2" d="M2901.39 2191.23l47.44 45.05 -8.83 20.18 -70.38 -79.14 31.77 13.91zm62.58 10.47l-7.82 17.87 -104.8 -45.88 7.82 -17.87 104.8 45.88zm-56.66 -0.08l5.39 16.97 -78.95 -4.68 8.58 -19.59 64.99 7.31z"/>
  <path id="101" class="fil2" d="M2923.09 2288.69l-6.1 12.27 -114.59 -26.46 8.62 -17.35 73.73 20.13 -60.56 -46.62 8.61 -17.33 90.3 75.35zm-66.3 -42.69l-13.87 27.91 -16.34 -8.12 13.87 -27.91 16.34 8.12z"/>
  <path id="102" class="fil2" d="M2785.97 2298.99c2.92,-5.23 6.41,-9.16 10.46,-11.82 4.04,-2.66 8.47,-3.97 13.27,-3.91 4.78,0.09 9.78,1.56 14.94,4.44l5.37 3 -9.34 17.03 -5.37 -3c-2.51,-1.4 -4.88,-1.78 -7.13,-1.18 -2.25,0.62 -4.06,2.19 -5.46,4.7 -1.39,2.48 -1.75,4.78 -1.08,6.94 0.66,2.12 2.23,3.89 4.69,5.27l8.72 4.88c1.85,1.03 3.71,1.4 5.65,1.13 1.94,-0.27 3.82,-0.94 5.72,-2.03 1.89,-1.07 4.32,-2.6 7.24,-4.63 0.2,-0.13 0.38,-0.25 0.57,-0.36 0.18,-0.11 0.37,-0.22 0.57,-0.36l0.9 -0.67c3.95,-2.66 7.69,-4.72 11.18,-6.18 3.48,-1.5 7.4,-2.17 11.72,-2.03 4.3,0.13 8.91,1.57 13.81,4.31l5.16 2.89c5.07,2.83 8.89,6.23 11.44,10.21 2.57,3.99 3.75,8.38 3.6,13.16 -0.15,4.78 -1.69,9.8 -4.6,15 -2.85,5.09 -6.25,8.91 -10.23,11.52 -3.97,2.58 -8.32,3.81 -13.08,3.68 -4.78,-0.15 -9.75,-1.67 -14.91,-4.55l-5.63 -3.15 9.27 -17.07 5.7 3.19c2.56,1.43 4.94,1.9 7.1,1.39 2.19,-0.5 3.9,-1.91 5.21,-4.26 1.38,-2.46 1.82,-4.74 1.25,-6.81 -0.55,-2.09 -1.95,-3.77 -4.25,-5.05l-6.66 -3.72c-1.88,-1.05 -3.77,-1.46 -5.7,-1.25 -1.94,0.21 -3.78,0.81 -5.54,1.76 -1.78,0.98 -4.06,2.41 -6.88,4.31 -0.52,0.38 -1.04,0.77 -1.61,1.13 -0.58,0.38 -1.14,0.78 -1.73,1.16 -0.1,0.07 -0.2,0.13 -0.27,0.15 -0.08,0.04 -0.18,0.11 -0.28,0.18 -4.14,2.67 -7.71,4.71 -10.74,6.06 -3.02,1.39 -6.56,2.03 -10.59,1.93 -4.01,-0.09 -8.46,-1.5 -13.31,-4.21l-8.32 -4.66c-5.16,-2.89 -9.05,-6.32 -11.65,-10.33 -2.59,-4 -3.82,-8.42 -3.7,-13.21 0.13,-4.79 1.62,-9.78 4.52,-14.96z"/>
  <polygon id="103" class="fil2" points="2756.4,2349.66 2766.75,2333.12 2863.74,2393.78 2853.4,2410.32 "/>
  <polygon id="104" class="fil2" points="2844.02,2425.82 2835.26,2438.41 2757.25,2416.87 2755.95,2413.38 2821.1,2458.74 2810.94,2473.34 2717.12,2408.02 2725.98,2395.29 2800.2,2414.56 2801.62,2418.03 2740.01,2375.14 2750.21,2360.5 "/>
  <polygon id="105" class="fil2" points="2698.23,2433.79 2710.15,2418.36 2800.68,2488.3 2788.75,2503.74 "/>
  <path id="106" class="fil2" d="M2651.2 2491.06c3.98,-4.65 8.22,-7.96 12.68,-9.9 4.46,-1.95 8.97,-2.51 13.5,-1.64 4.57,0.87 8.99,3.13 13.3,6.82l47.83 40.92c4.31,3.68 7.23,7.71 8.79,12.08 1.6,4.37 1.74,8.92 0.49,13.61 -1.25,4.69 -3.88,9.37 -7.86,14.03 -4,4.67 -8.2,7.98 -12.64,9.94 -4.44,1.97 -8.95,2.52 -13.53,1.64 -4.57,-0.87 -8.99,-3.13 -13.3,-6.81l-47.83 -40.92c-4.31,-3.69 -7.23,-7.71 -8.79,-12.08 -1.54,-4.36 -1.69,-8.9 -0.45,-13.61 1.24,-4.71 3.82,-9.39 7.82,-14.06zm14.82 12.68c-1.29,1.51 -2.1,3.08 -2.46,4.69 -0.33,1.62 -0.17,3.18 0.44,4.69 0.65,1.51 1.75,2.95 3.34,4.31l44.14 37.76c1.55,1.33 3.12,2.18 4.72,2.59 1.61,0.39 3.17,0.3 4.7,-0.29 1.53,-0.6 2.96,-1.64 4.25,-3.15 1.29,-1.51 2.1,-3.08 2.42,-4.65 0.33,-1.59 0.18,-3.14 -0.48,-4.65 -0.63,-1.53 -1.73,-2.93 -3.28,-4.26l-44.14 -37.76c-1.59,-1.36 -3.17,-2.25 -4.78,-2.64 -1.57,-0.39 -3.13,-0.31 -4.67,0.25 -1.5,0.55 -2.93,1.6 -4.22,3.11z"/>
  <path id="107" class="fil2" d="M2606.75 2541.49c4.12,-4.35 8.47,-7.3 13.04,-8.89 4.58,-1.59 9.19,-1.77 13.82,-0.53 4.61,1.26 9.1,3.91 13.39,7.97l4.47 4.23 -13.24 14.22 -4.47 -4.23c-2.09,-1.98 -4.3,-2.92 -6.62,-2.9 -2.34,0.05 -4.47,1.13 -6.45,3.22 -1.96,2.07 -2.87,4.2 -2.75,6.46 0.12,2.22 1.2,4.32 3.25,6.26l7.26 6.87c1.54,1.46 3.25,2.27 5.2,2.48 1.94,0.21 3.94,0.02 6.05,-0.57 2.09,-0.57 4.82,-1.46 8.15,-2.71 0.23,-0.08 0.43,-0.14 0.64,-0.21 0.21,-0.06 0.41,-0.12 0.64,-0.21l1.03 -0.43c4.48,-1.61 8.61,-2.69 12.36,-3.25 3.75,-0.6 7.71,-0.29 11.87,0.91 4.14,1.18 8.25,3.71 12.33,7.57l4.29 4.06c4.22,3.99 7.09,8.22 8.58,12.71 1.51,4.5 1.58,9.04 0.26,13.64 -1.32,4.6 -4.04,9.08 -8.14,13.41 -4.01,4.24 -8.24,7.11 -12.74,8.66 -4.48,1.53 -9,1.66 -13.58,0.36 -4.6,-1.32 -9.04,-4.01 -13.34,-8.07l-4.68 -4.43 13.17 -14.28 4.74 4.49c2.13,2.01 4.32,3.05 6.55,3.09 2.24,0.05 4.25,-0.9 6.1,-2.85 1.94,-2.05 2.93,-4.15 2.89,-6.29 -0.02,-2.17 -0.97,-4.13 -2.88,-5.94l-5.54 -5.24c-1.56,-1.48 -3.3,-2.35 -5.22,-2.61 -1.93,-0.27 -3.86,-0.14 -5.81,0.35 -1.96,0.51 -4.52,1.34 -7.72,2.5 -0.6,0.25 -1.2,0.49 -1.84,0.7 -0.66,0.23 -1.3,0.47 -1.96,0.7 -0.11,0.04 -0.23,0.08 -0.3,0.08 -0.09,0.02 -0.21,0.06 -0.32,0.11 -4.67,1.57 -8.63,2.67 -11.9,3.24 -3.27,0.6 -6.85,0.36 -10.74,-0.73 -3.87,-1.07 -7.83,-3.53 -11.87,-7.35l-6.93 -6.55c-4.29,-4.06 -7.22,-8.35 -8.75,-12.87 -1.53,-4.52 -1.64,-9.1 -0.34,-13.71 1.3,-4.62 3.97,-9.08 8.05,-13.39z"/>
  <path id="108" class="fil2" d="M2633.65 2679.05l-14.1 13.48 -79.03 -82.71 14.1 -13.47 79.03 82.71zm25.25 -24.13l-14.1 13.47 -79.03 -82.71 14.1 -13.48 79.03 82.71zm-40.45 -28.91l-27.72 26.49 -12.68 -13.27 27.72 -26.49 12.68 13.27z"/>
  <polygon id="109" class="fil2" points="2517.4,2631.91 2531.5,2618.43 2610.53,2701.14 2596.43,2714.62 "/>
  <path id="110" class="fil2" d="M2544.9 2696.22l-15.6 13.47c-1.28,1.11 -2.19,2.28 -2.72,3.55 -0.53,1.24 -0.66,2.52 -0.41,3.8 0.25,1.24 0.91,2.49 1.92,3.67l8.34 9.66c1.12,1.3 2.35,2.23 3.64,2.78 1.31,0.53 2.64,0.63 4,0.35 1.36,-0.32 2.66,-1.02 3.95,-2.13l15.6 -13.47 12.24 14.17 -14.7 12.7c-4.7,4.06 -9.33,6.74 -13.97,8.08 -4.65,1.32 -9.12,1.27 -13.42,-0.16 -4.31,-1.46 -8.24,-4.25 -11.8,-8.37l-8.75 -10.13c-3.67,-4.25 -5.94,-8.64 -6.81,-13.18 -0.88,-4.56 -0.34,-9.08 1.62,-13.54 1.96,-4.46 5.27,-8.7 9.92,-12.72l14.7 -12.69 12.24 14.17zm37.56 30.15l-14.46 12.48 -74.81 -86.65 14.46 -12.48 74.81 86.65zm-59.5 -31.26l-11.15 14.42 -50.14 -30.12 15.84 -13.68 45.45 29.37z"/>
  <polygon id="111" class="fil2" points="2437.62,2697.35 2453.01,2685.36 2523.29,2775.63 2507.9,2787.61 "/>
  <path id="112" class="fil2" d="M2405.35 2720.25c4.91,-3.44 9.76,-5.46 14.56,-6.1 4.8,-0.64 9.36,0.11 13.65,2.25 4.27,2.16 8.13,5.65 11.52,10.5l3.53 5.04 -15.82 11.27 -3.53 -5.04c-1.65,-2.35 -3.63,-3.72 -5.9,-4.17 -2.3,-0.42 -4.61,0.21 -6.97,1.86 -2.33,1.63 -3.65,3.54 -3.99,5.78 -0.33,2.2 0.31,4.47 1.93,6.78l5.73 8.19c1.22,1.74 2.73,2.87 4.6,3.47 1.86,0.6 3.85,0.81 6.04,0.66 2.17,-0.14 5.02,-0.47 8.53,-1.03 0.24,-0.03 0.45,-0.05 0.67,-0.07 0.22,-0.02 0.43,-0.04 0.67,-0.08l1.1 -0.21c4.71,-0.67 8.98,-0.91 12.76,-0.7 3.79,0.17 7.61,1.26 11.44,3.27 3.82,1.98 7.34,5.29 10.56,9.89l3.39 4.84c3.33,4.75 5.29,9.48 5.86,14.17 0.58,4.71 -0.27,9.17 -2.48,13.41 -2.21,4.24 -5.78,8.09 -10.67,11.51 -4.78,3.34 -9.5,5.31 -14.22,5.93 -4.7,0.6 -9.15,-0.18 -13.37,-2.38 -4.24,-2.21 -8.05,-5.74 -11.45,-10.58l-3.7 -5.28 15.77 -11.34 3.75 5.35c1.68,2.4 3.62,3.86 5.79,4.34 2.19,0.5 4.34,-0.03 6.54,-1.57 2.31,-1.62 3.7,-3.48 4.09,-5.59 0.41,-2.13 -0.12,-4.25 -1.63,-6.4l-4.38 -6.25c-1.23,-1.76 -2.76,-2.96 -4.59,-3.61 -1.83,-0.65 -3.75,-0.91 -5.76,-0.82 -2.03,0.11 -4.7,0.41 -8.07,0.89 -0.64,0.12 -1.28,0.24 -1.94,0.31 -0.69,0.09 -1.37,0.2 -2.06,0.29 -0.12,0.02 -0.24,0.04 -0.31,0.02 -0.1,0 -0.21,0.02 -0.33,0.04 -4.89,0.61 -8.99,0.89 -12.31,0.78 -3.33,-0.06 -6.78,-1.02 -10.38,-2.87 -3.57,-1.83 -6.96,-5.03 -10.15,-9.58l-5.47 -7.81c-3.39,-4.84 -5.4,-9.63 -6,-14.36 -0.59,-4.74 0.22,-9.24 2.42,-13.5 2.2,-4.26 5.71,-8.1 10.57,-11.51z"/>
  <path id="113" class="fil2" d="M2404.36 2860.86l-16.52 10.37 -60.8 -96.9 16.52 -10.37 60.8 96.9zm29.58 -18.56l-16.52 10.37 -60.8 -96.9 16.52 -10.37 60.8 96.9zm-33.81 -36.45l-32.47 20.38 -9.75 -15.55 32.47 -20.38 9.75 15.55z"/>
  <polygon id="114" class="fil2" points="2271.7,2807.23 2288.73,2797.71 2344.56,2897.55 2327.54,2907.08 "/>
  <polygon id="115" class="fil2" points="2312.18,2917.01 2298.43,2923.82 2240.47,2867.34 2241.01,2863.65 2276.23,2934.8 2260.29,2942.69 2209.58,2840.23 2223.48,2833.36 2279.22,2886.02 2278.78,2889.74 2245.48,2822.47 2261.47,2814.55 "/>
  <path id="116" class="fil2" d="M2172.07 2857.16c5.5,-2.39 10.65,-3.39 15.48,-3.06 4.83,0.33 9.15,1.98 12.92,4.94 3.75,2.97 6.83,7.17 9.19,12.59l2.45 5.64 -17.76 7.88 -2.45 -5.64c-1.14,-2.64 -2.81,-4.38 -4.95,-5.26 -2.17,-0.87 -4.56,-0.71 -7.2,0.43 -2.61,1.13 -4.29,2.74 -5.07,4.86 -0.76,2.09 -0.59,4.45 0.54,7.03l3.98 9.17c0.84,1.95 2.1,3.36 3.81,4.32 1.7,0.96 3.61,1.57 5.78,1.85 2.15,0.3 5.01,0.55 8.56,0.7 0.24,0.01 0.46,0.04 0.67,0.06 0.21,0.02 0.43,0.05 0.67,0.06l1.12 0.01c4.75,0.28 8.98,0.91 12.64,1.87 3.68,0.92 7.2,2.76 10.56,5.49 3.34,2.71 6.14,6.65 8.37,11.8l2.35 5.42c2.31,5.32 3.29,10.35 2.9,15.06 -0.38,4.73 -2.1,8.93 -5.12,12.64 -3.02,3.71 -7.29,6.77 -12.76,9.14 -5.35,2.32 -10.37,3.3 -15.12,2.96 -4.72,-0.35 -8.93,-2.01 -12.63,-5 -3.71,-3.02 -6.74,-7.24 -9.1,-12.66l-2.57 -5.91 17.72 -7.96 2.6 5.99c1.16,2.68 2.77,4.5 4.81,5.41 2.04,0.93 4.26,0.84 6.73,-0.23 2.59,-1.12 4.32,-2.67 5.12,-4.66 0.83,-2 0.73,-4.18 -0.32,-6.6l-3.04 -7c-0.86,-1.97 -2.11,-3.45 -3.78,-4.45 -1.67,-1.01 -3.5,-1.65 -5.48,-1.96 -2.01,-0.3 -4.69,-0.54 -8.08,-0.74 -0.65,-0.01 -1.3,-0.02 -1.97,-0.08 -0.7,-0.05 -1.38,-0.08 -2.08,-0.12 -0.12,-0.01 -0.24,-0.01 -0.31,-0.04 -0.09,-0.02 -0.21,-0.02 -0.33,-0.03 -4.91,-0.38 -8.99,-0.93 -12.22,-1.7 -3.25,-0.73 -6.44,-2.36 -9.59,-4.89 -3.14,-2.51 -5.82,-6.32 -8.03,-11.43l-3.8 -8.75c-2.35,-5.42 -3.37,-10.52 -3,-15.27 0.37,-4.76 2.06,-9.01 5.07,-12.75 3.01,-3.74 7.22,-6.79 12.66,-9.16z"/>
  <path id="117" class="fil2" d="M2160.65 2978.08l-18.26 6.86 -36.88 -98.1 18.26 -6.87 36.88 98.1zm21.05 2.33l-53.62 20.16 -6.59 -17.53 53.62 -20.16 6.59 17.53z"/>
  <polygon id="118" class="fil2" points="2062.33,2903.08 2080.59,2896.21 2120.85,3003.3 2102.59,3010.16 "/>
  <path id="119" class="fil2" d="M2066.17 3012.59l-18.58 5.95 -31.98 -99.84 18.58 -5.95 31.98 99.84zm20.91 3.37l-54.55 17.48 -5.71 -17.83 54.55 -17.48 5.71 17.83z"/>
  <path id="120" class="fil2" d="M1966.38 2932.17c5.48,-1.46 10.5,-1.6 15.06,-0.48 4.56,1.15 8.45,3.53 11.64,7.15 3.2,3.65 5.57,8.36 7.13,14.2l22.35 83.77 -18.93 5.05 -22.49 -84.31c-0.71,-2.68 -1.92,-4.6 -3.64,-5.73 -1.73,-1.15 -3.74,-1.42 -6.08,-0.8 -2.39,0.64 -4.06,1.89 -4.98,3.75 -0.95,1.84 -1.07,4.12 -0.36,6.8l22.5 84.32 -18.92 5.05 -22.35 -83.77c-1.56,-5.84 -1.85,-11.1 -0.87,-15.87 0.99,-4.74 3.2,-8.75 6.58,-12.02 3.39,-3.24 7.84,-5.62 13.37,-7.1z"/>
  <path id="121" class="fil2" d="M1939.13 3048.77l-19.07 4.1 -22.02 -102.47 19.07 -4.1 22.03 102.47zm20.48 5.41l-56 12.04 -3.93 -18.31 56 -12.04 3.94 18.31z"/>
  <polygon id="122" class="fil2" points="1852.94,2960.09 1872.01,2956 1896.05,3067.84 1876.98,3071.94 "/>
  <g id="_1826070619856">
   <path class="fil1" d="M1534.51 2952.97l34.83 0 30.64 -30.64 30.64 30.64 43.33 0 0 43.33 30.64 30.64 -30.64 30.64 0 43.33 -43.33 0 -30.64 30.64 -30.64 -30.64 -43.33 0 0 -43.33 -30.64 -30.64 30.64 -30.64 0 -43.33 8.5 0zm38.35 17l-29.85 0 0 33.37 -23.6 23.6 23.6 23.6 0 33.37 33.37 0 23.6 23.6 23.6 -23.6 33.37 0 0 -33.37 23.6 -23.6 -23.6 -23.6 0 -33.37 -33.37 0 -23.6 -23.6 -23.6 23.6 -3.52 0z"/>
   <path class="fil6" d="M1591.91 2986.15c11.86,0 22.54,5.07 29.99,13.15 -5.59,-4.03 -12.46,-6.4 -19.88,-6.4 -18.81,0 -34.05,15.24 -34.05,34.05 0,18.81 15.25,34.05 34.05,34.05 7.42,0 14.28,-2.37 19.88,-6.4 -7.45,8.08 -18.13,13.15 -29.99,13.15 -22.53,0 -40.79,-18.26 -40.79,-40.79 0,-22.53 18.26,-40.79 40.79,-40.79z"/>
   <polygon class="fil6" points="1621.75,3002.66 1628.12,3022.39 1648.84,3022.35 1632.05,3034.5 1638.49,3054.2 1621.75,3041.98 1605.01,3054.2 1611.45,3034.5 1594.66,3022.35 1615.38,3022.39 "/>
  </g>
 </g>
</svg>
