<?xml version="1.0" encoding="utf-8"?>
<!-- Generator: Adobe Illustrator 23.0.1, SVG Export Plug-In . SVG Version: 6.00 Build 0)  -->
<svg version="1.1" id="Слой_1" xmlns="http://www.w3.org/2000/svg" xmlns:xlink="http://www.w3.org/1999/xlink" x="0px" y="0px"
	 viewBox="0 0 841.95 782.25" style="enable-background:new 0 0 841.95 782.25;" xml:space="preserve">
<style type="text/css">
	.st0{fill:#D11C33;}
	.st1{fill:#0D4466;}
	.st2{fill:#47B699;}
	.st3{fill:#3DBBCA;}
	.st4{fill:#174555;}
	.st5{fill:#57B2AE;}
	.st6{fill:#EF7A22;}
	.st7{fill:#206788;}
	.st8{fill:#F28E35;}
	.st9{fill:#8C1740;}
	.st10{fill:#9AD4DF;}
	.st11{fill:#78132F;}
	.st12{fill:#FFFFFF;}
	.st13{fill-rule:evenodd;clip-rule:evenodd;fill:#FFFFFF;}
	.st14{fill:#00484C;}
	.st15{fill:#263571;}
	.st16{fill-rule:evenodd;clip-rule:evenodd;fill:#263571;}
	.st17{fill-rule:evenodd;clip-rule:evenodd;fill:#00484C;}
</style>
<path class="st0" d="M110.12,152.29C45.55,218.09,5.45,307.97,4.52,407.22h230.05c0.89-35.73,15.26-68.11,38.21-92.25L110.12,152.29
	z"/>
<path class="st1" d="M377.06,779.75c99.25-0.93,189.13-41.03,254.93-105.59L469.31,511.48c-24.14,22.96-56.52,37.33-92.25,38.21
	V779.75z"/>
<path class="st2" d="M469.31,309.99l138.24-138.24C548,113.44,466.76,77.21,377.06,76.28v195.49
	C412.79,272.66,445.17,287.03,469.31,309.99z"/>
<path class="st3" d="M370.02,141.72v-32.78c-80.69,0.92-153.76,33.5-207.39,85.91l23.18,23.18
	C233.5,171.55,298.38,142.65,370.02,141.72z"/>
<path class="st4" d="M277.77,309.99c24.14-22.96,56.52-37.33,92.25-38.21V141.72c-71.64,0.92-136.52,29.83-184.21,76.3
	L277.77,309.99z"/>
<path class="st5" d="M742.55,407.22c-0.93-99.25-41.03-189.13-105.59-254.93l-92.77,92.77c40.83,42.05,66.25,99.13,67.17,162.16
	H742.55z"/>
<path class="st6" d="M139.53,649.72c59.54,58.31,140.78,94.54,230.49,95.47v-96.64c-63.02-0.92-120.1-26.34-162.15-67.17
	L139.53,649.72z"/>
<path class="st7" d="M512.5,407.22h98.86c-0.92-63.02-26.33-120.11-67.17-162.16l-69.91,69.91
	C497.24,339.11,511.61,371.49,512.5,407.22z"/>
<path class="st8" d="M277.77,511.48l-69.9,69.9c42.05,40.83,99.13,66.25,162.15,67.17V549.7
	C334.29,548.81,301.91,534.44,277.77,511.48z"/>
<path class="st9" d="M4.52,414.26c0.93,99.25,41.03,189.13,105.59,254.93l46.53-46.53c-52.66-53.89-85.39-127.32-86.32-208.4H4.52z"
	/>
<path class="st10" d="M708,414.26h-31.24c-0.92,81.08-33.66,154.51-86.32,208.4l22.09,22.09C670.84,585.2,707.07,503.97,708,414.26z
	"/>
<path class="st11" d="M234.58,414.26H70.33c0.92,81.08,33.66,154.51,86.32,208.4l116.14-116.14
	C249.83,482.37,235.46,449.99,234.58,414.26z"/>
<path class="st3" d="M512.5,414.26c-0.89,35.73-15.26,68.11-38.21,92.25l116.15,116.15c52.66-53.89,85.4-127.32,86.32-208.4H512.5z"
	/>
<g>
	<path class="st12" d="M413.32,188.02v32.5c5.22-1.11,12.33-4.23,20.18-8.26v-24.24H413.32z"/>
	<path class="st12" d="M413.32,241.02v3.2h20.18v-8.46C426.58,238.19,419.72,240.08,413.32,241.02L413.32,241.02z"/>
	<path class="st12" d="M441.38,232.79v11.44h20.18v-20.67C455.3,226.73,448.41,229.96,441.38,232.79L441.38,232.79z"/>
	<path class="st12" d="M469.44,244.22h20.18v-36.54c0,0-8.25,5.32-20.18,11.75V244.22z"/>
	<path class="st12" d="M441.38,170.78V208c6.75-3.77,13.69-7.95,20.18-12.01v-25.21H441.38z"/>
	<path class="st12" d="M489.63,152.08h-20.18v38.88c9.52-6.15,17.15-11.35,20.18-13.44V152.08z"/>
	<path class="st12" d="M495.64,170.5l3.63,6.03c0,0-31.97,20.67-39.37,25.33c-7.4,4.66-29.31,19.07-43.97,22.3
		c-14.66,3.26-16.07-0.97-16.07-5.63c0-4.66,9.72-14.24,9.72-14.24v-3.92c0,0-6.29,6.35-10.8,12.38c-1.39,1.89-2.61,3.75-3.4,5.37
		c-2.83,5.77-4.14,12.09-1.28,15.18c2.98,3.2,6.49,4.77,19.22,3.2c12.93-1.6,32.06-9.49,43.34-15.27
		c11.28-5.77,51.48-29.96,51.48-29.96l4,6.63l9.58-24.87L495.64,170.5z"/>
</g>
<g>
	<path class="st13" d="M448.79,641.33c4.54-0.94,9.13-0.77,13.46,0.34l4.31-9.83l9.24,4.12l-4.34,9.83c3.71,2.49,6.92,5.8,9.3,9.83
		l9.95-3.86l3.63,9.49l-9.95,3.86c0.94,4.6,0.77,9.23-0.34,13.61l9.75,4.35l-4.08,9.32l-9.75-4.37c-2.47,3.75-5.75,6.98-9.75,9.38
		l3.83,10.03l-9.41,3.66l-3.83-10.03c-4.56,0.94-9.16,0.77-13.49-0.34l-4.31,9.83l-9.24-4.12l4.34-9.83
		c-3.71-2.49-6.92-5.83-9.3-9.83l-9.95,3.86l-3.63-9.49l9.95-3.89c-0.94-4.57-0.77-9.21,0.34-13.58l-9.75-4.35l4.08-9.32l9.75,4.37
		c2.47-3.75,5.78-6.98,9.78-9.38l-3.86-10.03l9.41-3.66L448.79,641.33z M450.2,659.2c6.55-2.54,13.92,0.77,16.47,7.38
		c2.52,6.6-0.74,14.04-7.31,16.58c-6.55,2.57-13.92-0.74-16.44-7.35C440.37,669.2,443.66,661.77,450.2,659.2L450.2,659.2z"/>
	<path class="st13" d="M508.74,616.11c3.06-0.43,6.09-0.14,8.93,0.77l3.23-6.38l5.95,3.12l-3.23,6.35c2.35,1.8,4.37,4.12,5.75,6.89
		l6.77-2.17l2.04,6.43l-6.77,2.17c0.45,3.09,0.17,6.15-0.74,9.01l6.29,3.29l-3.06,6l-6.32-3.29c-1.76,2.4-4.08,4.4-6.83,5.83
		l2.18,6.8l-6.41,2.06l-2.15-6.8c-3.06,0.43-6.09,0.14-8.9-0.77l-3.26,6.38l-5.95-3.12l3.26-6.35c-2.38-1.8-4.37-4.12-5.78-6.89
		l-6.75,2.17l-2.04-6.43l6.75-2.17c-0.45-3.09-0.17-6.15,0.74-9.01l-6.29-3.29l3.06-6l6.32,3.29c1.76-2.4,4.08-4.4,6.83-5.83
		l-2.15-6.8l6.38-2.06L508.74,616.11z M508.99,628.03c4.45-1.43,9.21,1.03,10.63,5.52c1.42,4.49-1.05,9.29-5.5,10.72
		c-4.45,1.43-9.18-1.03-10.63-5.52C502.08,634.27,504.54,629.46,508.99,628.03L508.99,628.03z"/>
	<path class="st13" d="M460.64,628.92c0,0,10.74-21.67,12.27-21.98c3.12-0.66,9.47,3.69,12.16,4.75c0,0-0.68-10.29-10.43-13.75
		c-9.78-3.46-18.54,5.15-20.55,5.55c-2.01,0.4-8.53,2.74-14.23,1.43c-5.67-1.32-30.39-5.26-33.76-3.4
		c-3.34,1.86-3.66,7.35-0.11,9.26c3.51,1.94,24.75,3.14,29.4,3.95c4.65,0.77,11.11,1.94,15.99,5.52
		C456.27,623.83,460.64,628.92,460.64,628.92L460.64,628.92z M465.96,607.39c-2.1-1.66-5.3-0.71-7.17,2.12
		c-1.87,2.8-1.67,6.4,0.43,8.06c2.1,1.66,5.3,0.71,7.14-2.12C468.23,612.65,468.06,609.05,465.96,607.39L465.96,607.39z
		 M409.04,603.48c1.28,0,2.3,1.03,2.3,2.32c0,1.29-1.02,2.32-2.3,2.32s-2.3-1.03-2.3-2.32
		C406.75,604.51,407.77,603.48,409.04,603.48L409.04,603.48z"/>
	<path class="st13" d="M467.18,618.6c0,0,10.6,5.57,10.94,5.97c0.31,0.4-3.09,2.83-6.41,3.43c-3.34,0.57-8.65-1.14-8.65-1.14
		L467.18,618.6z"/>
	<path class="st13" d="M465.34,608.74c-1.42-1.43-3.8-0.89-5.33,1.2s-1.62,4.89-0.2,6.29c1.42,1.43,3.8,0.89,5.33-1.2
		C466.67,612.94,466.79,610.14,465.34,608.74L465.34,608.74z"/>
</g>
<g>
	<path class="st13" d="M179.8,484.59c-6.55-1.34-12.95,2.94-14.29,9.55c-1.33,6.63,2.89,13.09,9.47,14.44
		c6.58,1.34,12.98-2.94,14.31-9.55C190.63,492.39,186.38,485.93,179.8,484.59L179.8,484.59z M178.81,489.65
		c-3.83-0.8-7.51,1.69-8.31,5.52c-0.77,3.83,1.7,7.58,5.5,8.38c3.8,0.77,7.51-1.72,8.28-5.55
		C185.08,494.17,182.61,490.42,178.81,489.65L178.81,489.65z"/>
	<path class="st13" d="M190.35,470.09c0.96,0.2,1.9-0.43,2.1-1.4c0.2-0.97-0.43-1.94-1.39-2.14l-2.72-0.54l-19.22-3.95l-1.79-0.37
		c-0.96-0.2-1.93,0.43-2.13,1.43c-0.17,0.97,0.45,1.94,1.42,2.14l1.13,0.23l-3.63,8.98c0,0-2.55,0-6.09,0.03l1.84-9.15
		c0,0,0.17-2.03-2.07-3.26c-2.24-1.2-3.17-0.46-3.37,0.34c-0.2,0.8,0.06,1.37,0.74,1.74c0.68,0.37,1.81,0.37,1.7,1.06
		c-0.09,0.6-1.39,7-1.84,9.29c-7.29,0.06-16.44,0.26-17.49,0.77c-1.81,0.91-2.27,5.92-2.27,5.92s6.94-1.83,11.74,3.12
		c4.82,4.95,2.81,10.18,2.81,10.18l12.39,2.54c-0.11-7.15,3.88-13.87,10.77-15.75c6.92-1.86,13.1,1.89,15.05,4.49
		c1.98,2.57,2.32,4.6,3.09,5.06c0.74,0.49,2.04-0.26,2.35-1.06c0.34-0.8-0.23-2.03-1.73-4.46c-1.53-2.4-3.12-3.97-3.12-3.97
		l-0.23-11.66L190.35,470.09z M185.02,469.89l-13.95-2.86l-4.42,13.41c0,0,6.63-5.95,18.4-1.52L185.02,469.89z"/>
	<path class="st13" d="M102.96,555.97c0,0,22.31-31.7,57.34-39.88c0,0-29.88,14.38-43.57,44.83c7.09,1.49,10.89,1.94,18.48,1.6
		c0,0,9.95-29.87,31.1-43.8c-9.75,15.07-16.02,41.11-16.02,41.11c8.08-2.57,12.78-5.23,19.02-9.43c-0.09-13.81,1.42-23.56,3.8-30.25
		c4.76,7.63,6.55,20.9,6.55,20.9s5.36-6.23,7.99-11.01c-0.17-4.32-5.9-11.55-13.35-14.47c-31.97-11.86-74.1-7.83-103.97,3.54
		c1.84,5.35,3.94,8.98,6.94,14.04c24.35-15.35,52.36-19.33,75.91-19.33c-9.61,1.26-20.49,3.69-36,11.69
		c-15.51,7.98-28.94,20.44-28.94,20.44C93.15,550.28,96.52,552.74,102.96,555.97L102.96,555.97z"/>
	<path class="st13" d="M91.56,460.03c1.73,0.43,3.03,2.94,3.03,5.97c0,2.32-0.77,4.35-1.9,5.35v1.77c0.31-0.43,0.68-0.86,1.11-1.29
		c2.13-2.14,4.82-2.97,6.32-2.06c0.91,1.52,0.06,4.23-2.07,6.38c-1.7,1.74-3.8,2.63-5.36,2.4v3.57c0.31-0.46,0.68-0.89,1.11-1.32
		c2.13-2.14,4.82-2.97,6.32-2.06c0.91,1.52,0.06,4.23-2.07,6.38c-1.7,1.74-3.8,2.63-5.36,2.4v3.89c0.31-0.46,0.68-0.89,1.11-1.29
		c2.13-2.14,4.82-3,6.32-2.09c0.91,1.52,0.06,4.23-2.07,6.38c-1.7,1.74-3.8,2.63-5.36,2.4v7.63h-2.27v-7.63
		c-1.53,0.23-3.63-0.66-5.36-2.4c-2.13-2.14-2.95-4.86-2.04-6.38c1.5-0.91,4.2-0.06,6.32,2.09c0.4,0.4,0.77,0.83,1.08,1.29v-3.89
		c-1.53,0.23-3.63-0.66-5.36-2.4c-2.13-2.14-2.95-4.86-2.04-6.38c1.5-0.91,4.2-0.09,6.32,2.06c0.4,0.43,0.77,0.86,1.08,1.32v-3.57
		c-1.53,0.23-3.63-0.66-5.36-2.4c-2.13-2.14-2.95-4.86-2.04-6.38c1.5-0.91,4.2-0.09,6.32,2.06c0.4,0.43,0.77,0.86,1.08,1.29v-1.77
		c-1.11-1-1.87-3.03-1.87-5.35C88.56,462.98,89.86,460.46,91.56,460.03L91.56,460.03z"/>
	<rect x="98.02" y="455.09" class="st13" width="1.96" height="9.58"/>
	<rect x="90.85" y="448.08" class="st13" width="1.98" height="9.58"/>
	<rect x="83.71" y="455.09" class="st13" width="1.98" height="9.58"/>
	<path class="st13" d="M116.73,460.03c1.7,0.43,3.03,2.94,3.03,5.97c0,2.32-0.77,4.35-1.9,5.35v1.77c0.31-0.43,0.68-0.86,1.11-1.29
		c2.13-2.14,4.79-2.97,6.32-2.06c0.91,1.52,0.06,4.23-2.07,6.38c-1.73,1.74-3.83,2.63-5.36,2.4v3.57c0.31-0.46,0.68-0.89,1.11-1.32
		c2.13-2.14,4.79-2.97,6.32-2.06c0.91,1.52,0.06,4.23-2.07,6.38c-1.73,1.74-3.83,2.63-5.36,2.4v3.89c0.31-0.46,0.68-0.89,1.11-1.29
		c2.13-2.14,4.79-3,6.32-2.09c0.91,1.52,0.06,4.23-2.07,6.38c-1.73,1.74-3.83,2.63-5.36,2.4v7.63h-2.27v-7.63
		c-1.53,0.23-3.63-0.66-5.36-2.4c-2.13-2.14-2.98-4.86-2.07-6.38c1.53-0.91,4.22-0.06,6.35,2.09c0.4,0.4,0.77,0.83,1.08,1.29v-3.89
		c-1.53,0.23-3.63-0.66-5.36-2.4c-2.13-2.14-2.98-4.86-2.07-6.38c1.53-0.91,4.22-0.09,6.35,2.06c0.4,0.43,0.77,0.86,1.08,1.32v-3.57
		c-1.53,0.23-3.63-0.66-5.36-2.4c-2.13-2.14-2.98-4.86-2.07-6.38c1.53-0.91,4.22-0.09,6.35,2.06c0.4,0.43,0.77,0.86,1.08,1.29v-1.77
		c-1.13-1-1.9-3.03-1.9-5.35C113.7,462.98,115.03,460.46,116.73,460.03L116.73,460.03z"/>
	<rect x="123.17" y="455.09" class="st13" width="1.98" height="9.58"/>
	<rect x="116.02" y="448.08" class="st13" width="1.98" height="9.58"/>
	<rect x="108.88" y="455.09" class="st13" width="1.98" height="9.58"/>
	<path class="st13" d="M140.35,483.82c-4.65-0.94-9.16,2.09-10.12,6.78c-0.94,4.69,2.07,9.23,6.72,10.18
		c4.65,0.97,9.16-2.06,10.12-6.75C148,489.33,144.99,484.79,140.35,483.82L140.35,483.82z M139.64,487.39
		c-2.69-0.54-5.3,1.2-5.87,3.92c-0.54,2.72,1.19,5.35,3.88,5.92c2.69,0.54,5.33-1.2,5.87-3.92S142.33,487.93,139.64,487.39
		L139.64,487.39z"/>
</g>
<path class="st12" d="M165.53,304.12c-3.46,3.09-6.86,5.03-10.91,6.38c-4.05,1.34-6.69,1.52-8.96,2.66
	c-1.64,0.86-3.37,2.34-4.2,4.32c-0.65,1.6-0.82,3.54-0.82,3.54l-4.42-1.94c0,0-0.62-1.2-0.82-1.6c-0.91-1.94-2.55-3.46-4.2-4.32
	c-2.27-1.14-4.9-1.32-8.96-2.66c-4.05-1.34-7.46-3.29-10.91-6.38c-3.51-3.17-5.58-8.03-5.58-8.03h32.68h32.68
	C171.12,296.08,169.05,300.94,165.53,304.12L165.53,304.12z M166.47,323.36c-1.56,2.8-4.37,5.12-7.97,6.18
	c-3.63,1.06-8.5,0.71-11.25,0.11c-2.78-0.63-13.15-4.52-15.48-5.55c-2.3-1.03-9.55-3.66-12.81-2.89c-3.26,0.8-5.61,3.06-4.96,6.43
	c0.65,3.34,3.09,4.8,6.77,5.72c3.66,0.91,14.83,1.97,14.83,1.97l0.03,3.63c0,0-11.2,0.29-18.4-1.74c-7.2-2.03-8.73-6.03-9.27-8.32
	c-0.54-2.29-0.17-5.89,0.74-7.6c0.91-1.69,4.03-6.18,10.63-5.92c6.63,0.23,10.6,2.09,14.2,3.63c3.63,1.57,10.12,4.2,12.9,4.77
	c2.75,0.54,8.19,0.71,10.57-1.43c2.44-2.17,2.83-3.92,2.75-6.12c-0.08-2.17-0.88-5-1.87-5.8c0,0,4.03-1.89,6.86-4.12
	c0,0,2.66,3.75,3.2,6.98C168.45,316.49,168.05,320.58,166.47,323.36L166.47,323.36z M156.83,358.18H120.6
	c-0.31-1.63,0.65-2.17,1.28-2.14c2.07,0.17,4.76,0.14,6.72-0.14c2.1-0.29,4.37-1.74,4.37-1.74s2.55,0.54,4.88,0.54
	c2.72,0,5.95-0.77,5.95-0.77s2.81,1.66,4.88,2.06c2.18,0.4,5.53-0.29,6.94,0.09S156.83,358.18,156.83,358.18L156.83,358.18z
	 M136.67,349.91V327.3l3.94,1.57v20.55L136.67,349.91z M121,345.83c0.65,0.17,3.94,2.4,6.26,3.37c2.3,0.97,5.61,1.77,9.21,1.8
	c3.57,0,7.11-0.97,8.67-1.94c1.53-0.94,3.09-2.23,3.03-4.37c-0.06-2.14-1.79-3.6-3.74-4.29c-1.96-0.66-2.69-0.69-2.69-0.69
	l-0.08-3.57c0,0,3.91,0.63,6.21,1.77c2.32,1.17,4.08,2.8,4.62,4.26c0.57,1.49,0.71,4.32-0.54,5.95c-1.11,1.4-3.6,3.46-7.63,4.43
	c-4.05,1-7.34,0.97-9.64,0.74c-2.27-0.23-7.31-1.46-9.86-3.2c-2.55-1.74-3.6-2.63-4.31-3.89C120.43,346.05,120.35,345.63,121,345.83
	L121,345.83z M115.16,269.69c3.09-4.83,8.67-6.83,11.82-7.49c3.15-0.69,8.42-0.4,11.42,0.17c3,0.57,5.64,2.63,6.63,3.57
	c0.99,0.97,2.89,5.23,3.34,5.97c0.43,0.77,2.89,4.06,3.83,5.23c1.16,1.4,0.03,2.74-1.05,3.03c-1.08,0.31-2.92,0.29-4.54-0.31
	c-1.64-0.63-5.36-2.83-5.36-2.83c-0.17,0.29-0.17,0.77-0.06,1.32c0.77,0.74,1.81,1.69,2.75,2.4c0.85,0.63,2.95,2.09,3.46,2.66
	c0.48,0.6,1.9,2.09,1.76,3.92c-0.11,1.66-0.88,3.2-0.88,3.2s0.31-2.66,0-3.86c-0.28-1.17-1.5-2-1.5-2s0.34,2.52-0.37,3.8
	c-0.54,0.97-1.7,2.43-4.14,2.37c0,0,2.61-0.83,3.23-2.69c0.43-1.37,0.4-4-1.19-5.6c-0.82-0.83-2.01-2.12-2.81-2.97
	c0.31,1.11,0.74,2.26,0.65,2.77c-0.2,1.03-1.76,0.86-2.64,0.37c-0.88-0.51-2.01-3.43-2.3-3.97c-0.31-0.54-1.67-2-2.32-2.92
	c-0.62-0.91-1.05-2.34-1.25-3.37c-0.2-1.03-1.76-2.32-3.15-3c-1.39-0.69-3.71-0.29-4.96,0.03c-1.25,0.31-2.92,1.46-4.48,3.23
	c-1.59,1.77-2.64,4.8-2.69,6.63c-0.06,1.8-0.62,5.17,2.47,9.26c3.09,4.09,10.74,6.52,10.74,6.52l-14.14-0.23c0,0-3.4-4.37-4.34-6.35
	c-0.94-2-1.64-5.03-1.67-8.29C111.42,277.04,112.07,274.53,115.16,269.69L115.16,269.69z M196.23,281.64H163.4v-33.13
	c0-1-0.82-1.83-1.81-1.83h-52.64c-0.99,0-1.81,0.83-1.81,1.83v33.13H74.31c-1.02,0-1.81,0.8-1.81,1.8v53.09c0,1,0.79,1.83,1.81,1.83
	h32.83v33.13c0,1,0.82,1.8,1.81,1.8h52.64c0.99,0,1.81-0.8,1.81-1.8v-33.13h32.83c1.02,0,1.81-0.83,1.81-1.83v-53.09
	C198.04,282.45,197.25,281.64,196.23,281.64L196.23,281.64z"/>
<g>
	<path class="st12" d="M279.45,603.45c-1.93-1.77-3.94-3.29-5.98-4.63v11.92l-1.84-1.72l-1.87,1.72v-14.12
		c-16.21-8.78-34.19-7.46-34.19-7.46V660c0,0,27.86-0.09,43.88,15.84V603.45z"/>
	<path class="st12" d="M280.05,679.69c21.8-14.21,50.51-12.95,50.51-12.95v-69.93h-2.66l0.09,67.1c0,0-27.67-1.46-47.93,14.24
		c-20.27-15.69-47.91-14.24-47.91-14.24l0.06-67.1h-2.66v69.93C229.54,666.74,258.28,665.49,280.05,679.69L280.05,679.69z"/>
	<path class="st12" d="M334.11,605.19v65.95c0,0-16.5,0.06-26.22,1.6c-14.63,2.32-26.53,8.69-26.53,8.69c-0.54,0.26-1.9,0.29-2.61,0
		c0,0-11.91-6.38-26.53-8.69c-9.72-1.54-26.19-1.6-26.19-1.6v-65.95h-3.03v68.9h3.03c25.68,0,45.84,5.75,46.57,6.18
		c1.28,0.77,2.01,1.74,2.95,2.32c1.39,0.86,7.63,0.86,9.04,0c0.91-0.57,1.64-1.54,2.95-2.32c0.74-0.43,20.86-6.18,46.57-6.18h3
		v-68.9H334.11z"/>
	<path class="st12" d="M324.7,589.16c0,0-26.19-1.94-43.88,14.29v72.39C296.8,659.91,324.7,660,324.7,660V589.16z"/>
</g>
<g>
	<path class="st13" d="M578.39,270.1c11.59,0,21,9.49,21,21.18c0,0.97-0.09,1.94-0.2,2.92l44.42,45.37v0.03
		c4.85,4.95,4.79,12.89-0.11,17.78c-4.9,4.89-12.78,4.83-17.63-0.11l0,0l-44.14-45.06c-1.11,0.17-2.21,0.26-3.34,0.26
		c-11.62,0-21-9.49-21-21.18c0-2.74,0.51-5.37,1.45-7.78l12.39,12.86c1.79,1.83,4.71,1.89,6.52,0.09l5.3-5.2
		c1.81-1.77,1.84-4.72,0.09-6.55l-12.61-13.09C572.94,270.64,575.61,270.1,578.39,270.1L578.39,270.1z M635.05,342.57
		c3.49,0,6.35,2.86,6.35,6.38c0,3.54-2.86,6.4-6.35,6.4s-6.35-2.86-6.35-6.4C628.7,345.43,631.56,342.57,635.05,342.57
		L635.05,342.57z"/>
	<path class="st13" d="M644.18,273.1c-4.05-4.03-10.54-3.97-14.51,0.09c-0.06,0.06-0.11,0.11-0.17,0.17l-22.82,22.96l3.43,3.52
		l24.46-24.56c0.17-0.17,0.45-0.17,0.62,0l1.3,1.32c0.17,0.17,0.17,0.46,0,0.63L612,301.77l3.91,3.97l24.49-24.61
		c0.2-0.17,0.45-0.17,0.62,0l1.3,1.32c0.17,0.17,0.17,0.46,0,0.63l-24.52,24.61l3.46,3.54l22.82-23.36
		c0.06-0.06,0.11-0.11,0.17-0.17C648.23,283.65,648.2,277.1,644.18,273.1L644.18,273.1z"/>
	<path class="st13" d="M587.88,325.01l4.99,5.03l-13.89,13.92c0,0,0.6,4.09-0.91,5.77l-16.67,11.49l-4.37-4.66l10.74-16.01
		c1.7-2.46,6.21-1.72,6.21-1.72L587.88,325.01z"/>
</g>
<g>
	<path class="st12" d="M590.44,445.65c7.11,0,13.15,6.83,17.12,17.84c0.09,0.2,0.17,0.43,0.23,0.63c-3.4,0.54-6.49,1.72-8.45,2.57
		l-0.09-0.17c-2.64-7.38-5.81-11.92-8.82-11.92s-6.15,4.55-8.82,11.92c-3.17,8.75-5.1,20.9-5.1,34.45c0,5.92,0.37,11.61,1.05,16.84
		c-3.63,1.52-6.86,2.4-8.53,2.8c-0.91-6.09-1.39-12.72-1.39-19.64c0-14.55,2.15-27.82,5.67-37.48
		C577.29,452.48,583.33,445.65,590.44,445.65L590.44,445.65z M612.02,518.78c-3.06,21.81-11.57,37.48-21.57,37.48
		c-7.11,0-13.15-6.8-17.12-17.84c-0.14-0.37-0.28-0.74-0.4-1.11c2.83-0.74,6.66-2.06,8.42-2.69c0.09,0.26,0.17,0.51,0.28,0.77
		c2.66,7.38,5.81,11.95,8.82,11.95c5.1,0,9.55-9.09,11.96-22.67C605.81,522.86,609.83,520.26,612.02,518.78L612.02,518.78z"/>
	<path class="st12" d="M542.96,528.61c-3.57-6.23-0.74-14.89,6.75-23.87c3.69-4.43,8.53-9.06,14.32-13.55
		c-0.2,3-0.48,8.26-0.09,11.61c-2.89,2.6-5.41,5.17-7.48,7.66c-4.99,6.03-7.34,11.06-5.84,13.69c1.5,2.63,7,3.09,14.68,1.74
		c9.07-1.63,20.49-6,32.12-12.78c11.62-6.78,21.09-14.55,27.01-21.67c4.99-6,7.34-11.04,5.84-13.67c-2.49-4.37-12.19-3.83-24.69,0.6
		c-1.96-1.29-5.47-3.46-9.89-5.49c19.96-7.92,37.3-8.23,42.24,0.4c3.57,6.23,0.74,14.89-6.75,23.9
		c-6.55,7.89-16.87,16.41-29.34,23.67c-12.5,7.26-24.94,12.01-35.01,13.78C555.38,536.7,546.51,534.84,542.96,528.61L542.96,528.61z
		"/>
	<path class="st12" d="M637.75,528.93c-3.57,6.23-12.42,8.09-23.87,6.03c-0.48-0.09-0.94-0.17-1.42-0.26c1.22-3,1.87-6.38,2.24-8.63
		c0.23,0.06,0.48,0.09,0.71,0.14c7.68,1.34,13.15,0.89,14.68-1.74c1.5-2.63-0.85-7.69-5.84-13.69c-0.26-0.29-0.51-0.6-0.77-0.89
		c1.64-1.46,3.91-3.43,6.66-5.86c0.28,0.34,0.57,0.69,0.85,1C638.49,514.03,641.33,522.69,637.75,528.93L637.75,528.93z
		 M550.28,497.88c-7.74-9.38-10.91-18.33-7.51-24.27c3.57-6.23,12.44-8.06,23.9-6.03c0.37,0.06,0.74,0.14,1.13,0.2
		c-0.62,2-1.3,4.92-1.67,8.75c-0.34-0.06-0.68-0.11-1.02-0.17c-7.65-1.37-13.15-0.89-14.66,1.72c-1.81,3.14,0.45,8.29,5.61,14.18
		C553.79,494.16,551.55,496.48,550.28,497.88L550.28,497.88z M610.94,498.28c-4.11-3.17-8.7-6.26-13.72-9.18
		c-5.05-2.94-10.03-5.43-14.83-7.43c0.17-1.94,0.62-5.15,1.76-8.92c5.64,2.29,11.57,5.17,17.52,8.61c5.84,3.4,11.2,7.09,15.9,10.83
		C615.67,493.93,613.26,496.16,610.94,498.28L610.94,498.28z"/>
	<path class="st13" d="M590.44,509.51c4.68,0,8.5-3.83,8.5-8.55s-3.83-8.58-8.5-8.58s-8.5,3.86-8.5,8.58
		S585.77,509.51,590.44,509.51L590.44,509.51z"/>
</g>
<g>
	<path class="st13" d="M310.28,180.54c0,0-15.05-16.44-36.99-14.58c-21.91,1.86-36.03,21.27-37.22,33.59s-0.34,22.84,14.46,39.94
		c14.83,17.1,47.79,27.13,60.94,17.81c13.15-9.35,6.63-17.81,3.32-22.13c-3.32-4.32-2.01-11.35,2.01-18.41
		c4.03-7.06,2.49-16.27,1.42-20.21l-24.01,21.56c0,0,1.84,10.52-12.39,13.47l-0.6,0.23c0.11,0.57,0.17,1.2,0.17,1.83
		c0,5.23-4.2,9.46-9.38,9.46c-5.19,0-9.38-4.23-9.38-9.46c0-4.52,3.12-8.29,7.29-9.26l-0.03-0.43c0,0,0.28-13.21,14.4-15.24
		L310.28,180.54z M300.59,233.12c5.19,0,9.38,4.23,9.38,9.46c0,5.23-4.2,9.49-9.38,9.49s-9.41-4.26-9.41-9.49
		C291.18,237.35,295.4,233.12,300.59,233.12L300.59,233.12z M255.06,198.15c5.19,0,9.41,4.23,9.41,9.46c0,5.23-4.22,9.49-9.41,9.49
		s-9.38-4.26-9.38-9.49C245.68,202.39,249.88,198.15,255.06,198.15L255.06,198.15z M272.47,173.8c5.19,0,9.38,4.23,9.38,9.46
		c0,5.23-4.2,9.49-9.38,9.49c-5.19,0-9.41-4.26-9.41-9.49C263.06,178.03,267.28,173.8,272.47,173.8L272.47,173.8z"/>
	<path class="st13" d="M273.74,235.46c-5.95-10.72,2.15-25.24,12.93-22.76l7.82-11.78l7.4,7.35l-11.57,7.95c0,0,0.82,6.12-3.54,8.98
		C282.39,228.06,273.69,227.4,273.74,235.46L273.74,235.46z"/>
	<path class="st13" d="M297.33,198.84c0,0,27.61-29.42,33.31-34.08s16.58-13.75,19.19-12.32c2.61,1.46-7.57,14.84-11.62,19.27
		c-4.03,4.4-34.13,34.05-34.13,34.05L297.33,198.84z"/>
</g>
<g>
	<path class="st14" d="M373.54,279.76c35.85,0,68.32,14.66,91.84,38.36c23.5,23.71,38.04,56.46,38.04,92.62
		s-14.54,68.91-38.04,92.62c-23.51,23.7-55.98,38.36-91.84,38.36s-68.32-14.66-91.84-38.36c-23.5-23.71-38.04-56.46-38.04-92.62
		s14.54-68.91,38.04-92.62C305.22,294.42,337.69,279.76,373.54,279.76L373.54,279.76z M462.09,321.43
		c-22.65-22.87-53.97-37.01-88.55-37.01c-34.59,0-65.89,14.14-88.55,37.01c-22.67,22.85-36.7,54.41-36.7,89.3
		c0,34.87,14.02,66.46,36.7,89.3c22.65,22.87,53.95,36.99,88.55,36.99c34.57,0,65.89-14.12,88.55-36.99
		c22.67-22.85,36.68-54.43,36.68-89.3C498.77,375.85,484.76,344.28,462.09,321.43L462.09,321.43z"/>
	<path class="st14" d="M373.54,303.41c29.39,0,56,12,75.25,31.43c19.27,19.41,31.17,46.25,31.17,75.89
		c0,29.64-11.9,56.48-31.17,75.89c-19.25,19.43-45.86,31.43-75.25,31.43c-29.39,0-56-12-75.25-31.43
		c-19.27-19.41-31.19-46.25-31.19-75.89c0-29.64,11.92-56.48,31.19-75.89C317.54,315.41,344.15,303.41,373.54,303.41L373.54,303.41z
		 M446.61,337.04c-18.69-18.85-44.54-30.53-73.07-30.53c-28.55,0-54.38,11.67-73.07,30.53c-18.69,18.85-30.27,44.9-30.27,73.69
		c0,28.77,11.58,54.84,30.27,73.69c18.69,18.85,44.52,30.53,73.07,30.53c28.53,0,54.38-11.67,73.07-30.53
		c18.69-18.85,30.27-44.92,30.27-73.69C476.88,381.95,465.3,355.9,446.61,337.04L446.61,337.04z"/>
	<path class="st15" d="M474.37,416.18v-10.88c0-0.64-0.48-1.16-1.09-1.2l-9.76-0.69c-0.25-3.07-0.63-6.1-1.17-9.09l9.22-3.2
		c0.59-0.21,0.92-0.83,0.77-1.43l-2.79-10.54c-0.17-0.6-0.77-0.98-1.38-0.87l-9.57,1.89c-1.03-2.89-2.2-5.73-3.5-8.49l8.11-5.5
		c0.5-0.35,0.67-1.04,0.36-1.58l-5.41-9.44c-0.31-0.54-0.98-0.75-1.53-0.48l-8.8,4.34c-1.72-2.53-3.58-4.96-5.53-7.27l6.41-7.45
		c0.42-0.48,0.38-1.18-0.06-1.62l-7.63-7.72c-0.44-0.44-1.15-0.46-1.61-0.06l-7.39,6.48c-2.3-1.99-4.71-3.84-7.21-5.6l4.29-8.86
		c0.29-0.56,0.08-1.23-0.46-1.54l-9.36-5.46c-0.54-0.31-1.22-0.15-1.57,0.37l-5.47,8.16c-2.72-1.29-5.53-2.47-8.4-3.51l1.86-9.65
		c0.13-0.62-0.25-1.23-0.84-1.39l-10.45-2.82c-0.59-0.17-1.22,0.17-1.42,0.75l-3.18,9.32c-2.97-0.54-5.97-0.95-9.03-1.18l-0.67-9.84
		c-0.04-0.64-0.55-1.12-1.19-1.12h-10.79c-0.63,0-1.15,0.48-1.19,1.12l-0.69,9.84c-3.04,0.23-6.05,0.64-9.01,1.18l-3.18-9.32
		c-0.21-0.58-0.82-0.93-1.42-0.75l-10.45,2.82c-0.59,0.15-0.98,0.77-0.86,1.39l1.88,9.65c-2.87,1.04-5.68,2.22-8.42,3.51l-5.45-8.16
		c-0.34-0.52-1.03-0.68-1.57-0.37l-9.36,5.46c-0.54,0.31-0.75,0.98-0.48,1.54l4.3,8.86c-2.51,1.76-4.92,3.61-7.21,5.6l-7.39-6.48
		c-0.48-0.41-1.17-0.39-1.61,0.06l-7.65,7.72c-0.44,0.44-0.46,1.14-0.06,1.62l6.43,7.45c-1.97,2.32-3.81,4.75-5.55,7.27l-8.78-4.34
		c-0.55-0.27-1.22-0.06-1.53,0.48l-5.41,9.44c-0.31,0.54-0.15,1.23,0.36,1.58l8.09,5.5c-1.28,2.76-2.45,5.6-3.48,8.49l-9.57-1.89
		c-0.61-0.12-1.22,0.27-1.38,0.87l-2.79,10.54c-0.17,0.6,0.17,1.22,0.75,1.43l9.24,3.2c-0.54,2.99-0.94,6.02-1.17,9.09l-9.76,0.69
		c-0.63,0.04-1.11,0.56-1.11,1.2v10.88c0,0.64,0.48,1.16,1.11,1.2l9.76,0.68c0.23,3.09,0.63,6.12,1.17,9.11l-9.24,3.2
		c-0.57,0.19-0.92,0.83-0.75,1.43l2.79,10.54c0.15,0.6,0.77,0.98,1.38,0.85l9.57-1.87c1.03,2.89,2.2,5.73,3.48,8.47l-8.09,5.52
		c-0.52,0.35-0.67,1.04-0.36,1.58l5.41,9.44c0.31,0.54,0.98,0.75,1.53,0.46l8.78-4.32c1.74,2.53,3.58,4.96,5.55,7.27l-6.43,7.45
		c-0.4,0.46-0.38,1.18,0.06,1.62l7.65,7.7c0.44,0.44,1.13,0.48,1.61,0.06l7.39-6.46c2.3,1.97,4.71,3.84,7.21,5.58l-4.3,8.88
		c-0.27,0.56-0.06,1.23,0.48,1.54l9.36,5.46c0.54,0.31,1.22,0.14,1.57-0.37l5.45-8.18c2.74,1.31,5.55,2.49,8.42,3.53l-1.88,9.65
		c-0.11,0.62,0.27,1.22,0.86,1.39l10.45,2.82c0.59,0.15,1.21-0.17,1.42-0.77l3.18-9.3c2.97,0.54,5.97,0.93,9.01,1.18l0.69,9.84
		c0.04,0.62,0.55,1.1,1.19,1.1h10.79c0.63,0,1.15-0.48,1.19-1.1l0.67-9.84c3.06-0.25,6.07-0.64,9.03-1.18l3.18,9.3
		c0.19,0.6,0.82,0.93,1.42,0.77l10.45-2.82c0.59-0.17,0.98-0.77,0.84-1.39l-1.86-9.65c2.87-1.04,5.68-2.22,8.4-3.53l5.47,8.18
		c0.34,0.5,1.03,0.68,1.57,0.37l9.36-5.46c0.54-0.31,0.75-0.98,0.46-1.54l-4.29-8.88c2.51-1.74,4.92-3.61,7.21-5.58l7.39,6.46
		c0.46,0.42,1.17,0.39,1.61-0.06l7.63-7.7c0.44-0.44,0.48-1.16,0.06-1.62l-6.41-7.45c1.95-2.32,3.81-4.75,5.53-7.27l8.8,4.32
		c0.55,0.29,1.22,0.08,1.53-0.46l5.41-9.44c0.31-0.54,0.13-1.23-0.36-1.58l-8.11-5.52c1.3-2.74,2.47-5.58,3.5-8.47l9.57,1.87
		c0.61,0.14,1.21-0.25,1.38-0.85l2.79-10.54c0.15-0.6-0.17-1.23-0.77-1.43l-9.22-3.2c0.54-2.99,0.92-6.02,1.17-9.11l9.76-0.68
		C473.89,417.34,474.37,416.81,474.37,416.18L474.37,416.18z M374.23,490.1L374.23,490.1c-44.01,0.37-79.75-35.68-79.38-80.06
		c0.36-43.09,35.28-78.3,78-78.67c44.01-0.39,79.75,35.68,79.38,80.06C451.87,454.52,416.95,489.73,374.23,490.1L374.23,490.1z"/>
	<path class="st16" d="M319.07,450.66c12.84-0.27,39.32,5.5,54.41,19.37c-5.47-1.72-12.74-9.92-53.51-7.26L319.07,450.66z"/>
	<path class="st16" d="M428.01,450.66c-12.86-0.27-39.38,5.48-54.47,19.37c5.47-1.72,12.78-9.92,53.57-7.26L428.01,450.66z"/>
	<path class="st16" d="M312.55,433.22c21.08,0.95,49.73,16.46,60.92,30.95c-4-2.86-31.91-22.31-61.24-18.91L312.55,433.22z"/>
	<path class="st16" d="M434.54,433.22c-21.08,0.95-49.73,16.46-60.92,30.95c3.98-2.86,31.89-22.31,61.24-18.91L434.54,433.22z"/>
	<path class="st16" d="M303.59,413.15c21.08,0.95,51.74,19.53,69.87,45.4c-26.44-21.75-42.19-29.12-70.2-28.23L303.59,413.15z"/>
	<path class="st16" d="M443.49,413.15c-21.08,0.95-51.74,19.53-69.87,45.4c26.44-21.75,42.19-29.12,70.2-28.23L443.49,413.15z"/>
	<path class="st17" d="M373.64,434.59c3.35,0,6.08-2.76,6.08-6.12c0-3.38-2.74-6.14-6.08-6.14c-3.33,0-6.07,2.76-6.07,6.14
		C367.57,431.83,370.31,434.59,373.64,434.59L373.64,434.59z"/>
	<path class="st17" d="M395.18,415.58c3.46,0,6.29-2.86,6.29-6.35s-2.83-6.35-6.29-6.35s-6.29,2.86-6.29,6.35
		S391.72,415.58,395.18,415.58L395.18,415.58z"/>
	<path class="st17" d="M337.3,412.8c3.86,0,7.02-3.18,7.02-7.08s-3.16-7.06-7.02-7.06c-3.86,0-7.02,3.16-7.02,7.06
		S333.44,412.8,337.3,412.8L337.3,412.8z"/>
	<path class="st17" d="M376.79,394.91c5.45,0,9.89-4.48,9.89-9.98c0-5.5-4.44-9.98-9.89-9.98s-9.89,4.48-9.89,9.98
		C366.9,390.44,371.34,394.91,376.79,394.91L376.79,394.91z"/>
	<path class="st17" d="M364.47,411.01c2.37,0,4.3-1.95,4.3-4.36c0-2.39-1.93-4.34-4.3-4.34c-2.39,0-4.32,1.95-4.32,4.34
		C360.15,409.06,362.08,411.01,364.47,411.01L364.47,411.01z"/>
	<path class="st17" d="M331.39,387.04c2.37,0,4.32-1.97,4.32-4.36c0-2.39-1.95-4.36-4.32-4.36s-4.32,1.97-4.32,4.36
		C327.07,385.07,329.02,387.04,331.39,387.04L331.39,387.04z"/>
	<path class="st17" d="M416.48,406.97c2.39,0,4.32-1.95,4.32-4.36c0-2.39-1.93-4.34-4.32-4.34c-2.37,0-4.3,1.95-4.3,4.34
		C412.17,405.02,414.1,406.97,416.48,406.97L416.48,406.97z"/>
	<path class="st17" d="M378.71,359.79c2.37,0,4.32-1.95,4.32-4.36c0-2.39-1.95-4.34-4.32-4.34c-2.37,0-4.32,1.95-4.32,4.34
		C374.38,357.85,376.34,359.79,378.71,359.79L378.71,359.79z"/>
	<path class="st17" d="M413.86,372.47c2.74,0,4.96-2.24,4.96-5c0-2.74-2.22-4.98-4.96-4.98c-2.72,0-4.94,2.24-4.94,4.98
		C408.92,370.23,411.14,372.47,413.86,372.47L413.86,372.47z"/>
	<path class="st17" d="M402.11,383.37c1.49,0,2.7-1.23,2.7-2.74c0-1.49-1.21-2.72-2.7-2.72c-1.47,0-2.7,1.23-2.7,2.72
		C399.41,382.14,400.63,383.37,402.11,383.37L402.11,383.37z"/>
	<path class="st17" d="M351.56,383.05c1.49,0,2.7-1.22,2.7-2.72c0-1.49-1.21-2.72-2.7-2.72c-1.47,0-2.7,1.23-2.7,2.72
		C348.86,381.83,350.09,383.05,351.56,383.05L351.56,383.05z"/>
	<path class="st17" d="M355.31,361.4c1.88,0,3.41-1.56,3.41-3.45c0-1.91-1.53-3.45-3.41-3.45c-1.89,0-3.42,1.54-3.42,3.45
		C351.88,359.83,353.41,361.4,355.31,361.4L355.31,361.4z"/>
	<polygon class="st14" points="331.6,381.19 354.43,358.21 355.39,359.18 332.54,382.14 	"/>
	<polygon class="st14" points="356.09,357.13 379.91,355.18 380.03,356.53 356.19,358.48 	"/>
	<path class="st14" d="M379.17,355.3l35.89,11.87l-0.5,0.56l2.79,37.45l-16.09-24.6l11.4-12.77l-33.92-11.23L379.17,355.3z
		 M413.3,369.11l-10.33,11.6l12.65,19.35L413.3,369.11z"/>
	<path class="st14" d="M380.07,355.68l23.38,25.41l-27.38,4.65l1.65-28.17l-25.87,23.41l-20.38,2.37l-0.15-1.35l19.96-2.32
		l27.99-25.32l-0.13,2.18L380.07,355.68z M400.77,380.19l-21.64-23.54l-1.61,27.48L400.77,380.19z"/>
	<polygon class="st14" points="350.91,380.23 354.64,357.83 355.96,358.06 352.23,380.44 	"/>
	<polygon class="st14" points="332.16,383.09 337.4,402.61 336.1,402.98 330.86,383.45 	"/>
	<polygon class="st14" points="337.92,403.81 351.6,378.88 364.89,405.24 373.41,389.74 374.59,390.4 364.86,408.13 351.54,381.77 
		339.1,404.47 	"/>
	<polygon class="st14" points="351.69,379.67 371.36,383.22 371.11,384.55 351.44,381 	"/>
	<polygon class="st14" points="338.59,405.12 366,405.7 365.98,407.07 338.57,406.47 	"/>
	<polygon class="st14" points="340.12,406.47 373.04,427.29 376.03,384.07 394.86,407.73 401.46,380.48 402.76,380.81 
		395.51,410.74 377.14,387.64 374.23,429.63 339.39,407.61 	"/>
	<polygon class="st14" points="416.67,403.27 395.62,409.39 373.39,429.61 363.84,406.92 365.09,406.39 373.89,427.31 
		394.95,408.19 416.3,401.98 	"/>
	<path class="st15" d="M353.28,527.3l-1.61-0.27c-0.13-0.04-0.25-0.02-0.34,0.02c-0.11,0.04-0.19,0.12-0.27,0.23
		c-0.08,0.1-0.11,0.23-0.15,0.39l-0.17,1.08c-0.04,0.17-0.04,0.31,0,0.44c0.02,0.14,0.08,0.23,0.15,0.31
		c0.08,0.08,0.19,0.12,0.33,0.15l1.61,0.27l-0.25,1.52l-1.66-0.29c-0.46-0.1-0.82-0.23-1.13-0.46c-0.29-0.21-0.5-0.48-0.61-0.83
		c-0.11-0.35-0.13-0.73-0.06-1.16l0.27-1.56c0.08-0.42,0.23-0.77,0.44-1.04c0.23-0.27,0.52-0.46,0.86-0.56
		c0.36-0.12,0.77-0.12,1.21-0.04l1.66,0.29L353.28,527.3z M353.3,531.57l-1.57-0.27l1.61-9.22l1.55,0.27L353.3,531.57z
		 M347.37,530.41l-1.53-0.35l2.03-9.15l1.55,0.35L347.37,530.41z M348.38,522.63l-3.33-0.75l0.33-1.52l3.35,0.75L348.38,522.63z
		 M347.54,526.42l-3.02-0.69l0.34-1.51l3.02,0.68L347.54,526.42z M346.7,530.26l-3.35-0.75l0.34-1.52l3.33,0.75L346.7,530.26z
		 M343.2,521.28l-1.15-0.33c-0.21-0.06-0.38-0.04-0.54,0.06c-0.13,0.1-0.25,0.25-0.31,0.48l-1.26,4.63
		c-0.06,0.23-0.06,0.42,0.02,0.58c0.08,0.17,0.21,0.27,0.42,0.33l1.15,0.33l-0.4,1.47l-1.3-0.37c-0.42-0.12-0.77-0.29-1.03-0.54
		c-0.27-0.23-0.42-0.54-0.5-0.89c-0.08-0.35-0.06-0.73,0.06-1.16l1.36-4.98c0.11-0.42,0.29-0.77,0.54-1.02
		c0.23-0.27,0.54-0.42,0.88-0.5c0.34-0.08,0.75-0.06,1.17,0.06l1.3,0.37L343.2,521.28z M342.15,529.12l-1.53-0.42l2.47-9.03
		l1.53,0.42L342.15,529.12z M334.99,526.94l-1.05-0.35l0.78-9.61l1.49,0.5l-0.77,6.21l3.04-5.46l1.49,0.48L334.99,526.94z
		 M337.65,521.05l-2.41-0.79l0.46-1.43l2.41,0.81L337.65,521.05z M328.45,519.89l0.99-2.6c0.17-0.46,0.4-0.83,0.71-1.08
		c0.29-0.27,0.63-0.42,1.01-0.48c0.38-0.04,0.8,0.02,1.26,0.19c0.46,0.17,0.82,0.41,1.07,0.69c0.27,0.29,0.42,0.64,0.48,1.02
		c0.06,0.39,0,0.81-0.17,1.25l-1.72,4.53c-0.17,0.48-0.42,0.85-0.71,1.12c-0.31,0.27-0.65,0.44-1.03,0.5
		c-0.38,0.04-0.8-0.02-1.26-0.19c-0.44-0.15-0.78-0.39-1.03-0.69c-0.25-0.29-0.4-0.64-0.44-1.02c-0.06-0.41,0.02-0.83,0.19-1.27
		l0.25-0.68l1.53,0.58l-0.25,0.68c-0.06,0.14-0.08,0.27-0.08,0.39c0.02,0.14,0.06,0.23,0.11,0.33c0.08,0.08,0.17,0.15,0.29,0.19
		c0.13,0.06,0.25,0.06,0.38,0.04c0.11-0.02,0.21-0.08,0.31-0.17c0.1-0.08,0.17-0.21,0.23-0.37l1.72-4.53
		c0.06-0.12,0.06-0.25,0.04-0.37c-0.02-0.12-0.06-0.21-0.15-0.31c-0.08-0.08-0.19-0.15-0.33-0.21c-0.15-0.06-0.29-0.08-0.4-0.06
		c-0.13,0.02-0.23,0.06-0.33,0.14c-0.1,0.08-0.17,0.19-0.23,0.33l-0.46,1.2l0.73,0.29l-0.54,1.43L328.45,519.89z M327.32,513.72
		c0.46,0.21,0.8,0.46,1.07,0.75c0.25,0.31,0.4,0.66,0.44,1.02c0.04,0.39-0.04,0.77-0.21,1.2l-2.05,4.73
		c-0.19,0.42-0.44,0.75-0.75,0.98c-0.29,0.23-0.65,0.35-1.03,0.37c-0.4,0-0.82-0.1-1.28-0.29c-0.46-0.19-0.8-0.44-1.07-0.75
		c-0.25-0.31-0.4-0.64-0.44-1.02s0.02-0.77,0.21-1.2l2.05-4.73c0.19-0.42,0.44-0.75,0.73-0.98c0.31-0.21,0.65-0.35,1.05-0.35
		C326.44,513.43,326.86,513.53,327.32,513.72L327.32,513.72z M326.69,515.19c-0.15-0.06-0.31-0.1-0.42-0.08
		c-0.13,0-0.27,0.06-0.36,0.14c-0.1,0.1-0.19,0.21-0.25,0.37l-1.89,4.36c-0.08,0.15-0.1,0.29-0.1,0.42s0.06,0.27,0.13,0.37
		c0.08,0.12,0.19,0.19,0.34,0.25c0.15,0.08,0.29,0.1,0.42,0.1c0.13-0.02,0.25-0.08,0.34-0.15c0.11-0.1,0.19-0.21,0.27-0.37
		l1.88-4.34c0.08-0.17,0.11-0.31,0.1-0.44c0-0.14-0.04-0.25-0.13-0.37C326.93,515.34,326.82,515.24,326.69,515.19L326.69,515.19z
		 M317.94,514.84l1.24-2.51c0.21-0.44,0.48-0.77,0.8-1c0.31-0.23,0.67-0.37,1.07-0.37c0.38-0.02,0.78,0.08,1.22,0.29
		c0.44,0.23,0.77,0.5,1.01,0.81c0.23,0.33,0.34,0.68,0.36,1.06c0.02,0.41-0.08,0.81-0.29,1.23l-2.14,4.34
		c-0.23,0.46-0.5,0.81-0.82,1.04c-0.33,0.25-0.69,0.39-1.07,0.41c-0.4,0-0.8-0.1-1.24-0.31c-0.42-0.21-0.75-0.48-0.96-0.79
		c-0.23-0.33-0.34-0.68-0.34-1.06c0-0.41,0.1-0.83,0.31-1.25l0.33-0.66l1.45,0.73l-0.31,0.64c-0.08,0.15-0.11,0.27-0.11,0.39
		c0,0.14,0.04,0.23,0.1,0.33c0.06,0.1,0.15,0.17,0.27,0.23c0.11,0.06,0.25,0.1,0.36,0.08c0.11-0.02,0.23-0.06,0.34-0.14
		c0.1-0.1,0.17-0.21,0.25-0.35l2.14-4.36c0.06-0.12,0.1-0.23,0.08-0.35c0-0.12-0.04-0.21-0.11-0.31c-0.08-0.12-0.19-0.19-0.31-0.25
		c-0.15-0.08-0.29-0.12-0.4-0.12c-0.13,0-0.25,0.04-0.34,0.12c-0.1,0.06-0.19,0.17-0.25,0.31l-0.57,1.14l0.71,0.35l-0.67,1.37
		L317.94,514.84z M318.06,509.03l1.4,0.79l-4.53,8.16l-1.4-0.77L318.06,509.03z M313.83,511.56l-4.19,3.3l-1.51-0.96l7.19-4.75
		L313.83,511.56z M312.24,516.5l-1.34-0.85l4.92-7.95l1.36,0.85L312.24,516.5z M312.93,511.91l-1.43,0.23l1.3-6.33l1.47,0.93
		L312.93,511.91z M309.06,503.22l1.3,0.91l-5.3,7.7l-1.3-0.91L309.06,503.22z M302.54,510.09l-0.98-0.77l2.05-6.29l0.29-0.1
		l-3.94,5.13l-1.13-0.89l5.66-7.41l0.99,0.79l-1.86,5.98l-0.29,0.1l3.73-4.86l1.15,0.91L302.54,510.09z M297.55,506.19l-0.94-0.81
		l2.37-6.17l0.29-0.08l-4.19,4.94l-1.09-0.95l6.03-7.12l0.96,0.83l-2.16,5.89l-0.29,0.08l3.96-4.67l1.11,0.96L297.55,506.19z
		 M297.49,493.54c0.36,0.35,0.61,0.71,0.75,1.08c0.15,0.37,0.17,0.73,0.1,1.1c-0.1,0.39-0.31,0.73-0.61,1.06l-3.52,3.74
		c-0.31,0.35-0.65,0.56-1.01,0.68s-0.73,0.12-1.11-0.02c-0.36-0.12-0.75-0.35-1.11-0.69c-0.34-0.35-0.61-0.71-0.75-1.08
		c-0.13-0.37-0.17-0.73-0.08-1.1c0.1-0.39,0.29-0.73,0.61-1.06l3.5-3.74c0.33-0.35,0.67-0.56,1.01-0.68
		c0.36-0.12,0.75-0.1,1.11,0.02C296.76,492.96,297.13,493.19,297.49,493.54L297.49,493.54z M296.4,494.69
		c-0.11-0.12-0.23-0.19-0.36-0.21c-0.13-0.04-0.27-0.04-0.38,0.02c-0.13,0.04-0.25,0.14-0.36,0.25l-3.23,3.45
		c-0.11,0.12-0.19,0.25-0.23,0.37c-0.04,0.14-0.04,0.27,0,0.39c0.04,0.14,0.11,0.25,0.23,0.37c0.11,0.12,0.25,0.19,0.36,0.21
		c0.13,0.04,0.27,0.04,0.38-0.02c0.13-0.04,0.25-0.12,0.36-0.25l3.23-3.45c0.11-0.12,0.21-0.25,0.25-0.37
		c0.04-0.14,0.04-0.27,0-0.39C296.59,494.92,296.51,494.81,296.4,494.69L296.4,494.69z M288.57,498.05l-1.17-1.22l4.02-5.13
		l-5.24,3.82l-1.17-1.22l7.9-5.23l1.19,1.25L288.57,498.05z M283.52,492.65l-0.73-0.85l5.59-7.81l1.03,1.2l-3.83,4.92l5.4-3.09
		l1.01,1.2L283.52,492.65z M288.8,488.98l-1.65-1.93l1.11-0.96l1.66,1.93L288.8,488.98z M280.81,488.23l-0.98-1.25l6.72-5.27
		l0.98,1.25L280.81,488.23z M281.13,489.95l-2.87-3.7l1.21-0.95l2.85,3.7L281.13,489.95z M284.02,478.27
		c0.29,0.41,0.44,0.81,0.5,1.2c0.06,0.39-0.02,0.75-0.19,1.12c-0.17,0.35-0.46,0.66-0.84,0.95l-0.42,0.29l-0.9-1.31l0.4-0.27
		c0.19-0.15,0.31-0.31,0.34-0.5c0.02-0.17-0.02-0.37-0.15-0.56c-0.13-0.19-0.29-0.31-0.48-0.33c-0.17-0.02-0.36,0.02-0.55,0.15
		l-0.65,0.48c-0.15,0.1-0.25,0.21-0.29,0.37c-0.06,0.15-0.08,0.31-0.06,0.5c0.02,0.17,0.04,0.41,0.08,0.69
		c0.02,0.02,0.02,0.04,0.02,0.06c0,0.02,0,0.04,0,0.06l0.02,0.08c0.06,0.39,0.08,0.73,0.06,1.04c-0.02,0.31-0.1,0.64-0.27,0.95
		c-0.15,0.31-0.42,0.6-0.8,0.87l-0.38,0.27c-0.4,0.27-0.78,0.44-1.17,0.48c-0.38,0.04-0.75-0.02-1.09-0.19
		c-0.34-0.19-0.65-0.48-0.92-0.89c-0.29-0.39-0.44-0.77-0.48-1.16c-0.06-0.39,0-0.75,0.19-1.1c0.17-0.35,0.46-0.66,0.86-0.93
		l0.42-0.31l0.92,1.29l-0.44,0.31c-0.19,0.14-0.31,0.29-0.34,0.46c-0.04,0.17,0,0.37,0.13,0.54c0.11,0.19,0.27,0.31,0.44,0.33
		c0.17,0.04,0.34,0,0.52-0.14l0.52-0.35c0.13-0.1,0.25-0.23,0.29-0.39c0.06-0.14,0.08-0.29,0.08-0.46
		c-0.02-0.17-0.04-0.39-0.08-0.66c0-0.06-0.02-0.12-0.02-0.17c-0.02-0.04-0.02-0.1-0.04-0.15c0-0.02,0-0.02,0-0.04c0,0,0,0,0-0.02
		c-0.04-0.41-0.06-0.73-0.06-1c0-0.27,0.08-0.56,0.23-0.85c0.15-0.31,0.4-0.58,0.78-0.83l0.63-0.46c0.38-0.27,0.78-0.44,1.17-0.48
		c0.38-0.06,0.75,0.02,1.09,0.19C283.43,477.6,283.75,477.87,284.02,478.27L284.02,478.27z M281.21,474.39l0.9,1.31l-7.6,5.36
		l-0.92-1.31L281.21,474.39z M276.12,473.06l3.02-1.91l0.84,1.35l-3.02,1.91l-3.92,4.55l-0.88-1.41l2.79-2.8l-3.69,1.35l-0.88-1.41
		L276.12,473.06z M269.33,472.95l-0.54-0.98l7.02-6.52l0.77,1.39l-4.73,4.05l5.89-1.95l0.78,1.39L269.33,472.95z M275.24,470.44
		l-1.24-2.22l1.3-0.73l1.22,2.22L275.24,470.44z M267.11,469.01l-0.71-1.43l8.32-4.15l0.71,1.43L267.11,469.01z M273.78,464.96
		l-1.49-3.03l1.36-0.68l1.49,3.03L273.78,464.96z M263.93,462.53l-0.44-1.04l7.63-5.77l0.63,1.45l-5.11,3.57l6.07-1.35l0.61,1.47
		L263.93,462.53z M270.05,460.62l-1.01-2.33l1.36-0.6l1.01,2.35L270.05,460.62z M265.44,456.37l-0.59-1.58
		c-0.06-0.14-0.11-0.23-0.19-0.31c-0.1-0.08-0.17-0.14-0.29-0.14c-0.1-0.02-0.21,0-0.33,0.04l-0.98,0.37
		c-0.13,0.06-0.23,0.12-0.31,0.19c-0.1,0.1-0.13,0.19-0.15,0.31c0,0.12,0,0.23,0.06,0.37l0.59,1.58l-1.43,0.54l-0.55-1.51
		c-0.17-0.46-0.25-0.91-0.21-1.29c0.02-0.41,0.15-0.73,0.38-1.02c0.23-0.29,0.55-0.52,0.98-0.68l1.01-0.39
		c0.42-0.15,0.82-0.21,1.19-0.15c0.38,0.06,0.71,0.23,0.99,0.52c0.29,0.27,0.52,0.64,0.69,1.12l0.55,1.49L265.44,456.37z
		 M262.07,458.4l-0.54-1.47l8.71-3.3l0.54,1.47L262.07,458.4z M266.13,454.71l-0.78-1.27l3.69-2.99l0.61,1.6L266.13,454.71z
		 M267.32,450.33l-0.57-1.51l2.14-0.81l2.07,0.93L267.32,450.33z M262.63,444.79l-5.3-0.46l-0.46-1.74l8.48,1.47L262.63,444.79z
		 M258.11,447.32l-0.4-1.54l8.97-2.41l0.42,1.54L258.11,447.32z M261.73,444.45l-1.21-0.81l5.24-3.74l0.46,1.7L261.73,444.45z
		 M256.12,439.72l-0.23-1.1l8.61-4.17l0.34,1.56l-5.7,2.47l6.2-0.1l0.33,1.54L256.12,439.72z M262.5,439.06l-0.52-2.49l1.43-0.33
		l0.54,2.51L262.5,439.06z M264.14,432.1c0.08,0.48,0.06,0.91-0.08,1.29c-0.11,0.37-0.33,0.68-0.65,0.91
		c-0.31,0.25-0.69,0.41-1.17,0.48l-0.5,0.1l-0.27-1.58l0.5-0.08c0.23-0.04,0.4-0.14,0.52-0.29c0.11-0.15,0.15-0.35,0.11-0.58
		c-0.04-0.23-0.13-0.39-0.29-0.5c-0.15-0.1-0.34-0.14-0.57-0.1l-0.8,0.14c-0.15,0.02-0.31,0.1-0.4,0.21
		c-0.11,0.12-0.19,0.27-0.27,0.42c-0.06,0.17-0.13,0.39-0.23,0.68c0,0.02,0,0.04-0.02,0.04c0,0.02,0,0.04,0,0.06l-0.04,0.1
		c-0.11,0.37-0.25,0.69-0.38,0.96c-0.15,0.27-0.36,0.5-0.65,0.73c-0.29,0.19-0.65,0.35-1.09,0.42l-0.48,0.08
		c-0.46,0.08-0.88,0.06-1.24-0.08c-0.36-0.12-0.67-0.35-0.9-0.66c-0.23-0.31-0.38-0.71-0.46-1.2c-0.08-0.46-0.06-0.89,0.06-1.25
		c0.13-0.37,0.34-0.68,0.65-0.91c0.31-0.23,0.71-0.39,1.19-0.46l0.52-0.1l0.27,1.56l-0.52,0.1c-0.25,0.04-0.42,0.14-0.54,0.27
		c-0.11,0.14-0.15,0.33-0.11,0.54c0.04,0.23,0.13,0.39,0.27,0.5c0.15,0.1,0.33,0.14,0.54,0.1l0.61-0.1c0.17-0.02,0.31-0.1,0.42-0.21
		c0.11-0.12,0.19-0.23,0.27-0.39c0.06-0.15,0.13-0.37,0.21-0.64c0.02-0.04,0.02-0.1,0.04-0.15s0.04-0.1,0.06-0.15
		c0-0.02,0-0.02,0-0.02c0.02-0.02,0.02-0.02,0.02-0.04c0.13-0.39,0.25-0.69,0.38-0.93c0.11-0.25,0.31-0.46,0.57-0.68
		c0.25-0.19,0.61-0.33,1.05-0.41l0.77-0.14c0.48-0.08,0.9-0.04,1.26,0.08c0.36,0.12,0.67,0.35,0.9,0.66
		C263.89,431.21,264.06,431.61,264.14,432.1L264.14,432.1z M261.85,428.08l-0.15-1.39c-0.02-0.19-0.1-0.35-0.21-0.44
		c-0.11-0.1-0.27-0.14-0.46-0.12l-1.22,0.15c-0.15,0-0.29,0.06-0.4,0.12c-0.1,0.06-0.17,0.14-0.21,0.25
		c-0.04,0.1-0.06,0.21-0.04,0.35l0.15,1.37l-1.47,0.17l-0.15-1.33c-0.02-0.17-0.1-0.33-0.21-0.41c-0.13-0.1-0.31-0.14-0.54-0.12
		l-0.99,0.12c-0.17,0.04-0.33,0.1-0.4,0.21c-0.1,0.12-0.13,0.27-0.11,0.46l0.15,1.33l-1.47,0.17l-0.17-1.51
		c-0.04-0.42-0.02-0.79,0.1-1.1c0.11-0.31,0.31-0.56,0.57-0.75c0.27-0.19,0.61-0.31,1.01-0.35l0.98-0.12
		c0.29-0.04,0.54-0.02,0.77,0.06c0.23,0.1,0.42,0.23,0.57,0.41c0.17,0.19,0.29,0.42,0.36,0.71c0.02-0.33,0.08-0.6,0.19-0.83
		c0.11-0.25,0.27-0.42,0.48-0.58c0.23-0.14,0.48-0.23,0.78-0.27l1.24-0.14c0.42-0.06,0.77-0.02,1.07,0.1
		c0.31,0.14,0.55,0.33,0.73,0.6c0.19,0.29,0.31,0.64,0.36,1.04l0.17,1.64L261.85,428.08z M254.19,429.9l-0.17-1.6l9.22-1.06
		l0.19,1.58L254.19,429.9z M258.42,420.11l1.51-0.12l0.23,3.43l-1.51,0.1L258.42,420.11z M252.99,415.93l-0.04-1.58l9.3-0.17
		l0.02,1.6L252.99,415.93z M253.02,418.8l-0.02-1.6l9.28-0.17l0.04,1.6L253.02,418.8z M256.99,417.97l-0.06-3.15l1.49-0.02
		l0.06,3.13L256.99,417.97z M262.29,410.89c-0.02,0.46-0.11,0.87-0.31,1.2s-0.48,0.58-0.84,0.75c-0.34,0.15-0.77,0.23-1.26,0.21
		l-7.04-0.21l0.06-1.6l7.08,0.21c0.23,0.02,0.4-0.04,0.54-0.15c0.13-0.1,0.19-0.25,0.19-0.44c0.02-0.21-0.04-0.37-0.17-0.48
		c-0.11-0.12-0.29-0.17-0.52-0.19l-7.08-0.21l0.04-1.6l7.04,0.21c0.5,0.02,0.9,0.12,1.26,0.31c0.34,0.19,0.59,0.44,0.78,0.79
		C262.23,410.02,262.3,410.43,262.29,410.89L262.29,410.89z M252.93,406.99l0.1-1.25l6.35-1.7l0.23,0.17l-6.43-0.5l0.11-1.45
		l9.26,0.73l-0.1,1.25l-5.99,1.72l-0.25-0.19l6.07,0.48l-0.1,1.47L252.93,406.99z M253.56,399.02l0.13-1.1l9.49-1.06l-0.19,1.58
		l-6.2,0.42l5.89,1.99l-0.19,1.56L253.56,399.02z M259.78,400.55l0.33-2.55l1.47,0.19l-0.33,2.53L259.78,400.55z M257.98,394.53
		l0.29-1.68c0.02-0.14,0.02-0.25-0.02-0.35c-0.04-0.12-0.08-0.21-0.17-0.27c-0.08-0.06-0.17-0.12-0.31-0.14l-1.01-0.17
		c-0.15-0.02-0.27-0.02-0.38,0c-0.1,0.04-0.19,0.1-0.27,0.19c-0.06,0.1-0.11,0.21-0.13,0.35l-0.29,1.66l-1.49-0.27l0.27-1.56
		c0.08-0.5,0.23-0.91,0.46-1.23c0.23-0.33,0.52-0.56,0.84-0.69c0.36-0.12,0.75-0.15,1.19-0.08l1.07,0.19
		c0.44,0.08,0.8,0.23,1.11,0.48c0.29,0.23,0.48,0.56,0.57,0.95c0.11,0.39,0.13,0.81,0.04,1.31l-0.27,1.56L257.98,394.53z
		 M254.06,394.57l0.27-1.54l9.16,1.6l-0.27,1.54L254.06,394.57z M259.42,393.45l-0.04-1.49l4.69-0.69l-0.29,1.7L259.42,393.45z
		 M256.68,384.94l0.34-1.54l8.3,1.87l-0.34,1.56L256.68,384.94z M255.57,386.29l1.03-4.59l1.47,0.35l-1.01,4.57L255.57,386.29z
		 M257.25,379.38l0.29-1.08l9.55,0.33l-0.42,1.52l-6.18-0.44l5.55,2.78l-0.42,1.54L257.25,379.38z M263.2,381.77l0.67-2.45
		l1.42,0.39l-0.67,2.47L263.2,381.77z M258.21,375.95l0.48-1.45l3.1,1.02l-0.48,1.45L258.21,375.95z M258.92,373.8l0.48-1.52
		l8.84,2.91l-0.5,1.52L258.92,373.8z M266.49,375.62l1.05-3.2l1.43,0.46l-1.03,3.22L266.49,375.62z M269.86,370.76l-0.57,1.51
		l-8.69-3.34l0.57-1.51L269.86,370.76z M263.53,361.74l0.59-1.37l8.51,3.76l-0.57,1.31l-5.93-2.62l0.4,0.08l3.52,3.03l-0.31,0.73
		l-4.5-0.5l-0.44-0.33l5.95,2.62l-0.59,1.33l-8.49-3.76l0.59-1.39l5.24,0.62L263.53,361.74z M273.78,361.8l-0.71,1.43l-8.32-4.17
		l0.71-1.45L273.78,361.8z M274.57,357l0.69-1.23c0.1-0.17,0.11-0.33,0.08-0.48c-0.04-0.14-0.13-0.27-0.29-0.35l-1.09-0.62
		c-0.13-0.08-0.27-0.12-0.38-0.14c-0.11,0-0.23,0.02-0.33,0.08c-0.1,0.06-0.17,0.15-0.25,0.27l-0.67,1.2l-1.28-0.71l0.65-1.18
		c0.1-0.17,0.11-0.33,0.06-0.48c-0.06-0.14-0.17-0.27-0.36-0.39l-0.88-0.48c-0.15-0.1-0.31-0.12-0.46-0.08
		c-0.13,0.04-0.25,0.14-0.34,0.29l-0.65,1.18l-1.3-0.71l0.75-1.33c0.19-0.37,0.44-0.64,0.71-0.83c0.29-0.19,0.57-0.27,0.9-0.27
		s0.67,0.1,1.03,0.31l0.86,0.48c0.25,0.14,0.44,0.31,0.57,0.5c0.13,0.21,0.21,0.42,0.23,0.68c0.04,0.25,0,0.5-0.11,0.77
		c0.19-0.25,0.4-0.42,0.63-0.56c0.23-0.12,0.48-0.17,0.73-0.17c0.27,0.02,0.52,0.1,0.78,0.25l1.11,0.62
		c0.34,0.19,0.61,0.44,0.8,0.71c0.17,0.27,0.25,0.58,0.25,0.93c-0.02,0.33-0.13,0.68-0.33,1.04l-0.8,1.45L274.57,357z
		 M267.32,353.95l0.78-1.41l8.11,4.57l-0.78,1.41L267.32,353.95z M279.39,351.88c-0.27,0.44-0.57,0.75-0.9,0.96
		c-0.34,0.21-0.69,0.31-1.07,0.29c-0.38,0-0.77-0.14-1.15-0.39l-4.34-2.72c-0.38-0.25-0.67-0.54-0.84-0.89
		c-0.17-0.33-0.25-0.69-0.21-1.08c0.06-0.41,0.21-0.81,0.48-1.23c0.25-0.42,0.55-0.75,0.88-0.96c0.34-0.21,0.69-0.31,1.07-0.29
		c0.38,0,0.77,0.14,1.15,0.39l4.34,2.74c0.38,0.23,0.67,0.52,0.84,0.87c0.17,0.33,0.25,0.69,0.21,1.1
		C279.79,351.05,279.64,351.46,279.39,351.88L279.39,351.88z M278.03,351.03c0.1-0.14,0.13-0.27,0.15-0.41
		c0-0.14-0.02-0.25-0.1-0.37c-0.08-0.12-0.17-0.21-0.33-0.31l-4-2.53c-0.13-0.08-0.27-0.14-0.4-0.15c-0.13,0-0.27,0.02-0.38,0.1
		c-0.11,0.06-0.21,0.15-0.31,0.29c-0.08,0.15-0.11,0.29-0.13,0.41c0,0.14,0.02,0.27,0.1,0.39c0.08,0.12,0.17,0.21,0.33,0.31l4,2.51
		c0.13,0.1,0.27,0.15,0.4,0.15c0.13,0.02,0.27,0,0.38-0.08C277.86,351.29,277.95,351.19,278.03,351.03L278.03,351.03z
		 M282.39,347.31c-0.27,0.41-0.59,0.69-0.94,0.87c-0.34,0.19-0.71,0.27-1.09,0.21c-0.38-0.04-0.78-0.19-1.19-0.48l-0.4-0.27
		l0.9-1.33l0.4,0.29c0.19,0.14,0.38,0.19,0.57,0.15c0.17-0.02,0.34-0.14,0.48-0.33c0.11-0.19,0.17-0.39,0.13-0.56
		c-0.04-0.17-0.15-0.33-0.34-0.46l-0.65-0.48c-0.15-0.1-0.29-0.14-0.46-0.14c-0.15,0.02-0.31,0.06-0.48,0.14
		c-0.15,0.06-0.36,0.17-0.61,0.31c-0.02,0.02-0.04,0.02-0.06,0.02c-0.02,0.02-0.02,0.02-0.04,0.04l-0.08,0.04
		c-0.34,0.19-0.67,0.33-0.96,0.42c-0.31,0.08-0.61,0.12-0.98,0.06c-0.34-0.04-0.71-0.19-1.07-0.46l-0.4-0.27
		c-0.38-0.27-0.67-0.58-0.84-0.93c-0.17-0.35-0.23-0.71-0.19-1.1c0.06-0.39,0.23-0.79,0.5-1.18c0.27-0.41,0.57-0.69,0.92-0.87
		c0.34-0.17,0.71-0.23,1.09-0.19c0.38,0.06,0.77,0.21,1.17,0.5l0.42,0.29l-0.88,1.31l-0.44-0.29c-0.19-0.14-0.38-0.19-0.55-0.17
		c-0.17,0.02-0.33,0.12-0.46,0.29c-0.13,0.19-0.17,0.39-0.15,0.56c0.04,0.17,0.13,0.33,0.31,0.44l0.52,0.35
		c0.13,0.12,0.29,0.15,0.44,0.15c0.15,0,0.31-0.04,0.46-0.1c0.15-0.06,0.34-0.17,0.59-0.29c0.04-0.04,0.1-0.06,0.13-0.1
		c0.06-0.02,0.11-0.04,0.15-0.08c0.02,0,0.02,0,0.02,0c0.02,0,0.02-0.02,0.04-0.02c0.34-0.17,0.65-0.31,0.92-0.41
		c0.25-0.08,0.54-0.12,0.86-0.08s0.67,0.19,1.05,0.46l0.63,0.44c0.38,0.27,0.67,0.58,0.86,0.93c0.17,0.35,0.23,0.71,0.19,1.12
		C282.83,346.52,282.68,346.91,282.39,347.31L282.39,347.31z M278.62,336.54l0.98-1.25l7.35,5.73l-0.96,1.25L278.62,336.54z
		 M276.9,338.82l0.96-1.27l7.37,5.73l-0.98,1.25L276.9,338.82z M280.5,340.65l1.89-2.47l1.19,0.91l-1.91,2.49L280.5,340.65z
		 M287.31,337.37l-0.21-1.54l3.77-0.41l0.23,1.56L287.31,337.37z M289.3,338.38c-0.33,0.39-0.67,0.66-1.03,0.81
		s-0.73,0.21-1.09,0.14s-0.73-0.25-1.09-0.56l-3.88-3.36c-0.34-0.29-0.57-0.62-0.71-0.98c-0.13-0.37-0.13-0.73-0.04-1.12
		c0.1-0.39,0.31-0.75,0.63-1.14s0.67-0.66,1.03-0.81c0.36-0.17,0.73-0.21,1.11-0.14c0.36,0.06,0.73,0.25,1.07,0.56l3.88,3.34
		c0.34,0.31,0.59,0.64,0.71,0.98c0.13,0.37,0.13,0.73,0.04,1.12C289.84,337.6,289.63,337.99,289.3,338.38L289.3,338.38z
		 M288.1,337.33c0.11-0.12,0.17-0.25,0.19-0.39c0.04-0.14,0.02-0.25-0.02-0.39c-0.06-0.12-0.15-0.23-0.29-0.35l-3.58-3.09
		c-0.11-0.12-0.25-0.17-0.38-0.21c-0.13-0.04-0.25-0.02-0.38,0.02c-0.11,0.06-0.23,0.14-0.34,0.25c-0.1,0.14-0.17,0.25-0.19,0.39
		c-0.04,0.14-0.02,0.25,0.04,0.39c0.06,0.12,0.13,0.23,0.27,0.35l3.58,3.09c0.13,0.12,0.27,0.19,0.38,0.21
		c0.13,0.04,0.27,0.04,0.38-0.02C287.88,337.55,288,337.47,288.1,337.33L288.1,337.33z M286.09,327.86l0.77-0.81l8.27,4.8
		l-1.07,1.16l-5.24-3.34l3.6,5.09l-1.09,1.16L286.09,327.86z M290.22,332.8l1.74-1.85l1.07,1.02l-1.72,1.85L290.22,332.8z
		 M292.4,326.95l1.21-1.18c0.11-0.1,0.17-0.19,0.21-0.29c0.04-0.12,0.06-0.21,0.02-0.31c-0.02-0.12-0.08-0.21-0.17-0.31l-0.71-0.75
		c-0.1-0.1-0.21-0.17-0.31-0.21c-0.11-0.04-0.23-0.04-0.33,0c-0.11,0.02-0.21,0.08-0.31,0.17l-1.22,1.18l-1.05-1.12l1.15-1.1
		c0.36-0.35,0.73-0.58,1.09-0.71c0.38-0.12,0.75-0.14,1.09-0.04c0.36,0.1,0.69,0.31,0.99,0.64l0.75,0.79
		c0.33,0.33,0.52,0.68,0.61,1.06c0.1,0.37,0.06,0.73-0.08,1.1c-0.13,0.39-0.38,0.73-0.75,1.08l-1.15,1.1L292.4,326.95z
		 M289.24,324.64l1.11-1.08l6.43,6.77l-1.13,1.08L289.24,324.64z M294.18,326.95l0.86-1.23l4.19,2.26l-1.24,1.2L294.18,326.95z
		 M301.47,326.22c-0.34,0.29-0.71,0.48-1.09,0.58c-0.36,0.08-0.75,0.04-1.11-0.12c-0.36-0.15-0.69-0.42-1.01-0.79l-4.61-5.38
		l1.21-1.04l4.63,5.4c0.15,0.17,0.31,0.27,0.48,0.29c0.17,0.04,0.33-0.02,0.48-0.15c0.13-0.14,0.23-0.29,0.23-0.44
		c0-0.17-0.08-0.35-0.23-0.52l-4.63-5.4l1.21-1.06l4.61,5.38c0.33,0.37,0.52,0.75,0.61,1.14c0.1,0.39,0.1,0.75-0.04,1.12
		C302.06,325.58,301.81,325.91,301.47,326.22L301.47,326.22z M297.76,317.02l1.32-1.04l4.65,4.55l-3.25-5.65l1.34-1.04l4.34,8.45
		l-1.34,1.06L297.76,317.02z M307.13,310.07l1.3-0.93l5.32,7.68l-1.28,0.91L307.13,310.07z M304.8,311.71l1.3-0.93l5.34,7.68
		l-1.3,0.91L304.8,311.71z M307.71,314.55l2.54-1.79l0.86,1.22l-2.56,1.81L307.71,314.55z M311.23,307.48l0.94-0.6l6.83,6.75
		l-1.34,0.83l-4.25-4.55l2.22,5.85l-1.34,0.85L311.23,307.48z M314.02,313.29l2.14-1.35l0.78,1.27l-2.14,1.35L314.02,313.29z
		 M319.63,302.81l1.34-0.66l4.11,8.39l-1.26,0.64l-2.87-5.87l0.27,0.33l0.75,4.61l-0.71,0.35l-3.12-3.28l-0.11-0.54l2.87,5.87
		l-1.28,0.64l-4.13-8.39l1.36-0.68l3.64,3.86L319.63,302.81z M326.46,308.18l1.09-0.48c0.19-0.08,0.31-0.21,0.36-0.37
		c0.06-0.17,0.04-0.37-0.06-0.58l-1.89-4.42c-0.1-0.21-0.23-0.35-0.38-0.42c-0.15-0.08-0.33-0.08-0.54,0.02l-1.09,0.46l-0.59-1.39
		l1.22-0.54c0.42-0.19,0.8-0.27,1.15-0.23c0.36,0.02,0.67,0.14,0.96,0.37c0.27,0.23,0.5,0.54,0.67,0.95l2.05,4.73
		c0.17,0.41,0.23,0.79,0.21,1.14c-0.02,0.37-0.15,0.68-0.38,0.96c-0.23,0.27-0.54,0.5-0.96,0.68l-1.22,0.54L326.46,308.18z
		 M322.38,301.42l1.45-0.64l3.71,8.59l-1.45,0.64L322.38,301.42z M329.29,298.45l1.03-0.41l5.36,7.99l-1.47,0.56l-3.27-5.33
		l1.01,6.17l-1.47,0.56L329.29,298.45z M330.86,304.7l2.37-0.89l0.52,1.39l-2.37,0.91L330.86,304.7z M337.96,299.8l1.57-0.5
		c0.11-0.04,0.21-0.12,0.29-0.19c0.06-0.08,0.11-0.19,0.11-0.33c0.02-0.12,0-0.25-0.04-0.41l-0.34-1.04
		c-0.04-0.17-0.11-0.29-0.19-0.41c-0.1-0.1-0.19-0.15-0.29-0.19c-0.11-0.02-0.23-0.02-0.36,0.02l-1.55,0.5l-0.48-1.45l1.61-0.52
		c0.44-0.15,0.84-0.19,1.21-0.14s0.67,0.21,0.94,0.44c0.25,0.25,0.44,0.6,0.57,1l0.48,1.51c0.13,0.42,0.17,0.81,0.1,1.14
		c-0.08,0.35-0.25,0.66-0.5,0.91c-0.27,0.25-0.61,0.44-1.05,0.6l-1.61,0.52L337.96,299.8z M335.97,296.02l1.51-0.48l2.83,8.93
		l-1.49,0.48L335.97,296.02z M341.76,294.29l1.53-0.42l2.39,9.05l-1.53,0.42L341.76,294.29z M344.44,301.64l3.31-0.89l0.4,1.51
		l-3.31,0.89L344.44,301.64z M343.45,297.89l3-0.81l0.4,1.51l-3,0.81L343.45,297.89z M342.45,294.09l3.31-0.89l0.38,1.51l-3.31,0.89
		L342.45,294.09z M349.66,300.4l1.17-0.25c0.21-0.06,0.34-0.15,0.44-0.31c0.08-0.15,0.1-0.35,0.06-0.58l-1.01-4.69
		c-0.04-0.23-0.13-0.41-0.27-0.5c-0.15-0.12-0.33-0.14-0.54-0.1l-1.15,0.25l-0.33-1.49l1.32-0.29c0.42-0.1,0.82-0.1,1.17,0
		c0.33,0.1,0.61,0.27,0.84,0.56c0.23,0.27,0.4,0.62,0.48,1.04l1.09,5.06c0.08,0.42,0.08,0.81-0.02,1.16
		c-0.1,0.35-0.29,0.64-0.55,0.85c-0.27,0.23-0.63,0.41-1.07,0.5l-1.3,0.27L349.66,300.4z M347.01,292.95l1.55-0.33l1.95,9.17
		l-1.55,0.33L347.01,292.95z M354.35,291.53l1.09-0.17l3.71,8.88l-1.55,0.27l-2.18-5.87l-0.19,6.25l-1.55,0.25L354.35,291.53z
		 M354.7,297.99l2.49-0.42l0.25,1.49l-2.51,0.41L354.7,297.99z M363.36,294.71l0.33,2.78c0.06,0.48,0,0.93-0.13,1.29
		c-0.13,0.37-0.36,0.68-0.69,0.89c-0.33,0.23-0.73,0.37-1.21,0.42c-0.48,0.06-0.9,0.02-1.28-0.12c-0.36-0.15-0.65-0.37-0.88-0.69
		s-0.36-0.71-0.42-1.2l-0.54-4.82c-0.06-0.5-0.02-0.95,0.11-1.31c0.13-0.39,0.36-0.69,0.69-0.93c0.33-0.23,0.73-0.37,1.21-0.42
		c0.46-0.06,0.88-0.02,1.24,0.14c0.34,0.14,0.63,0.39,0.86,0.71c0.21,0.33,0.34,0.73,0.4,1.22l0.08,0.71l-1.61,0.19l-0.1-0.71
		c-0.02-0.15-0.06-0.27-0.11-0.39c-0.06-0.1-0.15-0.17-0.25-0.21c-0.1-0.06-0.21-0.06-0.34-0.06c-0.13,0.02-0.25,0.06-0.34,0.14
		c-0.1,0.08-0.17,0.19-0.21,0.31c-0.04,0.14-0.06,0.27-0.04,0.44l0.55,4.82c0.02,0.12,0.06,0.23,0.13,0.33
		c0.06,0.1,0.15,0.17,0.27,0.21c0.11,0.04,0.25,0.04,0.4,0.04c0.15-0.02,0.27-0.08,0.38-0.14c0.1-0.08,0.17-0.15,0.23-0.27
		c0.04-0.12,0.06-0.25,0.04-0.41l-0.13-1.27l-0.78,0.1l-0.17-1.52L363.36,294.71z M367.21,299.63c-0.52,0.04-0.94-0.02-1.3-0.17
		c-0.36-0.14-0.65-0.37-0.86-0.69c-0.21-0.31-0.33-0.69-0.36-1.16l-0.34-5.15c-0.02-0.46,0.04-0.87,0.21-1.2
		c0.17-0.35,0.42-0.62,0.77-0.81s0.77-0.31,1.26-0.35c0.5-0.04,0.92,0.02,1.28,0.17c0.38,0.15,0.67,0.39,0.86,0.69
		c0.21,0.33,0.34,0.71,0.36,1.18l0.34,5.13c0.02,0.46-0.04,0.87-0.21,1.22c-0.15,0.33-0.42,0.6-0.77,0.81
		C368.11,299.49,367.69,299.61,367.21,299.63L367.21,299.63z M367.09,298.05c0.15-0.02,0.31-0.06,0.4-0.14
		c0.11-0.06,0.21-0.15,0.25-0.29c0.06-0.12,0.08-0.27,0.08-0.44l-0.33-4.75c0-0.15-0.04-0.31-0.11-0.42
		c-0.06-0.12-0.15-0.19-0.29-0.25c-0.11-0.06-0.25-0.08-0.42-0.08c-0.15,0.02-0.29,0.06-0.4,0.14c-0.11,0.06-0.19,0.17-0.25,0.29
		s-0.08,0.27-0.06,0.44l0.31,4.73c0.02,0.17,0.06,0.33,0.11,0.44c0.08,0.12,0.17,0.19,0.29,0.25
		C366.79,298.03,366.94,298.05,367.09,298.05L367.09,298.05z"/>
	<path class="st15" d="M375,294.27l0.06,2.8c0,0.5-0.08,0.93-0.25,1.27c-0.19,0.35-0.44,0.64-0.78,0.83
		c-0.34,0.17-0.75,0.29-1.22,0.29c-0.5,0.02-0.92-0.08-1.26-0.25c-0.36-0.17-0.63-0.42-0.82-0.77c-0.19-0.33-0.29-0.73-0.31-1.22
		l-0.08-4.86c-0.02-0.5,0.06-0.93,0.25-1.29c0.17-0.37,0.42-0.66,0.77-0.85s0.75-0.31,1.22-0.31c0.48-0.02,0.9,0.08,1.22,0.25
		c0.34,0.17,0.61,0.44,0.8,0.79c0.17,0.35,0.29,0.77,0.29,1.25l0.02,0.73l-1.65,0.02v-0.71c0-0.15-0.04-0.29-0.1-0.39
		c-0.04-0.12-0.11-0.19-0.21-0.25c-0.1-0.06-0.21-0.08-0.34-0.08c-0.13,0-0.27,0.04-0.36,0.1c-0.1,0.06-0.17,0.15-0.23,0.29
		c-0.06,0.12-0.08,0.25-0.08,0.42l0.08,4.84c0,0.14,0.04,0.25,0.1,0.37c0.06,0.1,0.15,0.17,0.27,0.21c0.1,0.06,0.23,0.08,0.38,0.08
		s0.29-0.04,0.4-0.1c0.11-0.06,0.19-0.14,0.25-0.25c0.06-0.1,0.1-0.23,0.08-0.39l-0.02-1.27l-0.78,0.02l-0.02-1.54L375,294.27z
		 M380.45,295.23l2.18-4.88l1.78,0.14l-4.19,7.58L380.45,295.23z M379.57,290.12l1.59,0.12l-0.73,9.34l-1.57-0.12L379.57,290.12z
		 M381.08,294.5l1.17-0.87l1.74,6.23l-1.74-0.14L381.08,294.5z M387.34,290.79l1.11,0.15l1.03,9.57l-1.55-0.19l-0.44-6.25
		l-1.95,5.94l-1.55-0.19L387.34,290.79z M385.84,297.08l2.51,0.31l-0.19,1.49l-2.51-0.31L385.84,297.08z M391.47,299.28l1.17,0.19
		c0.21,0.04,0.38,0,0.52-0.1c0.13-0.12,0.23-0.29,0.27-0.52l0.82-4.73c0.04-0.23,0-0.42-0.08-0.58c-0.1-0.15-0.25-0.23-0.46-0.27
		l-1.17-0.21l0.27-1.51l1.32,0.23c0.44,0.08,0.8,0.21,1.07,0.44c0.29,0.21,0.48,0.48,0.59,0.83s0.13,0.73,0.06,1.16l-0.88,5.09
		c-0.08,0.42-0.23,0.79-0.44,1.06c-0.21,0.29-0.5,0.48-0.84,0.6c-0.34,0.1-0.73,0.12-1.17,0.04l-1.32-0.23L391.47,299.28z
		 M391.76,291.37l1.57,0.27l-1.61,9.24l-1.55-0.29L391.76,291.37z M397.48,296.37l1.65,0.37c0.13,0.04,0.25,0.04,0.36,0
		c0.1-0.02,0.19-0.08,0.27-0.15c0.06-0.08,0.11-0.17,0.13-0.31l0.23-1.02c0.04-0.14,0.04-0.25,0-0.37
		c-0.02-0.12-0.08-0.21-0.17-0.27c-0.08-0.08-0.19-0.14-0.33-0.15l-1.63-0.39l0.33-1.49l1.55,0.35c0.48,0.12,0.88,0.29,1.21,0.52
		c0.31,0.23,0.52,0.54,0.63,0.89c0.11,0.37,0.11,0.75,0.02,1.2l-0.23,1.06c-0.1,0.44-0.29,0.81-0.54,1.1
		c-0.25,0.27-0.57,0.46-0.96,0.54c-0.38,0.1-0.82,0.08-1.32-0.04l-1.53-0.35L397.48,296.37z M397.63,292.43l1.51,0.33l-2.03,9.15
		l-1.51-0.33L397.63,292.43z M398.47,297.87l1.47,0.02l0.46,4.77l-1.65-0.37L398.47,297.87z M403.83,293.88l1.51,0.42l-2.45,9.03
		l-1.53-0.42L403.83,293.88z M402.39,301.62l3.21,0.89l-0.4,1.49l-3.21-0.91L402.39,301.62z M410.7,295.91l1.05,0.35l-0.78,9.61
		l-1.49-0.5l0.75-6.21l-3.02,5.46l-1.49-0.48L410.7,295.91z M408.04,301.79l2.41,0.79l-0.46,1.43l-2.41-0.81L408.04,301.79z
		 M414.22,301.23l1.55,0.6c0.13,0.06,0.25,0.08,0.36,0.06c0.11,0,0.21-0.04,0.29-0.12c0.08-0.06,0.15-0.15,0.19-0.27l0.36-0.98
		c0.06-0.14,0.08-0.25,0.06-0.37c0-0.12-0.06-0.21-0.11-0.31c-0.08-0.08-0.19-0.15-0.31-0.19l-1.57-0.62l0.54-1.43l1.47,0.58
		c0.48,0.17,0.84,0.41,1.13,0.69c0.27,0.27,0.44,0.6,0.5,0.96c0.06,0.37,0.02,0.75-0.15,1.18l-0.38,1.02
		c-0.15,0.42-0.38,0.77-0.67,1c-0.29,0.23-0.63,0.37-1.03,0.41s-0.82-0.04-1.3-0.21l-1.47-0.58L414.22,301.23z M414.93,297.35
		l1.45,0.56l-3.33,8.76l-1.43-0.56L414.93,297.35z M414.98,302.85l1.45,0.25l-0.23,4.79l-1.59-0.62L414.98,302.85z M420.84,299.71
		l1.13,0.52l-0.48,6.6l-0.27,0.15l2.6-5.94l1.32,0.58l-3.73,8.59l-1.15-0.52l0.36-6.27l0.25-0.15l-2.45,5.62l-1.32-0.58
		L420.84,299.71z M423.73,311.4l-1.43-0.71l4.13-8.39l1.43,0.71L423.73,311.4z M429.54,312.19l1.47-0.52l1.13,3.65l-1.47,0.54
		L429.54,312.19z M428.97,314.35c-0.44-0.25-0.77-0.54-0.99-0.87c-0.21-0.31-0.33-0.68-0.34-1.04c0-0.39,0.11-0.77,0.34-1.18
		l2.49-4.52c0.23-0.41,0.5-0.69,0.82-0.89s0.69-0.29,1.07-0.27c0.4,0.04,0.8,0.17,1.24,0.41c0.44,0.25,0.77,0.54,0.99,0.87
		c0.23,0.33,0.34,0.68,0.34,1.06c0,0.37-0.11,0.77-0.33,1.18l-2.51,4.5c-0.21,0.41-0.5,0.69-0.8,0.91
		c-0.33,0.19-0.69,0.27-1.09,0.25C429.83,314.74,429.41,314.6,428.97,314.35L428.97,314.35z M429.75,312.96
		c0.13,0.08,0.27,0.12,0.4,0.12c0.13,0,0.27-0.04,0.36-0.12c0.11-0.08,0.21-0.19,0.29-0.33l2.32-4.15c0.08-0.15,0.11-0.29,0.13-0.42
		c0-0.14-0.04-0.27-0.11-0.39c-0.06-0.1-0.17-0.19-0.31-0.29c-0.15-0.08-0.29-0.12-0.42-0.12c-0.11,0-0.25,0.04-0.36,0.12
		c-0.1,0.08-0.19,0.19-0.29,0.33l-2.3,4.15c-0.08,0.15-0.11,0.31-0.13,0.42c0,0.14,0.02,0.27,0.1,0.39
		C429.51,312.79,429.6,312.87,429.75,312.96L429.75,312.96z M438.54,309.14l0.94,0.58l-3.04,9.13l-1.32-0.83l2.2-5.85l-4.25,4.55
		l-1.34-0.83L438.54,309.14z M434.56,314.2l2.14,1.35l-0.78,1.27l-2.14-1.35L434.56,314.2z M440.62,317.52l-2.05,2.95l-1.3-0.91
		l2.05-2.95l1.84-5.75l1.36,0.96l-1.49,3.69l2.89-2.72l1.34,0.96L440.62,317.52z M446.74,315.92l1.24,0.98l-5.18,6.79l-1.26-0.98
		L446.74,315.92z M446.02,314.35l3.67,2.88l-0.94,1.22l-3.67-2.88L446.02,314.35z M451.53,318.81l0.84,0.73l-4.36,8.57l-1.19-1.02
		l3.04-5.46l-4.88,3.88l-1.19-1.02L451.53,318.81z M446.84,323.21l1.93,1.66l-0.98,1.14l-1.91-1.66L446.84,323.21z M456.92,324.79
		l1.15,1.1l-5.85,6.23l-1.15-1.08L456.92,324.79z M456.35,323.17l3.37,3.22l-1.03,1.12l-3.39-3.24L456.35,323.17z M461.32,328.21
		l0.78,0.81l-5.18,8.09l-1.09-1.14l3.58-5.11l-5.24,3.36l-1.09-1.14L461.32,328.21z M456.23,332.12l1.76,1.85l-1.07,1.02l-1.76-1.83
		L456.23,332.12z M461.3,336.85l-2.7,2.35l-1.03-1.22l2.7-2.35l3.2-5.09l1.07,1.25l-2.33,3.2l3.44-1.91l1.09,1.27L461.3,336.85z
		 M464.54,340.9l-2.81,2.22l-0.98-1.27l2.81-2.2l3.44-4.94l1.01,1.31l-2.49,3.09l3.54-1.74l1.01,1.31L464.54,340.9z M464.21,346.65
		c-0.29-0.42-0.48-0.83-0.54-1.22s-0.02-0.75,0.15-1.1c0.15-0.35,0.42-0.66,0.8-0.93l4.19-2.95c0.36-0.27,0.75-0.41,1.13-0.44
		c0.36-0.04,0.73,0.04,1.07,0.23c0.34,0.19,0.65,0.5,0.94,0.91c0.29,0.42,0.48,0.83,0.54,1.22s0.02,0.75-0.15,1.1
		c-0.15,0.35-0.42,0.66-0.8,0.93l-4.19,2.95c-0.36,0.27-0.75,0.41-1.13,0.44c-0.36,0.04-0.73-0.04-1.07-0.23
		C464.81,347.37,464.48,347.06,464.21,346.65L464.21,346.65z M465.49,345.73c0.1,0.14,0.21,0.23,0.33,0.29
		c0.11,0.06,0.25,0.08,0.38,0.06c0.13-0.02,0.27-0.08,0.4-0.17l3.86-2.72c0.13-0.1,0.23-0.21,0.29-0.33
		c0.08-0.12,0.1-0.25,0.08-0.37c-0.02-0.14-0.06-0.27-0.15-0.41c-0.1-0.14-0.21-0.23-0.33-0.29c-0.11-0.06-0.23-0.08-0.36-0.06
		s-0.27,0.08-0.4,0.17l-3.86,2.72c-0.13,0.1-0.25,0.21-0.31,0.33c-0.06,0.12-0.1,0.25-0.08,0.39
		C465.36,345.46,465.42,345.59,465.49,345.73L465.49,345.73z M471.23,347.06l0.88,1.45c0.08,0.12,0.15,0.19,0.25,0.25
		s0.21,0.1,0.31,0.08c0.11,0,0.21-0.04,0.33-0.1l0.88-0.56c0.11-0.08,0.21-0.17,0.27-0.27c0.06-0.1,0.08-0.19,0.08-0.31
		c-0.02-0.12-0.06-0.23-0.13-0.35l-0.88-1.43l1.28-0.81l0.84,1.33c0.27,0.44,0.42,0.85,0.48,1.23c0.04,0.41-0.02,0.75-0.19,1.08
		c-0.15,0.33-0.44,0.62-0.8,0.85l-0.92,0.6c-0.38,0.23-0.77,0.37-1.15,0.39s-0.73-0.1-1.07-0.31c-0.33-0.21-0.63-0.52-0.9-0.95
		l-0.82-1.35L471.23,347.06z M474.1,344.4l0.84,1.33l-7.88,4.98l-0.82-1.33L474.1,344.4z M470.87,348.83l1.01,1.08l-3.02,3.69
		l-0.9-1.47L470.87,348.83z M477.49,349.86l0.77,1.39l-8.09,4.57l-0.78-1.39L477.49,349.86z M471.02,354.26l1.65,2.95l-1.34,0.73
		l-1.63-2.93L471.02,354.26z M480.93,356.21l0.5,1l-7.35,6.16l-0.69-1.41l4.92-3.82l-5.99,1.64l-0.69-1.41L480.93,356.21z
		 M474.93,358.41l1.11,2.3l-1.32,0.66l-1.13-2.28L474.93,358.41z M475,365.58c-0.19-0.44-0.27-0.87-0.25-1.25
		c0.04-0.41,0.17-0.75,0.4-1.06c0.25-0.31,0.59-0.56,1.03-0.75l0.46-0.21l0.63,1.47l-0.46,0.19c-0.21,0.1-0.36,0.23-0.42,0.41
		c-0.08,0.17-0.06,0.39,0.04,0.6c0.08,0.21,0.21,0.35,0.38,0.41c0.17,0.08,0.36,0.06,0.57-0.04l0.75-0.33
		c0.15-0.06,0.27-0.17,0.34-0.31s0.13-0.29,0.15-0.48c0.02-0.17,0.04-0.41,0.06-0.69c0-0.02,0-0.04,0-0.06
		c0-0.02,0.02-0.04,0.02-0.06v-0.08c0.02-0.41,0.08-0.75,0.15-1.04c0.08-0.31,0.21-0.6,0.44-0.87c0.21-0.27,0.54-0.5,0.96-0.68
		l0.44-0.19c0.44-0.19,0.84-0.27,1.22-0.25c0.38,0.04,0.73,0.17,1.03,0.42c0.29,0.25,0.54,0.6,0.73,1.04
		c0.19,0.44,0.27,0.85,0.25,1.23s-0.17,0.73-0.4,1.04c-0.25,0.31-0.59,0.56-1.03,0.75l-0.48,0.19l-0.65-1.45l0.5-0.21
		c0.21-0.1,0.36-0.23,0.44-0.39c0.06-0.17,0.06-0.35-0.02-0.56c-0.1-0.21-0.23-0.35-0.38-0.42c-0.17-0.06-0.34-0.06-0.54,0.04
		l-0.57,0.25c-0.15,0.06-0.27,0.17-0.36,0.31c-0.08,0.14-0.13,0.27-0.15,0.44c-0.02,0.15-0.04,0.39-0.06,0.66
		c0,0.06,0,0.12-0.02,0.17c0,0.04,0,0.1,0,0.15c0,0.02,0,0.02,0,0.04v0.02c-0.04,0.41-0.08,0.73-0.15,1
		c-0.06,0.27-0.19,0.52-0.38,0.79c-0.21,0.25-0.52,0.46-0.94,0.66l-0.71,0.31c-0.44,0.19-0.86,0.27-1.24,0.25
		c-0.38-0.04-0.73-0.17-1.03-0.42C475.44,366.37,475.19,366.03,475,365.58L475,365.58z M486.16,367.98l0.55,1.49l-8.69,3.3
		l-0.57-1.49L486.16,367.98z M485.16,365.29l0.55,1.51l-8.71,3.28l-0.55-1.49L485.16,365.29z M481.7,367.42l1.11,2.93l-1.4,0.54
		l-1.09-2.95L481.7,367.42z M487.94,372.94l0.52,1.62l-5.84,2.84l6.37-1.14l0.52,1.62l-9.38,1.22l-0.52-1.64L487.94,372.94z
		 M490.06,380.04l0.29,1.08l-8.42,4.59l-0.4-1.54l5.57-2.76l-6.18,0.42l-0.4-1.54L490.06,380.04z M483.73,381l0.65,2.47l-1.43,0.39
		l-0.65-2.47L483.73,381z M482.94,391.07c-0.08-0.44-0.04-0.87,0.08-1.22c0.13-0.37,0.36-0.68,0.67-0.89
		c0.33-0.23,0.73-0.41,1.21-0.48l6.95-1.14l0.27,1.58l-7,1.16c-0.21,0.04-0.38,0.12-0.48,0.25c-0.11,0.14-0.15,0.29-0.11,0.48
		c0.04,0.19,0.11,0.35,0.27,0.44c0.13,0.1,0.31,0.12,0.54,0.08l7-1.16l0.25,1.58l-6.95,1.16c-0.48,0.08-0.92,0.06-1.28-0.06
		c-0.38-0.14-0.69-0.33-0.92-0.64C483.17,391.92,483.02,391.54,482.94,391.07L482.94,391.07z M492.87,393.1l0.17,1.6l-9.22,1.06
		l-0.19-1.58L492.87,393.1z M485.22,394.66l0.38,3.34l-1.51,0.19l-0.38-3.36L485.22,394.66z M493.7,400.28l0.08,1.12l-9.13,2.86
		l-0.1-1.58l5.99-1.62l-6.16-0.79l-0.1-1.58L493.7,400.28z M487.31,399.99l0.17,2.55l-1.49,0.1l-0.15-2.55L487.31,399.99z
		 M490.25,405.56l0.02,1.68c0,0.14,0.04,0.25,0.1,0.37c0.04,0.1,0.11,0.17,0.21,0.21c0.1,0.06,0.19,0.08,0.33,0.08l1.03-0.02
		c0.13,0,0.27-0.04,0.36-0.08c0.1-0.06,0.17-0.14,0.23-0.23c0.06-0.12,0.08-0.23,0.08-0.37l-0.04-1.7l1.53-0.02l0.02,1.6
		c0.02,0.5-0.06,0.93-0.21,1.29c-0.17,0.37-0.4,0.64-0.71,0.83c-0.33,0.19-0.71,0.31-1.15,0.31l-1.07,0.02
		c-0.46,0-0.86-0.08-1.19-0.27c-0.33-0.17-0.57-0.44-0.77-0.81c-0.17-0.35-0.27-0.77-0.27-1.27l-0.04-1.6L490.25,405.56z
		 M494.08,404.77l0.04,1.56l-9.3,0.17l-0.04-1.56L494.08,404.77z M489.05,406.88l0.31,1.47l-4.48,1.56l-0.04-1.7L489.05,406.88z
		 M494.23,411.18l-0.02,1.25l-6.28,2.03l-0.23-0.19l6.43,0.19l-0.04,1.47l-9.28-0.29l0.04-1.25l5.91-2.01l0.25,0.17l-6.1-0.19
		l0.04-1.45L494.23,411.18z M484.74,418.26l0.04-1.6l9.3,0.27l-0.06,1.6L484.74,418.26z M493.89,420l-0.1,1.25l-6.35,1.72
		l-0.23-0.19l6.43,0.5l-0.11,1.45l-9.26-0.73l0.11-1.25l5.99-1.72l0.23,0.19l-6.07-0.48l0.1-1.47L493.89,420z M488.47,430.4
		l-2.76-0.35c-0.48-0.06-0.88-0.19-1.21-0.42c-0.33-0.23-0.55-0.52-0.71-0.89c-0.13-0.37-0.17-0.79-0.11-1.27
		c0.06-0.5,0.21-0.91,0.42-1.23c0.23-0.33,0.52-0.56,0.88-0.69c0.36-0.15,0.77-0.19,1.24-0.14l4.78,0.62
		c0.5,0.06,0.9,0.19,1.24,0.42c0.33,0.23,0.57,0.52,0.71,0.91c0.15,0.37,0.19,0.79,0.13,1.27c-0.06,0.46-0.21,0.87-0.42,1.18
		c-0.23,0.31-0.54,0.54-0.9,0.68s-0.78,0.17-1.28,0.12l-0.71-0.1l0.21-1.62l0.71,0.08c0.15,0.02,0.29,0.02,0.4-0.02
		c0.11-0.04,0.19-0.1,0.27-0.19c0.08-0.1,0.11-0.19,0.13-0.33s0-0.27-0.06-0.37c-0.06-0.12-0.13-0.21-0.25-0.29
		c-0.1-0.06-0.25-0.12-0.4-0.14l-4.78-0.6c-0.11-0.02-0.25,0-0.34,0.04c-0.11,0.04-0.19,0.12-0.27,0.23
		c-0.06,0.1-0.11,0.23-0.13,0.37c-0.02,0.15,0,0.29,0.04,0.42c0.04,0.12,0.11,0.21,0.21,0.29c0.1,0.06,0.23,0.12,0.36,0.14
		l1.26,0.15l0.1-0.77l1.51,0.17L488.47,430.4z M490.85,440.12l-0.33,1.47l-9.07-2.06l0.31-1.39l6.33,1.45h-0.42l-4.04-2.32
		l0.17-0.77l4.5-0.39l0.5,0.25l-6.33-1.43l0.33-1.43l9.07,2.06l-0.34,1.49l-5.26,0.41L490.85,440.12z M489.64,444.72l-0.31,1.08
		l-9.53-0.33l0.4-1.52l6.2,0.46l-5.55-2.8l0.4-1.54L489.64,444.72z M483.69,442.32l-0.67,2.45l-1.43-0.39l0.67-2.47L483.69,442.32z
		 M488.34,449.02l-0.48,1.52l-8.84-2.91l0.5-1.52L488.34,449.02z M480.76,447.21l-1.05,3.2l-1.43-0.46l1.03-3.22L480.76,447.21z
		 M485.95,455.83l-0.38,1.04l-9.47-1.25l0.55-1.47l6.12,1.04l-5.26-3.32l0.55-1.47L485.95,455.83z M480.27,452.88l-0.9,2.37
		l-1.4-0.52l0.9-2.39L480.27,452.88z M479.17,459.13l3.85,3.7l-0.71,1.64l-5.72-6.48L479.17,459.13z M484.26,460l-0.63,1.47
		l-8.51-3.76l0.63-1.47L484.26,460z M479.65,459.98l0.44,1.39l-6.41-0.37l0.69-1.62L479.65,459.98z M480.93,467.12l-0.5,1l-9.3-2.16
		l0.71-1.43l5.97,1.64l-4.92-3.8l0.71-1.43L480.93,467.12z M475.56,463.63l-1.13,2.28l-1.32-0.66l1.11-2.3L475.56,463.63z
		 M469.8,467.95c0.25-0.42,0.54-0.73,0.86-0.96c0.33-0.21,0.69-0.33,1.07-0.31c0.38,0,0.78,0.12,1.21,0.37l0.44,0.23l-0.77,1.41
		l-0.42-0.25c-0.21-0.12-0.4-0.15-0.59-0.1c-0.17,0.04-0.33,0.17-0.44,0.39c-0.11,0.19-0.13,0.39-0.08,0.56
		c0.06,0.17,0.17,0.33,0.38,0.44l0.71,0.39c0.13,0.1,0.29,0.12,0.46,0.1c0.15-0.02,0.31-0.08,0.46-0.15
		c0.15-0.1,0.34-0.23,0.59-0.39c0.02-0.02,0.02-0.02,0.04-0.04c0.02,0,0.04-0.02,0.04-0.02l0.08-0.06c0.33-0.21,0.63-0.39,0.92-0.5
		c0.29-0.14,0.59-0.17,0.96-0.17c0.34,0.02,0.71,0.14,1.11,0.35l0.42,0.25c0.42,0.23,0.73,0.5,0.94,0.83
		c0.19,0.33,0.31,0.68,0.29,1.08c-0.02,0.39-0.13,0.79-0.38,1.23c-0.23,0.41-0.5,0.71-0.82,0.93c-0.33,0.21-0.67,0.31-1.07,0.31
		c-0.38-0.02-0.78-0.14-1.21-0.37l-0.46-0.27l0.77-1.39l0.46,0.25c0.21,0.12,0.4,0.15,0.57,0.12c0.17-0.04,0.33-0.15,0.42-0.35
		c0.11-0.19,0.15-0.39,0.1-0.56c-0.04-0.17-0.15-0.31-0.34-0.41l-0.54-0.31c-0.15-0.08-0.31-0.12-0.46-0.1s-0.31,0.06-0.46,0.14
		c-0.13,0.08-0.33,0.19-0.55,0.35c-0.04,0.04-0.08,0.08-0.13,0.1c-0.04,0.04-0.1,0.06-0.13,0.1l-0.02,0.02c-0.02,0-0.02,0-0.02,0.02
		c-0.34,0.21-0.63,0.37-0.88,0.48s-0.54,0.17-0.86,0.15c-0.33,0-0.69-0.12-1.07-0.33l-0.69-0.39c-0.42-0.23-0.73-0.52-0.94-0.85
		c-0.21-0.33-0.31-0.69-0.31-1.08C469.46,468.8,469.57,468.37,469.8,467.95L469.8,467.95z M467.41,472.1l0.84-1.35l7.86,4.98
		l-0.82,1.35L467.41,472.1z M474.53,478.35l-0.71,1.02l-6.33-1.76l-0.11-0.29l5.3,3.7l-0.84,1.2l-7.61-5.34l0.73-1.04l6.03,1.58
		l0.11,0.29l-5.01-3.51l0.84-1.22L474.53,478.35z M462.68,478.99l0.98-1.25l7.35,5.73l-0.98,1.25L462.68,478.99z M458.87,483.68
		c0.31-0.39,0.65-0.66,1.01-0.81s0.73-0.19,1.11-0.14c0.36,0.08,0.73,0.27,1.07,0.56l3.88,3.36c0.34,0.29,0.59,0.64,0.71,0.98
		c0.13,0.37,0.15,0.73,0.06,1.12c-0.11,0.39-0.33,0.77-0.65,1.14c-0.33,0.39-0.67,0.66-1.03,0.83c-0.34,0.15-0.73,0.19-1.09,0.14
		c-0.36-0.08-0.73-0.27-1.07-0.56l-3.88-3.36c-0.36-0.31-0.59-0.64-0.73-0.98c-0.11-0.37-0.13-0.73-0.04-1.12
		C458.34,484.45,458.55,484.06,458.87,483.68L458.87,483.68z M460.06,484.72c-0.1,0.14-0.17,0.25-0.19,0.39s-0.02,0.25,0.04,0.39
		c0.06,0.12,0.13,0.23,0.27,0.35l3.58,3.09c0.13,0.12,0.27,0.19,0.38,0.21c0.13,0.04,0.27,0.04,0.38-0.02
		c0.13-0.04,0.25-0.14,0.34-0.25c0.11-0.14,0.17-0.25,0.21-0.39c0.02-0.14,0-0.25-0.04-0.39c-0.06-0.12-0.15-0.23-0.27-0.35
		l-3.58-3.09c-0.13-0.12-0.27-0.19-0.4-0.21c-0.11-0.04-0.25-0.04-0.38,0.02C460.29,484.5,460.18,484.6,460.06,484.72L460.06,484.72
		z M455.26,487.8c0.33-0.35,0.69-0.6,1.05-0.73c0.38-0.12,0.75-0.14,1.13-0.04c0.38,0.12,0.75,0.33,1.09,0.66l0.36,0.35l-1.07,1.16
		l-0.36-0.33c-0.17-0.17-0.36-0.25-0.55-0.25c-0.17,0-0.34,0.1-0.52,0.27c-0.15,0.15-0.23,0.35-0.21,0.52c0,0.19,0.1,0.37,0.25,0.52
		l0.59,0.56c0.13,0.12,0.27,0.19,0.42,0.19c0.15,0.02,0.33,0.02,0.5-0.04c0.17-0.04,0.38-0.12,0.67-0.23c0.02,0,0.02,0,0.04,0
		c0.02-0.02,0.04-0.02,0.06-0.02l0.08-0.04c0.36-0.14,0.71-0.23,1.01-0.27c0.31-0.04,0.61-0.02,0.96,0.08
		c0.34,0.1,0.67,0.31,0.99,0.62l0.36,0.33c0.34,0.33,0.57,0.68,0.69,1.04c0.11,0.37,0.13,0.75,0.02,1.12
		c-0.1,0.39-0.33,0.75-0.65,1.1s-0.67,0.58-1.03,0.71c-0.36,0.12-0.75,0.14-1.11,0.02c-0.38-0.1-0.73-0.33-1.09-0.66l-0.38-0.37
		l1.07-1.16l0.4,0.37c0.17,0.15,0.34,0.25,0.52,0.25c0.19,0,0.34-0.08,0.5-0.23c0.17-0.17,0.25-0.35,0.23-0.52
		c0-0.17-0.08-0.33-0.23-0.48l-0.44-0.42c-0.13-0.14-0.27-0.19-0.44-0.21c-0.15-0.04-0.31-0.02-0.46,0.02
		c-0.15,0.04-0.36,0.12-0.63,0.21c-0.04,0.02-0.1,0.04-0.15,0.06c-0.04,0-0.1,0.02-0.15,0.06c-0.02,0-0.02,0-0.02,0
		c-0.02,0-0.02,0-0.04,0c-0.36,0.14-0.69,0.21-0.96,0.27c-0.27,0.06-0.55,0.02-0.88-0.06c-0.31-0.1-0.63-0.29-0.96-0.6l-0.57-0.54
		c-0.34-0.33-0.57-0.69-0.71-1.06c-0.11-0.37-0.13-0.73-0.02-1.12C454.7,488.52,454.93,488.15,455.26,487.8L455.26,487.8z
		 M457.44,499.07l-1.15,1.1l-6.41-6.77l1.15-1.1L457.44,499.07z M459.49,497.11l-1.13,1.1l-6.43-6.77l1.15-1.1L459.49,497.11z
		 M456.22,494.73l-2.26,2.16l-1.03-1.08l2.26-2.16L456.22,494.73z M448.01,495.21l1.15-1.1l6.41,6.77l-1.15,1.1L448.01,495.21z
		 M450.25,500.48l-1.28,1.1c-0.1,0.1-0.17,0.17-0.21,0.29c-0.04,0.1-0.06,0.21-0.04,0.31c0.02,0.1,0.08,0.21,0.15,0.31l0.69,0.79
		c0.1,0.1,0.19,0.17,0.29,0.21c0.11,0.06,0.21,0.06,0.33,0.04c0.11-0.04,0.23-0.1,0.33-0.17l1.26-1.1l0.99,1.16l-1.19,1.04
		c-0.38,0.33-0.77,0.54-1.15,0.66c-0.36,0.12-0.73,0.1-1.07-0.02c-0.36-0.12-0.67-0.35-0.98-0.68l-0.71-0.83
		c-0.29-0.35-0.48-0.71-0.55-1.08c-0.06-0.37-0.02-0.75,0.13-1.12c0.17-0.37,0.44-0.71,0.8-1.04l1.21-1.02L450.25,500.48z
		 M453.29,502.95l-1.17,1.02l-6.08-7.1l1.19-1.02L453.29,502.95z M448.47,500.39l-0.92,1.18l-4.06-2.47l1.28-1.12L448.47,500.39z
		 M441.52,500.56l1.26-0.96l5.7,7.39l-1.24,0.98L441.52,500.56z M438.92,502.45c0.38-0.29,0.78-0.46,1.17-0.5
		c0.4-0.06,0.77,0,1.11,0.17c0.34,0.17,0.67,0.46,0.94,0.87l0.29,0.41l-1.28,0.93l-0.29-0.41c-0.13-0.19-0.29-0.31-0.48-0.35
		c-0.19-0.04-0.38,0.02-0.57,0.15c-0.17,0.14-0.29,0.29-0.31,0.46c-0.04,0.19,0.02,0.37,0.15,0.56l0.46,0.68
		c0.1,0.14,0.23,0.23,0.36,0.29c0.15,0.04,0.33,0.06,0.5,0.06c0.17-0.02,0.4-0.06,0.69-0.1c0.02,0,0.04,0,0.06,0s0.04,0,0.06-0.02
		h0.1c0.38-0.06,0.73-0.08,1.03-0.08c0.31,0.02,0.61,0.12,0.92,0.27c0.33,0.17,0.61,0.44,0.86,0.81l0.29,0.41
		c0.27,0.39,0.42,0.77,0.46,1.16c0.06,0.39-0.02,0.75-0.19,1.1c-0.17,0.35-0.46,0.66-0.86,0.95c-0.38,0.27-0.78,0.42-1.17,0.48
		c-0.38,0.06-0.75-0.02-1.07-0.19c-0.34-0.17-0.67-0.46-0.94-0.87l-0.31-0.42l1.28-0.95l0.31,0.44c0.13,0.19,0.31,0.31,0.48,0.37
		c0.17,0.04,0.34-0.02,0.54-0.14c0.17-0.14,0.29-0.29,0.33-0.46c0.04-0.17-0.02-0.35-0.13-0.52l-0.36-0.5
		c-0.1-0.15-0.21-0.25-0.36-0.31c-0.15-0.06-0.31-0.08-0.48-0.06c-0.15,0-0.38,0.02-0.65,0.08c-0.04,0-0.1,0.02-0.15,0.02
		s-0.11,0.02-0.17,0.02h-0.02c-0.02,0-0.02,0-0.02,0c-0.4,0.06-0.75,0.08-1.01,0.08c-0.27-0.02-0.54-0.1-0.84-0.23
		c-0.29-0.15-0.55-0.42-0.82-0.79l-0.44-0.64c-0.29-0.41-0.44-0.79-0.5-1.18c-0.04-0.39,0.02-0.77,0.21-1.12
		C438.23,503.03,438.52,502.72,438.92,502.45L438.92,502.45z M438.82,513.95l-1.34,0.85l-4.94-7.93l1.34-0.85L438.82,513.95z
		 M441.23,512.45l-1.34,0.83l-4.94-7.93l1.34-0.85L441.23,512.45z M438.48,509.45l-2.62,1.66l-0.8-1.27l2.64-1.66L438.48,509.45z
		 M428.07,509.57l1.38-0.79l4.53,8.18l-1.38,0.77L428.07,509.57z M431.34,518.54l-1.11,0.56l-4.71-4.61l0.04-0.31l2.87,5.83
		l-1.3,0.64l-4.11-8.37l1.13-0.58l4.52,4.32l-0.02,0.31l-2.72-5.52l1.3-0.64L431.34,518.54z M419.98,513.64
		c0.44-0.19,0.86-0.27,1.26-0.25c0.38,0.04,0.73,0.17,1.03,0.41c0.31,0.25,0.55,0.6,0.75,1.04l0.21,0.46l-1.45,0.64l-0.19-0.46
		c-0.1-0.21-0.23-0.35-0.4-0.42c-0.17-0.08-0.36-0.06-0.59,0.04c-0.21,0.08-0.34,0.21-0.4,0.39c-0.06,0.17-0.06,0.37,0.04,0.58
		l0.33,0.75c0.08,0.15,0.17,0.27,0.31,0.35c0.15,0.08,0.31,0.14,0.48,0.15c0.17,0.04,0.4,0.06,0.69,0.06c0.02,0,0.04,0,0.06,0.02
		c0.02,0,0.04,0,0.06,0h0.1c0.38,0.02,0.73,0.08,1.01,0.15c0.31,0.08,0.59,0.23,0.86,0.44c0.27,0.23,0.5,0.54,0.69,0.96l0.19,0.44
		c0.17,0.44,0.27,0.85,0.23,1.23c-0.04,0.39-0.17,0.73-0.42,1.04c-0.25,0.31-0.59,0.56-1.03,0.75c-0.44,0.17-0.84,0.27-1.22,0.23
		c-0.38-0.02-0.73-0.15-1.03-0.41c-0.29-0.25-0.54-0.6-0.73-1.04l-0.21-0.48l1.43-0.66l0.21,0.5c0.1,0.21,0.23,0.37,0.38,0.44
		c0.17,0.08,0.36,0.06,0.55-0.02c0.21-0.1,0.34-0.23,0.42-0.39c0.06-0.17,0.06-0.35-0.04-0.54l-0.23-0.58
		c-0.08-0.15-0.17-0.27-0.33-0.37c-0.13-0.08-0.27-0.14-0.44-0.15c-0.15-0.02-0.38-0.04-0.65-0.06c-0.06,0-0.1,0-0.15,0
		c-0.06-0.02-0.11-0.02-0.17-0.02c-0.02,0-0.02,0-0.02,0c-0.02,0-0.02,0-0.04,0c-0.4-0.04-0.73-0.08-0.99-0.14
		c-0.25-0.08-0.52-0.19-0.77-0.41c-0.27-0.21-0.48-0.52-0.67-0.95l-0.31-0.71c-0.19-0.44-0.27-0.85-0.23-1.25
		c0.02-0.39,0.15-0.73,0.4-1.04C419.19,514.09,419.54,513.83,419.98,513.64L419.98,513.64z M419.06,523.54l-1.49,0.58l-2.98-8.05
		l1.47-0.56L419.06,523.54z M420.76,523.73l-4.36,1.66l-0.54-1.43l4.36-1.66L420.76,523.73z M411.06,517.4l1.49-0.56l3.27,8.78
		l-1.49,0.56L411.06,517.4z M411.39,526.38l-1.51,0.48l-2.6-8.18l1.51-0.48L411.39,526.38z M413.07,526.65l-4.42,1.43l-0.46-1.45
		l4.42-1.43L413.07,526.65z M403.27,519.8c0.44-0.14,0.86-0.14,1.22-0.04c0.38,0.08,0.69,0.29,0.96,0.58
		c0.25,0.29,0.44,0.68,0.57,1.16l1.82,6.87l-1.55,0.41l-1.82-6.91c-0.06-0.21-0.15-0.37-0.31-0.46c-0.13-0.1-0.29-0.12-0.48-0.06
		c-0.19,0.04-0.34,0.15-0.42,0.29c-0.08,0.15-0.08,0.35-0.02,0.56l1.84,6.91l-1.55,0.42l-1.82-6.87c-0.11-0.48-0.13-0.91-0.06-1.29
		s0.25-0.71,0.54-0.98C402.47,520.11,402.83,519.91,403.27,519.8L403.27,519.8z M401.07,529.33l-1.55,0.35l-1.8-8.39l1.55-0.33
		L401.07,529.33z M402.74,529.77l-4.55,1l-0.33-1.51l4.55-0.98L402.74,529.77z M394.07,522.07l1.55-0.33l1.95,9.15l-1.55,0.35
		L394.07,522.07z"/>
	<path class="st14" d="M368.22,521.5h2.83l2.49-2.51l2.49,2.51h3.52v3.55l2.49,2.51l-2.49,2.51v3.53h-3.52l-2.49,2.51l-2.49-2.51
		h-3.52v-3.53l-2.49-2.51l2.49-2.51v-3.55H368.22z M371.34,522.88h-2.43v2.74l-1.91,1.93l1.91,1.93v2.72h2.72l1.91,1.93l1.91-1.93
		h2.72v-2.72l1.91-1.93l-1.91-1.93v-2.74h-2.72l-1.91-1.93l-1.91,1.93H371.34z"/>
	<path class="st17" d="M372.89,524.22c0.96,0,1.82,0.41,2.43,1.06c-0.46-0.33-1.01-0.52-1.61-0.52c-1.53,0-2.77,1.25-2.77,2.8
		c0,1.52,1.24,2.78,2.77,2.78c0.59,0,1.15-0.19,1.61-0.52c-0.61,0.66-1.47,1.08-2.43,1.08c-1.84,0-3.31-1.51-3.31-3.34
		C369.58,525.7,371.06,524.22,372.89,524.22L372.89,524.22z"/>
	<polygon class="st17" points="375.3,525.57 375.82,527.17 377.5,527.17 376.14,528.17 376.66,529.77 375.3,528.77 373.94,529.77 
		374.48,528.17 373.1,527.17 374.79,527.17 	"/>
</g>
<path class="st3" d="M779.39-0.01c-34.55,0-62.56,28.01-62.56,62.56c0,10.12,2.42,19.67,6.68,28.12H750
	c-6.96-7.29-11.25-17.17-11.25-28.05c0-22.44,18.19-40.64,40.64-40.64c22.44,0,40.64,18.19,40.64,40.64s-18.19,40.64-40.64,40.64
	H703.5c3.13-6.4,4.8-14.16,4.8-23.25c0-29.54-30.11-37.5-30.11-37.5l22.54-20.95V1.82H622.3v22h48.6l-36.62,35.14L643.36,69
	c13.14-12.35,28.41-9.85,37.15-1.4c8.74,8.44,8.65,38.11-16.91,38.11c-25.57,0-22.33-19.14-22.33-19.14h-22.38
	c0,23.08,16.17,38.55,43.97,38.55c0.26,0,0.51-0.01,0.76-0.01l-0.02,0.01h115.79c34.55,0,62.56-28.01,62.56-62.56
	S813.94-0.01,779.39-0.01z"/>
<g>
	<path class="st3" d="M763.28,78.84V67.32l-7.12-12.82h7.58l4.73,9.32l5.12-9.32h3.53l-6.94,12.46v11.89H763.28z"/>
	<path class="st3" d="M786.23,78.84h-6.83V54.5h6.83V78.84z"/>
	<path class="st3" d="M792.2,78.84V54.5h6.83v21.07h8.83v3.28H792.2z"/>
</g>
<g>
	<path class="st12" d="M731,80.81c-1.24,0.23-2.43,0.22-3.57-0.02c-1.14-0.24-2.2-0.72-3.19-1.44c-0.95-0.7-1.72-1.55-2.31-2.55
		c-0.59-1-1-2.16-1.24-3.47c-0.25-1.33-0.27-2.57-0.07-3.72c0.2-1.15,0.61-2.22,1.24-3.21c0.67-1.01,1.49-1.84,2.46-2.47
		c0.97-0.64,2.08-1.07,3.32-1.3c1.23-0.23,2.42-0.22,3.55,0.03c1.14,0.25,2.19,0.73,3.16,1.44c0.95,0.71,1.73,1.56,2.33,2.57
		c0.6,1,1.02,2.16,1.26,3.48c0.24,1.31,0.26,2.53,0.06,3.68c-0.2,1.14-0.62,2.22-1.27,3.22c-0.65,1.01-1.47,1.83-2.44,2.47
		C733.34,80.15,732.24,80.58,731,80.81z M730.21,76.51c1.49-0.27,2.63-0.95,3.42-2.02c0.79-1.07,1.06-2.3,0.81-3.69
		c-0.26-1.39-0.95-2.45-2.07-3.17c-1.12-0.72-2.43-0.94-3.92-0.67c-1.5,0.28-2.64,0.95-3.44,2.03c-0.8,1.07-1.07,2.31-0.81,3.7
		c0.26,1.39,0.95,2.44,2.08,3.16C727.4,76.57,728.71,76.79,730.21,76.51z"/>
	<path class="st12" d="M724.08,54.14c0.16-0.35,0.42-0.62,0.78-0.8c0.36-0.18,0.76-0.24,1.2-0.18c0.6,0.08,1.09,0.36,1.46,0.84
		c0.37,0.48,0.51,1.02,0.43,1.61c-0.09,0.71-0.4,1.23-0.93,1.58c-0.52,0.35-1.19,0.47-1.99,0.37c-1.28-0.17-2.33-0.74-3.18-1.72
		c-0.84-0.98-1.28-2.15-1.32-3.52l0.71,0.09c0.42,0.5,0.84,0.9,1.27,1.17s0.88,0.45,1.35,0.51L724.08,54.14z"/>
	<path class="st12" d="M737.14,53.13l-8.86-14.15l-3.47,7.84l-2.89-1.28l6.4-14.45l8.78,14.03l3.74-8.44l3,1.33L737.14,53.13z"/>
	<path class="st12" d="M745.13,36.63L733.4,24.36l4.53-4.33c1.61-1.54,3.09-2.44,4.41-2.7c1.33-0.26,2.49,0.14,3.49,1.18
		c0.52,0.54,0.84,1.15,0.95,1.83c0.11,0.68,0.02,1.39-0.28,2.14c1.12-0.55,2.14-0.77,3.07-0.64c0.93,0.13,1.78,0.59,2.55,1.4
		c1.12,1.18,1.56,2.44,1.31,3.8c-0.25,1.36-1.18,2.81-2.8,4.36L745.13,36.63z M742.71,24.74c0.56-0.53,0.87-1.03,0.94-1.5
		c0.07-0.47-0.1-0.92-0.51-1.35c-0.45-0.47-0.93-0.69-1.42-0.66c-0.5,0.03-1.02,0.31-1.57,0.84l-1.59,1.52l2.56,2.68L742.71,24.74z
		 M746.08,31.43l1.78-1.7c0.8-0.76,1.26-1.41,1.38-1.96c0.13-0.55-0.06-1.08-0.55-1.59c-0.5-0.53-1.06-0.74-1.66-0.65
		s-1.28,0.51-2.05,1.24l-1.76,1.69L746.08,31.43z"/>
	<path class="st12" d="M757.65,25.76l-6.64-15.63l10.45-4.44l1.22,2.88l-6.54,2.78l1.35,3.18l6.25-2.65l1.23,2.9l-6.25,2.65
		l1.59,3.73l6.73-2.86l1.24,2.93L757.65,25.76z"/>
	<path class="st12" d="M770.89,20.53l-0.56-16.97l4.26-0.14l0.25,7.56l5.51-7.75l4.77-0.16l-5.76,8.05l7.81,8.87l-5.52,0.18
		l-6.77-7.75l0.27,7.97L770.89,20.53z"/>
	<path class="st12" d="M788.1,21.16l4.42-16.4l4.23,1.14l-4.42,16.4L788.1,21.16z"/>
	<path class="st12" d="M796.25,21.95l1.93-3.24c0.69,1.34,1.34,2.36,1.93,3.08c0.59,0.72,1.24,1.29,1.95,1.71
		c0.72,0.43,1.32,0.64,1.82,0.64c0.5,0,0.88-0.22,1.13-0.65c0.21-0.35,0.26-0.7,0.16-1.04c-0.1-0.35-0.49-0.92-1.16-1.71
		c-1.64-1.97-2.63-3.57-2.96-4.79s-0.14-2.43,0.56-3.61c0.74-1.24,1.85-1.95,3.33-2.13c1.48-0.17,3.04,0.23,4.68,1.2
		c0.83,0.49,1.6,1.09,2.31,1.79c0.71,0.7,1.36,1.48,1.94,2.36l-1.78,2.99c-0.69-1.08-1.35-1.97-1.99-2.67
		c-0.64-0.7-1.28-1.24-1.92-1.62c-0.7-0.41-1.29-0.63-1.77-0.64c-0.48-0.02-0.84,0.16-1.06,0.54c-0.18,0.31-0.19,0.69-0.02,1.15
		c0.17,0.46,0.51,1.01,1.03,1.65c0.11,0.14,0.27,0.34,0.49,0.62c1.08,1.34,1.82,2.38,2.21,3.11c0.4,0.77,0.58,1.55,0.54,2.36
		c-0.04,0.8-0.31,1.62-0.79,2.44c-0.8,1.35-1.94,2.11-3.42,2.27c-1.48,0.17-3.12-0.29-4.93-1.37c-0.9-0.54-1.71-1.18-2.41-1.92
		S796.75,22.89,796.25,21.95z"/>
	<path class="st12" d="M810.73,34.36l10.79-8.65l-3.52-4.39l2.46-1.97l9.83,12.27l-2.46,1.97l-3.52-4.39l-10.79,8.65L810.73,34.36z"
		/>
	<path class="st12" d="M825.84,40.6c1.22-0.32,2.41-0.4,3.56-0.25c1.15,0.16,2.25,0.56,3.28,1.19c1,0.62,1.83,1.41,2.49,2.36
		c0.66,0.95,1.16,2.07,1.5,3.37c0.35,1.31,0.46,2.54,0.36,3.7c-0.11,1.16-0.44,2.26-1,3.29c-0.59,1.06-1.35,1.94-2.27,2.65
		c-0.92,0.71-1.99,1.22-3.21,1.55c-1.21,0.32-2.4,0.4-3.55,0.24c-1.15-0.16-2.24-0.56-3.26-1.19c-1-0.63-1.84-1.43-2.52-2.38
		c-0.67-0.96-1.18-2.08-1.52-3.37c-0.34-1.28-0.45-2.5-0.34-3.66s0.45-2.26,1.02-3.3c0.58-1.06,1.32-1.94,2.25-2.65
		C823.55,41.43,824.62,40.92,825.84,40.6z M826.95,44.83c-1.46,0.39-2.55,1.14-3.26,2.27c-0.71,1.13-0.89,2.38-0.53,3.74
		c0.36,1.37,1.13,2.37,2.31,3.01c1.18,0.63,2.49,0.76,3.96,0.37c1.47-0.39,2.56-1.15,3.28-2.28c0.71-1.13,0.89-2.38,0.53-3.75
		c-0.36-1.36-1.13-2.36-2.31-2.99C829.75,44.56,828.42,44.44,826.95,44.83z"/>
	<path class="st12" d="M831.85,69l-10.45-2.16l0.85-4.11l16.63,3.43l-0.75,3.65l-11.76,6.87l9.92,2.05l-0.85,4.11l-16.63-3.43
		l0.67-3.26L831.85,69z"/>
</g>
<g>
	<path class="st12" d="M660.89,121.65l0.13-14.86l3.28,0.03l4.72,6.02l4.84-5.94l3.28,0.03l-0.13,14.86l-3.65-0.03l0.08-9.2
		l-4.47,5.4l-4.33-5.48l-0.08,9.2L660.89,121.65z"/>
	<path class="st12" d="M694.96,106.86v8.51c0,2.08-0.62,3.71-1.85,4.87c-1.24,1.17-2.96,1.75-5.18,1.75c-2.21,0-3.93-0.58-5.17-1.75
		c-1.24-1.16-1.85-2.79-1.85-4.87v-8.51h3.74v8.36c0,1.18,0.28,2.09,0.85,2.71c0.57,0.63,1.39,0.94,2.46,0.94
		c1.07,0,1.88-0.31,2.44-0.93c0.56-0.62,0.84-1.53,0.84-2.72v-8.36H694.96z"/>
	<path class="st12" d="M698.64,120.54v-3.3c1.12,0.69,2.06,1.18,2.83,1.46c0.77,0.28,1.51,0.41,2.24,0.41
		c0.73,0,1.28-0.11,1.66-0.33c0.38-0.22,0.56-0.55,0.56-0.99c0-0.35-0.12-0.64-0.35-0.86c-0.23-0.22-0.78-0.47-1.64-0.77
		c-2.12-0.74-3.57-1.5-4.37-2.28c-0.8-0.78-1.2-1.76-1.2-2.97c0-1.27,0.52-2.3,1.56-3.09c1.04-0.79,2.39-1.19,4.05-1.19
		c0.84,0,1.69,0.1,2.54,0.31c0.85,0.21,1.69,0.51,2.52,0.9v3.05c-1-0.5-1.89-0.87-2.69-1.12c-0.79-0.24-1.52-0.36-2.17-0.36
		c-0.71,0-1.25,0.1-1.62,0.31c-0.37,0.21-0.56,0.5-0.56,0.88c0,0.31,0.17,0.6,0.5,0.88c0.33,0.27,0.84,0.53,1.51,0.78
		c0.14,0.06,0.36,0.14,0.65,0.24c1.42,0.52,2.43,0.97,3.05,1.35c0.64,0.4,1.13,0.91,1.46,1.53c0.33,0.62,0.49,1.35,0.49,2.19
		c0,1.37-0.52,2.45-1.56,3.24s-2.48,1.18-4.32,1.18c-0.92,0-1.81-0.12-2.67-0.36S699.43,121.03,698.64,120.54z"/>
	<path class="st12" d="M716.58,121.72v-12.1h-4.92v-2.76h13.76v2.76h-4.92v12.1H716.58z"/>
	<path class="st12" d="M725.02,121.72l6.48-14.86h4.29l5.79,14.86h-3.94l-1.06-2.89h-6.41l-1.19,2.89H725.02z M731.24,116.28h4.39
		l-2.08-5.65L731.24,116.28z"/>
	<path class="st12" d="M748.61,121.72c-1.93-0.5-3.41-1.39-4.46-2.68c-1.04-1.29-1.57-2.87-1.57-4.73c0-1.1,0.19-2.13,0.58-3.06
		c0.39-0.94,0.97-1.78,1.74-2.51c0.75-0.71,1.6-1.24,2.56-1.58c0.95-0.35,2.01-0.52,3.18-0.52c1.18,0,2.25,0.18,3.21,0.53
		c0.96,0.35,1.81,0.88,2.56,1.58c0.75,0.71,1.33,1.53,1.73,2.46c0.4,0.93,0.6,1.91,0.6,2.94c0,1.81-0.44,3.34-1.32,4.59
		c-0.88,1.26-2.17,2.19-3.85,2.81c0.59,0.34,1.21,0.6,1.85,0.79c0.64,0.18,1.24,0.28,1.81,0.28c0.23,0,0.46-0.02,0.69-0.07
		c0.23-0.05,0.45-0.12,0.67-0.21l0.3,0.38l-2.68,2.46h-0.2c-1.27,0-2.55-0.3-3.85-0.9C750.86,123.66,749.68,122.81,748.61,121.72z
		 M746.4,114.31c0,1.32,0.4,2.41,1.2,3.27c0.8,0.85,1.81,1.28,3.05,1.28c1.24,0,2.26-0.43,3.06-1.28c0.8-0.85,1.2-1.94,1.2-3.27
		c0-1.33-0.4-2.43-1.2-3.28c-0.8-0.86-1.82-1.29-3.06-1.29c-1.23,0-2.25,0.43-3.05,1.29C746.8,111.88,746.4,112.98,746.4,114.31z"/>
	<path class="st12" d="M762.11,121.72v-14.86h3.83v14.86H762.11z"/>
	<path class="st12" d="M770.02,121.72v-14.86h3.72v11.99h6.41v2.87H770.02z"/>
	<path class="st12" d="M784.4,121.65l-2.3-14.68l3.67-0.57l1.85,11.85l6.33-0.99l0.44,2.83L784.4,121.65z"/>
	<path class="st12" d="M798.92,118.53l-5.15-13.94l3.6-1.33l5.15,13.94L798.92,118.53z"/>
	<path class="st12" d="M808.46,114.71l-8.19-12.4l3.11-2.05l3.65,5.52l0.56-8.3l3.48-2.3l-0.61,8.64l9.89,3.04l-4.03,2.66l-8.6-2.69
		l3.85,5.82L808.46,114.71z"/>
</g>
</svg>
