<?xml version="1.0" encoding="UTF-8"?>
<!DOCTYPE svg PUBLIC "-//W3C//DTD SVG 1.1//EN" "http://www.w3.org/Graphics/SVG/1.1/DTD/svg11.dtd">
<!-- Creator: CorelDRAW 2020 (64-Bit) -->
<svg xmlns="http://www.w3.org/2000/svg" xml:space="preserve" width="215.9mm" height="279.4mm" version="1.1" style="shape-rendering:geometricPrecision; text-rendering:geometricPrecision; image-rendering:optimizeQuality; fill-rule:evenodd; clip-rule:evenodd"
viewBox="0 0 21590 27940"
 xmlns:xlink="http://www.w3.org/1999/xlink"
 xmlns:xodm="http://www.corel.com/coreldraw/odm/2003">
 <defs>
  <style type="text/css">
   <![CDATA[
    .fil1 {fill:#FEFEFE}
    .fil0 {fill:#FEFEFE;fill-rule:nonzero}
   ]]>
  </style>
 </defs>
 <g id="Слой_x0020_1">
  <metadata id="CorelCorpID_0Corel-Layer"/>
  <path class="fil0" d="M10795 7182.2c1874.39,0 3571.32,759.73 4799.71,1988.13 1228.35,1228.35 1988.13,2925.32 1988.13,4799.71 0,1874.39 -759.78,3571.32 -1988.13,4799.71 -1228.35,1228.35 -2925.32,1988.13 -4799.71,1988.13 -1874.39,0 -3571.36,-759.78 -4799.71,-1988.13 -1228.35,-1228.35 -1988.13,-2925.32 -1988.13,-4799.71 0,-1874.39 759.73,-3571.36 1988.13,-4799.71 1228.35,-1228.35 2925.32,-1988.13 4799.71,-1988.13zm4628.36 2159.44c-1184.49,-1184.49 -2820.88,-1917.11 -4628.36,-1917.11 -1807.49,0 -3443.88,732.62 -4628.36,1917.11 -1184.49,1184.49 -1917.11,2820.88 -1917.11,4628.36 0,1807.49 732.62,3443.88 1917.11,4628.36 1184.49,1184.49 2820.88,1917.11 4628.36,1917.11 1807.49,0 3443.88,-732.62 4628.36,-1917.11 1184.49,-1184.49 1917.11,-2820.88 1917.11,-4628.36 0,-1807.49 -732.62,-3443.88 -1917.11,-4628.36z"/>
  <path class="fil0" d="M10795 8407.58c1536.01,0 2926.6,622.58 3933.2,1629.18 1006.6,1006.6 1629.22,2397.18 1629.22,3933.2 0,1536.01 -622.62,2926.6 -1629.22,3933.2 -1006.6,1006.6 -2397.18,1629.18 -3933.2,1629.18 -1536.01,0 -2926.6,-622.58 -3933.2,-1629.18 -1006.6,-1006.6 -1629.22,-2397.18 -1629.22,-3933.2 0,-1536.01 622.62,-2926.6 1629.22,-3933.2 1006.6,-1006.6 2397.18,-1629.18 3933.2,-1629.18zm3818.99 1743.43c-977.37,-977.37 -2327.57,-1581.87 -3818.99,-1581.87 -1491.43,0 -2841.62,604.5 -3818.99,1581.87 -977.37,977.37 -1581.87,2327.57 -1581.87,3818.99 0,1491.43 604.5,2841.62 1581.87,3818.99 977.37,977.37 2327.57,1581.87 3818.99,1581.87 1491.43,0 2841.62,-604.5 3818.99,-1581.87 977.37,-977.37 1581.87,-2327.57 1581.87,-3818.99 0,-1491.43 -604.5,-2841.62 -1581.87,-3818.99z"/>
  <path class="fil0" d="M16065.58 14252.38l0 -564.71c0,-32.45 -25.12,-59.39 -57.53,-61.64l-509.81 -35.51c-12.68,-159.52 -33.3,-316.78 -61.47,-471.42l482.7 -166.05c30.72,-10.56 47.98,-43.06 39.58,-74.41l-146.15 -545.49c-8.4,-31.35 -39.62,-50.87 -71.48,-44.67l-500.73 97.49c-53.5,-150.1 -114.29,-296.76 -182.13,-439.39l423.1 -285.18c26.94,-18.16 35.21,-54.05 18.96,-82.13l-282.33 -489.07c-16.25,-28.13 -51.46,-38.86 -80.65,-24.65l-459.2 224.17c-90.28,-130.54 -186.92,-256.33 -289.55,-376.85l335.58 -385.81c21.3,-24.52 20.02,-61.3 -2.93,-84.25l-399.3 -399.3c-22.95,-22.95 -59.78,-24.22 -84.25,-2.93l-385.81 335.58c-120.57,-102.62 -246.32,-199.31 -376.85,-289.55l224.17 -459.2c14.25,-29.19 3.48,-64.4 -24.65,-80.65l-489.07 -282.38c-28.13,-16.25 -64.02,-7.93 -82.13,18.96l-285.18 423.1c-142.67,-67.84 -289.29,-128.63 -439.43,-182.13l97.49 -500.73c6.19,-31.86 -13.32,-63.08 -44.67,-71.48l-545.45 -146.15c-31.35,-8.4 -63.89,8.91 -74.41,39.58l-166.05 482.7c-154.64,-28.17 -311.9,-48.79 -471.42,-61.47l-35.51 -509.81c-2.25,-32.37 -29.19,-57.53 -61.64,-57.53l-564.71 0c-32.45,0 -59.39,25.12 -61.64,57.53l-35.51 509.81c-159.52,12.68 -316.78,33.3 -471.42,61.47l-166.05 -482.7c-10.56,-30.72 -43.06,-47.98 -74.45,-39.58l-545.45 146.15c-31.35,8.4 -50.87,39.62 -44.67,71.48l97.49 500.73c-150.1,53.5 -296.76,114.29 -439.43,182.13l-285.18 -423.1c-18.16,-26.94 -54.05,-35.21 -82.13,-18.96l-489.07 282.38c-28.13,16.25 -38.86,51.46 -24.65,80.65l224.17 459.2c-130.54,90.28 -256.33,186.92 -376.85,289.55l-385.81 -335.58c-24.52,-21.3 -61.3,-20.02 -84.25,2.93l-399.3 399.3c-22.95,22.95 -24.22,59.78 -2.93,84.25l335.58 385.81c-102.62,120.57 -199.31,246.32 -289.55,376.85l-459.2 -224.17c-29.19,-14.25 -64.4,-3.48 -80.65,24.65l-282.33 489.07c-16.25,28.13 -7.93,64.02 18.96,82.13l423.1 285.18c-67.84,142.67 -128.63,289.29 -182.13,439.39l-500.73 -97.49c-31.86,-6.19 -63.08,13.32 -71.48,44.67l-146.15 545.49c-8.4,31.35 8.91,63.89 39.58,74.41l482.7 166.05c-28.17,154.64 -48.79,311.9 -61.47,471.42l-509.81 35.51c-32.37,2.25 -57.53,29.19 -57.53,61.64l0 564.71c0,32.45 25.12,59.39 57.53,61.64l509.81 35.51c12.68,159.52 33.3,316.78 61.47,471.42l-482.7 166.05c-30.72,10.56 -47.98,43.06 -39.58,74.45l146.15 545.45c8.4,31.35 39.62,50.87 71.48,44.67l500.73 -97.49c53.5,150.14 114.29,296.76 182.13,439.43l-423.1 285.18c-26.94,18.16 -35.21,54.05 -18.96,82.13l282.33 489.07c16.25,28.13 51.46,38.86 80.65,24.65l459.2 -224.17c90.28,130.54 186.92,256.33 289.55,376.85l-335.58 385.81c-21.3,24.52 -20.02,61.3 2.93,84.25l399.3 399.3c22.95,22.95 59.78,24.22 84.25,2.93l385.81 -335.58c120.57,102.62 246.32,199.31 376.85,289.55l-224.17 459.2c-14.25,29.19 -3.48,64.4 24.65,80.65l489.07 282.33c28.13,16.25 64.02,7.93 82.13,-18.96l285.18 -423.1c142.67,67.84 289.29,128.63 439.43,182.13l-97.49 500.73c-6.19,31.86 13.32,63.08 44.67,71.48l545.45 146.15c31.35,8.4 63.89,-8.91 74.45,-39.58l166.05 -482.7c154.64,28.17 311.9,48.79 471.42,61.47l35.51 509.81c2.25,32.37 29.19,57.53 61.64,57.53l564.71 0c32.45,0 59.39,-25.12 61.64,-57.53l35.51 -509.81c159.52,-12.68 316.78,-33.3 471.42,-61.47l166.05 482.7c10.56,30.72 43.06,47.98 74.45,39.58l545.49 -146.15c31.35,-8.4 50.87,-39.62 44.67,-71.48l-97.49 -500.73c150.14,-53.5 296.76,-114.29 439.43,-182.13l285.18 423.1c18.16,26.94 54.05,35.21 82.13,18.96l489.07 -282.33c28.13,-16.25 38.86,-51.46 24.65,-80.65l-224.17 -459.2c130.54,-90.28 256.33,-186.92 376.85,-289.55l385.81 335.58c24.52,21.3 61.3,20.02 84.25,-2.93l399.3 -399.3c22.95,-22.95 24.22,-59.78 2.93,-84.25l-335.58 -385.81c102.62,-120.57 199.31,-246.32 289.55,-376.85l459.2 224.17c29.19,14.25 64.4,3.48 80.65,-24.65l282.33 -489.07c16.25,-28.13 7.93,-64.02 -18.96,-82.13l-423.1 -285.18c67.84,-142.67 128.63,-289.29 182.13,-439.43l500.73 97.49c31.86,6.19 63.08,-13.32 71.48,-44.67l146.15 -545.45c8.4,-31.35 -8.91,-63.89 -39.58,-74.45l-482.7 -166.05c28.17,-154.64 48.79,-311.9 61.47,-471.42l509.81 -35.51c32.37,-2.25 57.53,-29.19 57.53,-61.64l-0.08 0zm-5234.82 3830.48l0 0c-2299.91,19.56 -4168.19,-1848.72 -4148.63,-4148.63 19.01,-2233.09 1843.97,-4058.05 4077.06,-4077.06 2299.91,-19.56 4168.23,1848.72 4148.63,4148.63 -19.01,2233.09 -1843.97,4058.05 -4077.06,4077.06z"/>
  <g id="_1826070615296">
   <g>
    <g>
     <path class="fil1" d="M7947.65 16038.61c671.92,-13.28 2055.29,285.01 2844.12,1004.14 -285.64,-88.41 -665.34,-513.76 -2796.48,-375.54l-47.64 -628.6z"/>
     <path class="fil1" d="M13642.35 16038.61c-671.92,-13.28 -2058,285.01 -2846.84,1004.14 285.64,-88.41 668.06,-513.76 2799.2,-375.54l47.64 -628.6z"/>
    </g>
    <g>
     <path class="fil1" d="M7606.73 15135.31c1102.39,48.92 2599.55,852.47 3184.32,1603.98 -208.52,-148.1 -1667.49,-1155.89 -3201.38,-980.34l17.05 -623.64 0.01 0z"/>
     <path class="fil1" d="M13983.27 15135.31c-1102.39,48.92 -2599.55,852.47 -3184.32,1603.98 208.52,-148.1 1667.49,-1155.89 3201.38,-980.34l-17.05 -623.64 -0.01 0z"/>
    </g>
    <g>
     <path class="fil1" d="M7138.92 14095.11c1102.39,48.92 2704.08,1011.73 3652.14,2353.02 -1382.35,-1126.62 -2205,-1509.24 -3669.23,-1463.13l17.05 -889.89 0.04 0z"/>
     <path class="fil1" d="M14451.12 14095.11c-1102.39,48.92 -2704.08,1011.73 -3652.14,2353.02 1382.35,-1126.62 2205,-1509.24 3669.23,-1463.13l-17.05 -889.89 -0.04 0z"/>
    </g>
   </g>
   <g>
    <circle class="fil1" cx="10800.43" cy="14888.7" r="317.42"/>
    <circle class="fil1" cx="11926.07" cy="13892.24" r="329.17"/>
    <circle class="fil1" cx="8901.31" cy="13710.49" r="366.8"/>
    <circle class="fil1" cx="10964.99" cy="12633.17" r="517.28"/>
    <circle class="fil1" cx="10320.65" cy="13758.56" r="225.74"/>
    <circle class="fil1" cx="8592.2" cy="12516.04" r="225.74"/>
    <circle class="fil1" cx="13039.41" cy="13549.45" r="225.74"/>
    <circle class="fil1" cx="11064.95" cy="11104.37" r="225.74"/>
    <circle class="fil1" cx="12902.55" cy="11728.6" r="258.66"/>
    <circle class="fil1" cx="12288.29" cy="12410.61" r="141.06"/>
    <circle class="fil1" cx="9646.45" cy="12394.45" r="141.06"/>
    <circle class="fil1" cx="9841.85" cy="11233.97" r="178.69"/>
    <polygon class="fil0" points="8602.85,12438.74 9796.16,11248.48 9845.76,11298.37 8652.45,12488.59 "/>
    <polygon class="fil0" points="9882.79,11192.14 11128.37,11090.66 11133.89,11160.92 9888.31,11262.4 "/>
    <path class="fil0" d="M11089.34 11096.6l1875.53 615.41 -26.09 28.98 145.9 1940.91 -840.72 -1274.68 596.23 -661.99 -1772.66 -581.64 21.76 -66.95 0.05 -0.04zm1784.24 716.76l-540.95 600.64 661.48 1002.99 -120.53 -1603.64 0 0.01z"/>
    <path class="fil0" d="M11136.47 11116.71l1221.99 1317.78 -1431.23 240.72 86.33 -1459.9 -1352.1 1212.83 -1065.27 122.86 -7.98 -70 1043.26 -120.32 1462.49 -1311.84 -6.7 113.7 49.3 -45.86 -0.09 0.03zm1081.69 1269.97l-1131.2 -1219.91 -84.21 1424.35 1215.46 -204.44 -0.05 0z"/>
    <polygon class="fil0" points="9611.74,12388.68 9807.15,11228.16 9876.6,11239.74 9681.19,12400.22 "/>
    <polygon class="fil0" points="8632.46,12537.59 8906.19,13549.45 8838.14,13567.65 8564.42,12555.79 "/>
    <polygon class="fil0" points="8933.59,13610.79 9647.76,12319.36 10343.35,13685.16 10788.25,12881.77 10849.68,12915.93 10340.68,13835.18 9645.17,12469.54 8995.28,13644.69 "/>
    <polygon class="fil0" points="9652.64,12359.87 10680.62,12544.42 10668.24,12613.57 9640.25,12429.02 "/>
    <polygon class="fil0" points="8968.21,13678.76 10401.39,13709.47 10400.03,13779.77 8966.81,13749.01 "/>
    <polygon class="fil0" points="9047.63,13748.72 10769.38,14827.82 10925.45,12588.24 11908.89,13814.56 12254.14,12402.34 12322.49,12418.84 11943.26,13969.87 10983.19,12772.7 10831.48,14949.58 9010.42,13808.19 "/>
    <polygon class="fil0" points="13049.04,13583.18 11949.49,13900.51 10787.32,14947.88 10288.28,13772.35 10353.02,13744.77 10813.54,14829.47 11913.98,13837.64 13029.78,13515.68 "/>
   </g>
  </g>
  <path class="fil0" d="M9736.3 20011.34l-84.55 -14.76c-6.62,-1.15 -12.52,-0.68 -17.86,1.61 -5.35,2.21 -9.97,6.02 -13.58,11.5 -3.61,5.52 -6.19,12.22 -7.59,20.32l-9.84 56.25c-1.48,8.53 -1.53,16.16 0,22.7 1.4,6.62 4.28,11.96 8.57,15.95 4.28,3.99 9.72,6.53 16.59,7.76l84.55 14.76 -13.66 78.27 -86.88 -15.19c-23.59,-4.12 -43.19,-11.84 -58.59,-23.08 -15.48,-11.28 -26.18,-25.75 -32.12,-43.36 -5.94,-17.69 -6.92,-37.76 -2.97,-60.33l14.08 -80.61c3.86,-22.1 11.54,-40.3 23.16,-54.39 11.71,-14.13 26.6,-23.8 44.97,-29.06 18.28,-5.35 39.2,-5.9 62.58,-1.78l86.93 15.19 -13.66 78.27 -0.13 -0.02zm0.6 220.99l-81.5 -14.25 83.53 -478.08 81.5 14.25 -83.53 478.08z"/>
  <path id="_1" class="fil0" d="M9427.62 20171.67l-80.73 -18.12 106.23 -473.54 80.73 18.12 -106.23 473.54zm52.74 -402.74l-174.62 -39.16 17.69 -78.87 174.62 39.16 -17.69 78.87zm-43.91 195.75l-158.24 -35.51 17.61 -78.53 158.24 35.51 -17.61 78.53zm-44.63 198.97l-174.62 -39.16 17.65 -78.74 174.62 39.16 -17.65 78.74z"/>
  <path id="_2" class="fil0" d="M9208.67 19698.68l-59.9 -16.46c-10.65,-2.93 -19.81,-1.91 -27.41,2.97 -7.64,5.01 -12.98,13.32 -16.29,25.2l-66.05 240.12c-3.22,11.75 -2.88,21.68 1.1,29.87 4.03,8.19 11.37,13.66 22.06,16.59l59.9 16.46 -21.08 76.62 -67.92 -18.71c-22.32,-6.11 -40.3,-15.44 -53.88,-28.04 -13.66,-12.73 -22.44,-28.04 -26.47,-46.03 -3.99,-18.12 -3.01,-38.05 3.01,-59.95l71.02 -258.15c6.02,-21.85 15.4,-39.62 28.08,-53.03 12.73,-13.53 28.21,-22.15 46.41,-26.01 18.33,-3.82 38.56,-2.76 60.88,3.39l67.58 18.58 -21.08 76.58 0.04 0zm-54.6 405.96l-79.8 -21.93 128.72 -467.94 79.8 21.93 -128.72 467.94z"/>
  <path id="_3" class="fil0" d="M8780.06 19991.66l-55.24 -18.07 40.94 -497.25 78.1 25.58 -39.37 321.83 158.67 -282.8 78.02 25.54 -261.04 425.22 -0.08 -0.05zm138.64 -304.48l-125.66 -41.11 24.05 -73.56 125.66 41.11 -24.1 73.56 0.05 0z"/>
  <path id="_4" class="fil0" d="M8438.46 19627.49l51.76 -135.67c9.08,-23.76 21.3,-42.38 36.61,-56.04 15.36,-13.66 33.13,-21.89 53.37,-24.52 20.24,-2.5 42.21,0.59 65.63,9.55 23.97,9.12 42.72,21.3 56.47,36.53 13.7,15.23 21.98,32.92 24.69,52.99 2.67,20.15 -0.42,41.66 -9.25,64.78l-89.68 235.16c-9.25,24.31 -21.64,43.61 -37.16,57.78 -15.53,14.21 -33.56,22.7 -53.92,25.54 -20.36,2.84 -42.25,-0.25 -65.76,-9.25 -23.12,-8.82 -41.24,-20.83 -54.3,-36.1 -13.11,-15.23 -20.83,-33.09 -23.04,-53.45 -2.25,-20.36 1.15,-42.38 10.22,-66.14l13.32 -34.96 79.55 30.33 -13.32 34.92c-2.8,7.34 -3.9,14.13 -3.48,20.28 0.51,6.32 2.5,11.71 6.07,16.33 3.65,4.54 8.53,8.02 14.81,10.44 6.83,2.59 13.45,3.44 19.68,2.12 6.28,-1.15 11.92,-4.12 16.84,-8.95 4.96,-4.67 8.87,-11.12 11.88,-19.01l89.68 -235.16c2.46,-6.49 3.22,-12.68 2.33,-18.62 -1.02,-5.98 -3.65,-11.28 -8.1,-15.91 -4.41,-4.75 -10.22,-8.4 -17.56,-11.2 -7.47,-2.84 -14.47,-3.95 -21.04,-3.39 -6.49,0.72 -12.26,3.01 -17.1,7.04 -4.96,4.07 -8.74,9.8 -11.54,17.05l-23.67 62.11 38.01 14.51 -28.3 74.24 -113.82 -43.44 0.12 0.11z"/>
  <path id="_5" class="fil0" d="M8378.94 19307.19c23.8,10.44 42.42,23.55 55.83,39.24 13.41,15.7 21.25,33.3 23.33,52.78 2.12,19.6 -1.61,40.35 -11.24,62.36l-107.12 244.66c-9.63,22.02 -22.36,38.86 -38.18,50.57 -15.78,11.88 -34.02,18.07 -54.64,18.75 -20.58,0.72 -42.85,-4.2 -66.65,-14.64 -23.93,-10.48 -42.51,-23.46 -55.96,-39.03 -13.45,-15.61 -21.3,-33.22 -23.38,-52.9 -2.12,-19.6 1.61,-40.35 11.28,-62.36l107.12 -244.66c9.63,-22.02 22.36,-38.86 38.18,-50.57 15.78,-11.62 34.07,-17.82 54.68,-18.62 20.62,-0.81 42.81,3.95 66.73,14.38l0.02 0.04zm-33.18 75.81c-7.72,-3.39 -15.1,-4.75 -22.06,-4.2 -7,0.68 -13.11,3.22 -18.5,7.59 -5.35,4.5 -9.8,10.78 -13.36,18.92l-98.85 225.74c-3.48,7.93 -4.96,15.36 -4.67,22.36 0.42,7.04 2.67,13.24 7,18.71 4.33,5.52 10.31,9.97 18.03,13.36 7.72,3.39 15.1,4.75 21.85,4.12 6.87,-0.59 12.94,-3.14 18.28,-7.68 5.43,-4.45 9.76,-10.65 13.24,-18.58l98.85 -225.74c3.56,-8.15 5.22,-15.61 4.79,-22.65 -0.34,-6.87 -2.63,-13.11 -6.79,-18.67 -4.07,-5.39 -10.1,-9.88 -17.82,-13.28l0.01 0z"/>
  <path id="_6" class="fil0" d="M7889.62 19365.18l64.61 -130.03c11.33,-22.78 25.28,-40.13 41.87,-52.27 16.59,-12.09 35.08,-18.58 55.49,-19.26 20.36,-0.55 41.96,4.71 64.4,15.82 22.95,11.41 40.47,25.33 52.65,41.83 12.18,16.5 18.71,34.87 19.43,55.11 0.72,20.32 -4.41,41.45 -15.44,63.59l-112 225.4c-11.54,23.29 -25.71,41.32 -42.59,53.92 -16.84,12.64 -35.59,19.35 -56.13,20.24 -20.53,0.89 -42,-4.33 -64.57,-15.53 -22.15,-11.03 -39.03,-24.73 -50.57,-41.15 -11.58,-16.42 -17.52,-34.92 -17.78,-55.41 -0.25,-20.49 5.26,-42.04 16.55,-64.82l16.63 -33.47 76.24 37.88 -16.63 33.47c-3.52,7.04 -5.26,13.66 -5.39,19.85 -0.08,6.32 1.36,11.88 4.45,16.88 3.18,4.88 7.72,8.78 13.75,11.79 6.53,3.27 13.07,4.71 19.39,4.03 6.36,-0.51 12.26,-2.93 17.61,-7.3 5.39,-4.2 9.93,-10.22 13.66,-17.78l112 -225.4c3.1,-6.24 4.45,-12.3 4.16,-18.28 -0.42,-6.07 -2.55,-11.58 -6.53,-16.59 -3.95,-5.13 -9.33,-9.38 -16.42,-12.85 -7.13,-3.56 -14.04,-5.3 -20.62,-5.39 -6.53,0.08 -12.47,1.82 -17.69,5.35 -5.35,3.56 -9.67,8.91 -13.11,15.87l-29.57 59.52 36.44 18.12 -35.34 71.15 -109.12 -54.22 0.17 -0.07z"/>
  <polygon id="_7" class="fil0" points="7895.47,19064.27 7967.68,19104.65 7730.78,19528.22 7658.57,19487.83 "/>
  <path id="_8" class="fil0" d="M7674.02 19194.72l-218.4 171.27 -79.25 -49.55 375.71 -246.44 -78.02 124.77 -0.04 -0.05zm-82.65 256.2l-70.17 -43.87 257.35 -411.47 70.17 43.87 -257.35 411.47zm35.38 -237.75l-74.54 12.13 68.47 -328.49 76.92 48.11 -70.85 268.25z"/>
  <polygon id="_9" class="fil0" points="7425.49,18763.26 7493.42,18810.57 7216.09,19208.85 7148.17,19161.59 "/>
  <polygon id="_10" class="fil0" points="7084.36,19118.53 7032.86,19078.73 7140.53,18752.74 7155.59,18747.95 6949.66,19014.5 6889.97,18968.34 7186.48,18584.57 7238.53,18624.79 7141.25,18935.21 7126.28,18940.47 7320.96,18688.47 7380.86,18734.76 "/>
  <polygon id="_11" class="fil0" points="6823.49,18917.31 6774.03,18874.97 6897.82,18554.75 6913.14,18550.72 6694.18,18806.66 6636.83,18757.62 6952.12,18389.08 7002.1,18431.85 6889.46,18737.05 6874.23,18741.54 7081.26,18499.56 7138.75,18548.77 "/>
  <path id="_12" class="fil0" d="M6820.31 18261.13c18.88,17.86 31.95,36.53 39.24,55.83 7.3,19.3 8.74,38.56 4.12,57.53 -4.62,19.18 -15.19,37.42 -31.69,54.9l-183.57 193.96c-16.55,17.48 -34.19,29.02 -53.03,34.66 -18.88,5.85 -38.14,5.47 -57.74,-0.81 -19.6,-6.32 -38.9,-18.45 -57.74,-36.32 -18.96,-17.95 -32.03,-36.44 -39.45,-55.66 -7.38,-19.22 -8.78,-38.48 -4.07,-57.7 4.62,-19.13 15.19,-37.42 31.69,-54.9l183.57 -193.96c16.55,-17.48 34.19,-29.02 53.03,-34.7 18.79,-5.6 38.1,-5.26 57.74,0.98 19.68,6.24 38.99,18.2 57.91,36.15l-0.01 0.04zm-56.89 60.12c-6.11,-5.81 -12.6,-9.59 -19.35,-11.41 -6.83,-1.74 -13.41,-1.4 -19.98,0.89 -6.53,2.42 -12.85,6.79 -18.96,13.24l-169.4 178.99c-5.94,6.28 -9.88,12.77 -11.96,19.43 -1.99,6.75 -1.95,13.36 0.21,19.98 2.21,6.66 6.32,12.9 12.43,18.71 6.11,5.77 12.6,9.59 19.18,11.24 6.66,1.74 13.28,1.4 19.81,-1.02 6.62,-2.38 12.81,-6.7 18.75,-13.02l169.4 -178.99c6.11,-6.45 10.18,-12.94 12.18,-19.68 1.99,-6.58 1.95,-13.19 -0.04,-19.81 -2.04,-6.49 -6.15,-12.73 -12.26,-18.54l-0.01 -0.01z"/>
  <polygon id="_13" class="fil0" points="6353.86,18495.02 6293.23,18431.55 6503.44,18166.52 6229.04,18364.39 6168.42,18300.93 6581.12,18030.34 6642.94,18095 "/>
  <path id="_14" class="fil0" d="M6090.44 18214.59l-37.97 -43.99 291.71 -404.81 53.71 62.19 -199.82 255.35 281.82 -160.36 53.62 62.11 -443.04 229.52 -0.03 -0.01zm275.89 -189.21l-86.42 -100.08 58.59 -50.57 86.42 100.08 -58.59 50.57z"/>
  <path id="_15" class="fil0" d="M5947.81 17986.35l-50.82 -65.29 350.85 -273.17 50.82 65.29 -350.85 273.17zm17.14 88.2l-149.29 -191.76 62.7 -48.83 149.29 191.76 -62.66 48.83 -0.04 0z"/>
  <path id="_16" class="fil0" d="M6116.11 17470.22c14.59,20.83 23.16,41.41 25.88,61.77 2.72,20.36 -0.47,39.71 -9.55,57.91 -9.16,18.12 -23.97,34.49 -44.55,48.87l-21.38 14.98 -47.81 -67.12 21.38 -14.98c9.97,-7 15.78,-15.4 17.69,-25.03 1.78,-9.76 -0.89,-19.56 -7.89,-29.57 -6.92,-9.88 -15.02,-15.48 -24.52,-16.93 -9.33,-1.4 -18.96,1.32 -28.76,8.19l-34.75 24.31c-7.38,5.18 -12.18,11.58 -14.72,19.52 -2.55,7.89 -3.44,16.33 -2.8,25.62 0.59,9.21 1.99,21.3 4.37,36.19 0.13,1.02 0.21,1.91 0.3,2.84 0.08,0.93 0.17,1.82 0.34,2.84l0.89 4.67c2.84,19.98 3.86,38.1 2.97,54.13 -0.72,16.08 -5.35,32.28 -13.87,48.53 -8.4,16.21 -22.44,31.14 -41.96,44.8l-20.53 14.38c-20.15,14.13 -40.22,22.44 -60.12,24.86 -19.98,2.46 -38.9,-1.15 -56.89,-10.52 -17.99,-9.38 -34.32,-24.52 -48.83,-45.27 -14.17,-20.28 -22.53,-40.3 -25.16,-60.33 -2.55,-19.94 0.76,-38.82 10.1,-56.72 9.38,-17.99 24.35,-34.15 44.88,-48.58l22.4 -15.7 48.11 66.9 -22.7 15.91c-10.18,7.13 -16.38,15.36 -18.41,24.56 -2.12,9.29 0.13,18.41 6.66,27.75 6.87,9.8 14.76,15.7 23.72,17.35 9.04,1.74 18.03,-0.51 27.15,-6.92l26.52 -18.58c7.47,-5.22 12.56,-11.71 15.32,-19.47 2.76,-7.76 3.86,-15.91 3.48,-24.44 -0.47,-8.61 -1.74,-19.94 -3.78,-34.24 -0.51,-2.72 -1.02,-5.43 -1.32,-8.23 -0.38,-2.93 -0.85,-5.81 -1.23,-8.74 -0.08,-0.51 -0.17,-1.02 -0.08,-1.32 0,-0.42 -0.08,-0.89 -0.17,-1.4 -2.59,-20.75 -3.78,-38.14 -3.31,-52.22 0.25,-14.13 4.33,-28.76 12.18,-44.04 7.76,-15.15 21.34,-29.53 40.64,-43.06l33.13 -23.21c20.53,-14.38 40.85,-22.91 60.92,-25.45 20.11,-2.5 39.2,0.93 57.27,10.27 18.07,9.33 34.36,24.22 48.83,44.84l-0.04 0.08z"/>
  <polygon id="_17" class="fil0" points="5969.11,17269.12 6016.58,17336.92 5619.07,17615.35 5571.6,17547.6 "/>
  <polygon id="_18" class="fil0" points="5703.53,17200.1 5861.01,17101.29 5904.97,17171.38 5747.53,17270.18 5542.15,17506.28 5496.38,17433.31 5642.49,17288.09 5449.16,17358.09 5403.43,17285.2 "/>
  <path id="_19" class="fil0" d="M5348.53 17194.03l-28.38 -50.74 367.05 -337.95 40.09 71.74 -247.04 210 308.3 -100.46 40.05 71.61 -480.12 135.8 0.05 0zm308.25 -129.94l-64.53 -115.39 67.54 -37.8 64.53 115.39 -67.54 37.8z"/>
  <path id="_20" class="fil0" d="M5232.03 16990.44l-36.7 -74.16 434.98 -215.26 36.7 74.16 -434.98 215.26zm348.73 -210.47l-77.59 -156.8 71.19 -35.25 77.59 156.8 -71.19 35.21 0 0.04z"/>
  <path id="_21" class="fil0" d="M5066.24 16653.8l-23.16 -53.33 399.13 -299.43 32.71 75.39 -266.85 184.16 316.82 -69.07 32.67 75.3 -491.32 86.97 0 0.01zm319.75 -98.38l-52.65 -121.29 71.02 -30.8 52.65 121.29 -71.02 30.8z"/>
  <path id="_22" class="fil0" d="M5144.72 16334.86l-30.76 -81.84c-2.55,-6.75 -5.85,-12.05 -10.18,-16.04 -4.16,-3.95 -9.08,-6.32 -14.51,-7.21 -5.3,-0.81 -11.24,-0.04 -17.39,2.29l-50.7 19.05c-6.83,2.59 -12.3,6.11 -16.42,10.44 -4.03,4.45 -6.36,9.59 -7.21,15.4 -0.72,5.85 0.17,12.09 2.72,18.84l30.76 81.84 -74.37 27.96 -29.02 -77.13c-9.25,-24.65 -13.19,-47.05 -11.71,-67.45 1.57,-20.45 8.27,-38.18 20.32,-53.2 12.13,-15.02 28.98,-26.6 50.65,-34.75l53.12 -19.98c22.27,-8.4 43.1,-10.99 62.45,-7.76 19.43,3.18 36.61,11.92 51.55,26.3 14.89,14.38 26.94,33.73 36.1,58.12l29.02 77.13 -74.37 27.96 -0.05 0.03zm-175.04 105.38l-28.51 -75.85 454.62 -170.93 28.51 75.85 -454.62 170.93zm211.61 -191.12l-41.07 -65.55 193.37 -155.48 31.27 83.11 -183.53 137.92 -0.04 0z"/>
  <polygon id="_23" class="fil0" points="5242.81,16021.81 5213.66,15944.34 5325.49,15902.3 5432.7,15950.41 "/>
  <path id="_24" class="fil0" d="M4997.93 15735.49l-276.52 -23.88 -24.1 -90.32 442.78 76.28 -142.16 37.93 0 -0.01zm-235.24 130.83l-21.34 -79.97 468.92 -125.11 21.34 79.97 -468.92 125.11zm188.11 -149.63l-62.75 -42 274.23 -193.37 23.38 87.65 -234.86 147.72z"/>
  <path id="_25" class="fil0" d="M4658.67 15471.69l-12.22 -56.85 450.16 -215.18 17.27 80.35 -297.86 128.12 324.21 -5.43 17.22 80.22 -498.82 -11.24 0.04 0.01zm332.86 -33.64l-27.79 -129.27 75.68 -16.29 27.79 129.27 -75.68 16.29z"/>
  <path id="_26" class="fil0" d="M5076.76 15076.81c4.12,25.07 2.93,47.35 -3.44,66.86 -6.36,19.52 -17.61,35.59 -33.68,48.02 -16.12,12.35 -36.57,20.7 -61.3,24.73l-25.75 4.24 -14.04 -81.2 25.75 -4.24c12.05,-1.99 20.92,-7 26.77,-14.89 5.85,-8.02 7.68,-18.03 5.68,-30.04 -1.95,-11.92 -6.83,-20.49 -14.76,-25.88 -7.81,-5.3 -17.69,-7.04 -29.48,-5.09l-41.83 6.87c-8.87,1.44 -16.04,5.18 -21.72,11.2 -5.73,6.02 -10.18,13.24 -13.62,21.89 -3.44,8.53 -7.42,20.02 -11.75,34.49 -0.3,0.98 -0.64,1.82 -0.93,2.72 -0.34,0.85 -0.64,1.7 -0.93,2.67l-1.23 4.58c-6.07,19.26 -13.02,35.98 -20.75,50.06 -7.59,14.17 -18.79,26.77 -33.52,37.76 -14.59,10.95 -33.73,18.37 -57.23,22.23l-24.73 4.07c-24.31,3.99 -45.99,2.8 -64.95,-3.65 -19.09,-6.45 -34.58,-17.86 -46.71,-34.11 -12.13,-16.25 -20.28,-36.99 -24.39,-61.94 -4.03,-24.39 -2.84,-46.07 3.48,-65.25 6.32,-19.05 17.52,-34.66 33.64,-46.75 16.25,-12.13 36.74,-20.24 61.52,-24.31l26.98 -4.45 14.38 81.16 -27.32 4.5c-12.26,1.99 -21.42,6.75 -27.24,14.17 -5.94,7.42 -7.89,16.63 -6.02,27.92 1.95,11.84 6.49,20.53 13.83,25.92 7.38,5.47 16.46,7.34 27.49,5.52l31.95 -5.26c8.99,-1.48 16.38,-5.13 22.23,-10.95 5.85,-5.81 10.39,-12.68 13.75,-20.49 3.31,-7.93 7.08,-18.71 11.41,-32.5 0.72,-2.67 1.44,-5.3 2.38,-8.02 0.93,-2.8 1.74,-5.6 2.63,-8.4 0.17,-0.47 0.3,-0.98 0.51,-1.23 0.17,-0.38 0.34,-0.85 0.47,-1.36 6.66,-19.81 13.15,-36.02 19.64,-48.49 6.36,-12.6 16.38,-24.05 30.04,-34.41 13.53,-10.31 32.03,-17.39 55.32,-21.21l39.92 -6.58c24.73,-4.07 46.75,-2.97 65.97,3.48 19.22,6.45 34.92,17.82 47.18,34.07 12.26,16.25 20.49,36.74 24.56,61.56l-0.16 0.01z"/>
  <path id="_27" class="fil0" d="M4957.25 14869.23l-8.32 -72.25c-1.19,-10.18 -4.79,-17.82 -10.86,-22.74 -6.11,-5.05 -14,-7 -23.76,-5.85l-64.65 7.42c-7.93,0.89 -14.59,2.93 -19.94,6.19 -5.39,3.14 -9.25,7.51 -11.58,12.94 -2.46,5.43 -3.27,11.62 -2.42,18.75l8.15 70.89 -76.19 8.78 -7.93 -68.98c-1.1,-9.72 -5.13,-16.84 -11.88,-21.55 -6.83,-4.71 -15.99,-6.41 -27.53,-5.09l-51.76 5.94c-9.63,1.1 -16.88,4.71 -21.72,10.78 -4.79,6.07 -6.66,13.75 -5.6,23.25l7.98 69.32 -76.92 8.82 -8.91 -77.55c-2.46,-21.64 -0.76,-40.64 5.13,-57.06 5.94,-16.38 15.99,-29.48 29.91,-39.24 14.04,-9.76 31.56,-15.91 52.52,-18.33l51.76 -5.94c14.59,-1.7 27.83,-0.34 39.58,3.95 11.84,4.16 21.93,11.12 30.29,20.83 8.48,9.72 14.68,21.72 18.88,36.27 0.3,-16.33 3.48,-30.67 9.55,-42.85 5.94,-12.26 14.55,-22.1 25.62,-29.57 11.2,-7.38 24.52,-12.01 40.26,-13.83l65.67 -7.55c21.17,-2.46 39.75,-0.55 55.7,5.64 15.95,6.19 28.76,16.55 38.31,31.05 9.59,14.51 15.65,32.41 18.12,53.92l9.76 84.85 -77.21 8.87 -0.01 -0.08zm-399.51 93.67l-9.5 -82.56 482.15 -55.45 9.5 82.56 -482.15 55.45z"/>
  <polygon id="_28" class="fil0" points="4778.35,14455.72 4857.64,14450.46 4869.43,14628.34 4790.14,14633.6 "/>
  <path id="_29" class="fil0" d="M4494.06 14239.65l-1.48 -82.73 485.25 -8.82 1.48 82.73 -485.25 8.78 0 0.04zm2.67 148.14l-1.48 -82.73 485.25 -8.78 1.48 82.73 -485.25 8.82 0 -0.04zm206.48 -43.06l-2.97 -162.61 77.85 -1.4 2.97 162.61 -77.85 1.4z"/>
  <path id="_30" class="fil0" d="M4980.24 13978.23c-0.72,24.05 -6.24,44.63 -16.33,61.77 -10.18,17.14 -24.61,30.04 -43.23,38.61 -18.71,8.57 -40.73,12.47 -66.35,11.71l-367.65 -10.95 2.46 -83.07 370.07 11.03c11.71,0.34 21.04,-2.21 27.7,-7.85 6.79,-5.6 10.31,-13.49 10.65,-23.76 0.3,-10.48 -2.76,-18.79 -9.21,-24.78 -6.32,-6.11 -15.44,-9.38 -27.19,-9.72l-370.07 -11.03 2.46 -83.07 367.65 10.95c25.62,0.76 47.39,5.98 65.55,15.74 18.07,9.8 31.69,23.63 40.85,41.36 9.04,17.73 13.32,38.69 12.6,62.96l0.04 0.1z"/>
  <polygon id="_31" class="fil0" points="4491.18,13776.29 4496.22,13711.38 4827.9,13622.71 4840.16,13632.73 4504.37,13606.64 4510.22,13531.38 4993.73,13568.96 4988.64,13634.51 4675.72,13723.39 4663.08,13713.72 4980.58,13738.41 4974.73,13813.84 "/>
  <path id="_32" class="fil0" d="M4524.14 13363.5l7.25 -57.7 495.98 -54.26 -10.27 81.54 -323.44 22.44 307.79 102.03 -10.27 81.41 -467.05 -175.51 0.01 0.05zm325.22 78.28l16.5 -131.18 76.79 9.67 -16.5 131.18 -76.79 -9.67z"/>
  <path id="_33" class="fil0" d="M4754.8 13129.79l15.06 -86.12c1.23,-7.08 1.06,-13.36 -0.64,-18.96 -1.57,-5.47 -4.62,-10.05 -8.82,-13.58 -4.16,-3.39 -9.63,-5.73 -16.16,-6.87l-53.33 -9.33c-7.21,-1.27 -13.7,-1.02 -19.43,0.64 -5.73,1.78 -10.35,5.01 -14.04,9.59 -3.61,4.71 -5.98,10.52 -7.21,17.61l-15.06 86.12 -78.27 -13.66 14.17 -81.2c4.54,-25.92 12.52,-47.22 24.14,-64.06 11.71,-16.8 26.52,-28.68 44.5,-35.51 18.07,-6.79 38.48,-8.23 61.26,-4.2l55.92 9.76c23.46,4.12 42.72,12.43 57.78,25.03 15.15,12.6 25.5,28.89 31.05,48.83 5.56,19.94 6.07,42.72 1.57,68.43l-14.17 81.2 -78.27 -13.66 -0.05 -0.06zm-204.31 1.91l13.96 -79.84 478.42 83.58 -13.96 79.84 -478.42 -83.58zm279.36 -57.19l-2.12 -77.34 245.51 -35.81 -15.27 87.48 -228.16 25.67 0.04 0z"/>
  <path id="_34" class="fil0" d="M4686.96 12633.51l18.12 -80.73 433.83 97.32 -18.12 80.73 -433.87 -97.32 0.04 0zm-57.23 69.28l53.2 -237.11 77.51 17.39 -53.2 237.11 -77.51 -17.39z"/>
  <path id="_35" class="fil0" d="M4717.17 12345.32l15.4 -56.04 498.65 17.1 -21.81 79.25 -323.36 -23.93 290.05 144.92 -21.76 79.12 -437.22 -240.38 0.05 -0.04zm310.76 123.92l35.04 -127.48 74.62 20.53 -35.08 127.48 -74.62 -20.53 0.04 0z"/>
  <polygon id="_36" class="fil0" points="4767.53,12167.48 4792.26,12092 4953.98,12144.95 4929.29,12220.42 "/>
  <path id="_37" class="fil0" d="M4804.06 12056.03l25.75 -78.65 461.24 150.99 -25.75 78.65 -461.24 -150.99zm396.32 94.01l54.43 -166.26 75.52 24.69 -54.43 166.26 -75.52 -24.69z"/>
  <polygon id="_38" class="fil0" points="5375.55,11898.42 5346.07,11975.72 4892.64,11802.76 4922.12,11725.42 "/>
  <polygon id="_39" class="fil0" points="5045.03,11431.54 5076.08,11360.65 5520.64,11555.34 5491.07,11622.88 5180.66,11486.95 5202.29,11490.98 5386.2,11648.37 5369.61,11686.26 5135.26,11660.55 5112.27,11643.16 5422.69,11779.08 5392.44,11848.19 4947.83,11653.55 4979.69,11580.75 5253.5,11612.78 "/>
  <polygon id="_40" class="fil0" points="5580.76,11433.71 5543.93,11507.82 5109.3,11291.88 5146.12,11217.77 "/>
  <path id="_41" class="fil0" d="M5622.46 11184.72l35.51 -63.47c5.01,-8.95 6.49,-17.27 4.45,-24.82 -1.99,-7.64 -7.25,-13.83 -15.82,-18.62l-56.81 -31.78c-6.96,-3.9 -13.53,-6.15 -19.81,-6.66 -6.19,-0.59 -11.88,0.68 -16.97,3.69 -5.18,2.97 -9.42,7.51 -12.94,13.79l-34.83 62.28 -66.95 -37.46 33.9 -60.58c4.79,-8.57 5.68,-16.67 2.97,-24.44 -2.8,-7.85 -9.21,-14.55 -19.35,-20.24l-45.48 -25.41c-8.44,-4.71 -16.46,-6.07 -23.88,-3.99 -7.47,2.12 -13.45,7.25 -18.12,15.57l-34.07 60.88 -67.54 -37.8 38.1 -68.13c10.61,-19.01 23.12,-33.43 37.5,-43.27 14.38,-9.84 30.21,-14.55 47.22,-14.34 17.1,0.3 34.92,5.56 53.33,15.82l45.48 25.41c12.81,7.17 22.78,15.99 29.78,26.35 7.17,10.31 11.28,21.85 12.39,34.62 1.19,12.81 -0.81,26.18 -5.9,40.43 9.8,-13.07 20.75,-22.87 32.79,-29.19 12.01,-6.49 24.73,-9.42 38.1,-8.99 13.41,0.59 26.94,4.62 40.77,12.35l57.7 32.28c18.58,10.39 32.58,22.78 41.92,37.16 9.33,14.38 13.66,30.25 12.94,47.6 -0.72,17.35 -6.24,35.42 -16.8,54.35l-41.66 74.54 -67.84 -37.93 -0.08 0zm-378.89 -157.56l40.56 -72.5 423.61 236.9 -40.56 72.5 -423.56 -236.9 -0.05 0z"/>
  <path id="_42" class="fil0" d="M5873.74 10920.63c-13.79,22.02 -29.48,38.56 -46.96,49.51 -17.48,10.99 -36.06,16.16 -55.62,15.4 -19.68,-0.76 -39.67,-7.47 -60.07,-20.24l-226.42 -141.61c-20.41,-12.77 -35.17,-27.79 -44.46,-45.14 -9.46,-17.35 -12.94,-36.32 -10.61,-56.76 2.29,-20.49 10.39,-41.75 24.18,-63.81 13.83,-22.15 29.4,-38.61 46.79,-49.68 17.39,-11.03 35.98,-16.25 55.75,-15.4 19.68,0.76 39.67,7.47 60.07,20.24l226.42 141.61c20.41,12.77 35.17,27.79 44.46,45.14 9.21,17.31 12.68,36.27 10.44,56.81 -2.21,20.53 -10.14,41.79 -23.97,63.93zm-70.17 -43.87c4.5,-7.17 6.87,-14.25 7.34,-21.21 0.38,-7.04 -1.27,-13.45 -4.79,-19.39 -3.69,-5.94 -9.21,-11.28 -16.76,-15.99l-208.94 -130.67c-7.34,-4.58 -14.47,-7.17 -21.42,-7.89 -7,-0.64 -13.49,0.72 -19.56,4.16 -6.07,3.48 -11.37,8.74 -15.87,15.91 -4.45,7.17 -6.87,14.25 -7.21,21 -0.38,6.87 1.23,13.28 4.92,19.22 3.61,6.02 9.12,11.2 16.46,15.82l208.94 130.67c7.55,4.71 14.72,7.42 21.72,8.06 6.83,0.64 13.32,-0.68 19.43,-3.99 5.94,-3.27 11.24,-8.57 15.74,-15.7z"/>
  <path id="_43" class="fil0" d="M6031.47 10683.05c-14.51,20.87 -30.88,35.98 -49.08,45.56 -18.2,9.55 -37.42,13.24 -57.65,10.99 -20.15,-2.38 -40.64,-10.65 -61.22,-24.99l-21.42 -14.89 46.54 -68.01 21.42 14.89c10.01,6.96 19.9,9.55 29.57,7.98 9.8,-1.7 18.03,-7.59 25.03,-17.61 6.92,-9.93 9.38,-19.43 7.47,-28.85 -1.91,-9.25 -7.76,-17.35 -17.61,-24.18l-34.79 -24.22c-7.38,-5.13 -15.1,-7.47 -23.38,-7.13 -8.27,0.34 -16.5,2.38 -25.03,6.19 -8.4,3.69 -19.3,9.16 -32.5,16.55 -0.89,0.47 -1.74,0.89 -2.55,1.27 -0.85,0.38 -1.65,0.76 -2.55,1.27l-4.07 2.46c-17.78,9.59 -34.45,16.72 -49.81,21.42 -15.36,4.88 -32.16,6.11 -50.36,3.69 -18.12,-2.29 -36.95,-10.31 -56.51,-23.93l-20.58 -14.34c-20.19,-14.08 -34.92,-30.04 -44.04,-47.9 -9.21,-17.9 -12.35,-36.91 -9.72,-57.06 2.63,-20.11 11.2,-40.64 25.67,-61.43 14.13,-20.32 30.08,-35.04 47.98,-44.38 17.82,-9.25 36.7,-12.64 56.72,-10.1 20.11,2.63 40.47,11.07 61.05,25.41l22.44 15.61 -46.24 68.22 -22.74 -15.82c-10.18,-7.08 -20.07,-10.1 -29.4,-8.82 -9.46,1.19 -17.27,6.45 -23.8,15.82 -6.83,9.8 -9.63,19.26 -8.15,28.21 1.44,9.08 6.66,16.72 15.87,23.12l26.56 18.5c7.51,5.22 15.32,7.76 23.55,7.68 8.27,-0.08 16.29,-1.82 24.14,-5.13 7.93,-3.39 18.16,-8.48 30.84,-15.36 2.38,-1.4 4.71,-2.8 7.3,-4.07 2.63,-1.4 5.13,-2.8 7.76,-4.2 0.42,-0.25 0.89,-0.47 1.23,-0.55 0.38,-0.17 0.81,-0.38 1.27,-0.64 18.58,-9.55 34.53,-16.67 47.9,-21.08 13.32,-4.58 28.51,-5.85 45.52,-3.73 16.88,2.08 35.08,9.84 54.43,23.33l33.22 23.12c20.58,14.34 35.59,30.46 44.88,48.45 9.29,17.99 12.64,37.12 10.1,57.32 -2.55,20.19 -10.9,40.6 -25.28,61.26l0.02 0.1z"/>
  <path id="_44" class="fil0" d="M5834.58 10125.55l50.57 -65.46 384.07 296.72 -50.57 65.5 -384.07 -296.72 0 -0.04zm-90.57 117.26l50.57 -65.5 384.07 296.72 -50.57 65.5 -384.07 -296.72zm188.02 95.59l99.44 -128.72 61.6 47.6 -99.44 128.72 -61.6 -47.6z"/>
  <path id="_45" class="fil0" d="M6288.14 10168.49l-11.45 -80.61 197.27 -20.53 11.92 80.56 -197.74 20.58zm103.94 51.59c-16.88,19.73 -34.87,33.77 -53.79,42 -18.92,8.27 -38.05,10.65 -57.27,6.96 -19.39,-3.69 -38.14,-13.28 -56.42,-28.93l-202.92 -173.6c-18.28,-15.61 -30.67,-32.71 -37.29,-51.25 -6.79,-18.54 -7.38,-37.84 -2.08,-57.74 5.3,-19.9 16.46,-39.75 33.35,-59.52 16.97,-19.81 34.79,-33.85 53.62,-42.17 18.84,-8.36 37.97,-10.69 57.4,-6.96 19.39,3.69 38.14,13.28 56.42,28.89l202.92 173.6c18.28,15.65 30.67,32.71 37.29,51.25 6.53,18.5 7.17,37.76 1.91,57.74 -5.26,19.98 -16.21,39.84 -33.18,59.65l0.04 0.08zm-62.87 -53.8c5.47,-6.41 8.91,-13.07 10.44,-19.9 1.4,-6.87 0.72,-13.49 -1.87,-19.9 -2.76,-6.41 -7.42,-12.52 -14.17,-18.28l-187.26 -160.19c-6.58,-5.64 -13.24,-9.25 -20.02,-10.99 -6.83,-1.65 -13.45,-1.27 -19.94,1.23 -6.49,2.55 -12.56,6.96 -18.03,13.36 -5.47,6.41 -8.91,13.07 -10.27,19.73 -1.4,6.75 -0.76,13.32 2.04,19.73 2.67,6.49 7.34,12.43 13.92,18.07l187.26 160.19c6.75,5.77 13.45,9.55 20.28,11.2 6.66,1.65 13.28,1.32 19.81,-1.06 6.36,-2.33 12.43,-6.79 17.9,-13.19l-0.09 0z"/>
  <path id="_46" class="fil0" d="M6224.42 9675.35l39.96 -42.21 432.09 249.45 -56.47 59.69 -274.15 -173.13 187.9 264.26 -56.38 59.61 -272.92 -417.71 -0.03 0.04zm216.02 255.43l90.87 -96.05 56.21 53.2 -90.87 96.05 -56.21 -53.2z"/>
  <path id="_47" class="fil0" d="M6554.4 9627.88l63.21 -60.41c5.22,-4.96 8.78,-10.14 10.73,-15.65 1.99,-5.35 2.25,-10.82 0.93,-16.16 -1.36,-5.18 -4.37,-10.35 -8.91,-15.1l-37.42 -39.16c-5.05,-5.26 -10.44,-8.95 -16.04,-11.03 -5.68,-1.99 -11.33,-2.12 -17.01,-0.64 -5.68,1.65 -11.07,4.92 -16.25,9.88l-63.21 60.41 -54.9 -57.44 59.61 -56.93c19.05,-18.2 38.1,-30.59 57.44,-37.25 19.43,-6.58 38.35,-7.34 56.89,-2.16 18.58,5.26 35.85,16.21 51.8,32.96l39.2 41.02c16.46,17.22 27.02,35.34 31.65,54.43 4.71,19.13 3.39,38.35 -3.99,57.7 -7.38,19.35 -20.45,37.97 -39.33,56l-59.56 56.93 -54.9 -57.44 0.06 0.04zm-165.59 -119.68l58.59 -56 335.53 351.15 -58.59 56 -335.53 -351.15zm258.79 119.72l44.16 -63.51 218.87 116.88 -64.19 61.35 -198.84 -114.72z"/>
  <path id="_48" class="fil0" d="M7027.77 9589.95c-18.2,15.74 -37.12,25.54 -56.55,29.7 -19.56,4.07 -38.78,2.16 -57.7,-5.77 -18.96,-8.02 -36.74,-21.59 -53.5,-41.02l-240.38 -278.43 62.87 -54.3 241.95 280.21c7.68,8.91 15.87,14 24.52,15.15 8.74,1.23 16.93,-1.48 24.69,-8.23 7.93,-6.83 12.01,-14.72 12.09,-23.5 0.25,-8.78 -3.56,-17.69 -11.24,-26.6l-241.95 -280.21 62.92 -54.3 240.38 278.43c16.76,19.43 27.62,38.95 32.67,58.97 5.01,19.94 3.99,39.33 -2.88,58.08 -6.96,18.62 -19.52,35.98 -37.88,51.84l-0.01 -0.02z"/>
  <polygon id="_49" class="fil0" points="6834.06,9112.84 6903.29,9058.92 7145.79,9294.84 6976.6,9001.86 7045.84,8947.94 7273.45,9385.84 7202.85,9440.83 "/>
  <path id="_50" class="fil0" d="M7324.1 8752.87l67.79 -47.47 278.43 397.52 -67.75 47.47 -278.43 -397.52 -0.04 0zm-121.38 85.02l67.79 -47.47 278.43 397.52 -67.75 47.47 -278.43 -397.52 -0.04 0zm151.08 147.17l133.21 -93.33 44.67 63.76 -133.21 93.29 -44.67 -63.76 0 0.04z"/>
  <path id="_51" class="fil0" d="M7538.43 8619.07l49.25 -30.88 356.07 349.53 -69.62 43.7 -222.18 -236.13 115.9 302.87 -69.53 43.61 -159.85 -472.65 -0.04 -0.05zm145.34 301.34l112 -70.3 41.15 65.55 -112 70.3 -41.15 -65.55z"/>
  <polygon id="_52" class="fil0" points="7977.52,8377.63 8046.88,8343.31 8262.19,8778.29 8196.09,8811 8045.78,8507.28 8059.78,8524.25 8099.36,8763.1 8062.28,8781.43 7899.37,8611.05 7892.92,8582.92 8043.23,8886.64 7975.61,8920.07 7760.35,8485.09 7831.54,8449.88 8020.62,8650.46 "/>
  <path id="_53" class="fil0" d="M8333.63 8655.26l56.98 -24.73c10.14,-4.41 16.63,-10.95 19.47,-19.52 2.8,-8.7 1.74,-18.54 -3.14,-29.82l-99.15 -228.45c-4.88,-11.2 -11.33,-18.71 -19.6,-22.57 -8.27,-3.86 -17.44,-3.48 -27.58,0.89l-56.98 24.73 -31.65 -72.88 64.61 -28.04c21.21,-9.21 41.11,-13.24 59.56,-11.92 18.62,1.36 35.04,7.76 49.51,19.26 14.47,11.62 26.22,27.79 35.25,48.58l106.57 245.59c9.04,20.79 12.85,40.52 11.41,58.93 -1.4,18.5 -8.06,34.96 -19.81,49.38 -11.88,14.47 -28.34,26.35 -49.55,35.55l-64.32 27.92 -31.65 -72.88 0.07 -0.02zm-212.08 -350.43l75.9 -32.96 193.2 445.2 -75.9 32.96 -193.2 -445.2z"/>
  <path id="_54" class="fil0" d="M8481.94 8151.26l54.43 -20.45 279.19 413.51 -76.92 28.93 -170.63 -275.72 53.16 319.88 -76.83 28.89 -62.36 -495.05 -0.04 0.01zm82.31 324.24l123.75 -46.54 27.24 72.46 -123.75 46.54 -27.24 -72.46z"/>
  <path id="_55" class="fil0" d="M8934.87 8221.13l81.71 -26.18c6.41,-2.08 11.45,-5.35 15.19,-9.76 3.69,-4.54 5.9,-10.01 6.58,-16.46 0.76,-6.58 -0.21,-13.83 -2.76,-21.64l-17.44 -54.39c-2.63,-8.23 -6.11,-14.93 -10.39,-20.11 -4.41,-5.18 -9.42,-8.48 -14.93,-10.05 -5.68,-1.65 -11.79,-1.36 -18.41,0.76l-81.71 26.18 -24.22 -75.64 84 -26.94c22.91,-7.34 43.74,-9.59 62.7,-6.79 18.84,2.84 35,10.69 48.49,23.59 13.53,12.77 23.8,30.21 30.8,52.01l24.99 77.93c6.83,21.38 8.36,41.02 4.62,58.97 -3.73,17.82 -12.52,33.43 -26.26,46.58 -13.83,13.19 -31.99,23.42 -54.68,30.67l-84 26.9 -24.22 -75.64 -0.06 0.01zm-103.22 -195.54l78.82 -25.24 148.1 462.3 -78.82 25.24 -148.1 -462.3z"/>
  <path id="_56" class="fil0" d="M9134.3 7934.85l79.97 -21.34 125.11 468.92 -79.97 21.34 -125.11 -468.92zm139.75 381.39l172.92 -46.12 20.83 78.06 -172.92 46.12 -20.83 -78.06zm-51.72 -193.83l156.72 -41.83 20.75 77.76 -156.72 41.83 -20.75 -77.76zm-52.56 -197.02l172.92 -46.12 20.79 77.98 -172.92 46.12 -20.83 -77.98 0.04 0z"/>
  <path id="_57" class="fil0" d="M9547.26 8251.76l60.71 -13.07c10.82,-2.33 18.45,-7.47 22.95,-15.32 4.45,-7.98 5.39,-17.82 2.8,-29.87l-52.31 -243.47c-2.59,-11.92 -7.47,-20.58 -14.81,-25.96 -7.34,-5.43 -16.42,-6.83 -27.19,-4.54l-60.71 13.07 -16.72 -77.68 68.85 -14.81c22.61,-4.88 42.89,-4.92 60.75,0 17.99,5.01 32.84,14.51 44.76,28.64 11.92,14.25 20.28,32.37 25.03,54.56l56.25 261.76c4.75,22.19 4.62,42.25 -0.42,59.99 -5.01,17.86 -14.76,32.67 -29.15,44.5 -14.47,11.84 -32.96,20.24 -55.58,25.12l-68.52 14.72 -16.67 -77.68 -0.02 0.04zm-139.11 -385.26l80.9 -17.39 101.99 474.47 -80.9 17.39 -101.99 -474.52 0 0.05z"/>
  <path id="_58" class="fil0" d="M9792.26 7792.81l57.36 -9.46 193.03 460.09 -81.07 13.32 -113.48 -303.76 -10.35 324.12 -80.99 13.32 35.51 -497.68 -0.01 0.05zm17.39 334.09l130.45 -21.47 12.56 76.36 -130.45 21.47 -12.56 -76.36z"/>
  <path id="_59" class="fil0" d="M10263.21 7957.16l16.59 144.24c2.88,25.24 0.64,47.43 -6.7,66.65 -7.3,19.18 -19.3,34.66 -36.06,46.37 -16.8,11.58 -37.76,18.92 -62.66,21.76 -25.5,2.93 -47.77,0.76 -66.95,-6.41 -19.18,-7.21 -34.66,-19.09 -46.33,-35.64 -11.67,-16.67 -18.84,-37.16 -21.68,-61.73l-28.72 -250.05c-2.97,-25.84 -0.89,-48.66 6.36,-68.43 7.25,-19.77 19.3,-35.59 36.06,-47.52 16.76,-11.92 37.59,-19.26 62.62,-22.1 24.56,-2.8 46.2,-0.51 64.82,7 18.67,7.51 33.73,19.77 45.1,36.82 11.37,17.05 18.5,38.14 21.38,63.38l4.28 37.12 -84.59 9.72 -4.28 -37.16c-0.89,-7.81 -3.01,-14.34 -6.28,-19.6 -3.35,-5.35 -7.59,-9.21 -12.94,-11.71 -5.35,-2.38 -11.28,-3.18 -17.95,-2.42 -7.25,0.85 -13.53,3.18 -18.45,7.17 -5.05,3.9 -8.7,9.12 -10.82,15.7 -2.25,6.45 -2.76,13.96 -1.78,22.36l28.72 250.05c0.81,6.92 2.97,12.73 6.49,17.61 3.65,4.88 8.4,8.32 14.51,10.39 6.11,2.16 12.94,2.76 20.75,1.87 7.93,-0.89 14.68,-3.18 20.24,-6.66 5.43,-3.61 9.5,-8.32 11.92,-14.13 2.55,-5.9 3.22,-12.77 2.38,-20.45l-7.59 -66.01 -40.43 4.67 -9.08 -78.91 121.04 -13.92 0.03 -0.03z"/>
  <path id="_60" class="fil0" d="M10463.5 8212.6c-25.92,1.74 -48.49,-1.36 -67.67,-9.12 -19.13,-7.76 -34.19,-19.77 -45.01,-36.06 -10.9,-16.42 -17.14,-36.57 -18.75,-60.54l-17.69 -266.47c-1.57,-24.01 1.95,-44.8 10.61,-62.49 8.53,-17.82 21.89,-31.73 39.84,-41.83 17.95,-10.1 39.96,-15.99 65.88,-17.73 26.05,-1.74 48.53,1.23 67.67,8.87 19.13,7.64 34.19,19.68 45.14,36.19 10.9,16.42 17.14,36.57 18.75,60.54l17.69 266.47c1.57,24.01 -1.95,44.8 -10.61,62.49 -8.65,17.61 -22.02,31.52 -39.96,41.7 -17.95,10.22 -39.84,16.25 -65.88,17.99l-0.01 -0.01zm-5.48 -82.56c8.4,-0.55 15.57,-2.76 21.51,-6.45 5.9,-3.82 10.14,-8.91 12.94,-15.23 2.67,-6.45 3.78,-14.08 3.18,-22.95l-16.29 -245.89c-0.55,-8.65 -2.67,-15.91 -6.15,-21.98 -3.61,-6.02 -8.48,-10.52 -14.81,-13.41 -6.36,-2.88 -13.75,-4.12 -22.19,-3.56 -8.4,0.55 -15.57,2.76 -21.25,6.45 -5.81,3.69 -10.05,8.78 -12.68,15.23 -2.76,6.49 -3.73,13.96 -3.18,22.61l16.29 245.89c0.59,8.87 2.59,16.29 6.15,22.32 3.48,5.94 8.36,10.39 14.59,13.41 6.11,2.93 13.53,4.16 21.93,3.56l-0.04 0z"/>
  <path id="_61" class="fil0" d="M10870.9 7934.17l2.63 145.18c0.47,25.41 -3.95,47.26 -13.07,65.67 -9.12,18.41 -22.57,32.67 -40.39,42.68 -17.82,9.88 -39.41,15.19 -64.44,15.65 -25.67,0.47 -47.6,-3.82 -66.01,-12.81 -18.41,-9.04 -32.67,-22.32 -42.68,-39.92 -10.01,-17.73 -15.19,-38.82 -15.61,-63.55l-4.58 -251.62c-0.47,-26.01 3.78,-48.53 12.9,-67.5 9.12,-18.96 22.65,-33.6 40.47,-43.82 17.82,-10.22 39.28,-15.53 64.44,-15.99 24.73,-0.47 46.03,3.95 63.85,13.19 17.86,9.25 31.65,22.91 41.32,40.98 9.67,18.07 14.72,39.75 15.19,65.16l0.68 37.38 -85.1 1.57 -0.68 -37.38c-0.13,-7.85 -1.65,-14.55 -4.37,-20.11 -2.84,-5.64 -6.66,-9.93 -11.75,-12.9 -5.09,-2.88 -10.9,-4.24 -17.65,-4.12 -7.3,0.13 -13.75,1.87 -19.05,5.35 -5.43,3.39 -9.55,8.27 -12.26,14.59 -2.84,6.19 -4.07,13.66 -3.95,22.06l4.54 251.62c0.13,6.96 1.74,12.94 4.75,18.16 3.18,5.18 7.59,9.12 13.45,11.71 5.85,2.76 12.6,3.99 20.49,3.86 7.98,-0.17 14.89,-1.74 20.79,-4.71 5.77,-3.1 10.27,-7.38 13.24,-12.9 3.1,-5.64 4.45,-12.39 4.33,-20.15l-1.19 -66.44 -40.68 0.72 -1.44 -79.42 121.8 -2.21 0.03 0.02z"/>
  <path id="_62" class="fil0" d="M11155.69 7984.36l114.29 -252.93 93.16 7.21 -218.87 392.38 11.41 -146.7 0.01 0.04zm-45.35 -265.32l82.52 6.41 -37.59 483.89 -82.52 -6.41 37.59 -483.89zm78.74 227.09l60.45 -45.27 91.42 322.85 -90.45 -7.04 -61.43 -270.58 0.01 0.04z"/>
  <path id="_63" class="fil0" d="M11516.17 7754.63l57.7 7.25 54.26 495.98 -81.54 -10.27 -22.44 -323.44 -102.03 307.79 -81.41 -10.27 175.51 -467.05 -0.05 0.01zm-78.27 325.23l131.18 16.5 -9.67 76.79 -131.18 -16.5 9.67 -76.79z"/>
  <path id="_64" class="fil0" d="M11731.86 8193.76l61.18 10.69c10.9,1.91 19.9,0 27.02,-5.6 7.13,-5.68 11.67,-14.51 13.79,-26.64l42.89 -245.34c2.12,-12.01 0.81,-21.85 -3.95,-29.61 -4.79,-7.76 -12.64,-12.52 -23.5,-14.42l-61.22 -10.69 13.66 -78.27 69.41 12.13c22.78,3.99 41.62,11.54 56.3,22.78 14.81,11.37 25.03,25.79 30.76,43.32 5.68,17.65 6.62,37.63 2.72,59.95l-46.07 263.75c-3.9,22.36 -11.54,40.9 -22.87,55.45 -11.37,14.68 -25.96,24.73 -43.7,30.33 -17.86,5.56 -38.14,6.41 -60.92,2.42l-69.07 -12.05 13.66 -78.27 -0.09 0.07zm15.61 -409.3l81.5 14.25 -83.53 478.08 -81.5 -14.25 83.53 -478.08z"/>
  <path id="_65" class="fil0" d="M12046.43 8043.12l85.32 19.13c7,1.57 13.32,1.7 18.96,0.3 5.56,-1.32 10.27,-4.12 14,-8.19 3.61,-3.99 6.19,-9.38 7.64,-15.82l11.84 -52.82c1.61,-7.13 1.65,-13.66 0.25,-19.43 -1.48,-5.81 -4.54,-10.61 -8.91,-14.51 -4.5,-3.82 -10.22,-6.49 -17.22,-8.06l-85.32 -19.13 17.39 -77.51 80.44 18.03c25.71,5.77 46.54,14.76 62.83,27.19 16.25,12.52 27.41,27.87 33.35,46.12 5.94,18.37 6.36,38.82 1.32,61.39l-12.43 55.41c-5.22,23.25 -14.47,42.08 -27.75,56.51 -13.32,14.51 -30.04,24.1 -50.23,28.68 -20.19,4.58 -42.93,4.03 -68.43,-1.7l-80.39 -18.03 17.39 -77.51 -0.05 -0.05zm7.85 -204.19l79.08 17.73 -106.32 473.92 -79.08 -17.73 106.27 -473.88 0.05 -0.04zm43.78 281.74l77.34 1.57 24.05 246.95 -86.63 -19.43 -14.72 -229.09 -0.04 0z"/>
  <path id="_66" class="fil0" d="M12377.64 7914.44l79.8 21.93 -128.72 467.94 -79.8 -21.93 128.72 -467.94zm-74.92 400.36l168.68 46.41 -21.08 76.58 -168.68 -46.41 21.08 -76.62 0 0.04z"/>
  <path id="_67" class="fil0" d="M12736.72 8019.44l55.24 18.07 -40.94 497.25 -78.1 -25.58 39.41 -321.83 -158.67 282.8 -78.02 -25.54 261.08 -425.22 0 0.05zm-138.65 304.44l125.66 41.11 -24.1 73.56 -125.66 -41.15 24.1 -73.56 0 0.04z"/>
  <path id="_68" class="fil0" d="M12920.71 8295.2l81.67 31.14c6.7,2.59 12.9,3.56 18.75,3.01 5.68,-0.51 10.73,-2.63 15.02,-6.11 4.12,-3.44 7.47,-8.4 9.8,-14.55l19.3 -50.57c2.63,-6.83 3.61,-13.28 3.05,-19.22 -0.64,-5.98 -2.97,-11.12 -6.75,-15.61 -3.9,-4.41 -9.21,-7.89 -15.91,-10.44l-81.67 -31.14 28.3 -74.24 77 29.36c24.61,9.38 43.95,21.3 58.29,35.89 14.3,14.72 23.12,31.52 26.39,50.44 3.22,19.05 0.72,39.33 -7.51,60.92l-20.24 53.03c-8.48,22.27 -20.32,39.58 -35.55,51.97 -15.27,12.47 -33.18,19.56 -53.84,21.17 -20.66,1.65 -43.1,-2.16 -67.5,-11.45l-77 -29.36 28.34 -74.2 0.06 -0.04zm37 -200.96l75.73 28.89 -173.09 453.77 -75.73 -28.89 173.09 -453.77zm2.96 285.13l76.32 12.64 -11.58 247.84 -82.94 -31.65 18.24 -228.84 -0.04 0.01z"/>
  <polygon id="_69" class="fil0" points="13266.6,8216.76 13326.2,8242.89 13300.83,8585.26 13287.38,8593.57 13422.46,8285.02 13491.61,8315.31 13297.06,8759.58 13236.81,8733.19 13255.82,8408.43 13269.1,8399.69 13141.4,8691.4 13072.08,8661.03 "/>
  <polygon id="_70" class="fil0" points="13417.63,8821.81 13343.55,8784.99 13559.49,8350.35 13633.61,8387.18 "/>
  <path id="_71" class="fil0" d="M13722.4 8862.97l76.79 -27.07 58.88 189.38 -76.66 27.53 -59.01 -189.85 0 0.01zm-30.12 112.04c-22.7,-12.68 -39.96,-27.58 -51.76,-44.5 -11.84,-16.93 -17.9,-35.21 -18.07,-54.77 -0.21,-19.73 5.52,-40.01 17.27,-61.01l130.37 -233.08c11.75,-21 26.01,-36.48 42.93,-46.62 16.84,-10.31 35.64,-14.68 56.21,-13.36 20.53,1.32 42.21,8.36 64.91,21 22.78,12.73 40.01,27.45 51.88,44.29 11.88,16.84 17.99,35.13 18.12,54.94 0.21,19.73 -5.52,40.01 -17.27,61.01l-130.37 233.08c-11.75,21 -26.05,36.48 -42.93,46.62 -16.84,10.05 -35.64,14.42 -56.21,13.24 -20.62,-1.23 -42.25,-8.06 -65.04,-20.83l-0.04 -0.01zm40.39 -72.21c7.34,4.12 14.55,6.19 21.55,6.32 7.04,0 13.36,-1.95 19.13,-5.77 5.77,-3.99 10.82,-9.76 15.15,-17.52l120.27 -215.09c4.2,-7.55 6.45,-14.81 6.83,-21.76 0.25,-7.04 -1.4,-13.45 -5.13,-19.3 -3.78,-5.9 -9.29,-10.95 -16.67,-15.06 -7.34,-4.12 -14.55,-6.19 -21.34,-6.19 -6.87,-0.04 -13.19,1.91 -18.96,5.85 -5.85,3.9 -10.73,9.67 -14.98,17.22l-120.27 215.09c-4.33,7.76 -6.7,15.06 -7,22.06 -0.3,6.87 1.32,13.28 4.92,19.22 3.56,5.77 9.08,10.82 16.46,14.93l0.04 0z"/>
  <path id="_72" class="fil0" d="M14192.12 8704.81l49.3 30.84 -159.18 472.86 -69.66 -43.57 115.56 -302.95 -221.92 236.43 -69.58 -43.53 355.56 -350.04 -0.08 -0.04zm-207.7 262.22l112.08 70.13 -41.07 65.63 -112.08 -70.13 41.07 -65.63z"/>
  <polygon id="_73" class="fil0" points="14300.52,9139.57 14194.29,9292.13 14126.41,9244.83 14232.6,9092.27 14329.15,8794.62 14399.88,8843.87 14322.28,9034.7 14472.76,8894.61 14543.35,8943.78 "/>
  <path id="_74" class="fil0" d="M14621.08 9056.59l65.46 50.61 -271.85 351.87 -65.46 -50.61 271.85 -351.87zm-38.53 -81.2l192.31 148.57 -48.58 62.87 -192.31 -148.57 48.58 -62.87z"/>
  <path id="_75" class="fil0" d="M14870.49 9206.09l44.16 37.8 -227.48 444.05 -62.45 -53.41 159.18 -282.46 -254.5 200.92 -62.36 -53.37 403.5 -293.53 -0.05 0zm-244.28 228.58l100.46 85.95 -50.32 58.8 -100.46 -85.95 50.32 -58.8z"/>
  <path id="_76" class="fil0" d="M15152.78 9516.64l60.12 56.89 -305.62 322.98 -60.12 -56.89 305.62 -322.98zm-30.25 -84.64l176.53 167.02 -54.6 57.7 -176.53 -167.02 54.6 -57.7z"/>
  <path id="_77" class="fil0" d="M15383.4 9693.34l40.18 42.04 -270.92 419.02 -56.76 -59.39 186.71 -265.11 -273.38 174.36 -56.72 -59.35 430.9 -251.58 -0.01 0.01zm-266 202.91l91.34 95.58 -55.96 53.5 -91.34 -95.58 55.96 -53.45 0 -0.05z"/>
  <polygon id="_78" class="fil0" points="15381.74,10141.21 15241.02,10262.71 15186.93,10200.05 15327.65,10078.55 15494.93,9814.12 15551.23,9879.37 15428.79,10045.03 15609.26,9946.57 15665.48,10011.69 "/>
  <polygon id="_79" class="fil0" points="15550.8,10351.42 15404.1,10465.63 15353.28,10400.34 15499.94,10286.13 15680.41,10030.52 15733.36,10098.49 15602.65,10257.75 15787.87,10168.57 15840.77,10236.45 "/>
  <path id="_80" class="fil0" d="M15533.58 10648.77c-14.89,-21.3 -23.97,-42.17 -27.28,-62.58 -3.31,-20.36 -0.81,-39.5 7.51,-57.19 8.4,-17.86 22.36,-33.6 42.08,-47.43l218.74 -153.19c19.68,-13.79 39.33,-21.55 58.93,-23.33 19.64,-1.91 38.48,2.29 56.42,12.39 17.95,10.14 34.41,25.88 49.3,47.13 14.98,21.38 24.1,42.13 27.49,62.45 3.39,20.32 0.89,39.45 -7.55,57.36 -8.4,17.82 -22.36,33.6 -42.04,47.43l-218.74 153.24c-19.68,13.79 -39.33,21.55 -58.93,23.33 -19.52,1.7 -38.35,-2.5 -56.38,-12.56 -18.03,-10.05 -34.53,-25.62 -49.51,-47.01l-0.04 -0.04zm67.79 -47.47c4.84,6.92 10.44,11.92 16.67,15.06 6.32,3.1 12.85,4.07 19.73,3.14 6.92,-1.06 14,-4.07 21.25,-9.16l201.85 -141.4c7.08,-4.96 12.26,-10.52 15.61,-16.63 3.31,-6.19 4.62,-12.68 3.78,-19.6 -0.85,-6.96 -3.61,-13.87 -8.44,-20.79 -4.84,-6.92 -10.44,-11.92 -16.55,-14.85 -6.19,-3.05 -12.73,-4.03 -19.6,-2.97 -6.96,0.98 -13.87,4.03 -21,8.99l-201.85 141.4c-7.3,5.09 -12.6,10.65 -15.91,16.84 -3.27,6.07 -4.58,12.52 -3.9,19.43 0.68,6.75 3.48,13.7 8.32,20.62l0.04 -0.08z"/>
  <path id="_81" class="fil0" d="M15900.85 10670.54l46.45 74.03c3.82,6.11 8.15,10.65 13.15,13.66 4.84,3.01 10.14,4.37 15.65,4.16 5.35,-0.25 11.03,-2.21 16.63,-5.73l45.86 -28.76c6.19,-3.86 10.86,-8.44 14,-13.49 3.1,-5.18 4.33,-10.69 4.03,-16.55 -0.47,-5.9 -2.59,-11.84 -6.41,-17.9l-46.45 -74.03 67.28 -42.21 43.78 69.79c14,22.32 22.27,43.48 24.95,63.76 2.55,20.36 -0.51,39.07 -9.29,56.17 -8.91,17.14 -23.08,31.86 -42.68,44.12l-48.07 30.16c-20.19,12.64 -40.05,19.35 -59.65,20.07 -19.68,0.76 -38.27,-4.37 -55.75,-15.48 -17.48,-11.12 -33.09,-27.66 -46.96,-49.76l-43.78 -69.79 67.28 -42.21 -0.02 -0.01zm150.52 -138.18l43.06 68.64 -411.39 258.15 -43.06 -68.64 411.39 -258.15zm-169.27 229.47l53.33 56.04 -158.45 190.91 -47.22 -75.22 152.35 -171.73 -0.01 0z"/>
  <path id="_82" class="fil0" d="M16227.94 10815.16l40.39 72.21 -423.61 236.9 -40.39 -72.21 423.61 -236.9zm-337.7 227.78l85.4 152.68 -69.32 38.78 -85.4 -152.68 69.32 -38.78z"/>
  <path id="_83" class="fil0" d="M16408.28 11144.33l25.79 52.1 -383.6 319.07 -36.44 -73.65 257.3 -197.27 -312.96 84.81 -36.4 -73.56 486.35 -111.49 -0.04 -0.01zm-314.4 114.29l58.63 118.49 -69.36 34.32 -58.63 -118.49 69.36 -34.32z"/>
  <path id="_84" class="fil0" d="M16098.33 11630.43c-10.14,-23.33 -14.38,-45.18 -12.98,-65.67 1.4,-20.49 8.4,-38.82 20.96,-54.81 12.6,-15.91 30.42,-28.98 53.41,-38.99l23.93 -10.39 33.43 75.35 -23.93 10.39c-11.2,4.84 -18.58,11.92 -22.32,21 -3.69,9.21 -3.01,19.35 1.82,30.55 4.79,11.07 11.62,18.2 20.62,21.51 8.87,3.22 18.88,2.5 29.82,-2.29l38.9 -16.88c8.27,-3.56 14.25,-8.91 18.33,-16.16 4.07,-7.21 6.66,-15.32 7.85,-24.52 1.27,-9.12 2.33,-21.25 2.97,-36.32 0.04,-1.02 0.17,-1.95 0.25,-2.84 0.08,-0.89 0.21,-1.82 0.25,-2.84l0.04 -4.75c1.19,-20.15 3.86,-38.1 7.93,-53.62 3.9,-15.61 11.71,-30.55 23.29,-44.8 11.5,-14.17 28.21,-26.05 50.06,-35.51l22.99 -9.97c22.57,-9.8 43.91,-13.96 63.89,-12.3 20.07,1.61 37.88,8.91 53.62,21.72 15.74,12.81 28.72,30.93 38.78,54.13 9.84,22.7 14,43.99 12.56,64.15 -1.48,20.02 -8.53,37.88 -21.21,53.58 -12.81,15.74 -30.72,28.59 -53.71,38.61l-25.07 10.9 -33.77 -75.18 25.41 -11.03c11.37,-4.92 19.09,-11.75 22.95,-20.41 3.95,-8.65 3.56,-18.07 -0.98,-28.55 -4.75,-10.99 -11.33,-18.33 -19.77,-21.72 -8.48,-3.52 -17.73,-3.1 -28,1.36l-29.7 12.9c-8.36,3.65 -14.64,8.95 -18.88,16.04 -4.28,7.08 -7,14.85 -8.32,23.25 -1.27,8.53 -2.29,19.9 -3.14,34.28 -0.04,2.76 -0.08,5.52 -0.34,8.36 -0.21,2.97 -0.34,5.85 -0.51,8.82 -0.04,0.51 -0.04,1.02 -0.17,1.32 -0.08,0.38 -0.08,0.89 -0.13,1.4 -1.61,20.83 -3.95,38.14 -7.21,51.84 -3.1,13.79 -10.01,27.32 -20.75,40.68 -10.65,13.32 -26.81,24.69 -48.49,34.07l-37.12 16.12c-22.99,9.97 -44.63,14.3 -64.78,12.73 -20.19,-1.57 -38.22,-8.74 -54.09,-21.51 -15.87,-12.77 -28.81,-30.63 -38.86,-53.71l0.17 -0.29z"/>
  <path id="_85" class="fil0" d="M16680.82 11754.01l29.1 77.47 -454.28 170.8 -29.1 -77.47 454.28 -170.8zm-52.14 -138.68l29.1 77.47 -454.28 170.8 -29.1 -77.47 454.28 -170.8zm-180.14 109.7l57.23 152.26 -72.88 27.41 -57.23 -152.26 72.88 -27.41z"/>
  <polygon id="_86" class="fil0" points="16774.15,12011.48 16800.92,12095.06 16495.89,12241.59 16829.26,12183.51 16856.03,12267.09 16366.45,12330 16339.13,12244.77 "/>
  <path id="_87" class="fil0" d="M16884.54 12379.39l14.98 56.17 -439.09 236.98 -21.17 -79.42 291.2 -142.59 -323.57 21.34 -21.17 -79.29 498.78 -13.19 0.04 0zm-330.78 49.89l34.07 127.74 -74.79 19.94 -34.07 -127.74 74.79 -19.94z"/>
  <path id="_88" class="fil0" d="M16513.24 12951.61c-3.9,-23.72 -2.42,-45.01 4.2,-63.76 6.75,-18.79 18.41,-34.19 35.04,-46.2 16.76,-12.01 37.59,-20.07 62.92,-24.22l362.94 -59.65 13.49 82.01 -365.32 60.03c-11.58,1.91 -20.24,6.24 -25.71,13.02 -5.6,6.83 -7.55,15.23 -5.9,25.33 1.7,10.35 6.32,17.9 13.79,22.57 7.38,4.79 16.97,6.24 28.55,4.33l365.32 -60.07 13.49 82.01 -362.94 59.69c-25.28,4.16 -47.64,3.22 -67.37,-2.88 -19.6,-6.15 -35.64,-17.14 -48.02,-32.75 -12.26,-15.65 -20.49,-35.42 -24.44,-59.39l-0.04 -0.07z"/>
  <path id="_89" class="fil0" d="M17031.58 13056.52l9.46 82.22 -482.15 55.41 -9.46 -82.22 482.15 -55.45 0 0.04zm-399.34 80.1l19.98 173.81 -78.91 9.08 -19.98 -173.81 78.91 -9.08z"/>
  <path id="_90" class="fil0" d="M17075.07 13428.37l3.86 57.99 -476.59 147.68 -5.43 -82.01 313.26 -83.62 -321.58 -41.62 -5.43 -81.88 491.91 83.45 0 0.01zm-334.22 -14.98l8.74 131.94 -77.21 5.13 -8.74 -131.94 77.21 -5.13z"/>
  <path id="_91" class="fil0" d="M16894.72 13701.75l1.57 87.39c0.13,7.17 1.48,13.32 4.2,18.5 2.59,5.09 6.45,8.99 11.28,11.67 4.71,2.55 10.56,3.82 17.18,3.69l54.13 -0.98c7.3,-0.13 13.66,-1.61 18.96,-4.33 5.3,-2.84 9.21,-6.92 11.96,-12.09 2.63,-5.3 3.9,-11.45 3.78,-18.67l-1.57 -87.39 79.42 -1.44 1.48 82.39c0.47,26.3 -3.31,48.75 -11.54,67.45 -8.32,18.71 -20.62,33.22 -36.95,43.32 -16.46,10.1 -36.23,15.36 -59.35,15.78l-56.76 1.02c-23.8,0.42 -44.29,-4.12 -61.47,-13.58 -17.27,-9.5 -30.55,-23.5 -39.75,-42.04 -9.25,-18.54 -14.08,-40.77 -14.55,-66.86l-1.48 -82.39 79.42 -1.44 0.04 0zm200.24 -40.68l1.48 81.03 -485.59 8.82 -1.48 -81.03 485.59 -8.82zm-263.41 109.2l16.76 75.52 -234.27 81.79 -1.61 -88.75 219.12 -68.52 0 -0.04z"/>
  <polygon id="_92" class="fil0" points="17103.41,13993.21 17101.45,14058.24 16774.36,14162.69 16761.68,14153.27 17098.31,14163.29 17096.07,14238.72 16611.33,14224.29 16613.28,14158.58 16921.62,14054.85 16934.68,14063.89 16616.37,14054.42 16618.62,13978.78 "/>
  <polygon id="_93" class="fil0" points="16606.91,14359.84 16609.42,14277.15 17094.5,14291.58 17092.04,14374.3 "/>
  <polygon id="_94" class="fil0" points="17085.12,14450.12 17080.07,14514.98 16748.4,14603.65 16736.14,14593.68 17071.93,14619.77 17066.07,14694.99 16582.56,14657.4 16587.65,14591.86 16900.62,14502.98 16913.22,14512.65 16595.71,14488 16601.57,14412.53 "/>
  <path id="_95" class="fil0" d="M16801.98 14989.41l-144.07 -18.16c-25.2,-3.18 -46.24,-10.65 -63.13,-22.32 -16.93,-11.67 -29.1,-26.98 -36.48,-46.07 -7.25,-19.05 -9.42,-41.15 -6.28,-66.05 3.18,-25.45 10.56,-46.58 22.1,-63.51 11.54,-16.93 26.77,-29.15 45.65,-36.53 18.96,-7.38 40.6,-9.46 65.12,-6.36l249.71 31.44c25.79,3.27 47.47,10.69 64.95,22.4 17.48,11.71 29.99,27.19 37.59,46.33 7.59,19.09 9.76,41.11 6.62,66.1 -3.1,24.56 -10.52,44.97 -22.19,61.3 -11.71,16.33 -27.19,28.04 -46.45,35.04 -19.26,7 -41.45,8.91 -66.65,5.73l-37.12 -4.67 10.65 -84.47 37.12 4.67c7.81,0.98 14.64,0.47 20.49,-1.44 5.98,-1.99 10.78,-5.22 14.42,-9.8 3.56,-4.62 5.77,-10.18 6.62,-16.84 0.89,-7.25 0.13,-13.87 -2.59,-19.6 -2.59,-5.85 -6.83,-10.65 -12.68,-14.25 -5.73,-3.69 -12.9,-5.98 -21.3,-7.04l-249.71 -31.44c-6.92,-0.89 -13.07,-0.17 -18.67,2.12 -5.6,2.42 -10.1,6.19 -13.53,11.62 -3.56,5.43 -5.77,11.92 -6.75,19.73 -1.02,7.89 -0.38,15.02 1.7,21.21 2.21,6.15 5.81,11.2 10.86,14.93 5.13,3.86 11.62,6.15 19.3,7.13l65.93 8.32 5.09 -40.39 78.82 9.93 -15.23 120.87 0.09 0.07z"/>
  <polygon id="_96" class="fil0" points="16925.44,15493.03 16908.51,15568.55 16434.93,15462.32 16451.05,15390.36 16781.7,15464.57 16759.68,15464.73 16549.13,15345.31 16558.17,15304.96 16793.16,15285.49 16819.04,15298.18 16488.38,15223.98 16504.93,15150.37 16978.47,15256.6 16961.07,15334.11 16686.21,15354.94 "/>
  <path id="_97" class="fil0" d="M16862.78 15730.9l-15.4 56.04 -498.65 -17.1 21.81 -79.25 323.36 23.93 -290.05 -144.92 21.76 -79.12 437.22 240.38 -0.05 0.04zm-310.76 -123.92l-35.04 127.48 -74.62 -20.53 35.08 -127.48 74.62 20.53 -0.04 0z"/>
  <path id="_98" class="fil0" d="M16795.36 15954.18l-25.75 78.65 -461.24 -150.99 25.75 -78.65 461.24 150.99zm-396.32 -94.01l-54.43 166.26 -75.52 -24.69 54.43 -166.26 75.52 24.69z"/>
  <path id="_99" class="fil0" d="M16670.25 16306.86l-20.7 54.3 -494.71 -64.78 29.27 -76.79 319.58 54.81 -274.87 -172.07 29.27 -76.66 412.19 281.19 -0.03 0zm-297.43 -153.11l-47.13 123.54 -72.33 -27.58 47.13 -123.54 72.33 27.58z"/>
  <path id="_100" class="fil0" d="M16316.14 16478.34l201.26 191.12 -37.46 85.61 -298.58 -335.75 134.78 59.01 0 0.01zm265.49 44.41l-33.18 75.81 -444.61 -194.64 33.18 -75.81 444.61 194.64zm-240.38 -0.34l22.87 71.99 -334.94 -19.85 36.4 -83.11 275.72 31.01 -0.05 -0.04z"/>
  <path id="_101" class="fil0" d="M16408.2 16891.8l-25.88 52.05 -486.14 -112.25 36.57 -73.61 312.79 85.4 -256.92 -197.78 36.53 -73.52 383.09 319.67 -0.04 0.04zm-281.27 -181.11l-58.84 118.41 -69.32 -34.45 58.84 -118.41 69.32 34.45z"/>
  <path id="_102" class="fil0" d="M15826.48 16935.5c12.39,-22.19 27.19,-38.86 44.38,-50.15 17.14,-11.28 35.93,-16.84 56.3,-16.59 20.28,0.38 41.49,6.62 63.38,18.84l22.78 12.73 -39.62 72.25 -22.78 -12.73c-10.65,-5.94 -20.7,-7.55 -30.25,-5.01 -9.55,2.63 -17.22,9.29 -23.16,19.94 -5.9,10.52 -7.42,20.28 -4.58,29.44 2.8,8.99 9.46,16.5 19.9,22.36l36.99 20.7c7.85,4.37 15.74,5.94 23.97,4.79 8.23,-1.15 16.21,-3.99 24.27,-8.61 8.02,-4.54 18.33,-11.03 30.72,-19.64 0.85,-0.55 1.61,-1.06 2.42,-1.53 0.76,-0.47 1.57,-0.93 2.42,-1.53l3.82 -2.84c16.76,-11.28 32.62,-20.02 47.43,-26.22 14.76,-6.36 31.39,-9.21 49.72,-8.61 18.24,0.55 37.8,6.66 58.59,18.28l21.89 12.26c21.51,12.01 37.72,26.43 48.53,43.32 10.9,16.93 15.91,35.55 15.27,55.83 -0.64,20.28 -7.17,41.58 -19.52,63.64 -12.09,21.59 -26.52,37.8 -43.4,48.87 -16.84,10.95 -35.3,16.16 -55.49,15.61 -20.28,-0.64 -41.36,-7.08 -63.25,-19.3l-23.88 -13.36 39.33 -72.42 24.18 13.53c10.86,6.07 20.96,8.06 30.12,5.9 9.29,-2.12 16.55,-8.1 22.1,-18.07 5.85,-10.44 7.72,-20.11 5.3,-28.89 -2.33,-8.87 -8.27,-15.99 -18.03,-21.42l-28.25 -15.78c-7.98,-4.45 -15.99,-6.19 -24.18,-5.3 -8.23,0.89 -16.04,3.44 -23.5,7.47 -7.55,4.16 -17.22,10.22 -29.19,18.28 -2.21,1.61 -4.41,3.27 -6.83,4.79 -2.46,1.61 -4.84,3.31 -7.34,4.92 -0.42,0.3 -0.85,0.55 -1.15,0.64 -0.34,0.17 -0.76,0.47 -1.19,0.76 -17.56,11.33 -32.71,19.98 -45.56,25.71 -12.81,5.9 -27.83,8.61 -44.93,8.19 -17.01,-0.38 -35.89,-6.36 -56.47,-17.86l-35.3 -19.77c-21.89,-12.26 -38.39,-26.81 -49.42,-43.82 -10.99,-16.97 -16.21,-35.72 -15.7,-56.04 0.55,-20.32 6.87,-41.49 19.18,-63.47l-0.02 -0.09z"/>
  <polygon id="_103" class="fil0" points="15701.03,17150.46 15744.94,17080.29 16156.41,17337.64 16112.54,17407.81 "/>
  <polygon id="_104" class="fil0" points="16072.75,17473.57 16035.59,17526.98 15704.63,17435.6 15699.12,17420.79 15975.51,17613.23 15932.41,17675.17 15534.39,17398.05 15571.97,17344.05 15886.85,17425.8 15892.87,17440.52 15631.5,17258.56 15674.77,17196.45 "/>
  <polygon id="_105" class="fil0" points="15454.25,17507.38 15504.82,17441.92 15888.88,17738.63 15838.27,17804.14 "/>
  <path id="_106" class="fil0" d="M15254.73 17750.34c16.88,-19.73 34.87,-33.77 53.79,-42 18.92,-8.27 38.05,-10.65 57.27,-6.96 19.39,3.69 38.14,13.28 56.42,28.93l202.92 173.6c18.28,15.61 30.67,32.71 37.29,51.25 6.79,18.54 7.38,37.84 2.08,57.74 -5.3,19.9 -16.46,39.75 -33.35,59.52 -16.97,19.81 -34.79,33.85 -53.62,42.17 -18.84,8.36 -37.97,10.69 -57.4,6.96 -19.39,-3.69 -38.14,-13.28 -56.42,-28.89l-202.92 -173.6c-18.28,-15.65 -30.67,-32.71 -37.29,-51.25 -6.53,-18.5 -7.17,-37.76 -1.91,-57.74 5.26,-19.98 16.21,-39.84 33.18,-59.65l-0.04 -0.08zm62.87 53.8c-5.47,6.41 -8.91,13.07 -10.44,19.9 -1.4,6.87 -0.72,13.49 1.87,19.9 2.76,6.41 7.42,12.52 14.17,18.28l187.26 160.19c6.58,5.64 13.24,9.25 20.02,10.99 6.83,1.65 13.45,1.27 19.94,-1.23 6.49,-2.55 12.56,-6.96 18.03,-13.36 5.47,-6.41 8.91,-13.07 10.27,-19.73 1.4,-6.75 0.76,-13.32 -2.04,-19.73 -2.67,-6.49 -7.34,-12.43 -13.92,-18.07l-187.26 -160.19c-6.75,-5.77 -13.45,-9.55 -20.28,-11.2 -6.66,-1.65 -13.28,-1.32 -19.81,1.06 -6.36,2.33 -12.43,6.79 -17.9,13.19l0.09 0z"/>
  <path id="_107" class="fil0" d="M15066.15 17964.29c17.48,-18.45 35.93,-30.97 55.32,-37.72 19.43,-6.75 38.99,-7.51 58.63,-2.25 19.56,5.35 38.61,16.59 56.81,33.81l18.96 17.95 -56.17 60.33 -18.96 -17.95c-8.87,-8.4 -18.24,-12.39 -28.08,-12.3 -9.93,0.21 -18.96,4.79 -27.36,13.66 -8.32,8.78 -12.18,17.82 -11.67,27.41 0.51,9.42 5.09,18.33 13.79,26.56l30.8 29.15c6.53,6.19 13.79,9.63 22.06,10.52 8.23,0.89 16.72,0.08 25.67,-2.42 8.87,-2.42 20.45,-6.19 34.58,-11.5 0.98,-0.34 1.82,-0.59 2.72,-0.89 0.89,-0.25 1.74,-0.51 2.72,-0.89l4.37 -1.82c19.01,-6.83 36.53,-11.41 52.44,-13.79 15.91,-2.55 32.71,-1.23 50.36,3.86 17.56,5.01 35,15.74 52.31,32.12l18.2 17.22c17.9,16.93 30.08,34.87 36.4,53.92 6.41,19.09 6.7,38.35 1.1,57.87 -5.6,19.52 -17.14,38.52 -34.53,56.89 -17.01,17.99 -34.96,30.16 -54.05,36.74 -19.01,6.49 -38.18,7.04 -57.61,1.53 -19.52,-5.6 -38.35,-17.01 -56.59,-34.24l-19.85 -18.79 55.87 -60.58 20.11 19.05c9.04,8.53 18.33,12.94 27.79,13.11 9.5,0.21 18.03,-3.82 25.88,-12.09 8.23,-8.7 12.43,-17.61 12.26,-26.68 -0.08,-9.21 -4.12,-17.52 -12.22,-25.2l-23.5 -22.23c-6.62,-6.28 -14,-9.97 -22.15,-11.07 -8.19,-1.15 -16.38,-0.59 -24.65,1.48 -8.32,2.16 -19.18,5.68 -32.75,10.61 -2.55,1.06 -5.09,2.08 -7.81,2.97 -2.8,0.98 -5.52,1.99 -8.32,2.97 -0.47,0.17 -0.98,0.34 -1.27,0.34 -0.38,0.08 -0.89,0.25 -1.36,0.47 -19.81,6.66 -36.61,11.33 -50.48,13.75 -13.87,2.55 -29.06,1.53 -45.56,-3.1 -16.42,-4.54 -33.22,-14.98 -50.36,-31.18l-29.4 -27.79c-18.2,-17.22 -30.63,-35.42 -37.12,-54.6 -6.49,-19.18 -6.96,-38.61 -1.44,-58.16 5.52,-19.6 16.84,-38.52 34.15,-56.81l-0.04 -0.24z"/>
  <path id="_108" class="fil0" d="M15180.27 18547.88l-59.82 57.19 -335.28 -350.89 59.82 -57.15 335.28 350.89 0 -0.04zm107.12 -102.37l-59.82 57.15 -335.28 -350.89 59.82 -57.19 335.28 350.89 0 0.04zm-171.6 -122.65l-117.6 112.38 -53.79 -56.3 117.6 -112.38 53.79 56.3z"/>
  <polygon id="_109" class="fil0" points="14687.09,18347.89 14746.91,18290.7 15082.19,18641.59 15022.37,18698.78 "/>
  <path id="_110" class="fil0" d="M14803.76 18620.72l-66.18 57.15c-5.43,4.71 -9.29,9.67 -11.54,15.06 -2.25,5.26 -2.8,10.69 -1.74,16.12 1.06,5.26 3.86,10.56 8.15,15.57l35.38 40.98c4.75,5.52 9.97,9.46 15.44,11.79 5.56,2.25 11.2,2.67 16.97,1.48 5.77,-1.36 11.28,-4.33 16.76,-9.04l66.18 -57.15 51.93 60.12 -62.36 53.88c-19.94,17.22 -39.58,28.59 -59.27,34.28 -19.73,5.6 -38.69,5.39 -56.93,-0.68 -18.28,-6.19 -34.96,-18.03 -50.06,-35.51l-37.12 -42.98c-15.57,-18.03 -25.2,-36.65 -28.89,-55.92 -3.73,-19.35 -1.44,-38.52 6.87,-57.44 8.32,-18.92 22.36,-36.91 42.08,-53.96l62.36 -53.84 51.93 60.12 0.04 -0.03zm159.34 127.91l-61.35 52.95 -317.38 -367.61 61.35 -52.95 317.38 367.61zm-252.42 -132.62l-47.3 61.18 -212.72 -127.78 67.2 -58.04 192.82 124.6 0 0.04z"/>
  <polygon id="_111" class="fil0" points="14348.63,18625.51 14413.92,18574.65 14712.08,18957.61 14646.79,19008.43 "/>
  <path id="_112" class="fil0" d="M14211.72 18722.66c20.83,-14.59 41.41,-23.16 61.77,-25.88 20.36,-2.72 39.71,0.47 57.91,9.55 18.12,9.16 34.49,23.97 48.87,44.55l14.98 21.38 -67.12 47.81 -14.98 -21.38c-7,-9.97 -15.4,-15.78 -25.03,-17.69 -9.76,-1.78 -19.56,0.89 -29.57,7.89 -9.88,6.92 -15.48,15.02 -16.93,24.52 -1.4,9.33 1.32,18.96 8.19,28.76l24.31 34.75c5.18,7.38 11.58,12.18 19.52,14.72 7.89,2.55 16.33,3.44 25.62,2.8 9.21,-0.59 21.3,-1.99 36.19,-4.37 1.02,-0.13 1.91,-0.21 2.84,-0.3 0.93,-0.08 1.82,-0.17 2.84,-0.34l4.67 -0.89c19.98,-2.84 38.1,-3.86 54.13,-2.97 16.08,0.72 32.28,5.35 48.53,13.87 16.21,8.4 31.14,22.44 44.8,41.96l14.38 20.53c14.13,20.15 22.44,40.22 24.86,60.12 2.46,19.98 -1.15,38.9 -10.52,56.89 -9.38,17.99 -24.52,34.32 -45.27,48.83 -20.28,14.17 -40.3,22.53 -60.33,25.16 -19.94,2.55 -38.82,-0.76 -56.72,-10.1 -17.99,-9.38 -34.15,-24.35 -48.58,-44.88l-15.7 -22.4 66.9 -48.11 15.91 22.7c7.13,10.18 15.36,16.38 24.56,18.41 9.29,2.12 18.41,-0.13 27.75,-6.66 9.8,-6.87 15.7,-14.76 17.35,-23.72 1.74,-9.04 -0.51,-18.03 -6.92,-27.15l-18.58 -26.52c-5.22,-7.47 -11.71,-12.56 -19.47,-15.32 -7.76,-2.76 -15.91,-3.86 -24.44,-3.48 -8.61,0.47 -19.94,1.74 -34.24,3.78 -2.72,0.51 -5.43,1.02 -8.23,1.32 -2.93,0.38 -5.81,0.85 -8.74,1.23 -0.51,0.08 -1.02,0.17 -1.32,0.08 -0.42,0 -0.89,0.08 -1.4,0.17 -20.75,2.59 -38.14,3.78 -52.22,3.31 -14.13,-0.25 -28.76,-4.33 -44.04,-12.18 -15.15,-7.76 -29.53,-21.34 -43.06,-40.64l-23.21 -33.13c-14.38,-20.53 -22.91,-40.85 -25.45,-60.92 -2.5,-20.11 0.93,-39.2 10.27,-57.27 9.33,-18.07 24.22,-34.36 44.84,-48.83l0.08 0.04z"/>
  <path id="_113" class="fil0" d="M14207.52 19319.19l-70.08 43.99 -257.94 -411.09 70.08 -43.99 257.94 411.09zm125.5 -78.74l-70.08 43.99 -257.94 -411.09 70.08 -43.99 257.94 411.09zm-143.44 -154.63l-137.75 86.46 -41.36 -65.97 137.75 -86.46 41.36 65.97z"/>
  <polygon id="_114" class="fil0" points="13644.72,19091.67 13716.97,19051.28 13953.83,19474.85 13881.62,19515.28 "/>
  <polygon id="_115" class="fil0" points="13816.46,19557.41 13758.12,19586.3 13512.23,19346.68 13514.52,19331.03 13663.94,19632.88 13596.32,19666.35 13381.18,19231.67 13440.15,19202.53 13676.63,19425.93 13674.76,19441.71 13533.49,19156.33 13601.32,19122.73 "/>
  <path id="_116" class="fil0" d="M13222.05 19303.5c23.33,-10.14 45.18,-14.38 65.67,-12.98 20.49,1.4 38.82,8.4 54.81,20.96 15.91,12.6 28.98,30.42 38.99,53.41l10.39 23.93 -75.35 33.43 -10.39 -23.93c-4.84,-11.2 -11.92,-18.58 -21,-22.32 -9.21,-3.69 -19.35,-3.01 -30.55,1.82 -11.07,4.79 -18.2,11.62 -21.51,20.62 -3.22,8.87 -2.5,18.88 2.29,29.82l16.88 38.9c3.56,8.27 8.91,14.25 16.16,18.33 7.21,4.07 15.32,6.66 24.52,7.85 9.12,1.27 21.25,2.33 36.32,2.97 1.02,0.04 1.95,0.17 2.84,0.25 0.89,0.08 1.82,0.21 2.84,0.25l4.75 0.04c20.15,1.19 38.1,3.86 53.62,7.93 15.61,3.9 30.55,11.71 44.8,23.29 14.17,11.5 26.05,28.21 35.51,50.06l9.97 22.99c9.8,22.57 13.96,43.91 12.3,63.89 -1.61,20.07 -8.91,37.88 -21.72,53.62 -12.81,15.74 -30.93,28.72 -54.13,38.78 -22.7,9.84 -43.99,14 -64.15,12.56 -20.02,-1.48 -37.88,-8.53 -53.58,-21.21 -15.74,-12.81 -28.59,-30.72 -38.61,-53.71l-10.9 -25.07 75.18 -33.77 11.03 25.41c4.92,11.37 11.75,19.09 20.41,22.95 8.65,3.95 18.07,3.56 28.55,-0.98 10.99,-4.75 18.33,-11.33 21.72,-19.77 3.52,-8.48 3.1,-17.73 -1.36,-28l-12.9 -29.7c-3.65,-8.36 -8.95,-14.64 -16.04,-18.88 -7.08,-4.28 -14.85,-7 -23.25,-8.32 -8.53,-1.27 -19.9,-2.29 -34.28,-3.14 -2.76,-0.04 -5.52,-0.08 -8.36,-0.34 -2.97,-0.21 -5.85,-0.34 -8.82,-0.51 -0.51,-0.04 -1.02,-0.04 -1.32,-0.17 -0.38,-0.08 -0.89,-0.08 -1.4,-0.13 -20.83,-1.61 -38.14,-3.95 -51.84,-7.21 -13.79,-3.1 -27.32,-10.01 -40.68,-20.75 -13.32,-10.65 -24.69,-26.81 -34.07,-48.49l-16.12 -37.12c-9.97,-22.99 -14.3,-44.63 -12.73,-64.78 1.57,-20.19 8.74,-38.22 21.51,-54.09 12.77,-15.87 30.63,-28.81 53.71,-38.86l0.29 0.17z"/>
  <path id="_117" class="fil0" d="M13173.6 19816.49l-77.47 29.1 -156.46 -416.18 77.47 -29.15 156.46 416.18 0 0.05zm89.31 9.88l-227.48 85.53 -27.96 -74.37 227.48 -85.53 27.96 74.37z"/>
  <polygon id="_118" class="fil0" points="12756.49,19498.31 12833.95,19469.16 13004.75,19923.48 12927.29,19952.59 "/>
  <path id="_119" class="fil0" d="M12772.78 19962.9l-78.82 25.24 -135.67 -423.56 78.82 -25.24 135.67 423.56zm88.71 14.29l-231.42 74.16 -24.22 -75.64 231.42 -74.16 24.22 75.64z"/>
  <path id="_120" class="fil0" d="M12349.43 19621.72c23.25,-6.19 44.55,-6.79 63.89,-2.04 19.35,4.88 35.85,14.98 49.38,30.33 13.58,15.48 23.63,35.47 30.25,60.24l94.82 355.39 -80.31 21.42 -95.41 -357.68c-3.01,-11.37 -8.15,-19.52 -15.44,-24.31 -7.34,-4.88 -15.87,-6.02 -25.79,-3.39 -10.14,2.72 -17.22,8.02 -21.13,15.91 -4.03,7.81 -4.54,17.48 -1.53,28.85l95.45 357.72 -80.27 21.42 -94.82 -355.39c-6.62,-24.78 -7.85,-47.09 -3.69,-67.33 4.2,-20.11 13.58,-37.12 27.92,-50.99 14.38,-13.75 33.26,-23.84 56.72,-30.12l-0.04 -0.03z"/>
  <path id="_121" class="fil0" d="M12233.82 20116.39l-80.9 17.39 -93.42 -434.72 80.9 -17.39 93.46 434.72 -0.04 0zm86.88 22.95l-237.58 51.08 -16.67 -77.68 237.58 -51.08 16.72 77.68 -0.05 0z"/>
  <polygon id="_122" class="fil0" points="11868.16,19740.17 11949.07,19722.82 12051.06,20197.29 11970.15,20214.68 "/>
  <g id="_1826070619856">
   <path class="fil0" d="M10517.25 19709.96l147.76 0 129.99 -129.99 129.99 129.99 183.82 0 0 183.82 129.99 129.99 -129.99 129.99 0 183.82 -183.82 0 -129.99 129.99 -129.99 -129.99 -183.82 0 0 -183.82 -129.99 -129.99 129.99 -129.99 0 -183.82 36.06 0zm162.7 72.12l-126.64 0 0 141.57 -100.12 100.12 100.12 100.12 0 141.57 141.57 0 100.12 100.12 100.12 -100.12 141.57 0 0 -141.57 100.12 -100.12 -100.12 -100.12 0 -141.57 -141.57 0 -100.12 -100.12 -100.12 100.12 -14.93 0z"/>
   <path class="fil1" d="M10760.76 19850.73c50.32,0 95.62,21.51 127.23,55.79 -23.72,-17.1 -52.86,-27.15 -84.34,-27.15 -79.8,0 -144.45,64.65 -144.45,144.45 0,79.8 64.7,144.45 144.45,144.45 31.48,0 60.58,-10.05 84.34,-27.15 -31.61,34.28 -76.92,55.79 -127.23,55.79 -95.58,0 -173.05,-77.47 -173.05,-173.05 0,-95.58 77.47,-173.05 173.05,-173.05l0 -0.08z"/>
   <polygon class="fil1" points="10887.36,19920.77 10914.38,20004.47 11002.29,20004.3 10931.05,20055.85 10958.38,20139.42 10887.36,20087.58 10816.34,20139.42 10843.66,20055.85 10772.43,20004.3 10860.33,20004.47 "/>
  </g>
 </g>
</svg>
