<svg width="739" height="282" viewBox="0 0 739 282" fill="none" xmlns="http://www.w3.org/2000/svg">
<path d="M97.1228 343.057C97.1228 369.772 75.5044 391.428 48.8368 391.428C22.1693 391.428 0.550903 369.772 0.550903 343.057C0.550903 316.343 22.1693 294.686 48.8368 294.686C75.5044 294.686 97.1228 316.343 97.1228 343.057Z" fill="#CED9E0"/>
<path d="M194.675 366.383C194.675 393.234 172.837 415 145.899 415C118.961 415 97.1228 393.234 97.1228 366.383C97.1228 339.533 118.961 317.767 145.899 317.767C172.837 317.767 194.675 339.533 194.675 366.383Z" fill="#CED9E0"/>
<path d="M367.72 283.637C367.72 302.486 352.466 317.767 333.65 317.767C314.834 317.767 299.581 302.486 299.581 283.637C299.581 264.787 314.834 249.507 333.65 249.507C352.466 249.507 367.72 264.787 367.72 283.637Z" fill="#CED9E0"/>
<path d="M427.526 289.53C427.526 308.379 412.272 323.66 393.456 323.66C374.64 323.66 359.386 308.379 359.386 289.53C359.386 270.68 374.64 255.4 393.456 255.4C412.272 255.4 427.526 270.68 427.526 289.53Z" fill="#CED9E0"/>
<path d="M450.566 265.958C450.566 278.57 440.36 288.793 427.771 288.793C415.182 288.793 404.976 278.57 404.976 265.958C404.976 253.347 415.182 243.123 427.771 243.123C440.36 243.123 450.566 253.347 450.566 265.958Z" fill="#CED9E0"/>
<path d="M536.353 244.351C536.353 256.962 526.148 267.186 513.558 267.186C500.969 267.186 490.763 256.962 490.763 244.351C490.763 231.739 500.969 221.516 513.558 221.516C526.148 221.516 536.353 231.739 536.353 244.351Z" fill="#CED9E0"/>
<path d="M669.478 274.034C667.216 287.954 654.009 297.384 639.98 295.096C625.951 292.808 616.412 279.669 618.675 265.749C620.937 251.829 634.143 242.4 648.172 244.687C662.201 246.975 671.74 260.114 669.478 274.034Z" fill="#CED9E0"/>
<path d="M738.111 276.52C735.827 290.574 722.603 300.112 708.574 297.824C694.545 295.536 685.023 282.289 687.307 268.235C689.591 254.181 702.815 244.643 716.844 246.931C730.873 249.219 740.395 262.467 738.111 276.52Z" fill="#CED9E0"/>
<path d="M695.825 283.058C694.324 292.293 685.634 298.561 676.415 297.058C667.196 295.554 660.939 286.848 662.44 277.613C663.941 268.378 672.631 262.11 681.85 263.613C691.069 265.117 697.326 273.823 695.825 283.058Z" fill="#CED9E0"/>
<path d="M507.431 254.909C507.431 273.623 492.067 288.793 473.116 288.793C454.164 288.793 438.801 273.623 438.801 254.909C438.801 236.195 454.164 221.024 473.116 221.024C492.067 221.024 507.431 236.195 507.431 254.909Z" fill="#CED9E0"/>
<path d="M638.197 249.529C635.37 266.929 618.997 278.738 601.628 275.905C584.258 273.072 572.47 256.671 575.298 239.271C578.125 221.871 594.498 210.062 611.868 212.894C629.237 215.727 641.025 232.129 638.197 249.529Z" fill="#CED9E0"/>
<path d="M310.855 303.771C310.855 314.755 302.076 323.66 291.247 323.66C280.417 323.66 271.638 314.755 271.638 303.771C271.638 292.787 280.417 283.882 291.247 283.882C302.076 283.882 310.855 292.787 310.855 303.771Z" fill="#CED9E0"/>
<path d="M117.712 346.004C117.712 356.988 108.713 365.892 97.613 365.892C86.5128 365.892 77.5143 356.988 77.5143 346.004C77.5143 335.019 86.5128 326.115 97.613 326.115C108.713 326.115 117.712 335.019 117.712 346.004Z" fill="#CED9E0"/>
<path d="M222.617 346.004C222.617 356.988 213.728 365.892 202.764 365.892C191.799 365.892 182.91 356.988 182.91 346.004C182.91 335.019 191.799 326.115 202.764 326.115C213.728 326.115 222.617 335.019 222.617 346.004Z" fill="#CED9E0"/>
<path d="M250.559 346.004C250.559 356.988 241.78 365.892 230.951 365.892C220.121 365.892 211.342 356.988 211.342 346.004C211.342 335.019 220.121 326.115 230.951 326.115C241.78 326.115 250.559 335.019 250.559 346.004Z" fill="#CED9E0"/>
<path d="M298.391 327.722C303.197 339.7 295.284 354.165 280.717 360.03C266.15 365.894 250.445 360.938 245.64 348.959C240.834 336.981 248.747 322.516 263.314 316.651C277.881 310.787 293.586 315.743 298.391 327.722Z" fill="#CED9E0"/>
<path d="M517.494 223.528C545.744 212.371 553.52 168.103 553.877 147.363H572.068C560.939 194.564 603.1 222.812 625.572 231.037L549.596 257.855C527.125 251.061 489.244 234.684 517.494 223.528Z" fill="#CED9E0"/>
<path d="M205.705 350.178L27.5126 332.253V363.191H736.36L732.438 273.079H717.977C713.32 273.079 705.476 273.079 692.976 275.78C680.476 278.481 676.309 279.217 652.534 273.079C628.758 266.94 636.357 267.677 626.552 261.293C616.748 254.909 595.669 242.877 589.296 240.668C582.923 238.458 562.825 237.967 549.834 236.985C536.843 236.002 491.254 260.802 482.185 261.293C473.116 261.784 457.184 268.905 441.987 272.588C426.791 276.271 403.26 284.128 389.044 284.619C377.671 285.012 342.964 291.494 327.032 294.686C317.637 299.597 298.306 309.664 296.149 310.646C293.453 311.874 256.687 342.075 253.501 342.075C250.951 342.075 220.575 347.477 205.705 350.178Z" fill="#CED9E0"/>
<path d="M135.774 346.214C135.774 370.55 115.934 390.277 91.4589 390.277C66.9842 390.277 47.1436 370.55 47.1436 346.214C47.1436 321.879 66.9842 302.152 91.4589 302.152C115.934 302.152 135.774 321.879 135.774 346.214Z" fill="white"/>
<path d="M225.304 367.463C225.304 391.922 205.262 411.749 180.539 411.749C155.816 411.749 135.774 391.922 135.774 367.463C135.774 343.004 155.816 323.177 180.539 323.177C205.262 323.177 225.304 343.004 225.304 367.463Z" fill="white"/>
<path d="M384.12 292.087C384.12 309.257 370.12 323.177 352.852 323.177C335.583 323.177 321.583 309.257 321.583 292.087C321.583 274.916 335.583 260.997 352.852 260.997C370.12 260.997 384.12 274.916 384.12 292.087Z" fill="white"/>
<path d="M439.008 297.455C439.008 314.625 425.008 328.545 407.739 328.545C390.471 328.545 376.471 314.625 376.471 297.455C376.471 280.284 390.471 266.365 407.739 266.365C425.008 266.365 439.008 280.284 439.008 297.455Z" fill="white"/>
<path d="M460.153 275.982C460.153 287.471 450.787 296.784 439.233 296.784C427.679 296.784 418.312 287.471 418.312 275.982C418.312 264.494 427.679 255.181 439.233 255.181C450.787 255.181 460.153 264.494 460.153 275.982Z" fill="white"/>
<path d="M538.886 256.3C538.886 267.788 529.519 277.101 517.965 277.101C506.411 277.101 497.045 267.788 497.045 256.3C497.045 244.811 506.411 235.498 517.965 235.498C529.519 235.498 538.886 244.811 538.886 256.3Z" fill="white"/>
<path d="M661.064 283.339C658.987 296.019 646.867 304.609 633.991 302.525C621.116 300.441 612.362 288.472 614.438 275.792C616.514 263.112 628.634 254.522 641.51 256.606C654.385 258.691 663.14 270.659 661.064 283.339Z" fill="white"/>
<path d="M724.052 285.604C721.956 298.406 709.819 307.095 696.944 305.01C684.069 302.926 675.33 290.859 677.427 278.057C679.523 265.255 691.659 256.566 704.535 258.65C717.41 260.734 726.148 272.802 724.052 285.604Z" fill="white"/>
<path d="M685.244 291.559C683.866 299.972 675.891 305.682 667.43 304.312C658.969 302.942 653.227 295.012 654.604 286.599C655.982 278.187 663.957 272.477 672.418 273.847C680.879 275.216 686.621 283.146 685.244 291.559Z" fill="white"/>
<path d="M512.342 265.917C512.342 282.964 498.242 296.784 480.848 296.784C463.455 296.784 449.355 282.964 449.355 265.917C449.355 248.87 463.455 235.051 480.848 235.051C498.242 235.051 512.342 248.87 512.342 265.917Z" fill="white"/>
<path d="M632.355 261.016C629.76 276.867 614.733 287.624 598.792 285.043C582.852 282.463 572.033 267.522 574.628 251.672C577.223 235.822 592.249 225.065 608.19 227.645C624.131 230.226 634.95 245.166 632.355 261.016Z" fill="white"/>
<path d="M331.931 310.427C331.931 320.433 323.874 328.545 313.935 328.545C303.996 328.545 295.939 320.433 295.939 310.427C295.939 300.422 303.996 292.31 313.935 292.31C323.874 292.31 331.931 300.422 331.931 310.427Z" fill="white"/>
<path d="M154.67 348.898C154.67 358.904 146.411 367.016 136.224 367.016C126.037 367.016 117.778 358.904 117.778 348.898C117.778 338.893 126.037 330.781 136.224 330.781C146.411 330.781 154.67 338.893 154.67 348.898Z" fill="white"/>
<path d="M250.949 348.898C250.949 358.904 242.791 367.016 232.728 367.016C222.665 367.016 214.507 358.904 214.507 348.898C214.507 338.893 222.665 330.781 232.728 330.781C242.791 330.781 250.949 338.893 250.949 348.898Z" fill="white"/>
<path d="M276.593 348.898C276.593 358.904 268.536 367.016 258.597 367.016C248.658 367.016 240.601 358.904 240.601 348.898C240.601 338.893 248.658 330.781 258.597 330.781C268.536 330.781 276.593 338.893 276.593 348.898Z" fill="white"/>
<path d="M320.492 332.245C324.902 343.157 317.64 356.333 304.271 361.675C290.902 367.017 276.489 362.503 272.078 351.591C267.668 340.679 274.93 327.503 288.299 322.16C301.668 316.818 316.082 321.333 320.492 332.245Z" fill="white"/>
<path d="M521.577 237.331C547.504 227.168 554.641 186.843 554.968 167.95H571.664C561.45 210.947 600.144 236.68 620.768 244.172L551.04 268.601C530.416 262.412 495.65 247.494 521.577 237.331Z" fill="white"/>
<path d="M235.427 352.701L71.8882 336.373V364.555H722.445L718.846 282.469H705.574C701.3 282.469 694.102 282.469 682.629 284.929C671.157 287.39 667.332 288.061 645.512 282.469C623.692 276.877 630.666 277.548 621.668 271.733C612.67 265.917 593.324 254.958 587.475 252.945C581.626 250.932 563.18 250.484 551.258 249.59C539.336 248.695 497.495 271.285 489.172 271.733C480.848 272.18 466.227 278.666 452.28 282.022C438.333 285.377 416.737 292.534 403.69 292.981C393.253 293.339 361.4 299.244 346.778 302.152C338.155 306.625 320.414 315.796 318.434 316.69C315.96 317.809 282.217 345.32 279.293 345.32C276.953 345.32 249.074 350.24 235.427 352.701Z" fill="white"/>
<path d="M616.52 77.5313L589.767 65.5872V117.039L624.823 139.09L616.52 77.5313Z" fill="#06989D"/>
<path d="M505.671 77.5313L529.835 65.5872V117.039L498.172 139.09L505.671 77.5313Z" fill="#06989D"/>
<path d="M560.366 139.144V128.159V117.174V0C560.366 0 543.281 7.27548 531.663 41.834C524.979 61.715 521.947 80.2777 520.245 99.7806C519.151 112.314 519.76 125.412 520.643 139.144H528.588V146.467H537.9V153.79H560.366V146.467V139.144Z" fill="#EBF1F5"/>
<path d="M560.366 139.144V128.159V117.174V0C560.366 0 577.926 7.27548 589.867 41.834C596.736 61.715 599.853 80.2777 601.602 99.7806C602.727 112.314 602.101 125.412 601.193 139.144H593.028V146.467H583.457V153.79H560.366V146.467V139.144Z" fill="white"/>
<path d="M551.348 165.098C557.356 165.098 561.514 165.098 571.681 165.098C582.869 165.098 574.453 197.333 571.681 197.333C568.908 197.333 561.514 210.331 561.514 210.331C561.514 210.331 555.507 197.333 551.348 197.333C547.189 197.333 540.968 165.098 551.348 165.098Z" fill="#E36018"/>
<path d="M553.113 165.098C558.076 165.098 561.511 165.098 569.91 165.098C579.152 165.098 572.2 189.274 569.91 189.274C567.619 189.274 561.511 199.023 561.511 199.023C561.511 199.023 556.549 189.274 553.113 189.274C549.678 189.274 544.539 165.098 553.113 165.098Z" fill="#FFAE44"/>
<path d="M555.761 165.098C559.156 165.098 561.507 165.098 567.253 165.098C573.577 165.098 568.82 181.216 567.253 181.216C565.686 181.216 561.507 187.715 561.507 187.715C561.507 187.715 558.111 181.216 555.761 181.216C553.41 181.216 549.894 165.098 555.761 165.098Z" fill="#FCE25E"/>
<path d="M542.273 153.79H579.59L577.329 167.36H545.666L542.273 153.79Z" fill="#5B6575"/>
<circle cx="560.599" cy="38.4475" r="13.093" fill="#06989D" stroke="#5B6575" stroke-width="10"/>
<path d="M552.234 78.831L560.15 66.7179L568.065 78.831L560.15 156.052L552.234 78.831Z" fill="#06989D"/>
</svg>
